%TF.GenerationSoftware,KiCad,Pcbnew,8.0.4*%
%TF.CreationDate,2024-07-23T16:26:46+02:00*%
%TF.ProjectId,Vertigo Pro PR1,56657274-6967-46f2-9050-726f20505231,DPR1*%
%TF.SameCoordinates,Original*%
%TF.FileFunction,Drillmap*%
%TF.FilePolarity,Positive*%
%FSLAX45Y45*%
G04 Gerber Fmt 4.5, Leading zero omitted, Abs format (unit mm)*
G04 Created by KiCad (PCBNEW 8.0.4) date 2024-07-23 16:26:46*
%MOMM*%
%LPD*%
G01*
G04 APERTURE LIST*
%ADD10C,0.050000*%
%ADD11C,0.200000*%
%ADD12C,0.100000*%
%ADD13C,0.120000*%
%ADD14C,0.190000*%
G04 APERTURE END LIST*
D10*
X16975000Y-6875000D02*
X12750000Y-6875000D01*
X17125000Y-14900000D02*
X17125000Y-7025000D01*
X17125000Y-14900000D02*
G75*
G02*
X16975000Y-15050000I-150000J0D01*
G01*
X12750000Y-15050000D02*
X16975000Y-15050000D01*
X12600000Y-7025000D02*
X12600000Y-14900000D01*
X16975000Y-6875000D02*
G75*
G02*
X17125000Y-7025000I0J-150000D01*
G01*
X12750000Y-15050000D02*
G75*
G02*
X12600000Y-14900000I0J150000D01*
G01*
X12600000Y-7025000D02*
G75*
G02*
X12750000Y-6875000I150000J0D01*
G01*
D11*
D12*
X12725000Y-7575000D02*
X12755000Y-7605000D01*
X12755000Y-7575000D02*
X12725000Y-7605000D01*
X12725000Y-7685000D02*
X12755000Y-7715000D01*
X12755000Y-7685000D02*
X12725000Y-7715000D01*
X12750000Y-13955000D02*
X12780000Y-13985000D01*
X12780000Y-13955000D02*
X12750000Y-13985000D01*
X12755000Y-14180000D02*
X12785000Y-14210000D01*
X12785000Y-14180000D02*
X12755000Y-14210000D01*
X12760000Y-14410000D02*
X12790000Y-14440000D01*
X12790000Y-14410000D02*
X12760000Y-14440000D01*
X12760000Y-14645000D02*
X12790000Y-14675000D01*
X12790000Y-14645000D02*
X12760000Y-14675000D01*
X12765000Y-14875000D02*
X12795000Y-14905000D01*
X12795000Y-14875000D02*
X12765000Y-14905000D01*
X12792500Y-8295000D02*
X12822500Y-8325000D01*
X12822500Y-8295000D02*
X12792500Y-8325000D01*
X12825000Y-8645000D02*
X12855000Y-8675000D01*
X12855000Y-8645000D02*
X12825000Y-8675000D01*
X12830000Y-9265000D02*
X12860000Y-9295000D01*
X12860000Y-9265000D02*
X12830000Y-9295000D01*
X12845000Y-8440000D02*
X12875000Y-8470000D01*
X12875000Y-8440000D02*
X12845000Y-8470000D01*
X12865000Y-7575000D02*
X12895000Y-7605000D01*
X12895000Y-7575000D02*
X12865000Y-7605000D01*
X12925000Y-10820000D02*
X12955000Y-10850000D01*
X12955000Y-10820000D02*
X12925000Y-10850000D01*
X12935000Y-7915000D02*
X12965000Y-7945000D01*
X12965000Y-7915000D02*
X12935000Y-7945000D01*
X12965000Y-8925000D02*
X12995000Y-8955000D01*
X12995000Y-8925000D02*
X12965000Y-8955000D01*
X12970000Y-14135000D02*
X13000000Y-14165000D01*
X13000000Y-14135000D02*
X12970000Y-14165000D01*
X12975000Y-12385000D02*
X13005000Y-12415000D01*
X13005000Y-12385000D02*
X12975000Y-12415000D01*
X12985000Y-9265000D02*
X13015000Y-9295000D01*
X13015000Y-9265000D02*
X12985000Y-9295000D01*
X12995000Y-7575000D02*
X13025000Y-7605000D01*
X13025000Y-7575000D02*
X12995000Y-7605000D01*
X12995000Y-11755000D02*
X13025000Y-11785000D01*
X13025000Y-11755000D02*
X12995000Y-11785000D01*
X12995000Y-11865000D02*
X13025000Y-11895000D01*
X13025000Y-11865000D02*
X12995000Y-11895000D01*
X12995000Y-11975000D02*
X13025000Y-12005000D01*
X13025000Y-11975000D02*
X12995000Y-12005000D01*
X13015000Y-12875000D02*
X13045000Y-12905000D01*
X13045000Y-12875000D02*
X13015000Y-12905000D01*
X13025000Y-13475000D02*
X13055000Y-13505000D01*
X13055000Y-13475000D02*
X13025000Y-13505000D01*
X13045000Y-13953732D02*
X13075000Y-13983732D01*
X13075000Y-13953732D02*
X13045000Y-13983732D01*
X13045000Y-14070000D02*
X13075000Y-14100000D01*
X13075000Y-14070000D02*
X13045000Y-14100000D01*
X13055000Y-8795000D02*
X13085000Y-8825000D01*
X13085000Y-8795000D02*
X13055000Y-8825000D01*
X13060000Y-8110000D02*
X13090000Y-8140000D01*
X13090000Y-8110000D02*
X13060000Y-8140000D01*
X13060000Y-8175000D02*
X13090000Y-8205000D01*
X13090000Y-8175000D02*
X13060000Y-8205000D01*
X13060500Y-8240500D02*
X13090500Y-8270500D01*
X13090500Y-8240500D02*
X13060500Y-8270500D01*
X13065000Y-10820000D02*
X13095000Y-10850000D01*
X13095000Y-10820000D02*
X13065000Y-10850000D01*
X13075000Y-14535000D02*
X13105000Y-14565000D01*
X13105000Y-14535000D02*
X13075000Y-14565000D01*
X13075000Y-14715000D02*
X13105000Y-14745000D01*
X13105000Y-14715000D02*
X13075000Y-14745000D01*
X13075000Y-14885000D02*
X13105000Y-14915000D01*
X13105000Y-14885000D02*
X13075000Y-14915000D01*
X13125000Y-8925000D02*
X13155000Y-8955000D01*
X13155000Y-8925000D02*
X13125000Y-8955000D01*
X13135000Y-13585000D02*
X13165000Y-13615000D01*
X13165000Y-13585000D02*
X13135000Y-13615000D01*
X13155000Y-14075000D02*
X13185000Y-14105000D01*
X13185000Y-14075000D02*
X13155000Y-14105000D01*
X13205000Y-10820000D02*
X13235000Y-10850000D01*
X13235000Y-10820000D02*
X13205000Y-10850000D01*
X13215000Y-8175000D02*
X13245000Y-8205000D01*
X13245000Y-8175000D02*
X13215000Y-8205000D01*
X13222500Y-8802500D02*
X13252500Y-8832500D01*
X13252500Y-8802500D02*
X13222500Y-8832500D01*
X13227500Y-10027500D02*
X13257500Y-10057500D01*
X13257500Y-10027500D02*
X13227500Y-10057500D01*
X13235000Y-13475000D02*
X13265000Y-13505000D01*
X13265000Y-13475000D02*
X13235000Y-13505000D01*
X13255000Y-10995000D02*
X13285000Y-11025000D01*
X13285000Y-10995000D02*
X13255000Y-11025000D01*
X13255000Y-11205000D02*
X13285000Y-11235000D01*
X13285000Y-11205000D02*
X13255000Y-11235000D01*
X13255000Y-11415000D02*
X13285000Y-11445000D01*
X13285000Y-11415000D02*
X13255000Y-11445000D01*
X13270000Y-12875000D02*
X13300000Y-12905000D01*
X13300000Y-12875000D02*
X13270000Y-12905000D01*
X13280000Y-14360000D02*
X13310000Y-14390000D01*
X13310000Y-14360000D02*
X13280000Y-14390000D01*
X13290000Y-14845000D02*
X13320000Y-14875000D01*
X13320000Y-14845000D02*
X13290000Y-14875000D01*
X13305000Y-9275000D02*
X13335000Y-9305000D01*
X13335000Y-9275000D02*
X13305000Y-9305000D01*
X13315000Y-8445000D02*
X13345000Y-8475000D01*
X13345000Y-8445000D02*
X13315000Y-8475000D01*
X13355000Y-8175000D02*
X13385000Y-8205000D01*
X13385000Y-8175000D02*
X13355000Y-8205000D01*
X13360000Y-12577500D02*
X13390000Y-12607500D01*
X13390000Y-12577500D02*
X13360000Y-12607500D01*
X13360000Y-12650000D02*
X13390000Y-12680000D01*
X13390000Y-12650000D02*
X13360000Y-12680000D01*
X13360000Y-14845000D02*
X13390000Y-14875000D01*
X13390000Y-14845000D02*
X13360000Y-14875000D01*
X13395000Y-10995000D02*
X13425000Y-11025000D01*
X13425000Y-10995000D02*
X13395000Y-11025000D01*
X13395000Y-11205000D02*
X13425000Y-11235000D01*
X13425000Y-11205000D02*
X13395000Y-11235000D01*
X13395000Y-11415000D02*
X13425000Y-11445000D01*
X13425000Y-11415000D02*
X13395000Y-11445000D01*
X13400469Y-10570469D02*
X13430469Y-10600469D01*
X13430469Y-10570469D02*
X13400469Y-10600469D01*
X13405000Y-7895000D02*
X13435000Y-7925000D01*
X13435000Y-7895000D02*
X13405000Y-7925000D01*
X13450000Y-13600000D02*
X13480000Y-13630000D01*
X13480000Y-13600000D02*
X13450000Y-13630000D01*
X13455000Y-9145000D02*
X13485000Y-9175000D01*
X13485000Y-9145000D02*
X13455000Y-9175000D01*
X13490000Y-14845000D02*
X13520000Y-14875000D01*
X13520000Y-14845000D02*
X13490000Y-14875000D01*
X13495000Y-8175000D02*
X13525000Y-8205000D01*
X13525000Y-8175000D02*
X13495000Y-8205000D01*
X13505000Y-8010000D02*
X13535000Y-8040000D01*
X13535000Y-8010000D02*
X13505000Y-8040000D01*
X13510000Y-12875000D02*
X13540000Y-12905000D01*
X13540000Y-12875000D02*
X13510000Y-12905000D01*
X13515000Y-14385000D02*
X13545000Y-14415000D01*
X13545000Y-14385000D02*
X13515000Y-14415000D01*
X13520000Y-10335000D02*
X13550000Y-10365000D01*
X13550000Y-10335000D02*
X13520000Y-10365000D01*
X13555000Y-12345000D02*
X13585000Y-12375000D01*
X13585000Y-12345000D02*
X13555000Y-12375000D01*
X13555000Y-12535000D02*
X13585000Y-12565000D01*
X13585000Y-12535000D02*
X13555000Y-12565000D01*
X13560000Y-14845000D02*
X13590000Y-14875000D01*
X13590000Y-14845000D02*
X13560000Y-14875000D01*
X13565000Y-9605000D02*
X13595000Y-9635000D01*
X13595000Y-9605000D02*
X13565000Y-9635000D01*
X13575000Y-8855000D02*
X13605000Y-8885000D01*
X13605000Y-8855000D02*
X13575000Y-8885000D01*
X13575000Y-8995000D02*
X13605000Y-9025000D01*
X13605000Y-8995000D02*
X13575000Y-9025000D01*
X13575000Y-9145000D02*
X13605000Y-9175000D01*
X13605000Y-9145000D02*
X13575000Y-9175000D01*
X13615000Y-10570000D02*
X13645000Y-10600000D01*
X13645000Y-10570000D02*
X13615000Y-10600000D01*
X13620000Y-13465000D02*
X13650000Y-13495000D01*
X13650000Y-13465000D02*
X13620000Y-13495000D01*
X13620000Y-13600000D02*
X13650000Y-13630000D01*
X13650000Y-13600000D02*
X13620000Y-13630000D01*
X13675000Y-12335000D02*
X13705000Y-12365000D01*
X13705000Y-12335000D02*
X13675000Y-12365000D01*
X13675000Y-14445000D02*
X13705000Y-14475000D01*
X13705000Y-14445000D02*
X13675000Y-14475000D01*
X13677500Y-7875000D02*
X13707500Y-7905000D01*
X13707500Y-7875000D02*
X13677500Y-7905000D01*
X13680000Y-8655000D02*
X13710000Y-8685000D01*
X13710000Y-8655000D02*
X13680000Y-8685000D01*
X13715000Y-8215000D02*
X13745000Y-8245000D01*
X13745000Y-8215000D02*
X13715000Y-8245000D01*
X13715000Y-12515000D02*
X13745000Y-12545000D01*
X13745000Y-12515000D02*
X13715000Y-12545000D01*
X13735000Y-14075000D02*
X13765000Y-14105000D01*
X13765000Y-14075000D02*
X13735000Y-14105000D01*
X13735000Y-14715000D02*
X13765000Y-14745000D01*
X13765000Y-14715000D02*
X13735000Y-14745000D01*
X13735000Y-14885000D02*
X13765000Y-14915000D01*
X13765000Y-14885000D02*
X13735000Y-14915000D01*
X13750000Y-8065000D02*
X13780000Y-8095000D01*
X13780000Y-8065000D02*
X13750000Y-8095000D01*
X13750000Y-8655000D02*
X13780000Y-8685000D01*
X13780000Y-8655000D02*
X13750000Y-8685000D01*
X13750000Y-14445000D02*
X13780000Y-14475000D01*
X13780000Y-14445000D02*
X13750000Y-14475000D01*
X13752166Y-11772500D02*
X13782166Y-11802500D01*
X13782166Y-11772500D02*
X13752166Y-11802500D01*
X13770000Y-13465000D02*
X13800000Y-13495000D01*
X13800000Y-13465000D02*
X13770000Y-13495000D01*
X13770000Y-13600000D02*
X13800000Y-13630000D01*
X13800000Y-13600000D02*
X13770000Y-13630000D01*
X13790000Y-10720000D02*
X13820000Y-10750000D01*
X13820000Y-10720000D02*
X13790000Y-10750000D01*
X13814666Y-11885000D02*
X13844666Y-11915000D01*
X13844666Y-11885000D02*
X13814666Y-11915000D01*
X13815000Y-12965000D02*
X13845000Y-12995000D01*
X13845000Y-12965000D02*
X13815000Y-12995000D01*
X13815000Y-14145000D02*
X13845000Y-14175000D01*
X13845000Y-14145000D02*
X13815000Y-14175000D01*
X13816019Y-12616019D02*
X13846019Y-12646019D01*
X13846019Y-12616019D02*
X13816019Y-12646019D01*
X13890000Y-13347700D02*
X13920000Y-13377700D01*
X13920000Y-13347700D02*
X13890000Y-13377700D01*
X13917000Y-12942000D02*
X13947000Y-12972000D01*
X13947000Y-12942000D02*
X13917000Y-12972000D01*
X13945000Y-9770000D02*
X13975000Y-9800000D01*
X13975000Y-9770000D02*
X13945000Y-9800000D01*
X13946000Y-10188000D02*
X13976000Y-10218000D01*
X13976000Y-10188000D02*
X13946000Y-10218000D01*
X13950000Y-10290000D02*
X13980000Y-10320000D01*
X13980000Y-10290000D02*
X13950000Y-10320000D01*
X13950000Y-10390000D02*
X13980000Y-10420000D01*
X13980000Y-10390000D02*
X13950000Y-10420000D01*
X13960000Y-10825000D02*
X13990000Y-10855000D01*
X13990000Y-10825000D02*
X13960000Y-10855000D01*
X13972500Y-11341020D02*
X14002500Y-11371020D01*
X14002500Y-11341020D02*
X13972500Y-11371020D01*
X13985000Y-14415000D02*
X14015000Y-14445000D01*
X14015000Y-14415000D02*
X13985000Y-14445000D01*
X13995000Y-14665000D02*
X14025000Y-14695000D01*
X14025000Y-14665000D02*
X13995000Y-14695000D01*
X14025000Y-14505000D02*
X14055000Y-14535000D01*
X14055000Y-14505000D02*
X14025000Y-14535000D01*
X14025000Y-14575000D02*
X14055000Y-14605000D01*
X14055000Y-14575000D02*
X14025000Y-14605000D01*
X14055000Y-13715000D02*
X14085000Y-13745000D01*
X14085000Y-13715000D02*
X14055000Y-13745000D01*
X14085000Y-10895000D02*
X14115000Y-10925000D01*
X14115000Y-10895000D02*
X14085000Y-10925000D01*
X14125000Y-12235000D02*
X14155000Y-12265000D01*
X14155000Y-12235000D02*
X14125000Y-12265000D01*
X14139282Y-11200372D02*
X14169282Y-11230372D01*
X14169282Y-11200372D02*
X14139282Y-11230372D01*
X14149760Y-11865000D02*
X14179760Y-11895000D01*
X14179760Y-11865000D02*
X14149760Y-11895000D01*
X14160000Y-12495000D02*
X14190000Y-12525000D01*
X14190000Y-12495000D02*
X14160000Y-12525000D01*
X14175132Y-12145000D02*
X14205132Y-12175000D01*
X14205132Y-12145000D02*
X14175132Y-12175000D01*
X14185000Y-7985000D02*
X14215000Y-8015000D01*
X14215000Y-7985000D02*
X14185000Y-8015000D01*
X14185000Y-8185000D02*
X14215000Y-8215000D01*
X14215000Y-8185000D02*
X14185000Y-8215000D01*
X14185000Y-8360000D02*
X14215000Y-8390000D01*
X14215000Y-8360000D02*
X14185000Y-8390000D01*
X14185000Y-8560000D02*
X14215000Y-8590000D01*
X14215000Y-8560000D02*
X14185000Y-8590000D01*
X14185000Y-8735000D02*
X14215000Y-8765000D01*
X14215000Y-8735000D02*
X14185000Y-8765000D01*
X14185000Y-8935000D02*
X14215000Y-8965000D01*
X14215000Y-8935000D02*
X14185000Y-8965000D01*
X14225000Y-10970000D02*
X14255000Y-11000000D01*
X14255000Y-10970000D02*
X14225000Y-11000000D01*
X14225000Y-11170000D02*
X14255000Y-11200000D01*
X14255000Y-11170000D02*
X14225000Y-11200000D01*
X14225000Y-12860000D02*
X14255000Y-12890000D01*
X14255000Y-12860000D02*
X14225000Y-12890000D01*
X14230700Y-12780203D02*
X14260700Y-12810203D01*
X14260700Y-12780203D02*
X14230700Y-12810203D01*
X14235000Y-11332635D02*
X14265000Y-11362635D01*
X14265000Y-11332635D02*
X14235000Y-11362635D01*
X14235000Y-12404801D02*
X14265000Y-12434801D01*
X14265000Y-12404801D02*
X14235000Y-12434801D01*
X14235573Y-12939298D02*
X14265573Y-12969298D01*
X14265573Y-12939298D02*
X14235573Y-12969298D01*
X14247844Y-12177844D02*
X14277844Y-12207844D01*
X14277844Y-12177844D02*
X14247844Y-12207844D01*
X14265000Y-13495000D02*
X14295000Y-13525000D01*
X14295000Y-13495000D02*
X14265000Y-13525000D01*
X14265000Y-13715000D02*
X14295000Y-13745000D01*
X14295000Y-13715000D02*
X14265000Y-13745000D01*
X14270000Y-12530000D02*
X14300000Y-12560000D01*
X14300000Y-12530000D02*
X14270000Y-12560000D01*
X14330000Y-12180000D02*
X14360000Y-12210000D01*
X14360000Y-12180000D02*
X14330000Y-12210000D01*
X14333514Y-12933514D02*
X14363514Y-12963514D01*
X14363514Y-12933514D02*
X14333514Y-12963514D01*
X14337031Y-11915000D02*
X14367031Y-11945000D01*
X14367031Y-11915000D02*
X14337031Y-11945000D01*
X14365000Y-11335000D02*
X14395000Y-11365000D01*
X14395000Y-11335000D02*
X14365000Y-11365000D01*
X14395915Y-13692700D02*
X14425915Y-13722700D01*
X14425915Y-13692700D02*
X14395915Y-13722700D01*
X14405000Y-10675000D02*
X14435000Y-10705000D01*
X14435000Y-10675000D02*
X14405000Y-10705000D01*
X14410000Y-12180000D02*
X14440000Y-12210000D01*
X14440000Y-12180000D02*
X14410000Y-12210000D01*
X14435000Y-7985000D02*
X14465000Y-8015000D01*
X14465000Y-7985000D02*
X14435000Y-8015000D01*
X14435000Y-8185000D02*
X14465000Y-8215000D01*
X14465000Y-8185000D02*
X14435000Y-8215000D01*
X14435000Y-8360000D02*
X14465000Y-8390000D01*
X14465000Y-8360000D02*
X14435000Y-8390000D01*
X14435000Y-8560000D02*
X14465000Y-8590000D01*
X14465000Y-8560000D02*
X14435000Y-8590000D01*
X14435000Y-8735000D02*
X14465000Y-8765000D01*
X14465000Y-8735000D02*
X14435000Y-8765000D01*
X14435000Y-8935000D02*
X14465000Y-8965000D01*
X14465000Y-8935000D02*
X14435000Y-8965000D01*
X14480000Y-11405000D02*
X14510000Y-11435000D01*
X14510000Y-11405000D02*
X14480000Y-11435000D01*
X14525000Y-13800000D02*
X14555000Y-13830000D01*
X14555000Y-13800000D02*
X14525000Y-13830000D01*
X14532500Y-13405000D02*
X14562500Y-13435000D01*
X14562500Y-13405000D02*
X14532500Y-13435000D01*
X14532500Y-13525000D02*
X14562500Y-13555000D01*
X14562500Y-13525000D02*
X14532500Y-13555000D01*
X14540000Y-12010000D02*
X14570000Y-12040000D01*
X14570000Y-12010000D02*
X14540000Y-12040000D01*
X14555000Y-12550000D02*
X14585000Y-12580000D01*
X14585000Y-12550000D02*
X14555000Y-12580000D01*
X14565000Y-10705000D02*
X14595000Y-10735000D01*
X14595000Y-10705000D02*
X14565000Y-10735000D01*
X14565710Y-10910141D02*
X14595710Y-10940141D01*
X14595710Y-10910141D02*
X14565710Y-10940141D01*
X14579920Y-13175956D02*
X14609920Y-13205956D01*
X14609920Y-13175956D02*
X14579920Y-13205956D01*
X14610000Y-11570000D02*
X14640000Y-11600000D01*
X14640000Y-11570000D02*
X14610000Y-11600000D01*
X14615000Y-12487500D02*
X14645000Y-12517500D01*
X14645000Y-12487500D02*
X14615000Y-12517500D01*
X14639103Y-11990897D02*
X14669103Y-12020897D01*
X14669103Y-11990897D02*
X14639103Y-12020897D01*
X14640000Y-10180000D02*
X14670000Y-10210000D01*
X14670000Y-10180000D02*
X14640000Y-10210000D01*
X14650000Y-13150000D02*
X14680000Y-13180000D01*
X14680000Y-13150000D02*
X14650000Y-13180000D01*
X14657500Y-11105000D02*
X14687500Y-11135000D01*
X14687500Y-11105000D02*
X14657500Y-11135000D01*
X14665000Y-12360000D02*
X14695000Y-12390000D01*
X14695000Y-12360000D02*
X14665000Y-12390000D01*
X14700199Y-11745000D02*
X14730199Y-11775000D01*
X14730199Y-11745000D02*
X14700199Y-11775000D01*
X14710000Y-10010000D02*
X14740000Y-10040000D01*
X14740000Y-10010000D02*
X14710000Y-10040000D01*
X14734000Y-8952000D02*
X14764000Y-8982000D01*
X14764000Y-8952000D02*
X14734000Y-8982000D01*
X14735000Y-8725000D02*
X14765000Y-8755000D01*
X14765000Y-8725000D02*
X14735000Y-8755000D01*
X14744800Y-10831268D02*
X14774800Y-10861268D01*
X14774800Y-10831268D02*
X14744800Y-10861268D01*
X14745000Y-9745000D02*
X14775000Y-9775000D01*
X14775000Y-9745000D02*
X14745000Y-9775000D01*
X14745000Y-13222768D02*
X14775000Y-13252768D01*
X14775000Y-13222768D02*
X14745000Y-13252768D01*
X14760000Y-8045000D02*
X14790000Y-8075000D01*
X14790000Y-8045000D02*
X14760000Y-8075000D01*
X14760000Y-10955000D02*
X14790000Y-10985000D01*
X14790000Y-10955000D02*
X14760000Y-10985000D01*
X14774819Y-11332048D02*
X14804819Y-11362048D01*
X14804819Y-11332048D02*
X14774819Y-11362048D01*
X14779134Y-11257441D02*
X14809134Y-11287441D01*
X14809134Y-11257441D02*
X14779134Y-11287441D01*
X14800000Y-10509732D02*
X14830000Y-10539732D01*
X14830000Y-10509732D02*
X14800000Y-10539732D01*
X14809801Y-11944801D02*
X14839801Y-11974801D01*
X14839801Y-11944801D02*
X14809801Y-11974801D01*
X14812492Y-12302508D02*
X14842492Y-12332508D01*
X14842492Y-12302508D02*
X14812492Y-12332508D01*
X14845000Y-12665000D02*
X14875000Y-12695000D01*
X14875000Y-12665000D02*
X14845000Y-12695000D01*
X14857560Y-11322695D02*
X14887560Y-11352695D01*
X14887560Y-11322695D02*
X14857560Y-11352695D01*
X14865000Y-11665000D02*
X14895000Y-11695000D01*
X14895000Y-11665000D02*
X14865000Y-11695000D01*
X14869388Y-12030999D02*
X14899388Y-12060999D01*
X14899388Y-12030999D02*
X14869388Y-12060999D01*
X14873741Y-12941259D02*
X14903741Y-12971259D01*
X14903741Y-12941259D02*
X14873741Y-12971259D01*
X14897018Y-10485918D02*
X14927018Y-10515918D01*
X14927018Y-10485918D02*
X14897018Y-10515918D01*
X14905000Y-9670000D02*
X14935000Y-9700000D01*
X14935000Y-9670000D02*
X14905000Y-9700000D01*
X14907627Y-12383144D02*
X14937627Y-12413144D01*
X14937627Y-12383144D02*
X14907627Y-12413144D01*
X14910000Y-9920000D02*
X14940000Y-9950000D01*
X14940000Y-9920000D02*
X14910000Y-9950000D01*
X14920000Y-11955000D02*
X14950000Y-11985000D01*
X14950000Y-11955000D02*
X14920000Y-11985000D01*
X14920000Y-14295000D02*
X14950000Y-14325000D01*
X14950000Y-14295000D02*
X14920000Y-14325000D01*
X14920000Y-14405000D02*
X14950000Y-14435000D01*
X14950000Y-14405000D02*
X14920000Y-14435000D01*
X14920000Y-14520000D02*
X14950000Y-14550000D01*
X14950000Y-14520000D02*
X14920000Y-14550000D01*
X14935363Y-12883300D02*
X14965363Y-12913300D01*
X14965363Y-12883300D02*
X14935363Y-12913300D01*
X14960000Y-10445000D02*
X14990000Y-10475000D01*
X14990000Y-10445000D02*
X14960000Y-10475000D01*
X14960444Y-11875000D02*
X14990444Y-11905000D01*
X14990444Y-11875000D02*
X14960444Y-11905000D01*
X14980000Y-8045000D02*
X15010000Y-8075000D01*
X15010000Y-8045000D02*
X14980000Y-8075000D01*
X15000000Y-10865000D02*
X15030000Y-10895000D01*
X15030000Y-10865000D02*
X15000000Y-10895000D01*
X15002154Y-13222154D02*
X15032154Y-13252154D01*
X15032154Y-13222154D02*
X15002154Y-13252154D01*
X15045000Y-9285000D02*
X15075000Y-9315000D01*
X15075000Y-9285000D02*
X15045000Y-9315000D01*
X15070000Y-8885000D02*
X15100000Y-8915000D01*
X15100000Y-8885000D02*
X15070000Y-8915000D01*
X15070000Y-8985000D02*
X15100000Y-9015000D01*
X15100000Y-8985000D02*
X15070000Y-9015000D01*
X15070000Y-9625000D02*
X15100000Y-9655000D01*
X15100000Y-9625000D02*
X15070000Y-9655000D01*
X15070000Y-13315000D02*
X15100000Y-13345000D01*
X15100000Y-13315000D02*
X15070000Y-13345000D01*
X15075000Y-14295000D02*
X15105000Y-14325000D01*
X15105000Y-14295000D02*
X15075000Y-14325000D01*
X15075000Y-14405000D02*
X15105000Y-14435000D01*
X15105000Y-14405000D02*
X15075000Y-14435000D01*
X15075000Y-14520000D02*
X15105000Y-14550000D01*
X15105000Y-14520000D02*
X15075000Y-14550000D01*
X15085000Y-8185000D02*
X15115000Y-8215000D01*
X15115000Y-8185000D02*
X15085000Y-8215000D01*
X15085000Y-8285000D02*
X15115000Y-8315000D01*
X15115000Y-8285000D02*
X15085000Y-8315000D01*
X15085000Y-8385000D02*
X15115000Y-8415000D01*
X15115000Y-8385000D02*
X15085000Y-8415000D01*
X15085000Y-8485000D02*
X15115000Y-8515000D01*
X15115000Y-8485000D02*
X15085000Y-8515000D01*
X15085000Y-8585000D02*
X15115000Y-8615000D01*
X15115000Y-8585000D02*
X15085000Y-8615000D01*
X15085000Y-8685000D02*
X15115000Y-8715000D01*
X15115000Y-8685000D02*
X15085000Y-8715000D01*
X15085000Y-8785000D02*
X15115000Y-8815000D01*
X15115000Y-8785000D02*
X15085000Y-8815000D01*
X15095000Y-12665000D02*
X15125000Y-12695000D01*
X15125000Y-12665000D02*
X15095000Y-12695000D01*
X15100000Y-12415000D02*
X15130000Y-12445000D01*
X15130000Y-12415000D02*
X15100000Y-12445000D01*
X15122500Y-11502500D02*
X15152500Y-11532500D01*
X15152500Y-11502500D02*
X15122500Y-11532500D01*
X15130000Y-12500000D02*
X15160000Y-12530000D01*
X15160000Y-12500000D02*
X15130000Y-12530000D01*
X15160000Y-9285000D02*
X15190000Y-9315000D01*
X15190000Y-9285000D02*
X15160000Y-9315000D01*
X15164467Y-12134467D02*
X15194467Y-12164467D01*
X15194467Y-12134467D02*
X15164467Y-12164467D01*
X15175000Y-13605000D02*
X15205000Y-13635000D01*
X15205000Y-13605000D02*
X15175000Y-13635000D01*
X15185000Y-8185000D02*
X15215000Y-8215000D01*
X15215000Y-8185000D02*
X15185000Y-8215000D01*
X15185000Y-8585000D02*
X15215000Y-8615000D01*
X15215000Y-8585000D02*
X15185000Y-8615000D01*
X15185000Y-8685000D02*
X15215000Y-8715000D01*
X15215000Y-8685000D02*
X15185000Y-8715000D01*
X15205000Y-11540000D02*
X15235000Y-11570000D01*
X15235000Y-11540000D02*
X15205000Y-11570000D01*
X15205000Y-13315000D02*
X15235000Y-13345000D01*
X15235000Y-13315000D02*
X15205000Y-13345000D01*
X15215000Y-10761250D02*
X15245000Y-10791250D01*
X15245000Y-10761250D02*
X15215000Y-10791250D01*
X15225000Y-12585000D02*
X15255000Y-12615000D01*
X15255000Y-12585000D02*
X15225000Y-12615000D01*
X15225000Y-14295000D02*
X15255000Y-14325000D01*
X15255000Y-14295000D02*
X15225000Y-14325000D01*
X15225000Y-14405000D02*
X15255000Y-14435000D01*
X15255000Y-14405000D02*
X15225000Y-14435000D01*
X15225000Y-14520000D02*
X15255000Y-14550000D01*
X15255000Y-14520000D02*
X15225000Y-14550000D01*
X15235000Y-7705000D02*
X15265000Y-7735000D01*
X15265000Y-7705000D02*
X15235000Y-7735000D01*
X15235000Y-7785000D02*
X15265000Y-7815000D01*
X15265000Y-7785000D02*
X15235000Y-7815000D01*
X15267184Y-11612816D02*
X15297184Y-11642816D01*
X15297184Y-11612816D02*
X15267184Y-11642816D01*
X15270000Y-9015000D02*
X15300000Y-9045000D01*
X15300000Y-9015000D02*
X15270000Y-9045000D01*
X15270000Y-9285000D02*
X15300000Y-9315000D01*
X15300000Y-9285000D02*
X15270000Y-9315000D01*
X15285000Y-8185000D02*
X15315000Y-8215000D01*
X15315000Y-8185000D02*
X15285000Y-8215000D01*
X15285000Y-8685000D02*
X15315000Y-8715000D01*
X15315000Y-8685000D02*
X15285000Y-8715000D01*
X15285000Y-11020000D02*
X15315000Y-11050000D01*
X15315000Y-11020000D02*
X15285000Y-11050000D01*
X15312568Y-11312568D02*
X15342568Y-11342568D01*
X15342568Y-11312568D02*
X15312568Y-11342568D01*
X15312568Y-11386347D02*
X15342568Y-11416347D01*
X15342568Y-11386347D02*
X15312568Y-11416347D01*
X15354687Y-9909688D02*
X15384687Y-9939688D01*
X15384687Y-9909688D02*
X15354687Y-9939688D01*
X15375000Y-13950000D02*
X15405000Y-13980000D01*
X15405000Y-13950000D02*
X15375000Y-13980000D01*
X15375000Y-14095000D02*
X15405000Y-14125000D01*
X15405000Y-14095000D02*
X15375000Y-14125000D01*
X15375000Y-14250000D02*
X15405000Y-14280000D01*
X15405000Y-14250000D02*
X15375000Y-14280000D01*
X15375000Y-14400000D02*
X15405000Y-14430000D01*
X15405000Y-14400000D02*
X15375000Y-14430000D01*
X15380000Y-9285000D02*
X15410000Y-9315000D01*
X15410000Y-9285000D02*
X15380000Y-9315000D01*
X15385000Y-8185000D02*
X15415000Y-8215000D01*
X15415000Y-8185000D02*
X15385000Y-8215000D01*
X15387833Y-12512167D02*
X15417833Y-12542167D01*
X15417833Y-12512167D02*
X15387833Y-12542167D01*
X15416500Y-9675000D02*
X15446500Y-9705000D01*
X15446500Y-9675000D02*
X15416500Y-9705000D01*
X15425000Y-11565000D02*
X15455000Y-11595000D01*
X15455000Y-11565000D02*
X15425000Y-11595000D01*
X15425000Y-11685000D02*
X15455000Y-11715000D01*
X15455000Y-11685000D02*
X15425000Y-11715000D01*
X15430837Y-12748073D02*
X15460837Y-12778073D01*
X15460837Y-12748073D02*
X15430837Y-12778073D01*
X15482500Y-11263779D02*
X15512500Y-11293779D01*
X15512500Y-11263779D02*
X15482500Y-11293779D01*
X15485000Y-8185000D02*
X15515000Y-8215000D01*
X15515000Y-8185000D02*
X15485000Y-8215000D01*
X15490000Y-9285000D02*
X15520000Y-9315000D01*
X15520000Y-9285000D02*
X15490000Y-9315000D01*
X15505000Y-10962500D02*
X15535000Y-10992500D01*
X15535000Y-10962500D02*
X15505000Y-10992500D01*
X15524687Y-9742432D02*
X15554687Y-9772432D01*
X15554687Y-9742432D02*
X15524687Y-9772432D01*
X15525000Y-13220000D02*
X15555000Y-13250000D01*
X15555000Y-13220000D02*
X15525000Y-13250000D01*
X15525000Y-13950000D02*
X15555000Y-13980000D01*
X15555000Y-13950000D02*
X15525000Y-13980000D01*
X15525000Y-14095000D02*
X15555000Y-14125000D01*
X15555000Y-14095000D02*
X15525000Y-14125000D01*
X15525000Y-14250000D02*
X15555000Y-14280000D01*
X15555000Y-14250000D02*
X15525000Y-14280000D01*
X15525000Y-14400000D02*
X15555000Y-14430000D01*
X15555000Y-14400000D02*
X15525000Y-14430000D01*
X15530000Y-11765000D02*
X15560000Y-11795000D01*
X15560000Y-11765000D02*
X15530000Y-11795000D01*
X15535000Y-8285000D02*
X15565000Y-8315000D01*
X15565000Y-8285000D02*
X15535000Y-8315000D01*
X15535000Y-8385000D02*
X15565000Y-8415000D01*
X15565000Y-8385000D02*
X15535000Y-8415000D01*
X15535000Y-8485000D02*
X15565000Y-8515000D01*
X15565000Y-8485000D02*
X15535000Y-8515000D01*
X15535000Y-8585000D02*
X15565000Y-8615000D01*
X15565000Y-8585000D02*
X15535000Y-8615000D01*
X15535000Y-8685000D02*
X15565000Y-8715000D01*
X15565000Y-8685000D02*
X15535000Y-8715000D01*
X15535000Y-8785000D02*
X15565000Y-8815000D01*
X15565000Y-8785000D02*
X15535000Y-8815000D01*
X15535000Y-8885000D02*
X15565000Y-8915000D01*
X15565000Y-8885000D02*
X15535000Y-8915000D01*
X15535000Y-8990000D02*
X15565000Y-9020000D01*
X15565000Y-8990000D02*
X15535000Y-9020000D01*
X15575000Y-11295000D02*
X15605000Y-11325000D01*
X15605000Y-11295000D02*
X15575000Y-11325000D01*
X15599531Y-10390469D02*
X15629531Y-10420469D01*
X15629531Y-10390469D02*
X15599531Y-10420469D01*
X15605000Y-10485000D02*
X15635000Y-10515000D01*
X15635000Y-10485000D02*
X15605000Y-10515000D01*
X15605000Y-11765000D02*
X15635000Y-11795000D01*
X15635000Y-11765000D02*
X15605000Y-11795000D01*
X15635000Y-10962500D02*
X15665000Y-10992500D01*
X15665000Y-10962500D02*
X15635000Y-10992500D01*
X15645000Y-10215000D02*
X15675000Y-10245000D01*
X15675000Y-10215000D02*
X15645000Y-10245000D01*
X15650000Y-9985000D02*
X15680000Y-10015000D01*
X15680000Y-9985000D02*
X15650000Y-10015000D01*
X15675000Y-10487500D02*
X15705000Y-10517500D01*
X15705000Y-10487500D02*
X15675000Y-10517500D01*
X15675000Y-13950000D02*
X15705000Y-13980000D01*
X15705000Y-13950000D02*
X15675000Y-13980000D01*
X15675000Y-14095000D02*
X15705000Y-14125000D01*
X15705000Y-14095000D02*
X15675000Y-14125000D01*
X15675000Y-14250000D02*
X15705000Y-14280000D01*
X15705000Y-14250000D02*
X15675000Y-14280000D01*
X15675000Y-14400000D02*
X15705000Y-14430000D01*
X15705000Y-14400000D02*
X15675000Y-14430000D01*
X15675000Y-14555000D02*
X15705000Y-14585000D01*
X15705000Y-14555000D02*
X15675000Y-14585000D01*
X15730000Y-10452232D02*
X15760000Y-10482232D01*
X15760000Y-10452232D02*
X15730000Y-10482232D01*
X15755000Y-11305000D02*
X15785000Y-11335000D01*
X15785000Y-11305000D02*
X15755000Y-11335000D01*
X15760000Y-12200000D02*
X15790000Y-12230000D01*
X15790000Y-12200000D02*
X15760000Y-12230000D01*
X15760000Y-12350000D02*
X15790000Y-12380000D01*
X15790000Y-12350000D02*
X15760000Y-12380000D01*
X15760000Y-12500000D02*
X15790000Y-12530000D01*
X15790000Y-12500000D02*
X15760000Y-12530000D01*
X15765000Y-13035000D02*
X15795000Y-13065000D01*
X15795000Y-13035000D02*
X15765000Y-13065000D01*
X15767500Y-10962500D02*
X15797500Y-10992500D01*
X15797500Y-10962500D02*
X15767500Y-10992500D01*
X15770389Y-11530268D02*
X15800389Y-11560268D01*
X15800389Y-11530268D02*
X15770389Y-11560268D01*
X15775000Y-11175000D02*
X15805000Y-11205000D01*
X15805000Y-11175000D02*
X15775000Y-11205000D01*
X15775000Y-12775000D02*
X15805000Y-12805000D01*
X15805000Y-12775000D02*
X15775000Y-12805000D01*
X15785000Y-12875000D02*
X15815000Y-12905000D01*
X15815000Y-12875000D02*
X15785000Y-12905000D01*
X15790000Y-9570000D02*
X15820000Y-9600000D01*
X15820000Y-9570000D02*
X15790000Y-9600000D01*
X15840000Y-10335000D02*
X15870000Y-10365000D01*
X15870000Y-10335000D02*
X15840000Y-10365000D01*
X15845000Y-11065000D02*
X15875000Y-11095000D01*
X15875000Y-11065000D02*
X15845000Y-11095000D01*
X15870000Y-14205000D02*
X15900000Y-14235000D01*
X15900000Y-14205000D02*
X15870000Y-14235000D01*
X15870000Y-14285000D02*
X15900000Y-14315000D01*
X15900000Y-14285000D02*
X15870000Y-14315000D01*
X15870000Y-14365000D02*
X15900000Y-14395000D01*
X15900000Y-14365000D02*
X15870000Y-14395000D01*
X15870000Y-14445000D02*
X15900000Y-14475000D01*
X15900000Y-14445000D02*
X15870000Y-14475000D01*
X15870000Y-14525000D02*
X15900000Y-14555000D01*
X15900000Y-14525000D02*
X15870000Y-14555000D01*
X15885000Y-8385000D02*
X15915000Y-8415000D01*
X15915000Y-8385000D02*
X15885000Y-8415000D01*
X15885000Y-12175000D02*
X15915000Y-12205000D01*
X15915000Y-12175000D02*
X15885000Y-12205000D01*
X15885000Y-12310000D02*
X15915000Y-12340000D01*
X15915000Y-12310000D02*
X15885000Y-12340000D01*
X15920000Y-10350000D02*
X15950000Y-10380000D01*
X15950000Y-10350000D02*
X15920000Y-10380000D01*
X15935000Y-13035000D02*
X15965000Y-13065000D01*
X15965000Y-13035000D02*
X15935000Y-13065000D01*
X15938388Y-11235000D02*
X15968388Y-11265000D01*
X15968388Y-11235000D02*
X15938388Y-11265000D01*
X15940000Y-13360000D02*
X15970000Y-13390000D01*
X15970000Y-13360000D02*
X15940000Y-13390000D01*
X15940000Y-13465000D02*
X15970000Y-13495000D01*
X15970000Y-13465000D02*
X15940000Y-13495000D01*
X15950350Y-13925000D02*
X15980350Y-13955000D01*
X15980350Y-13925000D02*
X15950350Y-13955000D01*
X15965000Y-8294000D02*
X15995000Y-8324000D01*
X15995000Y-8294000D02*
X15965000Y-8324000D01*
X15970000Y-14205000D02*
X16000000Y-14235000D01*
X16000000Y-14205000D02*
X15970000Y-14235000D01*
X15970000Y-14285000D02*
X16000000Y-14315000D01*
X16000000Y-14285000D02*
X15970000Y-14315000D01*
X15970000Y-14365000D02*
X16000000Y-14395000D01*
X16000000Y-14365000D02*
X15970000Y-14395000D01*
X16010000Y-8040000D02*
X16040000Y-8070000D01*
X16040000Y-8040000D02*
X16010000Y-8070000D01*
X16035000Y-7785000D02*
X16065000Y-7815000D01*
X16065000Y-7785000D02*
X16035000Y-7815000D01*
X16035000Y-8425000D02*
X16065000Y-8455000D01*
X16065000Y-8425000D02*
X16035000Y-8455000D01*
X16040350Y-13925000D02*
X16070350Y-13955000D01*
X16070350Y-13925000D02*
X16040350Y-13955000D01*
X16070000Y-14205000D02*
X16100000Y-14235000D01*
X16100000Y-14205000D02*
X16070000Y-14235000D01*
X16070000Y-14285000D02*
X16100000Y-14315000D01*
X16100000Y-14285000D02*
X16070000Y-14315000D01*
X16115000Y-9265000D02*
X16145000Y-9295000D01*
X16145000Y-9265000D02*
X16115000Y-9295000D01*
X16120350Y-13925000D02*
X16150350Y-13955000D01*
X16150350Y-13925000D02*
X16120350Y-13955000D01*
X16165000Y-8075000D02*
X16195000Y-8105000D01*
X16195000Y-8075000D02*
X16165000Y-8105000D01*
X16170000Y-14205000D02*
X16200000Y-14235000D01*
X16200000Y-14205000D02*
X16170000Y-14235000D01*
X16170000Y-14285000D02*
X16200000Y-14315000D01*
X16200000Y-14285000D02*
X16170000Y-14315000D01*
X16187500Y-11312831D02*
X16217500Y-11342831D01*
X16217500Y-11312831D02*
X16187500Y-11342831D01*
X16198095Y-9278095D02*
X16228095Y-9308095D01*
X16228095Y-9278095D02*
X16198095Y-9308095D01*
X16210350Y-13925000D02*
X16240350Y-13955000D01*
X16240350Y-13925000D02*
X16210350Y-13955000D01*
X16217500Y-8915000D02*
X16247500Y-8945000D01*
X16247500Y-8915000D02*
X16217500Y-8945000D01*
X16235000Y-8710000D02*
X16265000Y-8740000D01*
X16265000Y-8710000D02*
X16235000Y-8740000D01*
X16276480Y-8986020D02*
X16306480Y-9016020D01*
X16306480Y-8986020D02*
X16276480Y-9016020D01*
X16335000Y-7785000D02*
X16365000Y-7815000D01*
X16365000Y-7785000D02*
X16335000Y-7815000D01*
X16345000Y-8225000D02*
X16375000Y-8255000D01*
X16375000Y-8225000D02*
X16345000Y-8255000D01*
X16412232Y-10765000D02*
X16442232Y-10795000D01*
X16442232Y-10765000D02*
X16412232Y-10795000D01*
X16435000Y-9045000D02*
X16465000Y-9075000D01*
X16465000Y-9045000D02*
X16435000Y-9075000D01*
X16485000Y-7935000D02*
X16515000Y-7965000D01*
X16515000Y-7935000D02*
X16485000Y-7965000D01*
X16485000Y-9735000D02*
X16515000Y-9765000D01*
X16515000Y-9735000D02*
X16485000Y-9765000D01*
X16485000Y-9935000D02*
X16515000Y-9965000D01*
X16515000Y-9935000D02*
X16485000Y-9965000D01*
X16565000Y-8375000D02*
X16595000Y-8405000D01*
X16595000Y-8375000D02*
X16565000Y-8405000D01*
X16580000Y-12060000D02*
X16610000Y-12090000D01*
X16610000Y-12060000D02*
X16580000Y-12090000D01*
X16585000Y-11980000D02*
X16615000Y-12010000D01*
X16615000Y-11980000D02*
X16585000Y-12010000D01*
X16605000Y-8505000D02*
X16635000Y-8535000D01*
X16635000Y-8505000D02*
X16605000Y-8535000D01*
X16615000Y-8815000D02*
X16645000Y-8845000D01*
X16645000Y-8815000D02*
X16615000Y-8845000D01*
X16620000Y-11800000D02*
X16650000Y-11830000D01*
X16650000Y-11800000D02*
X16620000Y-11830000D01*
X16625000Y-10835000D02*
X16655000Y-10865000D01*
X16655000Y-10835000D02*
X16625000Y-10865000D01*
X16635000Y-9545000D02*
X16665000Y-9575000D01*
X16665000Y-9545000D02*
X16635000Y-9575000D01*
X16635000Y-9735000D02*
X16665000Y-9765000D01*
X16665000Y-9735000D02*
X16635000Y-9765000D01*
X16685000Y-7935000D02*
X16715000Y-7965000D01*
X16715000Y-7935000D02*
X16685000Y-7965000D01*
X16685000Y-8185000D02*
X16715000Y-8215000D01*
X16715000Y-8185000D02*
X16685000Y-8215000D01*
X16685000Y-8435000D02*
X16715000Y-8465000D01*
X16715000Y-8435000D02*
X16685000Y-8465000D01*
X16700000Y-12345000D02*
X16730000Y-12375000D01*
X16730000Y-12345000D02*
X16700000Y-12375000D01*
X16700000Y-12460000D02*
X16730000Y-12490000D01*
X16730000Y-12460000D02*
X16700000Y-12490000D01*
X16725000Y-8695000D02*
X16755000Y-8725000D01*
X16755000Y-8695000D02*
X16725000Y-8725000D01*
X16735000Y-9935000D02*
X16765000Y-9965000D01*
X16765000Y-9935000D02*
X16735000Y-9965000D01*
X16770350Y-13975000D02*
X16800350Y-14005000D01*
X16800350Y-13975000D02*
X16770350Y-14005000D01*
X16770350Y-14055000D02*
X16800350Y-14085000D01*
X16800350Y-14055000D02*
X16770350Y-14085000D01*
X16775000Y-9235000D02*
X16805000Y-9265000D01*
X16805000Y-9235000D02*
X16775000Y-9265000D01*
X16775000Y-9325000D02*
X16805000Y-9355000D01*
X16805000Y-9325000D02*
X16775000Y-9355000D01*
X16795000Y-10835000D02*
X16825000Y-10865000D01*
X16825000Y-10835000D02*
X16795000Y-10865000D01*
X16840350Y-14105000D02*
X16870350Y-14135000D01*
X16870350Y-14105000D02*
X16840350Y-14135000D01*
X16895000Y-8845000D02*
X16925000Y-8875000D01*
X16925000Y-8845000D02*
X16895000Y-8875000D01*
X16920350Y-14105000D02*
X16950350Y-14135000D01*
X16950350Y-14105000D02*
X16920350Y-14135000D01*
X16945000Y-14275000D02*
X16975000Y-14305000D01*
X16975000Y-14275000D02*
X16945000Y-14305000D01*
X16945000Y-14475000D02*
X16975000Y-14505000D01*
X16975000Y-14475000D02*
X16945000Y-14505000D01*
X16945000Y-14675000D02*
X16975000Y-14705000D01*
X16975000Y-14675000D02*
X16945000Y-14705000D01*
X16945000Y-14855000D02*
X16975000Y-14885000D01*
X16975000Y-14855000D02*
X16945000Y-14885000D01*
X16965000Y-10415000D02*
X16995000Y-10445000D01*
X16995000Y-10415000D02*
X16965000Y-10445000D01*
X16965000Y-10565000D02*
X16995000Y-10595000D01*
X16995000Y-10565000D02*
X16965000Y-10595000D01*
X16965000Y-10715000D02*
X16995000Y-10745000D01*
X16995000Y-10715000D02*
X16965000Y-10745000D01*
X16965000Y-10835000D02*
X16995000Y-10865000D01*
X16995000Y-10835000D02*
X16965000Y-10865000D01*
X16965000Y-10975000D02*
X16995000Y-11005000D01*
X16995000Y-10975000D02*
X16965000Y-11005000D01*
X16965000Y-11125000D02*
X16995000Y-11155000D01*
X16995000Y-11125000D02*
X16965000Y-11155000D01*
X16965000Y-11275000D02*
X16995000Y-11305000D01*
X16995000Y-11275000D02*
X16965000Y-11305000D01*
X16965000Y-11425000D02*
X16995000Y-11455000D01*
X16995000Y-11425000D02*
X16965000Y-11455000D01*
X16965000Y-11575000D02*
X16995000Y-11605000D01*
X16995000Y-11575000D02*
X16965000Y-11605000D01*
X16975000Y-13605000D02*
X17005000Y-13635000D01*
X17005000Y-13605000D02*
X16975000Y-13635000D01*
X16985000Y-7935000D02*
X17015000Y-7965000D01*
X17015000Y-7935000D02*
X16985000Y-7965000D01*
X16985000Y-8185000D02*
X17015000Y-8215000D01*
X17015000Y-8185000D02*
X16985000Y-8215000D01*
X16990350Y-13955000D02*
X17020350Y-13985000D01*
X17020350Y-13955000D02*
X16990350Y-13985000D01*
X16990350Y-14035000D02*
X17020350Y-14065000D01*
X17020350Y-14035000D02*
X16990350Y-14065000D01*
X17005000Y-12425000D02*
X17035000Y-12455000D01*
X17035000Y-12425000D02*
X17005000Y-12455000D01*
X17005000Y-12525000D02*
X17035000Y-12555000D01*
X17035000Y-12525000D02*
X17005000Y-12555000D01*
X14585000Y-8376000D02*
G75*
G02*
X14555000Y-8376000I-15000J0D01*
G01*
X14555000Y-8376000D02*
G75*
G02*
X14585000Y-8376000I15000J0D01*
G01*
X14585000Y-8516000D02*
G75*
G02*
X14555000Y-8516000I-15000J0D01*
G01*
X14555000Y-8516000D02*
G75*
G02*
X14585000Y-8516000I15000J0D01*
G01*
X14655000Y-8306000D02*
G75*
G02*
X14625000Y-8306000I-15000J0D01*
G01*
X14625000Y-8306000D02*
G75*
G02*
X14655000Y-8306000I15000J0D01*
G01*
X14655000Y-8446000D02*
G75*
G02*
X14625000Y-8446000I-15000J0D01*
G01*
X14625000Y-8446000D02*
G75*
G02*
X14655000Y-8446000I15000J0D01*
G01*
X14655000Y-8586000D02*
G75*
G02*
X14625000Y-8586000I-15000J0D01*
G01*
X14625000Y-8586000D02*
G75*
G02*
X14655000Y-8586000I15000J0D01*
G01*
X14725000Y-8376000D02*
G75*
G02*
X14695000Y-8376000I-15000J0D01*
G01*
X14695000Y-8376000D02*
G75*
G02*
X14725000Y-8376000I15000J0D01*
G01*
X14725000Y-8516000D02*
G75*
G02*
X14695000Y-8516000I-15000J0D01*
G01*
X14695000Y-8516000D02*
G75*
G02*
X14725000Y-8516000I15000J0D01*
G01*
X14795000Y-8306000D02*
G75*
G02*
X14765000Y-8306000I-15000J0D01*
G01*
X14765000Y-8306000D02*
G75*
G02*
X14795000Y-8306000I15000J0D01*
G01*
X14795000Y-8446000D02*
G75*
G02*
X14765000Y-8446000I-15000J0D01*
G01*
X14765000Y-8446000D02*
G75*
G02*
X14795000Y-8446000I15000J0D01*
G01*
X14795000Y-8586000D02*
G75*
G02*
X14765000Y-8586000I-15000J0D01*
G01*
X14765000Y-8586000D02*
G75*
G02*
X14795000Y-8586000I15000J0D01*
G01*
X14865000Y-8376000D02*
G75*
G02*
X14835000Y-8376000I-15000J0D01*
G01*
X14835000Y-8376000D02*
G75*
G02*
X14865000Y-8376000I15000J0D01*
G01*
X14865000Y-8516000D02*
G75*
G02*
X14835000Y-8516000I-15000J0D01*
G01*
X14835000Y-8516000D02*
G75*
G02*
X14865000Y-8516000I15000J0D01*
G01*
X16380000Y-12805000D02*
X16380000Y-12855000D01*
X16355000Y-12830000D02*
X16405000Y-12830000D01*
X16380000Y-12935000D02*
X16380000Y-12985000D01*
X16355000Y-12960000D02*
X16405000Y-12960000D01*
X16380000Y-13065000D02*
X16380000Y-13115000D01*
X16355000Y-13090000D02*
X16405000Y-13090000D01*
X16490000Y-12805000D02*
X16490000Y-12855000D01*
X16465000Y-12830000D02*
X16515000Y-12830000D01*
X16490000Y-12935000D02*
X16490000Y-12985000D01*
X16465000Y-12960000D02*
X16515000Y-12960000D01*
X16490000Y-13065000D02*
X16490000Y-13115000D01*
X16465000Y-13090000D02*
X16515000Y-13090000D01*
X16660000Y-12695000D02*
X16660000Y-12745000D01*
X16635000Y-12720000D02*
X16685000Y-12720000D01*
X16660000Y-12795000D02*
X16660000Y-12845000D01*
X16635000Y-12820000D02*
X16685000Y-12820000D01*
X16660000Y-12895000D02*
X16660000Y-12945000D01*
X16635000Y-12920000D02*
X16685000Y-12920000D01*
X16660000Y-12995000D02*
X16660000Y-13045000D01*
X16635000Y-13020000D02*
X16685000Y-13020000D01*
X16770000Y-12695000D02*
X16770000Y-12745000D01*
X16745000Y-12720000D02*
X16795000Y-12720000D01*
X16770000Y-12795000D02*
X16770000Y-12845000D01*
X16745000Y-12820000D02*
X16795000Y-12820000D01*
X16770000Y-12895000D02*
X16770000Y-12945000D01*
X16745000Y-12920000D02*
X16795000Y-12920000D01*
X16770000Y-12995000D02*
X16770000Y-13045000D01*
X16745000Y-13020000D02*
X16795000Y-13020000D01*
X16890000Y-12695000D02*
X16890000Y-12745000D01*
X16865000Y-12720000D02*
X16915000Y-12720000D01*
X16890000Y-12795000D02*
X16890000Y-12845000D01*
X16865000Y-12820000D02*
X16915000Y-12820000D01*
X16890000Y-12895000D02*
X16890000Y-12945000D01*
X16865000Y-12920000D02*
X16915000Y-12920000D01*
X16890000Y-12995000D02*
X16890000Y-13045000D01*
X16865000Y-13020000D02*
X16915000Y-13020000D01*
X13006713Y-14335713D02*
X13006713Y-14293287D01*
X12964286Y-14293287D01*
X12964286Y-14335713D01*
X13006713Y-14335713D01*
X12955500Y-14259500D02*
X12955500Y-14369500D01*
X13015500Y-14369500D02*
G75*
G02*
X12955500Y-14369500I-30000J0D01*
G01*
X13015500Y-14369500D02*
X13015500Y-14259500D01*
X13015500Y-14259500D02*
G75*
G03*
X12955500Y-14259500I-30000J0D01*
G01*
X13006713Y-14753713D02*
X13006713Y-14711287D01*
X12964286Y-14711287D01*
X12964286Y-14753713D01*
X13006713Y-14753713D01*
X12955500Y-14702500D02*
X12955500Y-14762500D01*
X13015500Y-14762500D02*
G75*
G02*
X12955500Y-14762500I-30000J0D01*
G01*
X13015500Y-14762500D02*
X13015500Y-14702500D01*
X13015500Y-14702500D02*
G75*
G03*
X12955500Y-14702500I-30000J0D01*
G01*
X13870713Y-14335713D02*
X13870713Y-14293287D01*
X13828286Y-14293287D01*
X13828286Y-14335713D01*
X13870713Y-14335713D01*
X13819500Y-14259500D02*
X13819500Y-14369500D01*
X13879500Y-14369500D02*
G75*
G02*
X13819500Y-14369500I-30000J0D01*
G01*
X13879500Y-14369500D02*
X13879500Y-14259500D01*
X13879500Y-14259500D02*
G75*
G03*
X13819500Y-14259500I-30000J0D01*
G01*
X13870713Y-14753713D02*
X13870713Y-14711287D01*
X13828286Y-14711287D01*
X13828286Y-14753713D01*
X13870713Y-14753713D01*
X13819500Y-14702500D02*
X13819500Y-14762500D01*
X13879500Y-14762500D02*
G75*
G02*
X13819500Y-14762500I-30000J0D01*
G01*
X13879500Y-14762500D02*
X13879500Y-14702500D01*
X13879500Y-14702500D02*
G75*
G03*
X13819500Y-14702500I-30000J0D01*
G01*
X13147500Y-13145000D02*
X13182500Y-13110000D01*
X13147500Y-13075000D01*
X13112500Y-13110000D01*
X13147500Y-13145000D01*
X13147500Y-13272000D02*
X13182500Y-13237000D01*
X13147500Y-13202000D01*
X13112500Y-13237000D01*
X13147500Y-13272000D01*
X13147500Y-13399000D02*
X13182500Y-13364000D01*
X13147500Y-13329000D01*
X13112500Y-13364000D01*
X13147500Y-13399000D01*
X13147500Y-13526000D02*
X13182500Y-13491000D01*
X13147500Y-13456000D01*
X13112500Y-13491000D01*
X13147500Y-13526000D01*
X14280000Y-14525000D02*
X14380000Y-14625000D01*
X14380000Y-14525000D02*
X14280000Y-14625000D01*
X14380000Y-14575000D02*
G75*
G02*
X14280000Y-14575000I-50000J0D01*
G01*
X14280000Y-14575000D02*
G75*
G02*
X14380000Y-14575000I50000J0D01*
G01*
X15380000Y-14525000D02*
X15480000Y-14625000D01*
X15480000Y-14525000D02*
X15380000Y-14625000D01*
X15480000Y-14575000D02*
G75*
G02*
X15380000Y-14575000I-50000J0D01*
G01*
X15380000Y-14575000D02*
G75*
G02*
X15480000Y-14575000I50000J0D01*
G01*
D13*
X12965000Y-10180000D02*
X13085000Y-10300000D01*
X13085000Y-10180000D02*
X12965000Y-10300000D01*
X13025000Y-10180000D02*
X13025000Y-10300000D01*
X12965000Y-10240000D02*
X13085000Y-10240000D01*
X12965000Y-10530000D02*
X13085000Y-10650000D01*
X13085000Y-10530000D02*
X12965000Y-10650000D01*
X13025000Y-10530000D02*
X13025000Y-10650000D01*
X12965000Y-10590000D02*
X13085000Y-10590000D01*
X12965000Y-11050000D02*
X13085000Y-11170000D01*
X13085000Y-11050000D02*
X12965000Y-11170000D01*
X13025000Y-11050000D02*
X13025000Y-11170000D01*
X12965000Y-11110000D02*
X13085000Y-11110000D01*
X12965000Y-11400000D02*
X13085000Y-11520000D01*
X13085000Y-11400000D02*
X12965000Y-11520000D01*
X13025000Y-11400000D02*
X13025000Y-11520000D01*
X12965000Y-11460000D02*
X13085000Y-11460000D01*
X16640000Y-10185000D02*
X16760000Y-10305000D01*
X16760000Y-10185000D02*
X16640000Y-10305000D01*
X16700000Y-10185000D02*
X16700000Y-10305000D01*
X16640000Y-10245000D02*
X16760000Y-10245000D01*
X16640000Y-10535000D02*
X16760000Y-10655000D01*
X16760000Y-10535000D02*
X16640000Y-10655000D01*
X16700000Y-10535000D02*
X16700000Y-10655000D01*
X16640000Y-10595000D02*
X16760000Y-10595000D01*
X16640000Y-11055000D02*
X16760000Y-11175000D01*
X16760000Y-11055000D02*
X16640000Y-11175000D01*
X16700000Y-11055000D02*
X16700000Y-11175000D01*
X16640000Y-11115000D02*
X16760000Y-11115000D01*
X16640000Y-11405000D02*
X16760000Y-11525000D01*
X16760000Y-11405000D02*
X16640000Y-11525000D01*
X16700000Y-11405000D02*
X16700000Y-11525000D01*
X16640000Y-11465000D02*
X16760000Y-11465000D01*
D14*
X14535000Y-13980000D02*
X14725000Y-14170000D01*
X14725000Y-13980000D02*
X14535000Y-14170000D01*
X14697176Y-14142176D02*
X14697176Y-14007824D01*
X14562824Y-14007824D01*
X14562824Y-14142176D01*
X14697176Y-14142176D01*
X15035000Y-13980000D02*
X15225000Y-14170000D01*
X15225000Y-13980000D02*
X15035000Y-14170000D01*
X15197176Y-14142176D02*
X15197176Y-14007824D01*
X15062824Y-14007824D01*
X15062824Y-14142176D01*
X15197176Y-14142176D01*
D11*
X12858277Y-15363984D02*
X12858277Y-15163984D01*
X12858277Y-15163984D02*
X12905896Y-15163984D01*
X12905896Y-15163984D02*
X12934467Y-15173508D01*
X12934467Y-15173508D02*
X12953515Y-15192555D01*
X12953515Y-15192555D02*
X12963039Y-15211603D01*
X12963039Y-15211603D02*
X12972562Y-15249698D01*
X12972562Y-15249698D02*
X12972562Y-15278269D01*
X12972562Y-15278269D02*
X12963039Y-15316365D01*
X12963039Y-15316365D02*
X12953515Y-15335412D01*
X12953515Y-15335412D02*
X12934467Y-15354460D01*
X12934467Y-15354460D02*
X12905896Y-15363984D01*
X12905896Y-15363984D02*
X12858277Y-15363984D01*
X13058277Y-15363984D02*
X13058277Y-15230650D01*
X13058277Y-15268746D02*
X13067801Y-15249698D01*
X13067801Y-15249698D02*
X13077324Y-15240174D01*
X13077324Y-15240174D02*
X13096372Y-15230650D01*
X13096372Y-15230650D02*
X13115420Y-15230650D01*
X13182086Y-15363984D02*
X13182086Y-15230650D01*
X13182086Y-15163984D02*
X13172562Y-15173508D01*
X13172562Y-15173508D02*
X13182086Y-15183031D01*
X13182086Y-15183031D02*
X13191610Y-15173508D01*
X13191610Y-15173508D02*
X13182086Y-15163984D01*
X13182086Y-15163984D02*
X13182086Y-15183031D01*
X13305896Y-15363984D02*
X13286848Y-15354460D01*
X13286848Y-15354460D02*
X13277324Y-15335412D01*
X13277324Y-15335412D02*
X13277324Y-15163984D01*
X13410658Y-15363984D02*
X13391610Y-15354460D01*
X13391610Y-15354460D02*
X13382086Y-15335412D01*
X13382086Y-15335412D02*
X13382086Y-15163984D01*
X13639229Y-15363984D02*
X13639229Y-15163984D01*
X13639229Y-15163984D02*
X13705896Y-15306841D01*
X13705896Y-15306841D02*
X13772562Y-15163984D01*
X13772562Y-15163984D02*
X13772562Y-15363984D01*
X13953515Y-15363984D02*
X13953515Y-15259222D01*
X13953515Y-15259222D02*
X13943991Y-15240174D01*
X13943991Y-15240174D02*
X13924943Y-15230650D01*
X13924943Y-15230650D02*
X13886848Y-15230650D01*
X13886848Y-15230650D02*
X13867801Y-15240174D01*
X13953515Y-15354460D02*
X13934467Y-15363984D01*
X13934467Y-15363984D02*
X13886848Y-15363984D01*
X13886848Y-15363984D02*
X13867801Y-15354460D01*
X13867801Y-15354460D02*
X13858277Y-15335412D01*
X13858277Y-15335412D02*
X13858277Y-15316365D01*
X13858277Y-15316365D02*
X13867801Y-15297317D01*
X13867801Y-15297317D02*
X13886848Y-15287793D01*
X13886848Y-15287793D02*
X13934467Y-15287793D01*
X13934467Y-15287793D02*
X13953515Y-15278269D01*
X14048753Y-15230650D02*
X14048753Y-15430650D01*
X14048753Y-15240174D02*
X14067801Y-15230650D01*
X14067801Y-15230650D02*
X14105896Y-15230650D01*
X14105896Y-15230650D02*
X14124943Y-15240174D01*
X14124943Y-15240174D02*
X14134467Y-15249698D01*
X14134467Y-15249698D02*
X14143991Y-15268746D01*
X14143991Y-15268746D02*
X14143991Y-15325888D01*
X14143991Y-15325888D02*
X14134467Y-15344936D01*
X14134467Y-15344936D02*
X14124943Y-15354460D01*
X14124943Y-15354460D02*
X14105896Y-15363984D01*
X14105896Y-15363984D02*
X14067801Y-15363984D01*
X14067801Y-15363984D02*
X14048753Y-15354460D01*
X14229705Y-15344936D02*
X14239229Y-15354460D01*
X14239229Y-15354460D02*
X14229705Y-15363984D01*
X14229705Y-15363984D02*
X14220182Y-15354460D01*
X14220182Y-15354460D02*
X14229705Y-15344936D01*
X14229705Y-15344936D02*
X14229705Y-15363984D01*
X14229705Y-15240174D02*
X14239229Y-15249698D01*
X14239229Y-15249698D02*
X14229705Y-15259222D01*
X14229705Y-15259222D02*
X14220182Y-15249698D01*
X14220182Y-15249698D02*
X14229705Y-15240174D01*
X14229705Y-15240174D02*
X14229705Y-15259222D01*
D12*
X12567500Y-15677500D02*
X12597500Y-15707500D01*
X12597500Y-15677500D02*
X12567500Y-15707500D01*
D11*
X12896372Y-15583984D02*
X12915420Y-15583984D01*
X12915420Y-15583984D02*
X12934467Y-15593508D01*
X12934467Y-15593508D02*
X12943991Y-15603031D01*
X12943991Y-15603031D02*
X12953515Y-15622079D01*
X12953515Y-15622079D02*
X12963039Y-15660174D01*
X12963039Y-15660174D02*
X12963039Y-15707793D01*
X12963039Y-15707793D02*
X12953515Y-15745888D01*
X12953515Y-15745888D02*
X12943991Y-15764936D01*
X12943991Y-15764936D02*
X12934467Y-15774460D01*
X12934467Y-15774460D02*
X12915420Y-15783984D01*
X12915420Y-15783984D02*
X12896372Y-15783984D01*
X12896372Y-15783984D02*
X12877324Y-15774460D01*
X12877324Y-15774460D02*
X12867801Y-15764936D01*
X12867801Y-15764936D02*
X12858277Y-15745888D01*
X12858277Y-15745888D02*
X12848753Y-15707793D01*
X12848753Y-15707793D02*
X12848753Y-15660174D01*
X12848753Y-15660174D02*
X12858277Y-15622079D01*
X12858277Y-15622079D02*
X12867801Y-15603031D01*
X12867801Y-15603031D02*
X12877324Y-15593508D01*
X12877324Y-15593508D02*
X12896372Y-15583984D01*
X13048753Y-15764936D02*
X13058277Y-15774460D01*
X13058277Y-15774460D02*
X13048753Y-15783984D01*
X13048753Y-15783984D02*
X13039229Y-15774460D01*
X13039229Y-15774460D02*
X13048753Y-15764936D01*
X13048753Y-15764936D02*
X13048753Y-15783984D01*
X13124943Y-15583984D02*
X13248753Y-15583984D01*
X13248753Y-15583984D02*
X13182086Y-15660174D01*
X13182086Y-15660174D02*
X13210658Y-15660174D01*
X13210658Y-15660174D02*
X13229705Y-15669698D01*
X13229705Y-15669698D02*
X13239229Y-15679222D01*
X13239229Y-15679222D02*
X13248753Y-15698269D01*
X13248753Y-15698269D02*
X13248753Y-15745888D01*
X13248753Y-15745888D02*
X13239229Y-15764936D01*
X13239229Y-15764936D02*
X13229705Y-15774460D01*
X13229705Y-15774460D02*
X13210658Y-15783984D01*
X13210658Y-15783984D02*
X13153515Y-15783984D01*
X13153515Y-15783984D02*
X13134467Y-15774460D01*
X13134467Y-15774460D02*
X13124943Y-15764936D01*
X13372562Y-15583984D02*
X13391610Y-15583984D01*
X13391610Y-15583984D02*
X13410658Y-15593508D01*
X13410658Y-15593508D02*
X13420182Y-15603031D01*
X13420182Y-15603031D02*
X13429705Y-15622079D01*
X13429705Y-15622079D02*
X13439229Y-15660174D01*
X13439229Y-15660174D02*
X13439229Y-15707793D01*
X13439229Y-15707793D02*
X13429705Y-15745888D01*
X13429705Y-15745888D02*
X13420182Y-15764936D01*
X13420182Y-15764936D02*
X13410658Y-15774460D01*
X13410658Y-15774460D02*
X13391610Y-15783984D01*
X13391610Y-15783984D02*
X13372562Y-15783984D01*
X13372562Y-15783984D02*
X13353515Y-15774460D01*
X13353515Y-15774460D02*
X13343991Y-15764936D01*
X13343991Y-15764936D02*
X13334467Y-15745888D01*
X13334467Y-15745888D02*
X13324943Y-15707793D01*
X13324943Y-15707793D02*
X13324943Y-15660174D01*
X13324943Y-15660174D02*
X13334467Y-15622079D01*
X13334467Y-15622079D02*
X13343991Y-15603031D01*
X13343991Y-15603031D02*
X13353515Y-15593508D01*
X13353515Y-15593508D02*
X13372562Y-15583984D01*
X13563039Y-15583984D02*
X13582086Y-15583984D01*
X13582086Y-15583984D02*
X13601134Y-15593508D01*
X13601134Y-15593508D02*
X13610658Y-15603031D01*
X13610658Y-15603031D02*
X13620182Y-15622079D01*
X13620182Y-15622079D02*
X13629705Y-15660174D01*
X13629705Y-15660174D02*
X13629705Y-15707793D01*
X13629705Y-15707793D02*
X13620182Y-15745888D01*
X13620182Y-15745888D02*
X13610658Y-15764936D01*
X13610658Y-15764936D02*
X13601134Y-15774460D01*
X13601134Y-15774460D02*
X13582086Y-15783984D01*
X13582086Y-15783984D02*
X13563039Y-15783984D01*
X13563039Y-15783984D02*
X13543991Y-15774460D01*
X13543991Y-15774460D02*
X13534467Y-15764936D01*
X13534467Y-15764936D02*
X13524943Y-15745888D01*
X13524943Y-15745888D02*
X13515420Y-15707793D01*
X13515420Y-15707793D02*
X13515420Y-15660174D01*
X13515420Y-15660174D02*
X13524943Y-15622079D01*
X13524943Y-15622079D02*
X13534467Y-15603031D01*
X13534467Y-15603031D02*
X13543991Y-15593508D01*
X13543991Y-15593508D02*
X13563039Y-15583984D01*
X13715420Y-15783984D02*
X13715420Y-15650650D01*
X13715420Y-15669698D02*
X13724943Y-15660174D01*
X13724943Y-15660174D02*
X13743991Y-15650650D01*
X13743991Y-15650650D02*
X13772563Y-15650650D01*
X13772563Y-15650650D02*
X13791610Y-15660174D01*
X13791610Y-15660174D02*
X13801134Y-15679222D01*
X13801134Y-15679222D02*
X13801134Y-15783984D01*
X13801134Y-15679222D02*
X13810658Y-15660174D01*
X13810658Y-15660174D02*
X13829705Y-15650650D01*
X13829705Y-15650650D02*
X13858277Y-15650650D01*
X13858277Y-15650650D02*
X13877324Y-15660174D01*
X13877324Y-15660174D02*
X13886848Y-15679222D01*
X13886848Y-15679222D02*
X13886848Y-15783984D01*
X13982086Y-15783984D02*
X13982086Y-15650650D01*
X13982086Y-15669698D02*
X13991610Y-15660174D01*
X13991610Y-15660174D02*
X14010658Y-15650650D01*
X14010658Y-15650650D02*
X14039229Y-15650650D01*
X14039229Y-15650650D02*
X14058277Y-15660174D01*
X14058277Y-15660174D02*
X14067801Y-15679222D01*
X14067801Y-15679222D02*
X14067801Y-15783984D01*
X14067801Y-15679222D02*
X14077324Y-15660174D01*
X14077324Y-15660174D02*
X14096372Y-15650650D01*
X14096372Y-15650650D02*
X14124943Y-15650650D01*
X14124943Y-15650650D02*
X14143991Y-15660174D01*
X14143991Y-15660174D02*
X14153515Y-15679222D01*
X14153515Y-15679222D02*
X14153515Y-15783984D01*
X14543991Y-15574460D02*
X14372563Y-15831603D01*
X14801134Y-15583984D02*
X14820182Y-15583984D01*
X14820182Y-15583984D02*
X14839229Y-15593508D01*
X14839229Y-15593508D02*
X14848753Y-15603031D01*
X14848753Y-15603031D02*
X14858277Y-15622079D01*
X14858277Y-15622079D02*
X14867801Y-15660174D01*
X14867801Y-15660174D02*
X14867801Y-15707793D01*
X14867801Y-15707793D02*
X14858277Y-15745888D01*
X14858277Y-15745888D02*
X14848753Y-15764936D01*
X14848753Y-15764936D02*
X14839229Y-15774460D01*
X14839229Y-15774460D02*
X14820182Y-15783984D01*
X14820182Y-15783984D02*
X14801134Y-15783984D01*
X14801134Y-15783984D02*
X14782086Y-15774460D01*
X14782086Y-15774460D02*
X14772563Y-15764936D01*
X14772563Y-15764936D02*
X14763039Y-15745888D01*
X14763039Y-15745888D02*
X14753515Y-15707793D01*
X14753515Y-15707793D02*
X14753515Y-15660174D01*
X14753515Y-15660174D02*
X14763039Y-15622079D01*
X14763039Y-15622079D02*
X14772563Y-15603031D01*
X14772563Y-15603031D02*
X14782086Y-15593508D01*
X14782086Y-15593508D02*
X14801134Y-15583984D01*
X14953515Y-15764936D02*
X14963039Y-15774460D01*
X14963039Y-15774460D02*
X14953515Y-15783984D01*
X14953515Y-15783984D02*
X14943991Y-15774460D01*
X14943991Y-15774460D02*
X14953515Y-15764936D01*
X14953515Y-15764936D02*
X14953515Y-15783984D01*
X15086848Y-15583984D02*
X15105896Y-15583984D01*
X15105896Y-15583984D02*
X15124944Y-15593508D01*
X15124944Y-15593508D02*
X15134467Y-15603031D01*
X15134467Y-15603031D02*
X15143991Y-15622079D01*
X15143991Y-15622079D02*
X15153515Y-15660174D01*
X15153515Y-15660174D02*
X15153515Y-15707793D01*
X15153515Y-15707793D02*
X15143991Y-15745888D01*
X15143991Y-15745888D02*
X15134467Y-15764936D01*
X15134467Y-15764936D02*
X15124944Y-15774460D01*
X15124944Y-15774460D02*
X15105896Y-15783984D01*
X15105896Y-15783984D02*
X15086848Y-15783984D01*
X15086848Y-15783984D02*
X15067801Y-15774460D01*
X15067801Y-15774460D02*
X15058277Y-15764936D01*
X15058277Y-15764936D02*
X15048753Y-15745888D01*
X15048753Y-15745888D02*
X15039229Y-15707793D01*
X15039229Y-15707793D02*
X15039229Y-15660174D01*
X15039229Y-15660174D02*
X15048753Y-15622079D01*
X15048753Y-15622079D02*
X15058277Y-15603031D01*
X15058277Y-15603031D02*
X15067801Y-15593508D01*
X15067801Y-15593508D02*
X15086848Y-15583984D01*
X15343991Y-15783984D02*
X15229706Y-15783984D01*
X15286848Y-15783984D02*
X15286848Y-15583984D01*
X15286848Y-15583984D02*
X15267801Y-15612555D01*
X15267801Y-15612555D02*
X15248753Y-15631603D01*
X15248753Y-15631603D02*
X15229706Y-15641127D01*
X15534467Y-15783984D02*
X15420182Y-15783984D01*
X15477325Y-15783984D02*
X15477325Y-15583984D01*
X15477325Y-15583984D02*
X15458277Y-15612555D01*
X15458277Y-15612555D02*
X15439229Y-15631603D01*
X15439229Y-15631603D02*
X15420182Y-15641127D01*
X15648753Y-15669698D02*
X15629706Y-15660174D01*
X15629706Y-15660174D02*
X15620182Y-15650650D01*
X15620182Y-15650650D02*
X15610658Y-15631603D01*
X15610658Y-15631603D02*
X15610658Y-15622079D01*
X15610658Y-15622079D02*
X15620182Y-15603031D01*
X15620182Y-15603031D02*
X15629706Y-15593508D01*
X15629706Y-15593508D02*
X15648753Y-15583984D01*
X15648753Y-15583984D02*
X15686848Y-15583984D01*
X15686848Y-15583984D02*
X15705896Y-15593508D01*
X15705896Y-15593508D02*
X15715420Y-15603031D01*
X15715420Y-15603031D02*
X15724944Y-15622079D01*
X15724944Y-15622079D02*
X15724944Y-15631603D01*
X15724944Y-15631603D02*
X15715420Y-15650650D01*
X15715420Y-15650650D02*
X15705896Y-15660174D01*
X15705896Y-15660174D02*
X15686848Y-15669698D01*
X15686848Y-15669698D02*
X15648753Y-15669698D01*
X15648753Y-15669698D02*
X15629706Y-15679222D01*
X15629706Y-15679222D02*
X15620182Y-15688746D01*
X15620182Y-15688746D02*
X15610658Y-15707793D01*
X15610658Y-15707793D02*
X15610658Y-15745888D01*
X15610658Y-15745888D02*
X15620182Y-15764936D01*
X15620182Y-15764936D02*
X15629706Y-15774460D01*
X15629706Y-15774460D02*
X15648753Y-15783984D01*
X15648753Y-15783984D02*
X15686848Y-15783984D01*
X15686848Y-15783984D02*
X15705896Y-15774460D01*
X15705896Y-15774460D02*
X15715420Y-15764936D01*
X15715420Y-15764936D02*
X15724944Y-15745888D01*
X15724944Y-15745888D02*
X15724944Y-15707793D01*
X15724944Y-15707793D02*
X15715420Y-15688746D01*
X15715420Y-15688746D02*
X15705896Y-15679222D01*
X15705896Y-15679222D02*
X15686848Y-15669698D01*
X15801134Y-15583984D02*
X15801134Y-15622079D01*
X15877325Y-15583984D02*
X15877325Y-15622079D01*
X16172563Y-15860174D02*
X16163039Y-15850650D01*
X16163039Y-15850650D02*
X16143991Y-15822079D01*
X16143991Y-15822079D02*
X16134468Y-15803031D01*
X16134468Y-15803031D02*
X16124944Y-15774460D01*
X16124944Y-15774460D02*
X16115420Y-15726841D01*
X16115420Y-15726841D02*
X16115420Y-15688746D01*
X16115420Y-15688746D02*
X16124944Y-15641127D01*
X16124944Y-15641127D02*
X16134468Y-15612555D01*
X16134468Y-15612555D02*
X16143991Y-15593508D01*
X16143991Y-15593508D02*
X16163039Y-15564936D01*
X16163039Y-15564936D02*
X16172563Y-15555412D01*
X16229706Y-15583984D02*
X16353515Y-15583984D01*
X16353515Y-15583984D02*
X16286848Y-15660174D01*
X16286848Y-15660174D02*
X16315420Y-15660174D01*
X16315420Y-15660174D02*
X16334468Y-15669698D01*
X16334468Y-15669698D02*
X16343991Y-15679222D01*
X16343991Y-15679222D02*
X16353515Y-15698269D01*
X16353515Y-15698269D02*
X16353515Y-15745888D01*
X16353515Y-15745888D02*
X16343991Y-15764936D01*
X16343991Y-15764936D02*
X16334468Y-15774460D01*
X16334468Y-15774460D02*
X16315420Y-15783984D01*
X16315420Y-15783984D02*
X16258277Y-15783984D01*
X16258277Y-15783984D02*
X16239229Y-15774460D01*
X16239229Y-15774460D02*
X16229706Y-15764936D01*
X16467801Y-15669698D02*
X16448753Y-15660174D01*
X16448753Y-15660174D02*
X16439229Y-15650650D01*
X16439229Y-15650650D02*
X16429706Y-15631603D01*
X16429706Y-15631603D02*
X16429706Y-15622079D01*
X16429706Y-15622079D02*
X16439229Y-15603031D01*
X16439229Y-15603031D02*
X16448753Y-15593508D01*
X16448753Y-15593508D02*
X16467801Y-15583984D01*
X16467801Y-15583984D02*
X16505896Y-15583984D01*
X16505896Y-15583984D02*
X16524944Y-15593508D01*
X16524944Y-15593508D02*
X16534468Y-15603031D01*
X16534468Y-15603031D02*
X16543991Y-15622079D01*
X16543991Y-15622079D02*
X16543991Y-15631603D01*
X16543991Y-15631603D02*
X16534468Y-15650650D01*
X16534468Y-15650650D02*
X16524944Y-15660174D01*
X16524944Y-15660174D02*
X16505896Y-15669698D01*
X16505896Y-15669698D02*
X16467801Y-15669698D01*
X16467801Y-15669698D02*
X16448753Y-15679222D01*
X16448753Y-15679222D02*
X16439229Y-15688746D01*
X16439229Y-15688746D02*
X16429706Y-15707793D01*
X16429706Y-15707793D02*
X16429706Y-15745888D01*
X16429706Y-15745888D02*
X16439229Y-15764936D01*
X16439229Y-15764936D02*
X16448753Y-15774460D01*
X16448753Y-15774460D02*
X16467801Y-15783984D01*
X16467801Y-15783984D02*
X16505896Y-15783984D01*
X16505896Y-15783984D02*
X16524944Y-15774460D01*
X16524944Y-15774460D02*
X16534468Y-15764936D01*
X16534468Y-15764936D02*
X16543991Y-15745888D01*
X16543991Y-15745888D02*
X16543991Y-15707793D01*
X16543991Y-15707793D02*
X16534468Y-15688746D01*
X16534468Y-15688746D02*
X16524944Y-15679222D01*
X16524944Y-15679222D02*
X16505896Y-15669698D01*
X16734468Y-15783984D02*
X16620182Y-15783984D01*
X16677325Y-15783984D02*
X16677325Y-15583984D01*
X16677325Y-15583984D02*
X16658277Y-15612555D01*
X16658277Y-15612555D02*
X16639229Y-15631603D01*
X16639229Y-15631603D02*
X16620182Y-15641127D01*
X16972563Y-15783984D02*
X16972563Y-15583984D01*
X17058277Y-15783984D02*
X17058277Y-15679222D01*
X17058277Y-15679222D02*
X17048753Y-15660174D01*
X17048753Y-15660174D02*
X17029706Y-15650650D01*
X17029706Y-15650650D02*
X17001134Y-15650650D01*
X17001134Y-15650650D02*
X16982087Y-15660174D01*
X16982087Y-15660174D02*
X16972563Y-15669698D01*
X17182087Y-15783984D02*
X17163039Y-15774460D01*
X17163039Y-15774460D02*
X17153515Y-15764936D01*
X17153515Y-15764936D02*
X17143992Y-15745888D01*
X17143992Y-15745888D02*
X17143992Y-15688746D01*
X17143992Y-15688746D02*
X17153515Y-15669698D01*
X17153515Y-15669698D02*
X17163039Y-15660174D01*
X17163039Y-15660174D02*
X17182087Y-15650650D01*
X17182087Y-15650650D02*
X17210658Y-15650650D01*
X17210658Y-15650650D02*
X17229706Y-15660174D01*
X17229706Y-15660174D02*
X17239230Y-15669698D01*
X17239230Y-15669698D02*
X17248753Y-15688746D01*
X17248753Y-15688746D02*
X17248753Y-15745888D01*
X17248753Y-15745888D02*
X17239230Y-15764936D01*
X17239230Y-15764936D02*
X17229706Y-15774460D01*
X17229706Y-15774460D02*
X17210658Y-15783984D01*
X17210658Y-15783984D02*
X17182087Y-15783984D01*
X17363039Y-15783984D02*
X17343992Y-15774460D01*
X17343992Y-15774460D02*
X17334468Y-15755412D01*
X17334468Y-15755412D02*
X17334468Y-15583984D01*
X17515420Y-15774460D02*
X17496373Y-15783984D01*
X17496373Y-15783984D02*
X17458277Y-15783984D01*
X17458277Y-15783984D02*
X17439230Y-15774460D01*
X17439230Y-15774460D02*
X17429706Y-15755412D01*
X17429706Y-15755412D02*
X17429706Y-15679222D01*
X17429706Y-15679222D02*
X17439230Y-15660174D01*
X17439230Y-15660174D02*
X17458277Y-15650650D01*
X17458277Y-15650650D02*
X17496373Y-15650650D01*
X17496373Y-15650650D02*
X17515420Y-15660174D01*
X17515420Y-15660174D02*
X17524944Y-15679222D01*
X17524944Y-15679222D02*
X17524944Y-15698269D01*
X17524944Y-15698269D02*
X17429706Y-15717317D01*
X17601134Y-15774460D02*
X17620182Y-15783984D01*
X17620182Y-15783984D02*
X17658277Y-15783984D01*
X17658277Y-15783984D02*
X17677325Y-15774460D01*
X17677325Y-15774460D02*
X17686849Y-15755412D01*
X17686849Y-15755412D02*
X17686849Y-15745888D01*
X17686849Y-15745888D02*
X17677325Y-15726841D01*
X17677325Y-15726841D02*
X17658277Y-15717317D01*
X17658277Y-15717317D02*
X17629706Y-15717317D01*
X17629706Y-15717317D02*
X17610658Y-15707793D01*
X17610658Y-15707793D02*
X17601134Y-15688746D01*
X17601134Y-15688746D02*
X17601134Y-15679222D01*
X17601134Y-15679222D02*
X17610658Y-15660174D01*
X17610658Y-15660174D02*
X17629706Y-15650650D01*
X17629706Y-15650650D02*
X17658277Y-15650650D01*
X17658277Y-15650650D02*
X17677325Y-15660174D01*
X17753515Y-15860174D02*
X17763039Y-15850650D01*
X17763039Y-15850650D02*
X17782087Y-15822079D01*
X17782087Y-15822079D02*
X17791611Y-15803031D01*
X17791611Y-15803031D02*
X17801134Y-15774460D01*
X17801134Y-15774460D02*
X17810658Y-15726841D01*
X17810658Y-15726841D02*
X17810658Y-15688746D01*
X17810658Y-15688746D02*
X17801134Y-15641127D01*
X17801134Y-15641127D02*
X17791611Y-15612555D01*
X17791611Y-15612555D02*
X17782087Y-15593508D01*
X17782087Y-15593508D02*
X17763039Y-15564936D01*
X17763039Y-15564936D02*
X17753515Y-15555412D01*
D12*
X12597500Y-15956500D02*
G75*
G02*
X12567500Y-15956500I-15000J0D01*
G01*
X12567500Y-15956500D02*
G75*
G02*
X12597500Y-15956500I15000J0D01*
G01*
D11*
X12896372Y-15847984D02*
X12915420Y-15847984D01*
X12915420Y-15847984D02*
X12934467Y-15857508D01*
X12934467Y-15857508D02*
X12943991Y-15867031D01*
X12943991Y-15867031D02*
X12953515Y-15886079D01*
X12953515Y-15886079D02*
X12963039Y-15924174D01*
X12963039Y-15924174D02*
X12963039Y-15971793D01*
X12963039Y-15971793D02*
X12953515Y-16009888D01*
X12953515Y-16009888D02*
X12943991Y-16028936D01*
X12943991Y-16028936D02*
X12934467Y-16038460D01*
X12934467Y-16038460D02*
X12915420Y-16047984D01*
X12915420Y-16047984D02*
X12896372Y-16047984D01*
X12896372Y-16047984D02*
X12877324Y-16038460D01*
X12877324Y-16038460D02*
X12867801Y-16028936D01*
X12867801Y-16028936D02*
X12858277Y-16009888D01*
X12858277Y-16009888D02*
X12848753Y-15971793D01*
X12848753Y-15971793D02*
X12848753Y-15924174D01*
X12848753Y-15924174D02*
X12858277Y-15886079D01*
X12858277Y-15886079D02*
X12867801Y-15867031D01*
X12867801Y-15867031D02*
X12877324Y-15857508D01*
X12877324Y-15857508D02*
X12896372Y-15847984D01*
X13048753Y-16028936D02*
X13058277Y-16038460D01*
X13058277Y-16038460D02*
X13048753Y-16047984D01*
X13048753Y-16047984D02*
X13039229Y-16038460D01*
X13039229Y-16038460D02*
X13048753Y-16028936D01*
X13048753Y-16028936D02*
X13048753Y-16047984D01*
X13124943Y-15847984D02*
X13248753Y-15847984D01*
X13248753Y-15847984D02*
X13182086Y-15924174D01*
X13182086Y-15924174D02*
X13210658Y-15924174D01*
X13210658Y-15924174D02*
X13229705Y-15933698D01*
X13229705Y-15933698D02*
X13239229Y-15943222D01*
X13239229Y-15943222D02*
X13248753Y-15962269D01*
X13248753Y-15962269D02*
X13248753Y-16009888D01*
X13248753Y-16009888D02*
X13239229Y-16028936D01*
X13239229Y-16028936D02*
X13229705Y-16038460D01*
X13229705Y-16038460D02*
X13210658Y-16047984D01*
X13210658Y-16047984D02*
X13153515Y-16047984D01*
X13153515Y-16047984D02*
X13134467Y-16038460D01*
X13134467Y-16038460D02*
X13124943Y-16028936D01*
X13372562Y-15847984D02*
X13391610Y-15847984D01*
X13391610Y-15847984D02*
X13410658Y-15857508D01*
X13410658Y-15857508D02*
X13420182Y-15867031D01*
X13420182Y-15867031D02*
X13429705Y-15886079D01*
X13429705Y-15886079D02*
X13439229Y-15924174D01*
X13439229Y-15924174D02*
X13439229Y-15971793D01*
X13439229Y-15971793D02*
X13429705Y-16009888D01*
X13429705Y-16009888D02*
X13420182Y-16028936D01*
X13420182Y-16028936D02*
X13410658Y-16038460D01*
X13410658Y-16038460D02*
X13391610Y-16047984D01*
X13391610Y-16047984D02*
X13372562Y-16047984D01*
X13372562Y-16047984D02*
X13353515Y-16038460D01*
X13353515Y-16038460D02*
X13343991Y-16028936D01*
X13343991Y-16028936D02*
X13334467Y-16009888D01*
X13334467Y-16009888D02*
X13324943Y-15971793D01*
X13324943Y-15971793D02*
X13324943Y-15924174D01*
X13324943Y-15924174D02*
X13334467Y-15886079D01*
X13334467Y-15886079D02*
X13343991Y-15867031D01*
X13343991Y-15867031D02*
X13353515Y-15857508D01*
X13353515Y-15857508D02*
X13372562Y-15847984D01*
X13563039Y-15847984D02*
X13582086Y-15847984D01*
X13582086Y-15847984D02*
X13601134Y-15857508D01*
X13601134Y-15857508D02*
X13610658Y-15867031D01*
X13610658Y-15867031D02*
X13620182Y-15886079D01*
X13620182Y-15886079D02*
X13629705Y-15924174D01*
X13629705Y-15924174D02*
X13629705Y-15971793D01*
X13629705Y-15971793D02*
X13620182Y-16009888D01*
X13620182Y-16009888D02*
X13610658Y-16028936D01*
X13610658Y-16028936D02*
X13601134Y-16038460D01*
X13601134Y-16038460D02*
X13582086Y-16047984D01*
X13582086Y-16047984D02*
X13563039Y-16047984D01*
X13563039Y-16047984D02*
X13543991Y-16038460D01*
X13543991Y-16038460D02*
X13534467Y-16028936D01*
X13534467Y-16028936D02*
X13524943Y-16009888D01*
X13524943Y-16009888D02*
X13515420Y-15971793D01*
X13515420Y-15971793D02*
X13515420Y-15924174D01*
X13515420Y-15924174D02*
X13524943Y-15886079D01*
X13524943Y-15886079D02*
X13534467Y-15867031D01*
X13534467Y-15867031D02*
X13543991Y-15857508D01*
X13543991Y-15857508D02*
X13563039Y-15847984D01*
X13715420Y-16047984D02*
X13715420Y-15914650D01*
X13715420Y-15933698D02*
X13724943Y-15924174D01*
X13724943Y-15924174D02*
X13743991Y-15914650D01*
X13743991Y-15914650D02*
X13772563Y-15914650D01*
X13772563Y-15914650D02*
X13791610Y-15924174D01*
X13791610Y-15924174D02*
X13801134Y-15943222D01*
X13801134Y-15943222D02*
X13801134Y-16047984D01*
X13801134Y-15943222D02*
X13810658Y-15924174D01*
X13810658Y-15924174D02*
X13829705Y-15914650D01*
X13829705Y-15914650D02*
X13858277Y-15914650D01*
X13858277Y-15914650D02*
X13877324Y-15924174D01*
X13877324Y-15924174D02*
X13886848Y-15943222D01*
X13886848Y-15943222D02*
X13886848Y-16047984D01*
X13982086Y-16047984D02*
X13982086Y-15914650D01*
X13982086Y-15933698D02*
X13991610Y-15924174D01*
X13991610Y-15924174D02*
X14010658Y-15914650D01*
X14010658Y-15914650D02*
X14039229Y-15914650D01*
X14039229Y-15914650D02*
X14058277Y-15924174D01*
X14058277Y-15924174D02*
X14067801Y-15943222D01*
X14067801Y-15943222D02*
X14067801Y-16047984D01*
X14067801Y-15943222D02*
X14077324Y-15924174D01*
X14077324Y-15924174D02*
X14096372Y-15914650D01*
X14096372Y-15914650D02*
X14124943Y-15914650D01*
X14124943Y-15914650D02*
X14143991Y-15924174D01*
X14143991Y-15924174D02*
X14153515Y-15943222D01*
X14153515Y-15943222D02*
X14153515Y-16047984D01*
X14543991Y-15838460D02*
X14372563Y-16095603D01*
X14801134Y-15847984D02*
X14820182Y-15847984D01*
X14820182Y-15847984D02*
X14839229Y-15857508D01*
X14839229Y-15857508D02*
X14848753Y-15867031D01*
X14848753Y-15867031D02*
X14858277Y-15886079D01*
X14858277Y-15886079D02*
X14867801Y-15924174D01*
X14867801Y-15924174D02*
X14867801Y-15971793D01*
X14867801Y-15971793D02*
X14858277Y-16009888D01*
X14858277Y-16009888D02*
X14848753Y-16028936D01*
X14848753Y-16028936D02*
X14839229Y-16038460D01*
X14839229Y-16038460D02*
X14820182Y-16047984D01*
X14820182Y-16047984D02*
X14801134Y-16047984D01*
X14801134Y-16047984D02*
X14782086Y-16038460D01*
X14782086Y-16038460D02*
X14772563Y-16028936D01*
X14772563Y-16028936D02*
X14763039Y-16009888D01*
X14763039Y-16009888D02*
X14753515Y-15971793D01*
X14753515Y-15971793D02*
X14753515Y-15924174D01*
X14753515Y-15924174D02*
X14763039Y-15886079D01*
X14763039Y-15886079D02*
X14772563Y-15867031D01*
X14772563Y-15867031D02*
X14782086Y-15857508D01*
X14782086Y-15857508D02*
X14801134Y-15847984D01*
X14953515Y-16028936D02*
X14963039Y-16038460D01*
X14963039Y-16038460D02*
X14953515Y-16047984D01*
X14953515Y-16047984D02*
X14943991Y-16038460D01*
X14943991Y-16038460D02*
X14953515Y-16028936D01*
X14953515Y-16028936D02*
X14953515Y-16047984D01*
X15086848Y-15847984D02*
X15105896Y-15847984D01*
X15105896Y-15847984D02*
X15124944Y-15857508D01*
X15124944Y-15857508D02*
X15134467Y-15867031D01*
X15134467Y-15867031D02*
X15143991Y-15886079D01*
X15143991Y-15886079D02*
X15153515Y-15924174D01*
X15153515Y-15924174D02*
X15153515Y-15971793D01*
X15153515Y-15971793D02*
X15143991Y-16009888D01*
X15143991Y-16009888D02*
X15134467Y-16028936D01*
X15134467Y-16028936D02*
X15124944Y-16038460D01*
X15124944Y-16038460D02*
X15105896Y-16047984D01*
X15105896Y-16047984D02*
X15086848Y-16047984D01*
X15086848Y-16047984D02*
X15067801Y-16038460D01*
X15067801Y-16038460D02*
X15058277Y-16028936D01*
X15058277Y-16028936D02*
X15048753Y-16009888D01*
X15048753Y-16009888D02*
X15039229Y-15971793D01*
X15039229Y-15971793D02*
X15039229Y-15924174D01*
X15039229Y-15924174D02*
X15048753Y-15886079D01*
X15048753Y-15886079D02*
X15058277Y-15867031D01*
X15058277Y-15867031D02*
X15067801Y-15857508D01*
X15067801Y-15857508D02*
X15086848Y-15847984D01*
X15343991Y-16047984D02*
X15229706Y-16047984D01*
X15286848Y-16047984D02*
X15286848Y-15847984D01*
X15286848Y-15847984D02*
X15267801Y-15876555D01*
X15267801Y-15876555D02*
X15248753Y-15895603D01*
X15248753Y-15895603D02*
X15229706Y-15905127D01*
X15534467Y-16047984D02*
X15420182Y-16047984D01*
X15477325Y-16047984D02*
X15477325Y-15847984D01*
X15477325Y-15847984D02*
X15458277Y-15876555D01*
X15458277Y-15876555D02*
X15439229Y-15895603D01*
X15439229Y-15895603D02*
X15420182Y-15905127D01*
X15648753Y-15933698D02*
X15629706Y-15924174D01*
X15629706Y-15924174D02*
X15620182Y-15914650D01*
X15620182Y-15914650D02*
X15610658Y-15895603D01*
X15610658Y-15895603D02*
X15610658Y-15886079D01*
X15610658Y-15886079D02*
X15620182Y-15867031D01*
X15620182Y-15867031D02*
X15629706Y-15857508D01*
X15629706Y-15857508D02*
X15648753Y-15847984D01*
X15648753Y-15847984D02*
X15686848Y-15847984D01*
X15686848Y-15847984D02*
X15705896Y-15857508D01*
X15705896Y-15857508D02*
X15715420Y-15867031D01*
X15715420Y-15867031D02*
X15724944Y-15886079D01*
X15724944Y-15886079D02*
X15724944Y-15895603D01*
X15724944Y-15895603D02*
X15715420Y-15914650D01*
X15715420Y-15914650D02*
X15705896Y-15924174D01*
X15705896Y-15924174D02*
X15686848Y-15933698D01*
X15686848Y-15933698D02*
X15648753Y-15933698D01*
X15648753Y-15933698D02*
X15629706Y-15943222D01*
X15629706Y-15943222D02*
X15620182Y-15952746D01*
X15620182Y-15952746D02*
X15610658Y-15971793D01*
X15610658Y-15971793D02*
X15610658Y-16009888D01*
X15610658Y-16009888D02*
X15620182Y-16028936D01*
X15620182Y-16028936D02*
X15629706Y-16038460D01*
X15629706Y-16038460D02*
X15648753Y-16047984D01*
X15648753Y-16047984D02*
X15686848Y-16047984D01*
X15686848Y-16047984D02*
X15705896Y-16038460D01*
X15705896Y-16038460D02*
X15715420Y-16028936D01*
X15715420Y-16028936D02*
X15724944Y-16009888D01*
X15724944Y-16009888D02*
X15724944Y-15971793D01*
X15724944Y-15971793D02*
X15715420Y-15952746D01*
X15715420Y-15952746D02*
X15705896Y-15943222D01*
X15705896Y-15943222D02*
X15686848Y-15933698D01*
X15801134Y-15847984D02*
X15801134Y-15886079D01*
X15877325Y-15847984D02*
X15877325Y-15886079D01*
X16172563Y-16124174D02*
X16163039Y-16114650D01*
X16163039Y-16114650D02*
X16143991Y-16086079D01*
X16143991Y-16086079D02*
X16134468Y-16067031D01*
X16134468Y-16067031D02*
X16124944Y-16038460D01*
X16124944Y-16038460D02*
X16115420Y-15990841D01*
X16115420Y-15990841D02*
X16115420Y-15952746D01*
X16115420Y-15952746D02*
X16124944Y-15905127D01*
X16124944Y-15905127D02*
X16134468Y-15876555D01*
X16134468Y-15876555D02*
X16143991Y-15857508D01*
X16143991Y-15857508D02*
X16163039Y-15828936D01*
X16163039Y-15828936D02*
X16172563Y-15819412D01*
X16353515Y-16047984D02*
X16239229Y-16047984D01*
X16296372Y-16047984D02*
X16296372Y-15847984D01*
X16296372Y-15847984D02*
X16277325Y-15876555D01*
X16277325Y-15876555D02*
X16258277Y-15895603D01*
X16258277Y-15895603D02*
X16239229Y-15905127D01*
X16429706Y-15867031D02*
X16439229Y-15857508D01*
X16439229Y-15857508D02*
X16458277Y-15847984D01*
X16458277Y-15847984D02*
X16505896Y-15847984D01*
X16505896Y-15847984D02*
X16524944Y-15857508D01*
X16524944Y-15857508D02*
X16534468Y-15867031D01*
X16534468Y-15867031D02*
X16543991Y-15886079D01*
X16543991Y-15886079D02*
X16543991Y-15905127D01*
X16543991Y-15905127D02*
X16534468Y-15933698D01*
X16534468Y-15933698D02*
X16420182Y-16047984D01*
X16420182Y-16047984D02*
X16543991Y-16047984D01*
X16782087Y-16047984D02*
X16782087Y-15847984D01*
X16867801Y-16047984D02*
X16867801Y-15943222D01*
X16867801Y-15943222D02*
X16858277Y-15924174D01*
X16858277Y-15924174D02*
X16839230Y-15914650D01*
X16839230Y-15914650D02*
X16810658Y-15914650D01*
X16810658Y-15914650D02*
X16791611Y-15924174D01*
X16791611Y-15924174D02*
X16782087Y-15933698D01*
X16991611Y-16047984D02*
X16972563Y-16038460D01*
X16972563Y-16038460D02*
X16963039Y-16028936D01*
X16963039Y-16028936D02*
X16953515Y-16009888D01*
X16953515Y-16009888D02*
X16953515Y-15952746D01*
X16953515Y-15952746D02*
X16963039Y-15933698D01*
X16963039Y-15933698D02*
X16972563Y-15924174D01*
X16972563Y-15924174D02*
X16991611Y-15914650D01*
X16991611Y-15914650D02*
X17020182Y-15914650D01*
X17020182Y-15914650D02*
X17039230Y-15924174D01*
X17039230Y-15924174D02*
X17048753Y-15933698D01*
X17048753Y-15933698D02*
X17058277Y-15952746D01*
X17058277Y-15952746D02*
X17058277Y-16009888D01*
X17058277Y-16009888D02*
X17048753Y-16028936D01*
X17048753Y-16028936D02*
X17039230Y-16038460D01*
X17039230Y-16038460D02*
X17020182Y-16047984D01*
X17020182Y-16047984D02*
X16991611Y-16047984D01*
X17172563Y-16047984D02*
X17153515Y-16038460D01*
X17153515Y-16038460D02*
X17143992Y-16019412D01*
X17143992Y-16019412D02*
X17143992Y-15847984D01*
X17324944Y-16038460D02*
X17305896Y-16047984D01*
X17305896Y-16047984D02*
X17267801Y-16047984D01*
X17267801Y-16047984D02*
X17248753Y-16038460D01*
X17248753Y-16038460D02*
X17239230Y-16019412D01*
X17239230Y-16019412D02*
X17239230Y-15943222D01*
X17239230Y-15943222D02*
X17248753Y-15924174D01*
X17248753Y-15924174D02*
X17267801Y-15914650D01*
X17267801Y-15914650D02*
X17305896Y-15914650D01*
X17305896Y-15914650D02*
X17324944Y-15924174D01*
X17324944Y-15924174D02*
X17334468Y-15943222D01*
X17334468Y-15943222D02*
X17334468Y-15962269D01*
X17334468Y-15962269D02*
X17239230Y-15981317D01*
X17410658Y-16038460D02*
X17429706Y-16047984D01*
X17429706Y-16047984D02*
X17467801Y-16047984D01*
X17467801Y-16047984D02*
X17486849Y-16038460D01*
X17486849Y-16038460D02*
X17496373Y-16019412D01*
X17496373Y-16019412D02*
X17496373Y-16009888D01*
X17496373Y-16009888D02*
X17486849Y-15990841D01*
X17486849Y-15990841D02*
X17467801Y-15981317D01*
X17467801Y-15981317D02*
X17439230Y-15981317D01*
X17439230Y-15981317D02*
X17420182Y-15971793D01*
X17420182Y-15971793D02*
X17410658Y-15952746D01*
X17410658Y-15952746D02*
X17410658Y-15943222D01*
X17410658Y-15943222D02*
X17420182Y-15924174D01*
X17420182Y-15924174D02*
X17439230Y-15914650D01*
X17439230Y-15914650D02*
X17467801Y-15914650D01*
X17467801Y-15914650D02*
X17486849Y-15924174D01*
X17563039Y-16124174D02*
X17572563Y-16114650D01*
X17572563Y-16114650D02*
X17591611Y-16086079D01*
X17591611Y-16086079D02*
X17601134Y-16067031D01*
X17601134Y-16067031D02*
X17610658Y-16038460D01*
X17610658Y-16038460D02*
X17620182Y-15990841D01*
X17620182Y-15990841D02*
X17620182Y-15952746D01*
X17620182Y-15952746D02*
X17610658Y-15905127D01*
X17610658Y-15905127D02*
X17601134Y-15876555D01*
X17601134Y-15876555D02*
X17591611Y-15857508D01*
X17591611Y-15857508D02*
X17572563Y-15828936D01*
X17572563Y-15828936D02*
X17563039Y-15819412D01*
D12*
X12572500Y-16195500D02*
X12572500Y-16245500D01*
X12547500Y-16220500D02*
X12597500Y-16220500D01*
D11*
X12896372Y-16111984D02*
X12915420Y-16111984D01*
X12915420Y-16111984D02*
X12934467Y-16121508D01*
X12934467Y-16121508D02*
X12943991Y-16131031D01*
X12943991Y-16131031D02*
X12953515Y-16150079D01*
X12953515Y-16150079D02*
X12963039Y-16188174D01*
X12963039Y-16188174D02*
X12963039Y-16235793D01*
X12963039Y-16235793D02*
X12953515Y-16273888D01*
X12953515Y-16273888D02*
X12943991Y-16292936D01*
X12943991Y-16292936D02*
X12934467Y-16302460D01*
X12934467Y-16302460D02*
X12915420Y-16311984D01*
X12915420Y-16311984D02*
X12896372Y-16311984D01*
X12896372Y-16311984D02*
X12877324Y-16302460D01*
X12877324Y-16302460D02*
X12867801Y-16292936D01*
X12867801Y-16292936D02*
X12858277Y-16273888D01*
X12858277Y-16273888D02*
X12848753Y-16235793D01*
X12848753Y-16235793D02*
X12848753Y-16188174D01*
X12848753Y-16188174D02*
X12858277Y-16150079D01*
X12858277Y-16150079D02*
X12867801Y-16131031D01*
X12867801Y-16131031D02*
X12877324Y-16121508D01*
X12877324Y-16121508D02*
X12896372Y-16111984D01*
X13048753Y-16292936D02*
X13058277Y-16302460D01*
X13058277Y-16302460D02*
X13048753Y-16311984D01*
X13048753Y-16311984D02*
X13039229Y-16302460D01*
X13039229Y-16302460D02*
X13048753Y-16292936D01*
X13048753Y-16292936D02*
X13048753Y-16311984D01*
X13239229Y-16111984D02*
X13143991Y-16111984D01*
X13143991Y-16111984D02*
X13134467Y-16207222D01*
X13134467Y-16207222D02*
X13143991Y-16197698D01*
X13143991Y-16197698D02*
X13163039Y-16188174D01*
X13163039Y-16188174D02*
X13210658Y-16188174D01*
X13210658Y-16188174D02*
X13229705Y-16197698D01*
X13229705Y-16197698D02*
X13239229Y-16207222D01*
X13239229Y-16207222D02*
X13248753Y-16226269D01*
X13248753Y-16226269D02*
X13248753Y-16273888D01*
X13248753Y-16273888D02*
X13239229Y-16292936D01*
X13239229Y-16292936D02*
X13229705Y-16302460D01*
X13229705Y-16302460D02*
X13210658Y-16311984D01*
X13210658Y-16311984D02*
X13163039Y-16311984D01*
X13163039Y-16311984D02*
X13143991Y-16302460D01*
X13143991Y-16302460D02*
X13134467Y-16292936D01*
X13372562Y-16111984D02*
X13391610Y-16111984D01*
X13391610Y-16111984D02*
X13410658Y-16121508D01*
X13410658Y-16121508D02*
X13420182Y-16131031D01*
X13420182Y-16131031D02*
X13429705Y-16150079D01*
X13429705Y-16150079D02*
X13439229Y-16188174D01*
X13439229Y-16188174D02*
X13439229Y-16235793D01*
X13439229Y-16235793D02*
X13429705Y-16273888D01*
X13429705Y-16273888D02*
X13420182Y-16292936D01*
X13420182Y-16292936D02*
X13410658Y-16302460D01*
X13410658Y-16302460D02*
X13391610Y-16311984D01*
X13391610Y-16311984D02*
X13372562Y-16311984D01*
X13372562Y-16311984D02*
X13353515Y-16302460D01*
X13353515Y-16302460D02*
X13343991Y-16292936D01*
X13343991Y-16292936D02*
X13334467Y-16273888D01*
X13334467Y-16273888D02*
X13324943Y-16235793D01*
X13324943Y-16235793D02*
X13324943Y-16188174D01*
X13324943Y-16188174D02*
X13334467Y-16150079D01*
X13334467Y-16150079D02*
X13343991Y-16131031D01*
X13343991Y-16131031D02*
X13353515Y-16121508D01*
X13353515Y-16121508D02*
X13372562Y-16111984D01*
X13563039Y-16111984D02*
X13582086Y-16111984D01*
X13582086Y-16111984D02*
X13601134Y-16121508D01*
X13601134Y-16121508D02*
X13610658Y-16131031D01*
X13610658Y-16131031D02*
X13620182Y-16150079D01*
X13620182Y-16150079D02*
X13629705Y-16188174D01*
X13629705Y-16188174D02*
X13629705Y-16235793D01*
X13629705Y-16235793D02*
X13620182Y-16273888D01*
X13620182Y-16273888D02*
X13610658Y-16292936D01*
X13610658Y-16292936D02*
X13601134Y-16302460D01*
X13601134Y-16302460D02*
X13582086Y-16311984D01*
X13582086Y-16311984D02*
X13563039Y-16311984D01*
X13563039Y-16311984D02*
X13543991Y-16302460D01*
X13543991Y-16302460D02*
X13534467Y-16292936D01*
X13534467Y-16292936D02*
X13524943Y-16273888D01*
X13524943Y-16273888D02*
X13515420Y-16235793D01*
X13515420Y-16235793D02*
X13515420Y-16188174D01*
X13515420Y-16188174D02*
X13524943Y-16150079D01*
X13524943Y-16150079D02*
X13534467Y-16131031D01*
X13534467Y-16131031D02*
X13543991Y-16121508D01*
X13543991Y-16121508D02*
X13563039Y-16111984D01*
X13715420Y-16311984D02*
X13715420Y-16178650D01*
X13715420Y-16197698D02*
X13724943Y-16188174D01*
X13724943Y-16188174D02*
X13743991Y-16178650D01*
X13743991Y-16178650D02*
X13772563Y-16178650D01*
X13772563Y-16178650D02*
X13791610Y-16188174D01*
X13791610Y-16188174D02*
X13801134Y-16207222D01*
X13801134Y-16207222D02*
X13801134Y-16311984D01*
X13801134Y-16207222D02*
X13810658Y-16188174D01*
X13810658Y-16188174D02*
X13829705Y-16178650D01*
X13829705Y-16178650D02*
X13858277Y-16178650D01*
X13858277Y-16178650D02*
X13877324Y-16188174D01*
X13877324Y-16188174D02*
X13886848Y-16207222D01*
X13886848Y-16207222D02*
X13886848Y-16311984D01*
X13982086Y-16311984D02*
X13982086Y-16178650D01*
X13982086Y-16197698D02*
X13991610Y-16188174D01*
X13991610Y-16188174D02*
X14010658Y-16178650D01*
X14010658Y-16178650D02*
X14039229Y-16178650D01*
X14039229Y-16178650D02*
X14058277Y-16188174D01*
X14058277Y-16188174D02*
X14067801Y-16207222D01*
X14067801Y-16207222D02*
X14067801Y-16311984D01*
X14067801Y-16207222D02*
X14077324Y-16188174D01*
X14077324Y-16188174D02*
X14096372Y-16178650D01*
X14096372Y-16178650D02*
X14124943Y-16178650D01*
X14124943Y-16178650D02*
X14143991Y-16188174D01*
X14143991Y-16188174D02*
X14153515Y-16207222D01*
X14153515Y-16207222D02*
X14153515Y-16311984D01*
X14543991Y-16102460D02*
X14372563Y-16359603D01*
X14801134Y-16111984D02*
X14820182Y-16111984D01*
X14820182Y-16111984D02*
X14839229Y-16121508D01*
X14839229Y-16121508D02*
X14848753Y-16131031D01*
X14848753Y-16131031D02*
X14858277Y-16150079D01*
X14858277Y-16150079D02*
X14867801Y-16188174D01*
X14867801Y-16188174D02*
X14867801Y-16235793D01*
X14867801Y-16235793D02*
X14858277Y-16273888D01*
X14858277Y-16273888D02*
X14848753Y-16292936D01*
X14848753Y-16292936D02*
X14839229Y-16302460D01*
X14839229Y-16302460D02*
X14820182Y-16311984D01*
X14820182Y-16311984D02*
X14801134Y-16311984D01*
X14801134Y-16311984D02*
X14782086Y-16302460D01*
X14782086Y-16302460D02*
X14772563Y-16292936D01*
X14772563Y-16292936D02*
X14763039Y-16273888D01*
X14763039Y-16273888D02*
X14753515Y-16235793D01*
X14753515Y-16235793D02*
X14753515Y-16188174D01*
X14753515Y-16188174D02*
X14763039Y-16150079D01*
X14763039Y-16150079D02*
X14772563Y-16131031D01*
X14772563Y-16131031D02*
X14782086Y-16121508D01*
X14782086Y-16121508D02*
X14801134Y-16111984D01*
X14953515Y-16292936D02*
X14963039Y-16302460D01*
X14963039Y-16302460D02*
X14953515Y-16311984D01*
X14953515Y-16311984D02*
X14943991Y-16302460D01*
X14943991Y-16302460D02*
X14953515Y-16292936D01*
X14953515Y-16292936D02*
X14953515Y-16311984D01*
X15086848Y-16111984D02*
X15105896Y-16111984D01*
X15105896Y-16111984D02*
X15124944Y-16121508D01*
X15124944Y-16121508D02*
X15134467Y-16131031D01*
X15134467Y-16131031D02*
X15143991Y-16150079D01*
X15143991Y-16150079D02*
X15153515Y-16188174D01*
X15153515Y-16188174D02*
X15153515Y-16235793D01*
X15153515Y-16235793D02*
X15143991Y-16273888D01*
X15143991Y-16273888D02*
X15134467Y-16292936D01*
X15134467Y-16292936D02*
X15124944Y-16302460D01*
X15124944Y-16302460D02*
X15105896Y-16311984D01*
X15105896Y-16311984D02*
X15086848Y-16311984D01*
X15086848Y-16311984D02*
X15067801Y-16302460D01*
X15067801Y-16302460D02*
X15058277Y-16292936D01*
X15058277Y-16292936D02*
X15048753Y-16273888D01*
X15048753Y-16273888D02*
X15039229Y-16235793D01*
X15039229Y-16235793D02*
X15039229Y-16188174D01*
X15039229Y-16188174D02*
X15048753Y-16150079D01*
X15048753Y-16150079D02*
X15058277Y-16131031D01*
X15058277Y-16131031D02*
X15067801Y-16121508D01*
X15067801Y-16121508D02*
X15086848Y-16111984D01*
X15343991Y-16311984D02*
X15229706Y-16311984D01*
X15286848Y-16311984D02*
X15286848Y-16111984D01*
X15286848Y-16111984D02*
X15267801Y-16140555D01*
X15267801Y-16140555D02*
X15248753Y-16159603D01*
X15248753Y-16159603D02*
X15229706Y-16169127D01*
X15439229Y-16311984D02*
X15477325Y-16311984D01*
X15477325Y-16311984D02*
X15496372Y-16302460D01*
X15496372Y-16302460D02*
X15505896Y-16292936D01*
X15505896Y-16292936D02*
X15524944Y-16264365D01*
X15524944Y-16264365D02*
X15534467Y-16226269D01*
X15534467Y-16226269D02*
X15534467Y-16150079D01*
X15534467Y-16150079D02*
X15524944Y-16131031D01*
X15524944Y-16131031D02*
X15515420Y-16121508D01*
X15515420Y-16121508D02*
X15496372Y-16111984D01*
X15496372Y-16111984D02*
X15458277Y-16111984D01*
X15458277Y-16111984D02*
X15439229Y-16121508D01*
X15439229Y-16121508D02*
X15429706Y-16131031D01*
X15429706Y-16131031D02*
X15420182Y-16150079D01*
X15420182Y-16150079D02*
X15420182Y-16197698D01*
X15420182Y-16197698D02*
X15429706Y-16216746D01*
X15429706Y-16216746D02*
X15439229Y-16226269D01*
X15439229Y-16226269D02*
X15458277Y-16235793D01*
X15458277Y-16235793D02*
X15496372Y-16235793D01*
X15496372Y-16235793D02*
X15515420Y-16226269D01*
X15515420Y-16226269D02*
X15524944Y-16216746D01*
X15524944Y-16216746D02*
X15534467Y-16197698D01*
X15601134Y-16111984D02*
X15734467Y-16111984D01*
X15734467Y-16111984D02*
X15648753Y-16311984D01*
X15801134Y-16111984D02*
X15801134Y-16150079D01*
X15877325Y-16111984D02*
X15877325Y-16150079D01*
X16172563Y-16388174D02*
X16163039Y-16378650D01*
X16163039Y-16378650D02*
X16143991Y-16350079D01*
X16143991Y-16350079D02*
X16134468Y-16331031D01*
X16134468Y-16331031D02*
X16124944Y-16302460D01*
X16124944Y-16302460D02*
X16115420Y-16254841D01*
X16115420Y-16254841D02*
X16115420Y-16216746D01*
X16115420Y-16216746D02*
X16124944Y-16169127D01*
X16124944Y-16169127D02*
X16134468Y-16140555D01*
X16134468Y-16140555D02*
X16143991Y-16121508D01*
X16143991Y-16121508D02*
X16163039Y-16092936D01*
X16163039Y-16092936D02*
X16172563Y-16083412D01*
X16353515Y-16311984D02*
X16239229Y-16311984D01*
X16296372Y-16311984D02*
X16296372Y-16111984D01*
X16296372Y-16111984D02*
X16277325Y-16140555D01*
X16277325Y-16140555D02*
X16258277Y-16159603D01*
X16258277Y-16159603D02*
X16239229Y-16169127D01*
X16467801Y-16197698D02*
X16448753Y-16188174D01*
X16448753Y-16188174D02*
X16439229Y-16178650D01*
X16439229Y-16178650D02*
X16429706Y-16159603D01*
X16429706Y-16159603D02*
X16429706Y-16150079D01*
X16429706Y-16150079D02*
X16439229Y-16131031D01*
X16439229Y-16131031D02*
X16448753Y-16121508D01*
X16448753Y-16121508D02*
X16467801Y-16111984D01*
X16467801Y-16111984D02*
X16505896Y-16111984D01*
X16505896Y-16111984D02*
X16524944Y-16121508D01*
X16524944Y-16121508D02*
X16534468Y-16131031D01*
X16534468Y-16131031D02*
X16543991Y-16150079D01*
X16543991Y-16150079D02*
X16543991Y-16159603D01*
X16543991Y-16159603D02*
X16534468Y-16178650D01*
X16534468Y-16178650D02*
X16524944Y-16188174D01*
X16524944Y-16188174D02*
X16505896Y-16197698D01*
X16505896Y-16197698D02*
X16467801Y-16197698D01*
X16467801Y-16197698D02*
X16448753Y-16207222D01*
X16448753Y-16207222D02*
X16439229Y-16216746D01*
X16439229Y-16216746D02*
X16429706Y-16235793D01*
X16429706Y-16235793D02*
X16429706Y-16273888D01*
X16429706Y-16273888D02*
X16439229Y-16292936D01*
X16439229Y-16292936D02*
X16448753Y-16302460D01*
X16448753Y-16302460D02*
X16467801Y-16311984D01*
X16467801Y-16311984D02*
X16505896Y-16311984D01*
X16505896Y-16311984D02*
X16524944Y-16302460D01*
X16524944Y-16302460D02*
X16534468Y-16292936D01*
X16534468Y-16292936D02*
X16543991Y-16273888D01*
X16543991Y-16273888D02*
X16543991Y-16235793D01*
X16543991Y-16235793D02*
X16534468Y-16216746D01*
X16534468Y-16216746D02*
X16524944Y-16207222D01*
X16524944Y-16207222D02*
X16505896Y-16197698D01*
X16782087Y-16311984D02*
X16782087Y-16111984D01*
X16867801Y-16311984D02*
X16867801Y-16207222D01*
X16867801Y-16207222D02*
X16858277Y-16188174D01*
X16858277Y-16188174D02*
X16839230Y-16178650D01*
X16839230Y-16178650D02*
X16810658Y-16178650D01*
X16810658Y-16178650D02*
X16791611Y-16188174D01*
X16791611Y-16188174D02*
X16782087Y-16197698D01*
X16991611Y-16311984D02*
X16972563Y-16302460D01*
X16972563Y-16302460D02*
X16963039Y-16292936D01*
X16963039Y-16292936D02*
X16953515Y-16273888D01*
X16953515Y-16273888D02*
X16953515Y-16216746D01*
X16953515Y-16216746D02*
X16963039Y-16197698D01*
X16963039Y-16197698D02*
X16972563Y-16188174D01*
X16972563Y-16188174D02*
X16991611Y-16178650D01*
X16991611Y-16178650D02*
X17020182Y-16178650D01*
X17020182Y-16178650D02*
X17039230Y-16188174D01*
X17039230Y-16188174D02*
X17048753Y-16197698D01*
X17048753Y-16197698D02*
X17058277Y-16216746D01*
X17058277Y-16216746D02*
X17058277Y-16273888D01*
X17058277Y-16273888D02*
X17048753Y-16292936D01*
X17048753Y-16292936D02*
X17039230Y-16302460D01*
X17039230Y-16302460D02*
X17020182Y-16311984D01*
X17020182Y-16311984D02*
X16991611Y-16311984D01*
X17172563Y-16311984D02*
X17153515Y-16302460D01*
X17153515Y-16302460D02*
X17143992Y-16283412D01*
X17143992Y-16283412D02*
X17143992Y-16111984D01*
X17324944Y-16302460D02*
X17305896Y-16311984D01*
X17305896Y-16311984D02*
X17267801Y-16311984D01*
X17267801Y-16311984D02*
X17248753Y-16302460D01*
X17248753Y-16302460D02*
X17239230Y-16283412D01*
X17239230Y-16283412D02*
X17239230Y-16207222D01*
X17239230Y-16207222D02*
X17248753Y-16188174D01*
X17248753Y-16188174D02*
X17267801Y-16178650D01*
X17267801Y-16178650D02*
X17305896Y-16178650D01*
X17305896Y-16178650D02*
X17324944Y-16188174D01*
X17324944Y-16188174D02*
X17334468Y-16207222D01*
X17334468Y-16207222D02*
X17334468Y-16226269D01*
X17334468Y-16226269D02*
X17239230Y-16245317D01*
X17410658Y-16302460D02*
X17429706Y-16311984D01*
X17429706Y-16311984D02*
X17467801Y-16311984D01*
X17467801Y-16311984D02*
X17486849Y-16302460D01*
X17486849Y-16302460D02*
X17496373Y-16283412D01*
X17496373Y-16283412D02*
X17496373Y-16273888D01*
X17496373Y-16273888D02*
X17486849Y-16254841D01*
X17486849Y-16254841D02*
X17467801Y-16245317D01*
X17467801Y-16245317D02*
X17439230Y-16245317D01*
X17439230Y-16245317D02*
X17420182Y-16235793D01*
X17420182Y-16235793D02*
X17410658Y-16216746D01*
X17410658Y-16216746D02*
X17410658Y-16207222D01*
X17410658Y-16207222D02*
X17420182Y-16188174D01*
X17420182Y-16188174D02*
X17439230Y-16178650D01*
X17439230Y-16178650D02*
X17467801Y-16178650D01*
X17467801Y-16178650D02*
X17486849Y-16188174D01*
X17563039Y-16388174D02*
X17572563Y-16378650D01*
X17572563Y-16378650D02*
X17591611Y-16350079D01*
X17591611Y-16350079D02*
X17601134Y-16331031D01*
X17601134Y-16331031D02*
X17610658Y-16302460D01*
X17610658Y-16302460D02*
X17620182Y-16254841D01*
X17620182Y-16254841D02*
X17620182Y-16216746D01*
X17620182Y-16216746D02*
X17610658Y-16169127D01*
X17610658Y-16169127D02*
X17601134Y-16140555D01*
X17601134Y-16140555D02*
X17591611Y-16121508D01*
X17591611Y-16121508D02*
X17572563Y-16092936D01*
X17572563Y-16092936D02*
X17563039Y-16083412D01*
D12*
X12588713Y-16505713D02*
X12588713Y-16463287D01*
X12546287Y-16463287D01*
X12546287Y-16505713D01*
X12588713Y-16505713D01*
D11*
X12896372Y-16375984D02*
X12915420Y-16375984D01*
X12915420Y-16375984D02*
X12934467Y-16385508D01*
X12934467Y-16385508D02*
X12943991Y-16395031D01*
X12943991Y-16395031D02*
X12953515Y-16414079D01*
X12953515Y-16414079D02*
X12963039Y-16452174D01*
X12963039Y-16452174D02*
X12963039Y-16499793D01*
X12963039Y-16499793D02*
X12953515Y-16537888D01*
X12953515Y-16537888D02*
X12943991Y-16556936D01*
X12943991Y-16556936D02*
X12934467Y-16566460D01*
X12934467Y-16566460D02*
X12915420Y-16575984D01*
X12915420Y-16575984D02*
X12896372Y-16575984D01*
X12896372Y-16575984D02*
X12877324Y-16566460D01*
X12877324Y-16566460D02*
X12867801Y-16556936D01*
X12867801Y-16556936D02*
X12858277Y-16537888D01*
X12858277Y-16537888D02*
X12848753Y-16499793D01*
X12848753Y-16499793D02*
X12848753Y-16452174D01*
X12848753Y-16452174D02*
X12858277Y-16414079D01*
X12858277Y-16414079D02*
X12867801Y-16395031D01*
X12867801Y-16395031D02*
X12877324Y-16385508D01*
X12877324Y-16385508D02*
X12896372Y-16375984D01*
X13048753Y-16556936D02*
X13058277Y-16566460D01*
X13058277Y-16566460D02*
X13048753Y-16575984D01*
X13048753Y-16575984D02*
X13039229Y-16566460D01*
X13039229Y-16566460D02*
X13048753Y-16556936D01*
X13048753Y-16556936D02*
X13048753Y-16575984D01*
X13229705Y-16375984D02*
X13191610Y-16375984D01*
X13191610Y-16375984D02*
X13172562Y-16385508D01*
X13172562Y-16385508D02*
X13163039Y-16395031D01*
X13163039Y-16395031D02*
X13143991Y-16423603D01*
X13143991Y-16423603D02*
X13134467Y-16461698D01*
X13134467Y-16461698D02*
X13134467Y-16537888D01*
X13134467Y-16537888D02*
X13143991Y-16556936D01*
X13143991Y-16556936D02*
X13153515Y-16566460D01*
X13153515Y-16566460D02*
X13172562Y-16575984D01*
X13172562Y-16575984D02*
X13210658Y-16575984D01*
X13210658Y-16575984D02*
X13229705Y-16566460D01*
X13229705Y-16566460D02*
X13239229Y-16556936D01*
X13239229Y-16556936D02*
X13248753Y-16537888D01*
X13248753Y-16537888D02*
X13248753Y-16490269D01*
X13248753Y-16490269D02*
X13239229Y-16471222D01*
X13239229Y-16471222D02*
X13229705Y-16461698D01*
X13229705Y-16461698D02*
X13210658Y-16452174D01*
X13210658Y-16452174D02*
X13172562Y-16452174D01*
X13172562Y-16452174D02*
X13153515Y-16461698D01*
X13153515Y-16461698D02*
X13143991Y-16471222D01*
X13143991Y-16471222D02*
X13134467Y-16490269D01*
X13372562Y-16375984D02*
X13391610Y-16375984D01*
X13391610Y-16375984D02*
X13410658Y-16385508D01*
X13410658Y-16385508D02*
X13420182Y-16395031D01*
X13420182Y-16395031D02*
X13429705Y-16414079D01*
X13429705Y-16414079D02*
X13439229Y-16452174D01*
X13439229Y-16452174D02*
X13439229Y-16499793D01*
X13439229Y-16499793D02*
X13429705Y-16537888D01*
X13429705Y-16537888D02*
X13420182Y-16556936D01*
X13420182Y-16556936D02*
X13410658Y-16566460D01*
X13410658Y-16566460D02*
X13391610Y-16575984D01*
X13391610Y-16575984D02*
X13372562Y-16575984D01*
X13372562Y-16575984D02*
X13353515Y-16566460D01*
X13353515Y-16566460D02*
X13343991Y-16556936D01*
X13343991Y-16556936D02*
X13334467Y-16537888D01*
X13334467Y-16537888D02*
X13324943Y-16499793D01*
X13324943Y-16499793D02*
X13324943Y-16452174D01*
X13324943Y-16452174D02*
X13334467Y-16414079D01*
X13334467Y-16414079D02*
X13343991Y-16395031D01*
X13343991Y-16395031D02*
X13353515Y-16385508D01*
X13353515Y-16385508D02*
X13372562Y-16375984D01*
X13563039Y-16375984D02*
X13582086Y-16375984D01*
X13582086Y-16375984D02*
X13601134Y-16385508D01*
X13601134Y-16385508D02*
X13610658Y-16395031D01*
X13610658Y-16395031D02*
X13620182Y-16414079D01*
X13620182Y-16414079D02*
X13629705Y-16452174D01*
X13629705Y-16452174D02*
X13629705Y-16499793D01*
X13629705Y-16499793D02*
X13620182Y-16537888D01*
X13620182Y-16537888D02*
X13610658Y-16556936D01*
X13610658Y-16556936D02*
X13601134Y-16566460D01*
X13601134Y-16566460D02*
X13582086Y-16575984D01*
X13582086Y-16575984D02*
X13563039Y-16575984D01*
X13563039Y-16575984D02*
X13543991Y-16566460D01*
X13543991Y-16566460D02*
X13534467Y-16556936D01*
X13534467Y-16556936D02*
X13524943Y-16537888D01*
X13524943Y-16537888D02*
X13515420Y-16499793D01*
X13515420Y-16499793D02*
X13515420Y-16452174D01*
X13515420Y-16452174D02*
X13524943Y-16414079D01*
X13524943Y-16414079D02*
X13534467Y-16395031D01*
X13534467Y-16395031D02*
X13543991Y-16385508D01*
X13543991Y-16385508D02*
X13563039Y-16375984D01*
X13715420Y-16575984D02*
X13715420Y-16442650D01*
X13715420Y-16461698D02*
X13724943Y-16452174D01*
X13724943Y-16452174D02*
X13743991Y-16442650D01*
X13743991Y-16442650D02*
X13772563Y-16442650D01*
X13772563Y-16442650D02*
X13791610Y-16452174D01*
X13791610Y-16452174D02*
X13801134Y-16471222D01*
X13801134Y-16471222D02*
X13801134Y-16575984D01*
X13801134Y-16471222D02*
X13810658Y-16452174D01*
X13810658Y-16452174D02*
X13829705Y-16442650D01*
X13829705Y-16442650D02*
X13858277Y-16442650D01*
X13858277Y-16442650D02*
X13877324Y-16452174D01*
X13877324Y-16452174D02*
X13886848Y-16471222D01*
X13886848Y-16471222D02*
X13886848Y-16575984D01*
X13982086Y-16575984D02*
X13982086Y-16442650D01*
X13982086Y-16461698D02*
X13991610Y-16452174D01*
X13991610Y-16452174D02*
X14010658Y-16442650D01*
X14010658Y-16442650D02*
X14039229Y-16442650D01*
X14039229Y-16442650D02*
X14058277Y-16452174D01*
X14058277Y-16452174D02*
X14067801Y-16471222D01*
X14067801Y-16471222D02*
X14067801Y-16575984D01*
X14067801Y-16471222D02*
X14077324Y-16452174D01*
X14077324Y-16452174D02*
X14096372Y-16442650D01*
X14096372Y-16442650D02*
X14124943Y-16442650D01*
X14124943Y-16442650D02*
X14143991Y-16452174D01*
X14143991Y-16452174D02*
X14153515Y-16471222D01*
X14153515Y-16471222D02*
X14153515Y-16575984D01*
X14543991Y-16366460D02*
X14372563Y-16623603D01*
X14801134Y-16375984D02*
X14820182Y-16375984D01*
X14820182Y-16375984D02*
X14839229Y-16385508D01*
X14839229Y-16385508D02*
X14848753Y-16395031D01*
X14848753Y-16395031D02*
X14858277Y-16414079D01*
X14858277Y-16414079D02*
X14867801Y-16452174D01*
X14867801Y-16452174D02*
X14867801Y-16499793D01*
X14867801Y-16499793D02*
X14858277Y-16537888D01*
X14858277Y-16537888D02*
X14848753Y-16556936D01*
X14848753Y-16556936D02*
X14839229Y-16566460D01*
X14839229Y-16566460D02*
X14820182Y-16575984D01*
X14820182Y-16575984D02*
X14801134Y-16575984D01*
X14801134Y-16575984D02*
X14782086Y-16566460D01*
X14782086Y-16566460D02*
X14772563Y-16556936D01*
X14772563Y-16556936D02*
X14763039Y-16537888D01*
X14763039Y-16537888D02*
X14753515Y-16499793D01*
X14753515Y-16499793D02*
X14753515Y-16452174D01*
X14753515Y-16452174D02*
X14763039Y-16414079D01*
X14763039Y-16414079D02*
X14772563Y-16395031D01*
X14772563Y-16395031D02*
X14782086Y-16385508D01*
X14782086Y-16385508D02*
X14801134Y-16375984D01*
X14953515Y-16556936D02*
X14963039Y-16566460D01*
X14963039Y-16566460D02*
X14953515Y-16575984D01*
X14953515Y-16575984D02*
X14943991Y-16566460D01*
X14943991Y-16566460D02*
X14953515Y-16556936D01*
X14953515Y-16556936D02*
X14953515Y-16575984D01*
X15086848Y-16375984D02*
X15105896Y-16375984D01*
X15105896Y-16375984D02*
X15124944Y-16385508D01*
X15124944Y-16385508D02*
X15134467Y-16395031D01*
X15134467Y-16395031D02*
X15143991Y-16414079D01*
X15143991Y-16414079D02*
X15153515Y-16452174D01*
X15153515Y-16452174D02*
X15153515Y-16499793D01*
X15153515Y-16499793D02*
X15143991Y-16537888D01*
X15143991Y-16537888D02*
X15134467Y-16556936D01*
X15134467Y-16556936D02*
X15124944Y-16566460D01*
X15124944Y-16566460D02*
X15105896Y-16575984D01*
X15105896Y-16575984D02*
X15086848Y-16575984D01*
X15086848Y-16575984D02*
X15067801Y-16566460D01*
X15067801Y-16566460D02*
X15058277Y-16556936D01*
X15058277Y-16556936D02*
X15048753Y-16537888D01*
X15048753Y-16537888D02*
X15039229Y-16499793D01*
X15039229Y-16499793D02*
X15039229Y-16452174D01*
X15039229Y-16452174D02*
X15048753Y-16414079D01*
X15048753Y-16414079D02*
X15058277Y-16395031D01*
X15058277Y-16395031D02*
X15067801Y-16385508D01*
X15067801Y-16385508D02*
X15086848Y-16375984D01*
X15229706Y-16395031D02*
X15239229Y-16385508D01*
X15239229Y-16385508D02*
X15258277Y-16375984D01*
X15258277Y-16375984D02*
X15305896Y-16375984D01*
X15305896Y-16375984D02*
X15324944Y-16385508D01*
X15324944Y-16385508D02*
X15334467Y-16395031D01*
X15334467Y-16395031D02*
X15343991Y-16414079D01*
X15343991Y-16414079D02*
X15343991Y-16433127D01*
X15343991Y-16433127D02*
X15334467Y-16461698D01*
X15334467Y-16461698D02*
X15220182Y-16575984D01*
X15220182Y-16575984D02*
X15343991Y-16575984D01*
X15410658Y-16375984D02*
X15534467Y-16375984D01*
X15534467Y-16375984D02*
X15467801Y-16452174D01*
X15467801Y-16452174D02*
X15496372Y-16452174D01*
X15496372Y-16452174D02*
X15515420Y-16461698D01*
X15515420Y-16461698D02*
X15524944Y-16471222D01*
X15524944Y-16471222D02*
X15534467Y-16490269D01*
X15534467Y-16490269D02*
X15534467Y-16537888D01*
X15534467Y-16537888D02*
X15524944Y-16556936D01*
X15524944Y-16556936D02*
X15515420Y-16566460D01*
X15515420Y-16566460D02*
X15496372Y-16575984D01*
X15496372Y-16575984D02*
X15439229Y-16575984D01*
X15439229Y-16575984D02*
X15420182Y-16566460D01*
X15420182Y-16566460D02*
X15410658Y-16556936D01*
X15705896Y-16375984D02*
X15667801Y-16375984D01*
X15667801Y-16375984D02*
X15648753Y-16385508D01*
X15648753Y-16385508D02*
X15639229Y-16395031D01*
X15639229Y-16395031D02*
X15620182Y-16423603D01*
X15620182Y-16423603D02*
X15610658Y-16461698D01*
X15610658Y-16461698D02*
X15610658Y-16537888D01*
X15610658Y-16537888D02*
X15620182Y-16556936D01*
X15620182Y-16556936D02*
X15629706Y-16566460D01*
X15629706Y-16566460D02*
X15648753Y-16575984D01*
X15648753Y-16575984D02*
X15686848Y-16575984D01*
X15686848Y-16575984D02*
X15705896Y-16566460D01*
X15705896Y-16566460D02*
X15715420Y-16556936D01*
X15715420Y-16556936D02*
X15724944Y-16537888D01*
X15724944Y-16537888D02*
X15724944Y-16490269D01*
X15724944Y-16490269D02*
X15715420Y-16471222D01*
X15715420Y-16471222D02*
X15705896Y-16461698D01*
X15705896Y-16461698D02*
X15686848Y-16452174D01*
X15686848Y-16452174D02*
X15648753Y-16452174D01*
X15648753Y-16452174D02*
X15629706Y-16461698D01*
X15629706Y-16461698D02*
X15620182Y-16471222D01*
X15620182Y-16471222D02*
X15610658Y-16490269D01*
X15801134Y-16375984D02*
X15801134Y-16414079D01*
X15877325Y-16375984D02*
X15877325Y-16414079D01*
X16172563Y-16652174D02*
X16163039Y-16642650D01*
X16163039Y-16642650D02*
X16143991Y-16614079D01*
X16143991Y-16614079D02*
X16134468Y-16595031D01*
X16134468Y-16595031D02*
X16124944Y-16566460D01*
X16124944Y-16566460D02*
X16115420Y-16518841D01*
X16115420Y-16518841D02*
X16115420Y-16480746D01*
X16115420Y-16480746D02*
X16124944Y-16433127D01*
X16124944Y-16433127D02*
X16134468Y-16404555D01*
X16134468Y-16404555D02*
X16143991Y-16385508D01*
X16143991Y-16385508D02*
X16163039Y-16356936D01*
X16163039Y-16356936D02*
X16172563Y-16347412D01*
X16286848Y-16375984D02*
X16305896Y-16375984D01*
X16305896Y-16375984D02*
X16324944Y-16385508D01*
X16324944Y-16385508D02*
X16334468Y-16395031D01*
X16334468Y-16395031D02*
X16343991Y-16414079D01*
X16343991Y-16414079D02*
X16353515Y-16452174D01*
X16353515Y-16452174D02*
X16353515Y-16499793D01*
X16353515Y-16499793D02*
X16343991Y-16537888D01*
X16343991Y-16537888D02*
X16334468Y-16556936D01*
X16334468Y-16556936D02*
X16324944Y-16566460D01*
X16324944Y-16566460D02*
X16305896Y-16575984D01*
X16305896Y-16575984D02*
X16286848Y-16575984D01*
X16286848Y-16575984D02*
X16267801Y-16566460D01*
X16267801Y-16566460D02*
X16258277Y-16556936D01*
X16258277Y-16556936D02*
X16248753Y-16537888D01*
X16248753Y-16537888D02*
X16239229Y-16499793D01*
X16239229Y-16499793D02*
X16239229Y-16452174D01*
X16239229Y-16452174D02*
X16248753Y-16414079D01*
X16248753Y-16414079D02*
X16258277Y-16395031D01*
X16258277Y-16395031D02*
X16267801Y-16385508D01*
X16267801Y-16385508D02*
X16286848Y-16375984D01*
X16591610Y-16575984D02*
X16591610Y-16375984D01*
X16677325Y-16575984D02*
X16677325Y-16471222D01*
X16677325Y-16471222D02*
X16667801Y-16452174D01*
X16667801Y-16452174D02*
X16648753Y-16442650D01*
X16648753Y-16442650D02*
X16620182Y-16442650D01*
X16620182Y-16442650D02*
X16601134Y-16452174D01*
X16601134Y-16452174D02*
X16591610Y-16461698D01*
X16801134Y-16575984D02*
X16782087Y-16566460D01*
X16782087Y-16566460D02*
X16772563Y-16556936D01*
X16772563Y-16556936D02*
X16763039Y-16537888D01*
X16763039Y-16537888D02*
X16763039Y-16480746D01*
X16763039Y-16480746D02*
X16772563Y-16461698D01*
X16772563Y-16461698D02*
X16782087Y-16452174D01*
X16782087Y-16452174D02*
X16801134Y-16442650D01*
X16801134Y-16442650D02*
X16829706Y-16442650D01*
X16829706Y-16442650D02*
X16848753Y-16452174D01*
X16848753Y-16452174D02*
X16858277Y-16461698D01*
X16858277Y-16461698D02*
X16867801Y-16480746D01*
X16867801Y-16480746D02*
X16867801Y-16537888D01*
X16867801Y-16537888D02*
X16858277Y-16556936D01*
X16858277Y-16556936D02*
X16848753Y-16566460D01*
X16848753Y-16566460D02*
X16829706Y-16575984D01*
X16829706Y-16575984D02*
X16801134Y-16575984D01*
X16982087Y-16575984D02*
X16963039Y-16566460D01*
X16963039Y-16566460D02*
X16953515Y-16547412D01*
X16953515Y-16547412D02*
X16953515Y-16375984D01*
X17134468Y-16566460D02*
X17115420Y-16575984D01*
X17115420Y-16575984D02*
X17077325Y-16575984D01*
X17077325Y-16575984D02*
X17058277Y-16566460D01*
X17058277Y-16566460D02*
X17048753Y-16547412D01*
X17048753Y-16547412D02*
X17048753Y-16471222D01*
X17048753Y-16471222D02*
X17058277Y-16452174D01*
X17058277Y-16452174D02*
X17077325Y-16442650D01*
X17077325Y-16442650D02*
X17115420Y-16442650D01*
X17115420Y-16442650D02*
X17134468Y-16452174D01*
X17134468Y-16452174D02*
X17143992Y-16471222D01*
X17143992Y-16471222D02*
X17143992Y-16490269D01*
X17143992Y-16490269D02*
X17048753Y-16509317D01*
X17220182Y-16566460D02*
X17239230Y-16575984D01*
X17239230Y-16575984D02*
X17277325Y-16575984D01*
X17277325Y-16575984D02*
X17296373Y-16566460D01*
X17296373Y-16566460D02*
X17305896Y-16547412D01*
X17305896Y-16547412D02*
X17305896Y-16537888D01*
X17305896Y-16537888D02*
X17296373Y-16518841D01*
X17296373Y-16518841D02*
X17277325Y-16509317D01*
X17277325Y-16509317D02*
X17248753Y-16509317D01*
X17248753Y-16509317D02*
X17229706Y-16499793D01*
X17229706Y-16499793D02*
X17220182Y-16480746D01*
X17220182Y-16480746D02*
X17220182Y-16471222D01*
X17220182Y-16471222D02*
X17229706Y-16452174D01*
X17229706Y-16452174D02*
X17248753Y-16442650D01*
X17248753Y-16442650D02*
X17277325Y-16442650D01*
X17277325Y-16442650D02*
X17296373Y-16452174D01*
X17543992Y-16499793D02*
X17696373Y-16499793D01*
X17620182Y-16575984D02*
X17620182Y-16423603D01*
X18029706Y-16442650D02*
X18029706Y-16575984D01*
X17982087Y-16366460D02*
X17934468Y-16509317D01*
X17934468Y-16509317D02*
X18058277Y-16509317D01*
X18277325Y-16566460D02*
X18296373Y-16575984D01*
X18296373Y-16575984D02*
X18334468Y-16575984D01*
X18334468Y-16575984D02*
X18353516Y-16566460D01*
X18353516Y-16566460D02*
X18363039Y-16547412D01*
X18363039Y-16547412D02*
X18363039Y-16537888D01*
X18363039Y-16537888D02*
X18353516Y-16518841D01*
X18353516Y-16518841D02*
X18334468Y-16509317D01*
X18334468Y-16509317D02*
X18305896Y-16509317D01*
X18305896Y-16509317D02*
X18286849Y-16499793D01*
X18286849Y-16499793D02*
X18277325Y-16480746D01*
X18277325Y-16480746D02*
X18277325Y-16471222D01*
X18277325Y-16471222D02*
X18286849Y-16452174D01*
X18286849Y-16452174D02*
X18305896Y-16442650D01*
X18305896Y-16442650D02*
X18334468Y-16442650D01*
X18334468Y-16442650D02*
X18353516Y-16452174D01*
X18477325Y-16575984D02*
X18458277Y-16566460D01*
X18458277Y-16566460D02*
X18448754Y-16547412D01*
X18448754Y-16547412D02*
X18448754Y-16375984D01*
X18582087Y-16575984D02*
X18563039Y-16566460D01*
X18563039Y-16566460D02*
X18553516Y-16556936D01*
X18553516Y-16556936D02*
X18543992Y-16537888D01*
X18543992Y-16537888D02*
X18543992Y-16480746D01*
X18543992Y-16480746D02*
X18553516Y-16461698D01*
X18553516Y-16461698D02*
X18563039Y-16452174D01*
X18563039Y-16452174D02*
X18582087Y-16442650D01*
X18582087Y-16442650D02*
X18610658Y-16442650D01*
X18610658Y-16442650D02*
X18629706Y-16452174D01*
X18629706Y-16452174D02*
X18639230Y-16461698D01*
X18639230Y-16461698D02*
X18648754Y-16480746D01*
X18648754Y-16480746D02*
X18648754Y-16537888D01*
X18648754Y-16537888D02*
X18639230Y-16556936D01*
X18639230Y-16556936D02*
X18629706Y-16566460D01*
X18629706Y-16566460D02*
X18610658Y-16575984D01*
X18610658Y-16575984D02*
X18582087Y-16575984D01*
X18705897Y-16442650D02*
X18782087Y-16442650D01*
X18734468Y-16375984D02*
X18734468Y-16547412D01*
X18734468Y-16547412D02*
X18743992Y-16566460D01*
X18743992Y-16566460D02*
X18763039Y-16575984D01*
X18763039Y-16575984D02*
X18782087Y-16575984D01*
X18839230Y-16566460D02*
X18858277Y-16575984D01*
X18858277Y-16575984D02*
X18896373Y-16575984D01*
X18896373Y-16575984D02*
X18915420Y-16566460D01*
X18915420Y-16566460D02*
X18924944Y-16547412D01*
X18924944Y-16547412D02*
X18924944Y-16537888D01*
X18924944Y-16537888D02*
X18915420Y-16518841D01*
X18915420Y-16518841D02*
X18896373Y-16509317D01*
X18896373Y-16509317D02*
X18867801Y-16509317D01*
X18867801Y-16509317D02*
X18848754Y-16499793D01*
X18848754Y-16499793D02*
X18839230Y-16480746D01*
X18839230Y-16480746D02*
X18839230Y-16471222D01*
X18839230Y-16471222D02*
X18848754Y-16452174D01*
X18848754Y-16452174D02*
X18867801Y-16442650D01*
X18867801Y-16442650D02*
X18896373Y-16442650D01*
X18896373Y-16442650D02*
X18915420Y-16452174D01*
X18991611Y-16652174D02*
X19001135Y-16642650D01*
X19001135Y-16642650D02*
X19020182Y-16614079D01*
X19020182Y-16614079D02*
X19029706Y-16595031D01*
X19029706Y-16595031D02*
X19039230Y-16566460D01*
X19039230Y-16566460D02*
X19048754Y-16518841D01*
X19048754Y-16518841D02*
X19048754Y-16480746D01*
X19048754Y-16480746D02*
X19039230Y-16433127D01*
X19039230Y-16433127D02*
X19029706Y-16404555D01*
X19029706Y-16404555D02*
X19020182Y-16385508D01*
X19020182Y-16385508D02*
X19001135Y-16356936D01*
X19001135Y-16356936D02*
X18991611Y-16347412D01*
D12*
X12562500Y-16783500D02*
X12597500Y-16748500D01*
X12562500Y-16713500D01*
X12527500Y-16748500D01*
X12562500Y-16783500D01*
D11*
X12896372Y-16639984D02*
X12915420Y-16639984D01*
X12915420Y-16639984D02*
X12934467Y-16649508D01*
X12934467Y-16649508D02*
X12943991Y-16659031D01*
X12943991Y-16659031D02*
X12953515Y-16678079D01*
X12953515Y-16678079D02*
X12963039Y-16716174D01*
X12963039Y-16716174D02*
X12963039Y-16763793D01*
X12963039Y-16763793D02*
X12953515Y-16801889D01*
X12953515Y-16801889D02*
X12943991Y-16820936D01*
X12943991Y-16820936D02*
X12934467Y-16830460D01*
X12934467Y-16830460D02*
X12915420Y-16839984D01*
X12915420Y-16839984D02*
X12896372Y-16839984D01*
X12896372Y-16839984D02*
X12877324Y-16830460D01*
X12877324Y-16830460D02*
X12867801Y-16820936D01*
X12867801Y-16820936D02*
X12858277Y-16801889D01*
X12858277Y-16801889D02*
X12848753Y-16763793D01*
X12848753Y-16763793D02*
X12848753Y-16716174D01*
X12848753Y-16716174D02*
X12858277Y-16678079D01*
X12858277Y-16678079D02*
X12867801Y-16659031D01*
X12867801Y-16659031D02*
X12877324Y-16649508D01*
X12877324Y-16649508D02*
X12896372Y-16639984D01*
X13048753Y-16820936D02*
X13058277Y-16830460D01*
X13058277Y-16830460D02*
X13048753Y-16839984D01*
X13048753Y-16839984D02*
X13039229Y-16830460D01*
X13039229Y-16830460D02*
X13048753Y-16820936D01*
X13048753Y-16820936D02*
X13048753Y-16839984D01*
X13124943Y-16639984D02*
X13258277Y-16639984D01*
X13258277Y-16639984D02*
X13172562Y-16839984D01*
X13372562Y-16639984D02*
X13391610Y-16639984D01*
X13391610Y-16639984D02*
X13410658Y-16649508D01*
X13410658Y-16649508D02*
X13420182Y-16659031D01*
X13420182Y-16659031D02*
X13429705Y-16678079D01*
X13429705Y-16678079D02*
X13439229Y-16716174D01*
X13439229Y-16716174D02*
X13439229Y-16763793D01*
X13439229Y-16763793D02*
X13429705Y-16801889D01*
X13429705Y-16801889D02*
X13420182Y-16820936D01*
X13420182Y-16820936D02*
X13410658Y-16830460D01*
X13410658Y-16830460D02*
X13391610Y-16839984D01*
X13391610Y-16839984D02*
X13372562Y-16839984D01*
X13372562Y-16839984D02*
X13353515Y-16830460D01*
X13353515Y-16830460D02*
X13343991Y-16820936D01*
X13343991Y-16820936D02*
X13334467Y-16801889D01*
X13334467Y-16801889D02*
X13324943Y-16763793D01*
X13324943Y-16763793D02*
X13324943Y-16716174D01*
X13324943Y-16716174D02*
X13334467Y-16678079D01*
X13334467Y-16678079D02*
X13343991Y-16659031D01*
X13343991Y-16659031D02*
X13353515Y-16649508D01*
X13353515Y-16649508D02*
X13372562Y-16639984D01*
X13563039Y-16639984D02*
X13582086Y-16639984D01*
X13582086Y-16639984D02*
X13601134Y-16649508D01*
X13601134Y-16649508D02*
X13610658Y-16659031D01*
X13610658Y-16659031D02*
X13620182Y-16678079D01*
X13620182Y-16678079D02*
X13629705Y-16716174D01*
X13629705Y-16716174D02*
X13629705Y-16763793D01*
X13629705Y-16763793D02*
X13620182Y-16801889D01*
X13620182Y-16801889D02*
X13610658Y-16820936D01*
X13610658Y-16820936D02*
X13601134Y-16830460D01*
X13601134Y-16830460D02*
X13582086Y-16839984D01*
X13582086Y-16839984D02*
X13563039Y-16839984D01*
X13563039Y-16839984D02*
X13543991Y-16830460D01*
X13543991Y-16830460D02*
X13534467Y-16820936D01*
X13534467Y-16820936D02*
X13524943Y-16801889D01*
X13524943Y-16801889D02*
X13515420Y-16763793D01*
X13515420Y-16763793D02*
X13515420Y-16716174D01*
X13515420Y-16716174D02*
X13524943Y-16678079D01*
X13524943Y-16678079D02*
X13534467Y-16659031D01*
X13534467Y-16659031D02*
X13543991Y-16649508D01*
X13543991Y-16649508D02*
X13563039Y-16639984D01*
X13715420Y-16839984D02*
X13715420Y-16706650D01*
X13715420Y-16725698D02*
X13724943Y-16716174D01*
X13724943Y-16716174D02*
X13743991Y-16706650D01*
X13743991Y-16706650D02*
X13772563Y-16706650D01*
X13772563Y-16706650D02*
X13791610Y-16716174D01*
X13791610Y-16716174D02*
X13801134Y-16735222D01*
X13801134Y-16735222D02*
X13801134Y-16839984D01*
X13801134Y-16735222D02*
X13810658Y-16716174D01*
X13810658Y-16716174D02*
X13829705Y-16706650D01*
X13829705Y-16706650D02*
X13858277Y-16706650D01*
X13858277Y-16706650D02*
X13877324Y-16716174D01*
X13877324Y-16716174D02*
X13886848Y-16735222D01*
X13886848Y-16735222D02*
X13886848Y-16839984D01*
X13982086Y-16839984D02*
X13982086Y-16706650D01*
X13982086Y-16725698D02*
X13991610Y-16716174D01*
X13991610Y-16716174D02*
X14010658Y-16706650D01*
X14010658Y-16706650D02*
X14039229Y-16706650D01*
X14039229Y-16706650D02*
X14058277Y-16716174D01*
X14058277Y-16716174D02*
X14067801Y-16735222D01*
X14067801Y-16735222D02*
X14067801Y-16839984D01*
X14067801Y-16735222D02*
X14077324Y-16716174D01*
X14077324Y-16716174D02*
X14096372Y-16706650D01*
X14096372Y-16706650D02*
X14124943Y-16706650D01*
X14124943Y-16706650D02*
X14143991Y-16716174D01*
X14143991Y-16716174D02*
X14153515Y-16735222D01*
X14153515Y-16735222D02*
X14153515Y-16839984D01*
X14543991Y-16630460D02*
X14372563Y-16887603D01*
X14801134Y-16639984D02*
X14820182Y-16639984D01*
X14820182Y-16639984D02*
X14839229Y-16649508D01*
X14839229Y-16649508D02*
X14848753Y-16659031D01*
X14848753Y-16659031D02*
X14858277Y-16678079D01*
X14858277Y-16678079D02*
X14867801Y-16716174D01*
X14867801Y-16716174D02*
X14867801Y-16763793D01*
X14867801Y-16763793D02*
X14858277Y-16801889D01*
X14858277Y-16801889D02*
X14848753Y-16820936D01*
X14848753Y-16820936D02*
X14839229Y-16830460D01*
X14839229Y-16830460D02*
X14820182Y-16839984D01*
X14820182Y-16839984D02*
X14801134Y-16839984D01*
X14801134Y-16839984D02*
X14782086Y-16830460D01*
X14782086Y-16830460D02*
X14772563Y-16820936D01*
X14772563Y-16820936D02*
X14763039Y-16801889D01*
X14763039Y-16801889D02*
X14753515Y-16763793D01*
X14753515Y-16763793D02*
X14753515Y-16716174D01*
X14753515Y-16716174D02*
X14763039Y-16678079D01*
X14763039Y-16678079D02*
X14772563Y-16659031D01*
X14772563Y-16659031D02*
X14782086Y-16649508D01*
X14782086Y-16649508D02*
X14801134Y-16639984D01*
X14953515Y-16820936D02*
X14963039Y-16830460D01*
X14963039Y-16830460D02*
X14953515Y-16839984D01*
X14953515Y-16839984D02*
X14943991Y-16830460D01*
X14943991Y-16830460D02*
X14953515Y-16820936D01*
X14953515Y-16820936D02*
X14953515Y-16839984D01*
X15086848Y-16639984D02*
X15105896Y-16639984D01*
X15105896Y-16639984D02*
X15124944Y-16649508D01*
X15124944Y-16649508D02*
X15134467Y-16659031D01*
X15134467Y-16659031D02*
X15143991Y-16678079D01*
X15143991Y-16678079D02*
X15153515Y-16716174D01*
X15153515Y-16716174D02*
X15153515Y-16763793D01*
X15153515Y-16763793D02*
X15143991Y-16801889D01*
X15143991Y-16801889D02*
X15134467Y-16820936D01*
X15134467Y-16820936D02*
X15124944Y-16830460D01*
X15124944Y-16830460D02*
X15105896Y-16839984D01*
X15105896Y-16839984D02*
X15086848Y-16839984D01*
X15086848Y-16839984D02*
X15067801Y-16830460D01*
X15067801Y-16830460D02*
X15058277Y-16820936D01*
X15058277Y-16820936D02*
X15048753Y-16801889D01*
X15048753Y-16801889D02*
X15039229Y-16763793D01*
X15039229Y-16763793D02*
X15039229Y-16716174D01*
X15039229Y-16716174D02*
X15048753Y-16678079D01*
X15048753Y-16678079D02*
X15058277Y-16659031D01*
X15058277Y-16659031D02*
X15067801Y-16649508D01*
X15067801Y-16649508D02*
X15086848Y-16639984D01*
X15229706Y-16659031D02*
X15239229Y-16649508D01*
X15239229Y-16649508D02*
X15258277Y-16639984D01*
X15258277Y-16639984D02*
X15305896Y-16639984D01*
X15305896Y-16639984D02*
X15324944Y-16649508D01*
X15324944Y-16649508D02*
X15334467Y-16659031D01*
X15334467Y-16659031D02*
X15343991Y-16678079D01*
X15343991Y-16678079D02*
X15343991Y-16697127D01*
X15343991Y-16697127D02*
X15334467Y-16725698D01*
X15334467Y-16725698D02*
X15220182Y-16839984D01*
X15220182Y-16839984D02*
X15343991Y-16839984D01*
X15410658Y-16639984D02*
X15543991Y-16639984D01*
X15543991Y-16639984D02*
X15458277Y-16839984D01*
X15705896Y-16639984D02*
X15667801Y-16639984D01*
X15667801Y-16639984D02*
X15648753Y-16649508D01*
X15648753Y-16649508D02*
X15639229Y-16659031D01*
X15639229Y-16659031D02*
X15620182Y-16687603D01*
X15620182Y-16687603D02*
X15610658Y-16725698D01*
X15610658Y-16725698D02*
X15610658Y-16801889D01*
X15610658Y-16801889D02*
X15620182Y-16820936D01*
X15620182Y-16820936D02*
X15629706Y-16830460D01*
X15629706Y-16830460D02*
X15648753Y-16839984D01*
X15648753Y-16839984D02*
X15686848Y-16839984D01*
X15686848Y-16839984D02*
X15705896Y-16830460D01*
X15705896Y-16830460D02*
X15715420Y-16820936D01*
X15715420Y-16820936D02*
X15724944Y-16801889D01*
X15724944Y-16801889D02*
X15724944Y-16754269D01*
X15724944Y-16754269D02*
X15715420Y-16735222D01*
X15715420Y-16735222D02*
X15705896Y-16725698D01*
X15705896Y-16725698D02*
X15686848Y-16716174D01*
X15686848Y-16716174D02*
X15648753Y-16716174D01*
X15648753Y-16716174D02*
X15629706Y-16725698D01*
X15629706Y-16725698D02*
X15620182Y-16735222D01*
X15620182Y-16735222D02*
X15610658Y-16754269D01*
X15801134Y-16639984D02*
X15801134Y-16678079D01*
X15877325Y-16639984D02*
X15877325Y-16678079D01*
X16172563Y-16916174D02*
X16163039Y-16906650D01*
X16163039Y-16906650D02*
X16143991Y-16878079D01*
X16143991Y-16878079D02*
X16134468Y-16859031D01*
X16134468Y-16859031D02*
X16124944Y-16830460D01*
X16124944Y-16830460D02*
X16115420Y-16782841D01*
X16115420Y-16782841D02*
X16115420Y-16744746D01*
X16115420Y-16744746D02*
X16124944Y-16697127D01*
X16124944Y-16697127D02*
X16134468Y-16668555D01*
X16134468Y-16668555D02*
X16143991Y-16649508D01*
X16143991Y-16649508D02*
X16163039Y-16620936D01*
X16163039Y-16620936D02*
X16172563Y-16611412D01*
X16334468Y-16706650D02*
X16334468Y-16839984D01*
X16286848Y-16630460D02*
X16239229Y-16773317D01*
X16239229Y-16773317D02*
X16363039Y-16773317D01*
X16591610Y-16839984D02*
X16591610Y-16639984D01*
X16677325Y-16839984D02*
X16677325Y-16735222D01*
X16677325Y-16735222D02*
X16667801Y-16716174D01*
X16667801Y-16716174D02*
X16648753Y-16706650D01*
X16648753Y-16706650D02*
X16620182Y-16706650D01*
X16620182Y-16706650D02*
X16601134Y-16716174D01*
X16601134Y-16716174D02*
X16591610Y-16725698D01*
X16801134Y-16839984D02*
X16782087Y-16830460D01*
X16782087Y-16830460D02*
X16772563Y-16820936D01*
X16772563Y-16820936D02*
X16763039Y-16801889D01*
X16763039Y-16801889D02*
X16763039Y-16744746D01*
X16763039Y-16744746D02*
X16772563Y-16725698D01*
X16772563Y-16725698D02*
X16782087Y-16716174D01*
X16782087Y-16716174D02*
X16801134Y-16706650D01*
X16801134Y-16706650D02*
X16829706Y-16706650D01*
X16829706Y-16706650D02*
X16848753Y-16716174D01*
X16848753Y-16716174D02*
X16858277Y-16725698D01*
X16858277Y-16725698D02*
X16867801Y-16744746D01*
X16867801Y-16744746D02*
X16867801Y-16801889D01*
X16867801Y-16801889D02*
X16858277Y-16820936D01*
X16858277Y-16820936D02*
X16848753Y-16830460D01*
X16848753Y-16830460D02*
X16829706Y-16839984D01*
X16829706Y-16839984D02*
X16801134Y-16839984D01*
X16982087Y-16839984D02*
X16963039Y-16830460D01*
X16963039Y-16830460D02*
X16953515Y-16811412D01*
X16953515Y-16811412D02*
X16953515Y-16639984D01*
X17134468Y-16830460D02*
X17115420Y-16839984D01*
X17115420Y-16839984D02*
X17077325Y-16839984D01*
X17077325Y-16839984D02*
X17058277Y-16830460D01*
X17058277Y-16830460D02*
X17048753Y-16811412D01*
X17048753Y-16811412D02*
X17048753Y-16735222D01*
X17048753Y-16735222D02*
X17058277Y-16716174D01*
X17058277Y-16716174D02*
X17077325Y-16706650D01*
X17077325Y-16706650D02*
X17115420Y-16706650D01*
X17115420Y-16706650D02*
X17134468Y-16716174D01*
X17134468Y-16716174D02*
X17143992Y-16735222D01*
X17143992Y-16735222D02*
X17143992Y-16754269D01*
X17143992Y-16754269D02*
X17048753Y-16773317D01*
X17220182Y-16830460D02*
X17239230Y-16839984D01*
X17239230Y-16839984D02*
X17277325Y-16839984D01*
X17277325Y-16839984D02*
X17296373Y-16830460D01*
X17296373Y-16830460D02*
X17305896Y-16811412D01*
X17305896Y-16811412D02*
X17305896Y-16801889D01*
X17305896Y-16801889D02*
X17296373Y-16782841D01*
X17296373Y-16782841D02*
X17277325Y-16773317D01*
X17277325Y-16773317D02*
X17248753Y-16773317D01*
X17248753Y-16773317D02*
X17229706Y-16763793D01*
X17229706Y-16763793D02*
X17220182Y-16744746D01*
X17220182Y-16744746D02*
X17220182Y-16735222D01*
X17220182Y-16735222D02*
X17229706Y-16716174D01*
X17229706Y-16716174D02*
X17248753Y-16706650D01*
X17248753Y-16706650D02*
X17277325Y-16706650D01*
X17277325Y-16706650D02*
X17296373Y-16716174D01*
X17372563Y-16916174D02*
X17382087Y-16906650D01*
X17382087Y-16906650D02*
X17401134Y-16878079D01*
X17401134Y-16878079D02*
X17410658Y-16859031D01*
X17410658Y-16859031D02*
X17420182Y-16830460D01*
X17420182Y-16830460D02*
X17429706Y-16782841D01*
X17429706Y-16782841D02*
X17429706Y-16744746D01*
X17429706Y-16744746D02*
X17420182Y-16697127D01*
X17420182Y-16697127D02*
X17410658Y-16668555D01*
X17410658Y-16668555D02*
X17401134Y-16649508D01*
X17401134Y-16649508D02*
X17382087Y-16620936D01*
X17382087Y-16620936D02*
X17372563Y-16611412D01*
D12*
X12497500Y-16962500D02*
X12597500Y-17062500D01*
X12597500Y-16962500D02*
X12497500Y-17062500D01*
X12597500Y-17012500D02*
G75*
G02*
X12497500Y-17012500I-50000J0D01*
G01*
X12497500Y-17012500D02*
G75*
G02*
X12597500Y-17012500I50000J0D01*
G01*
D11*
X12963039Y-17103984D02*
X12848753Y-17103984D01*
X12905896Y-17103984D02*
X12905896Y-16903984D01*
X12905896Y-16903984D02*
X12886848Y-16932555D01*
X12886848Y-16932555D02*
X12867801Y-16951603D01*
X12867801Y-16951603D02*
X12848753Y-16961127D01*
X13048753Y-17084936D02*
X13058277Y-17094460D01*
X13058277Y-17094460D02*
X13048753Y-17103984D01*
X13048753Y-17103984D02*
X13039229Y-17094460D01*
X13039229Y-17094460D02*
X13048753Y-17084936D01*
X13048753Y-17084936D02*
X13048753Y-17103984D01*
X13182086Y-16903984D02*
X13201134Y-16903984D01*
X13201134Y-16903984D02*
X13220182Y-16913508D01*
X13220182Y-16913508D02*
X13229705Y-16923031D01*
X13229705Y-16923031D02*
X13239229Y-16942079D01*
X13239229Y-16942079D02*
X13248753Y-16980174D01*
X13248753Y-16980174D02*
X13248753Y-17027793D01*
X13248753Y-17027793D02*
X13239229Y-17065889D01*
X13239229Y-17065889D02*
X13229705Y-17084936D01*
X13229705Y-17084936D02*
X13220182Y-17094460D01*
X13220182Y-17094460D02*
X13201134Y-17103984D01*
X13201134Y-17103984D02*
X13182086Y-17103984D01*
X13182086Y-17103984D02*
X13163039Y-17094460D01*
X13163039Y-17094460D02*
X13153515Y-17084936D01*
X13153515Y-17084936D02*
X13143991Y-17065889D01*
X13143991Y-17065889D02*
X13134467Y-17027793D01*
X13134467Y-17027793D02*
X13134467Y-16980174D01*
X13134467Y-16980174D02*
X13143991Y-16942079D01*
X13143991Y-16942079D02*
X13153515Y-16923031D01*
X13153515Y-16923031D02*
X13163039Y-16913508D01*
X13163039Y-16913508D02*
X13182086Y-16903984D01*
X13372562Y-16903984D02*
X13391610Y-16903984D01*
X13391610Y-16903984D02*
X13410658Y-16913508D01*
X13410658Y-16913508D02*
X13420182Y-16923031D01*
X13420182Y-16923031D02*
X13429705Y-16942079D01*
X13429705Y-16942079D02*
X13439229Y-16980174D01*
X13439229Y-16980174D02*
X13439229Y-17027793D01*
X13439229Y-17027793D02*
X13429705Y-17065889D01*
X13429705Y-17065889D02*
X13420182Y-17084936D01*
X13420182Y-17084936D02*
X13410658Y-17094460D01*
X13410658Y-17094460D02*
X13391610Y-17103984D01*
X13391610Y-17103984D02*
X13372562Y-17103984D01*
X13372562Y-17103984D02*
X13353515Y-17094460D01*
X13353515Y-17094460D02*
X13343991Y-17084936D01*
X13343991Y-17084936D02*
X13334467Y-17065889D01*
X13334467Y-17065889D02*
X13324943Y-17027793D01*
X13324943Y-17027793D02*
X13324943Y-16980174D01*
X13324943Y-16980174D02*
X13334467Y-16942079D01*
X13334467Y-16942079D02*
X13343991Y-16923031D01*
X13343991Y-16923031D02*
X13353515Y-16913508D01*
X13353515Y-16913508D02*
X13372562Y-16903984D01*
X13563039Y-16903984D02*
X13582086Y-16903984D01*
X13582086Y-16903984D02*
X13601134Y-16913508D01*
X13601134Y-16913508D02*
X13610658Y-16923031D01*
X13610658Y-16923031D02*
X13620182Y-16942079D01*
X13620182Y-16942079D02*
X13629705Y-16980174D01*
X13629705Y-16980174D02*
X13629705Y-17027793D01*
X13629705Y-17027793D02*
X13620182Y-17065889D01*
X13620182Y-17065889D02*
X13610658Y-17084936D01*
X13610658Y-17084936D02*
X13601134Y-17094460D01*
X13601134Y-17094460D02*
X13582086Y-17103984D01*
X13582086Y-17103984D02*
X13563039Y-17103984D01*
X13563039Y-17103984D02*
X13543991Y-17094460D01*
X13543991Y-17094460D02*
X13534467Y-17084936D01*
X13534467Y-17084936D02*
X13524943Y-17065889D01*
X13524943Y-17065889D02*
X13515420Y-17027793D01*
X13515420Y-17027793D02*
X13515420Y-16980174D01*
X13515420Y-16980174D02*
X13524943Y-16942079D01*
X13524943Y-16942079D02*
X13534467Y-16923031D01*
X13534467Y-16923031D02*
X13543991Y-16913508D01*
X13543991Y-16913508D02*
X13563039Y-16903984D01*
X13715420Y-17103984D02*
X13715420Y-16970650D01*
X13715420Y-16989698D02*
X13724943Y-16980174D01*
X13724943Y-16980174D02*
X13743991Y-16970650D01*
X13743991Y-16970650D02*
X13772563Y-16970650D01*
X13772563Y-16970650D02*
X13791610Y-16980174D01*
X13791610Y-16980174D02*
X13801134Y-16999222D01*
X13801134Y-16999222D02*
X13801134Y-17103984D01*
X13801134Y-16999222D02*
X13810658Y-16980174D01*
X13810658Y-16980174D02*
X13829705Y-16970650D01*
X13829705Y-16970650D02*
X13858277Y-16970650D01*
X13858277Y-16970650D02*
X13877324Y-16980174D01*
X13877324Y-16980174D02*
X13886848Y-16999222D01*
X13886848Y-16999222D02*
X13886848Y-17103984D01*
X13982086Y-17103984D02*
X13982086Y-16970650D01*
X13982086Y-16989698D02*
X13991610Y-16980174D01*
X13991610Y-16980174D02*
X14010658Y-16970650D01*
X14010658Y-16970650D02*
X14039229Y-16970650D01*
X14039229Y-16970650D02*
X14058277Y-16980174D01*
X14058277Y-16980174D02*
X14067801Y-16999222D01*
X14067801Y-16999222D02*
X14067801Y-17103984D01*
X14067801Y-16999222D02*
X14077324Y-16980174D01*
X14077324Y-16980174D02*
X14096372Y-16970650D01*
X14096372Y-16970650D02*
X14124943Y-16970650D01*
X14124943Y-16970650D02*
X14143991Y-16980174D01*
X14143991Y-16980174D02*
X14153515Y-16999222D01*
X14153515Y-16999222D02*
X14153515Y-17103984D01*
X14543991Y-16894460D02*
X14372563Y-17151603D01*
X14801134Y-16903984D02*
X14820182Y-16903984D01*
X14820182Y-16903984D02*
X14839229Y-16913508D01*
X14839229Y-16913508D02*
X14848753Y-16923031D01*
X14848753Y-16923031D02*
X14858277Y-16942079D01*
X14858277Y-16942079D02*
X14867801Y-16980174D01*
X14867801Y-16980174D02*
X14867801Y-17027793D01*
X14867801Y-17027793D02*
X14858277Y-17065889D01*
X14858277Y-17065889D02*
X14848753Y-17084936D01*
X14848753Y-17084936D02*
X14839229Y-17094460D01*
X14839229Y-17094460D02*
X14820182Y-17103984D01*
X14820182Y-17103984D02*
X14801134Y-17103984D01*
X14801134Y-17103984D02*
X14782086Y-17094460D01*
X14782086Y-17094460D02*
X14772563Y-17084936D01*
X14772563Y-17084936D02*
X14763039Y-17065889D01*
X14763039Y-17065889D02*
X14753515Y-17027793D01*
X14753515Y-17027793D02*
X14753515Y-16980174D01*
X14753515Y-16980174D02*
X14763039Y-16942079D01*
X14763039Y-16942079D02*
X14772563Y-16923031D01*
X14772563Y-16923031D02*
X14782086Y-16913508D01*
X14782086Y-16913508D02*
X14801134Y-16903984D01*
X14953515Y-17084936D02*
X14963039Y-17094460D01*
X14963039Y-17094460D02*
X14953515Y-17103984D01*
X14953515Y-17103984D02*
X14943991Y-17094460D01*
X14943991Y-17094460D02*
X14953515Y-17084936D01*
X14953515Y-17084936D02*
X14953515Y-17103984D01*
X15086848Y-16903984D02*
X15105896Y-16903984D01*
X15105896Y-16903984D02*
X15124944Y-16913508D01*
X15124944Y-16913508D02*
X15134467Y-16923031D01*
X15134467Y-16923031D02*
X15143991Y-16942079D01*
X15143991Y-16942079D02*
X15153515Y-16980174D01*
X15153515Y-16980174D02*
X15153515Y-17027793D01*
X15153515Y-17027793D02*
X15143991Y-17065889D01*
X15143991Y-17065889D02*
X15134467Y-17084936D01*
X15134467Y-17084936D02*
X15124944Y-17094460D01*
X15124944Y-17094460D02*
X15105896Y-17103984D01*
X15105896Y-17103984D02*
X15086848Y-17103984D01*
X15086848Y-17103984D02*
X15067801Y-17094460D01*
X15067801Y-17094460D02*
X15058277Y-17084936D01*
X15058277Y-17084936D02*
X15048753Y-17065889D01*
X15048753Y-17065889D02*
X15039229Y-17027793D01*
X15039229Y-17027793D02*
X15039229Y-16980174D01*
X15039229Y-16980174D02*
X15048753Y-16942079D01*
X15048753Y-16942079D02*
X15058277Y-16923031D01*
X15058277Y-16923031D02*
X15067801Y-16913508D01*
X15067801Y-16913508D02*
X15086848Y-16903984D01*
X15220182Y-16903984D02*
X15343991Y-16903984D01*
X15343991Y-16903984D02*
X15277325Y-16980174D01*
X15277325Y-16980174D02*
X15305896Y-16980174D01*
X15305896Y-16980174D02*
X15324944Y-16989698D01*
X15324944Y-16989698D02*
X15334467Y-16999222D01*
X15334467Y-16999222D02*
X15343991Y-17018270D01*
X15343991Y-17018270D02*
X15343991Y-17065889D01*
X15343991Y-17065889D02*
X15334467Y-17084936D01*
X15334467Y-17084936D02*
X15324944Y-17094460D01*
X15324944Y-17094460D02*
X15305896Y-17103984D01*
X15305896Y-17103984D02*
X15248753Y-17103984D01*
X15248753Y-17103984D02*
X15229706Y-17094460D01*
X15229706Y-17094460D02*
X15220182Y-17084936D01*
X15439229Y-17103984D02*
X15477325Y-17103984D01*
X15477325Y-17103984D02*
X15496372Y-17094460D01*
X15496372Y-17094460D02*
X15505896Y-17084936D01*
X15505896Y-17084936D02*
X15524944Y-17056365D01*
X15524944Y-17056365D02*
X15534467Y-17018270D01*
X15534467Y-17018270D02*
X15534467Y-16942079D01*
X15534467Y-16942079D02*
X15524944Y-16923031D01*
X15524944Y-16923031D02*
X15515420Y-16913508D01*
X15515420Y-16913508D02*
X15496372Y-16903984D01*
X15496372Y-16903984D02*
X15458277Y-16903984D01*
X15458277Y-16903984D02*
X15439229Y-16913508D01*
X15439229Y-16913508D02*
X15429706Y-16923031D01*
X15429706Y-16923031D02*
X15420182Y-16942079D01*
X15420182Y-16942079D02*
X15420182Y-16989698D01*
X15420182Y-16989698D02*
X15429706Y-17008746D01*
X15429706Y-17008746D02*
X15439229Y-17018270D01*
X15439229Y-17018270D02*
X15458277Y-17027793D01*
X15458277Y-17027793D02*
X15496372Y-17027793D01*
X15496372Y-17027793D02*
X15515420Y-17018270D01*
X15515420Y-17018270D02*
X15524944Y-17008746D01*
X15524944Y-17008746D02*
X15534467Y-16989698D01*
X15705896Y-16970650D02*
X15705896Y-17103984D01*
X15658277Y-16894460D02*
X15610658Y-17037317D01*
X15610658Y-17037317D02*
X15734467Y-17037317D01*
X15801134Y-16903984D02*
X15801134Y-16942079D01*
X15877325Y-16903984D02*
X15877325Y-16942079D01*
X16172563Y-17180174D02*
X16163039Y-17170650D01*
X16163039Y-17170650D02*
X16143991Y-17142079D01*
X16143991Y-17142079D02*
X16134468Y-17123031D01*
X16134468Y-17123031D02*
X16124944Y-17094460D01*
X16124944Y-17094460D02*
X16115420Y-17046841D01*
X16115420Y-17046841D02*
X16115420Y-17008746D01*
X16115420Y-17008746D02*
X16124944Y-16961127D01*
X16124944Y-16961127D02*
X16134468Y-16932555D01*
X16134468Y-16932555D02*
X16143991Y-16913508D01*
X16143991Y-16913508D02*
X16163039Y-16884936D01*
X16163039Y-16884936D02*
X16172563Y-16875412D01*
X16239229Y-16923031D02*
X16248753Y-16913508D01*
X16248753Y-16913508D02*
X16267801Y-16903984D01*
X16267801Y-16903984D02*
X16315420Y-16903984D01*
X16315420Y-16903984D02*
X16334468Y-16913508D01*
X16334468Y-16913508D02*
X16343991Y-16923031D01*
X16343991Y-16923031D02*
X16353515Y-16942079D01*
X16353515Y-16942079D02*
X16353515Y-16961127D01*
X16353515Y-16961127D02*
X16343991Y-16989698D01*
X16343991Y-16989698D02*
X16229706Y-17103984D01*
X16229706Y-17103984D02*
X16353515Y-17103984D01*
X16591610Y-17103984D02*
X16591610Y-16903984D01*
X16677325Y-17103984D02*
X16677325Y-16999222D01*
X16677325Y-16999222D02*
X16667801Y-16980174D01*
X16667801Y-16980174D02*
X16648753Y-16970650D01*
X16648753Y-16970650D02*
X16620182Y-16970650D01*
X16620182Y-16970650D02*
X16601134Y-16980174D01*
X16601134Y-16980174D02*
X16591610Y-16989698D01*
X16801134Y-17103984D02*
X16782087Y-17094460D01*
X16782087Y-17094460D02*
X16772563Y-17084936D01*
X16772563Y-17084936D02*
X16763039Y-17065889D01*
X16763039Y-17065889D02*
X16763039Y-17008746D01*
X16763039Y-17008746D02*
X16772563Y-16989698D01*
X16772563Y-16989698D02*
X16782087Y-16980174D01*
X16782087Y-16980174D02*
X16801134Y-16970650D01*
X16801134Y-16970650D02*
X16829706Y-16970650D01*
X16829706Y-16970650D02*
X16848753Y-16980174D01*
X16848753Y-16980174D02*
X16858277Y-16989698D01*
X16858277Y-16989698D02*
X16867801Y-17008746D01*
X16867801Y-17008746D02*
X16867801Y-17065889D01*
X16867801Y-17065889D02*
X16858277Y-17084936D01*
X16858277Y-17084936D02*
X16848753Y-17094460D01*
X16848753Y-17094460D02*
X16829706Y-17103984D01*
X16829706Y-17103984D02*
X16801134Y-17103984D01*
X16982087Y-17103984D02*
X16963039Y-17094460D01*
X16963039Y-17094460D02*
X16953515Y-17075412D01*
X16953515Y-17075412D02*
X16953515Y-16903984D01*
X17134468Y-17094460D02*
X17115420Y-17103984D01*
X17115420Y-17103984D02*
X17077325Y-17103984D01*
X17077325Y-17103984D02*
X17058277Y-17094460D01*
X17058277Y-17094460D02*
X17048753Y-17075412D01*
X17048753Y-17075412D02*
X17048753Y-16999222D01*
X17048753Y-16999222D02*
X17058277Y-16980174D01*
X17058277Y-16980174D02*
X17077325Y-16970650D01*
X17077325Y-16970650D02*
X17115420Y-16970650D01*
X17115420Y-16970650D02*
X17134468Y-16980174D01*
X17134468Y-16980174D02*
X17143992Y-16999222D01*
X17143992Y-16999222D02*
X17143992Y-17018270D01*
X17143992Y-17018270D02*
X17048753Y-17037317D01*
X17220182Y-17094460D02*
X17239230Y-17103984D01*
X17239230Y-17103984D02*
X17277325Y-17103984D01*
X17277325Y-17103984D02*
X17296373Y-17094460D01*
X17296373Y-17094460D02*
X17305896Y-17075412D01*
X17305896Y-17075412D02*
X17305896Y-17065889D01*
X17305896Y-17065889D02*
X17296373Y-17046841D01*
X17296373Y-17046841D02*
X17277325Y-17037317D01*
X17277325Y-17037317D02*
X17248753Y-17037317D01*
X17248753Y-17037317D02*
X17229706Y-17027793D01*
X17229706Y-17027793D02*
X17220182Y-17008746D01*
X17220182Y-17008746D02*
X17220182Y-16999222D01*
X17220182Y-16999222D02*
X17229706Y-16980174D01*
X17229706Y-16980174D02*
X17248753Y-16970650D01*
X17248753Y-16970650D02*
X17277325Y-16970650D01*
X17277325Y-16970650D02*
X17296373Y-16980174D01*
X17372563Y-17180174D02*
X17382087Y-17170650D01*
X17382087Y-17170650D02*
X17401134Y-17142079D01*
X17401134Y-17142079D02*
X17410658Y-17123031D01*
X17410658Y-17123031D02*
X17420182Y-17094460D01*
X17420182Y-17094460D02*
X17429706Y-17046841D01*
X17429706Y-17046841D02*
X17429706Y-17008746D01*
X17429706Y-17008746D02*
X17420182Y-16961127D01*
X17420182Y-16961127D02*
X17410658Y-16932555D01*
X17410658Y-16932555D02*
X17401134Y-16913508D01*
X17401134Y-16913508D02*
X17382087Y-16884936D01*
X17382087Y-16884936D02*
X17372563Y-16875412D01*
D13*
X12477500Y-17216500D02*
X12597500Y-17336500D01*
X12597500Y-17216500D02*
X12477500Y-17336500D01*
X12537500Y-17216500D02*
X12537500Y-17336500D01*
X12477500Y-17276500D02*
X12597500Y-17276500D01*
D11*
X12963039Y-17367984D02*
X12848753Y-17367984D01*
X12905896Y-17367984D02*
X12905896Y-17167984D01*
X12905896Y-17167984D02*
X12886848Y-17196555D01*
X12886848Y-17196555D02*
X12867801Y-17215603D01*
X12867801Y-17215603D02*
X12848753Y-17225127D01*
X13048753Y-17348936D02*
X13058277Y-17358460D01*
X13058277Y-17358460D02*
X13048753Y-17367984D01*
X13048753Y-17367984D02*
X13039229Y-17358460D01*
X13039229Y-17358460D02*
X13048753Y-17348936D01*
X13048753Y-17348936D02*
X13048753Y-17367984D01*
X13134467Y-17187031D02*
X13143991Y-17177508D01*
X13143991Y-17177508D02*
X13163039Y-17167984D01*
X13163039Y-17167984D02*
X13210658Y-17167984D01*
X13210658Y-17167984D02*
X13229705Y-17177508D01*
X13229705Y-17177508D02*
X13239229Y-17187031D01*
X13239229Y-17187031D02*
X13248753Y-17206079D01*
X13248753Y-17206079D02*
X13248753Y-17225127D01*
X13248753Y-17225127D02*
X13239229Y-17253698D01*
X13239229Y-17253698D02*
X13124943Y-17367984D01*
X13124943Y-17367984D02*
X13248753Y-17367984D01*
X13372562Y-17167984D02*
X13391610Y-17167984D01*
X13391610Y-17167984D02*
X13410658Y-17177508D01*
X13410658Y-17177508D02*
X13420182Y-17187031D01*
X13420182Y-17187031D02*
X13429705Y-17206079D01*
X13429705Y-17206079D02*
X13439229Y-17244174D01*
X13439229Y-17244174D02*
X13439229Y-17291793D01*
X13439229Y-17291793D02*
X13429705Y-17329889D01*
X13429705Y-17329889D02*
X13420182Y-17348936D01*
X13420182Y-17348936D02*
X13410658Y-17358460D01*
X13410658Y-17358460D02*
X13391610Y-17367984D01*
X13391610Y-17367984D02*
X13372562Y-17367984D01*
X13372562Y-17367984D02*
X13353515Y-17358460D01*
X13353515Y-17358460D02*
X13343991Y-17348936D01*
X13343991Y-17348936D02*
X13334467Y-17329889D01*
X13334467Y-17329889D02*
X13324943Y-17291793D01*
X13324943Y-17291793D02*
X13324943Y-17244174D01*
X13324943Y-17244174D02*
X13334467Y-17206079D01*
X13334467Y-17206079D02*
X13343991Y-17187031D01*
X13343991Y-17187031D02*
X13353515Y-17177508D01*
X13353515Y-17177508D02*
X13372562Y-17167984D01*
X13563039Y-17167984D02*
X13582086Y-17167984D01*
X13582086Y-17167984D02*
X13601134Y-17177508D01*
X13601134Y-17177508D02*
X13610658Y-17187031D01*
X13610658Y-17187031D02*
X13620182Y-17206079D01*
X13620182Y-17206079D02*
X13629705Y-17244174D01*
X13629705Y-17244174D02*
X13629705Y-17291793D01*
X13629705Y-17291793D02*
X13620182Y-17329889D01*
X13620182Y-17329889D02*
X13610658Y-17348936D01*
X13610658Y-17348936D02*
X13601134Y-17358460D01*
X13601134Y-17358460D02*
X13582086Y-17367984D01*
X13582086Y-17367984D02*
X13563039Y-17367984D01*
X13563039Y-17367984D02*
X13543991Y-17358460D01*
X13543991Y-17358460D02*
X13534467Y-17348936D01*
X13534467Y-17348936D02*
X13524943Y-17329889D01*
X13524943Y-17329889D02*
X13515420Y-17291793D01*
X13515420Y-17291793D02*
X13515420Y-17244174D01*
X13515420Y-17244174D02*
X13524943Y-17206079D01*
X13524943Y-17206079D02*
X13534467Y-17187031D01*
X13534467Y-17187031D02*
X13543991Y-17177508D01*
X13543991Y-17177508D02*
X13563039Y-17167984D01*
X13715420Y-17367984D02*
X13715420Y-17234650D01*
X13715420Y-17253698D02*
X13724943Y-17244174D01*
X13724943Y-17244174D02*
X13743991Y-17234650D01*
X13743991Y-17234650D02*
X13772563Y-17234650D01*
X13772563Y-17234650D02*
X13791610Y-17244174D01*
X13791610Y-17244174D02*
X13801134Y-17263222D01*
X13801134Y-17263222D02*
X13801134Y-17367984D01*
X13801134Y-17263222D02*
X13810658Y-17244174D01*
X13810658Y-17244174D02*
X13829705Y-17234650D01*
X13829705Y-17234650D02*
X13858277Y-17234650D01*
X13858277Y-17234650D02*
X13877324Y-17244174D01*
X13877324Y-17244174D02*
X13886848Y-17263222D01*
X13886848Y-17263222D02*
X13886848Y-17367984D01*
X13982086Y-17367984D02*
X13982086Y-17234650D01*
X13982086Y-17253698D02*
X13991610Y-17244174D01*
X13991610Y-17244174D02*
X14010658Y-17234650D01*
X14010658Y-17234650D02*
X14039229Y-17234650D01*
X14039229Y-17234650D02*
X14058277Y-17244174D01*
X14058277Y-17244174D02*
X14067801Y-17263222D01*
X14067801Y-17263222D02*
X14067801Y-17367984D01*
X14067801Y-17263222D02*
X14077324Y-17244174D01*
X14077324Y-17244174D02*
X14096372Y-17234650D01*
X14096372Y-17234650D02*
X14124943Y-17234650D01*
X14124943Y-17234650D02*
X14143991Y-17244174D01*
X14143991Y-17244174D02*
X14153515Y-17263222D01*
X14153515Y-17263222D02*
X14153515Y-17367984D01*
X14543991Y-17158460D02*
X14372563Y-17415603D01*
X14801134Y-17167984D02*
X14820182Y-17167984D01*
X14820182Y-17167984D02*
X14839229Y-17177508D01*
X14839229Y-17177508D02*
X14848753Y-17187031D01*
X14848753Y-17187031D02*
X14858277Y-17206079D01*
X14858277Y-17206079D02*
X14867801Y-17244174D01*
X14867801Y-17244174D02*
X14867801Y-17291793D01*
X14867801Y-17291793D02*
X14858277Y-17329889D01*
X14858277Y-17329889D02*
X14848753Y-17348936D01*
X14848753Y-17348936D02*
X14839229Y-17358460D01*
X14839229Y-17358460D02*
X14820182Y-17367984D01*
X14820182Y-17367984D02*
X14801134Y-17367984D01*
X14801134Y-17367984D02*
X14782086Y-17358460D01*
X14782086Y-17358460D02*
X14772563Y-17348936D01*
X14772563Y-17348936D02*
X14763039Y-17329889D01*
X14763039Y-17329889D02*
X14753515Y-17291793D01*
X14753515Y-17291793D02*
X14753515Y-17244174D01*
X14753515Y-17244174D02*
X14763039Y-17206079D01*
X14763039Y-17206079D02*
X14772563Y-17187031D01*
X14772563Y-17187031D02*
X14782086Y-17177508D01*
X14782086Y-17177508D02*
X14801134Y-17167984D01*
X14953515Y-17348936D02*
X14963039Y-17358460D01*
X14963039Y-17358460D02*
X14953515Y-17367984D01*
X14953515Y-17367984D02*
X14943991Y-17358460D01*
X14943991Y-17358460D02*
X14953515Y-17348936D01*
X14953515Y-17348936D02*
X14953515Y-17367984D01*
X15086848Y-17167984D02*
X15105896Y-17167984D01*
X15105896Y-17167984D02*
X15124944Y-17177508D01*
X15124944Y-17177508D02*
X15134467Y-17187031D01*
X15134467Y-17187031D02*
X15143991Y-17206079D01*
X15143991Y-17206079D02*
X15153515Y-17244174D01*
X15153515Y-17244174D02*
X15153515Y-17291793D01*
X15153515Y-17291793D02*
X15143991Y-17329889D01*
X15143991Y-17329889D02*
X15134467Y-17348936D01*
X15134467Y-17348936D02*
X15124944Y-17358460D01*
X15124944Y-17358460D02*
X15105896Y-17367984D01*
X15105896Y-17367984D02*
X15086848Y-17367984D01*
X15086848Y-17367984D02*
X15067801Y-17358460D01*
X15067801Y-17358460D02*
X15058277Y-17348936D01*
X15058277Y-17348936D02*
X15048753Y-17329889D01*
X15048753Y-17329889D02*
X15039229Y-17291793D01*
X15039229Y-17291793D02*
X15039229Y-17244174D01*
X15039229Y-17244174D02*
X15048753Y-17206079D01*
X15048753Y-17206079D02*
X15058277Y-17187031D01*
X15058277Y-17187031D02*
X15067801Y-17177508D01*
X15067801Y-17177508D02*
X15086848Y-17167984D01*
X15324944Y-17234650D02*
X15324944Y-17367984D01*
X15277325Y-17158460D02*
X15229706Y-17301317D01*
X15229706Y-17301317D02*
X15353515Y-17301317D01*
X15410658Y-17167984D02*
X15543991Y-17167984D01*
X15543991Y-17167984D02*
X15458277Y-17367984D01*
X15610658Y-17187031D02*
X15620182Y-17177508D01*
X15620182Y-17177508D02*
X15639229Y-17167984D01*
X15639229Y-17167984D02*
X15686848Y-17167984D01*
X15686848Y-17167984D02*
X15705896Y-17177508D01*
X15705896Y-17177508D02*
X15715420Y-17187031D01*
X15715420Y-17187031D02*
X15724944Y-17206079D01*
X15724944Y-17206079D02*
X15724944Y-17225127D01*
X15724944Y-17225127D02*
X15715420Y-17253698D01*
X15715420Y-17253698D02*
X15601134Y-17367984D01*
X15601134Y-17367984D02*
X15724944Y-17367984D01*
X15801134Y-17167984D02*
X15801134Y-17206079D01*
X15877325Y-17167984D02*
X15877325Y-17206079D01*
X16172563Y-17444174D02*
X16163039Y-17434650D01*
X16163039Y-17434650D02*
X16143991Y-17406079D01*
X16143991Y-17406079D02*
X16134468Y-17387031D01*
X16134468Y-17387031D02*
X16124944Y-17358460D01*
X16124944Y-17358460D02*
X16115420Y-17310841D01*
X16115420Y-17310841D02*
X16115420Y-17272746D01*
X16115420Y-17272746D02*
X16124944Y-17225127D01*
X16124944Y-17225127D02*
X16134468Y-17196555D01*
X16134468Y-17196555D02*
X16143991Y-17177508D01*
X16143991Y-17177508D02*
X16163039Y-17148936D01*
X16163039Y-17148936D02*
X16172563Y-17139412D01*
X16277325Y-17253698D02*
X16258277Y-17244174D01*
X16258277Y-17244174D02*
X16248753Y-17234650D01*
X16248753Y-17234650D02*
X16239229Y-17215603D01*
X16239229Y-17215603D02*
X16239229Y-17206079D01*
X16239229Y-17206079D02*
X16248753Y-17187031D01*
X16248753Y-17187031D02*
X16258277Y-17177508D01*
X16258277Y-17177508D02*
X16277325Y-17167984D01*
X16277325Y-17167984D02*
X16315420Y-17167984D01*
X16315420Y-17167984D02*
X16334468Y-17177508D01*
X16334468Y-17177508D02*
X16343991Y-17187031D01*
X16343991Y-17187031D02*
X16353515Y-17206079D01*
X16353515Y-17206079D02*
X16353515Y-17215603D01*
X16353515Y-17215603D02*
X16343991Y-17234650D01*
X16343991Y-17234650D02*
X16334468Y-17244174D01*
X16334468Y-17244174D02*
X16315420Y-17253698D01*
X16315420Y-17253698D02*
X16277325Y-17253698D01*
X16277325Y-17253698D02*
X16258277Y-17263222D01*
X16258277Y-17263222D02*
X16248753Y-17272746D01*
X16248753Y-17272746D02*
X16239229Y-17291793D01*
X16239229Y-17291793D02*
X16239229Y-17329889D01*
X16239229Y-17329889D02*
X16248753Y-17348936D01*
X16248753Y-17348936D02*
X16258277Y-17358460D01*
X16258277Y-17358460D02*
X16277325Y-17367984D01*
X16277325Y-17367984D02*
X16315420Y-17367984D01*
X16315420Y-17367984D02*
X16334468Y-17358460D01*
X16334468Y-17358460D02*
X16343991Y-17348936D01*
X16343991Y-17348936D02*
X16353515Y-17329889D01*
X16353515Y-17329889D02*
X16353515Y-17291793D01*
X16353515Y-17291793D02*
X16343991Y-17272746D01*
X16343991Y-17272746D02*
X16334468Y-17263222D01*
X16334468Y-17263222D02*
X16315420Y-17253698D01*
X16591610Y-17367984D02*
X16591610Y-17167984D01*
X16677325Y-17367984D02*
X16677325Y-17263222D01*
X16677325Y-17263222D02*
X16667801Y-17244174D01*
X16667801Y-17244174D02*
X16648753Y-17234650D01*
X16648753Y-17234650D02*
X16620182Y-17234650D01*
X16620182Y-17234650D02*
X16601134Y-17244174D01*
X16601134Y-17244174D02*
X16591610Y-17253698D01*
X16801134Y-17367984D02*
X16782087Y-17358460D01*
X16782087Y-17358460D02*
X16772563Y-17348936D01*
X16772563Y-17348936D02*
X16763039Y-17329889D01*
X16763039Y-17329889D02*
X16763039Y-17272746D01*
X16763039Y-17272746D02*
X16772563Y-17253698D01*
X16772563Y-17253698D02*
X16782087Y-17244174D01*
X16782087Y-17244174D02*
X16801134Y-17234650D01*
X16801134Y-17234650D02*
X16829706Y-17234650D01*
X16829706Y-17234650D02*
X16848753Y-17244174D01*
X16848753Y-17244174D02*
X16858277Y-17253698D01*
X16858277Y-17253698D02*
X16867801Y-17272746D01*
X16867801Y-17272746D02*
X16867801Y-17329889D01*
X16867801Y-17329889D02*
X16858277Y-17348936D01*
X16858277Y-17348936D02*
X16848753Y-17358460D01*
X16848753Y-17358460D02*
X16829706Y-17367984D01*
X16829706Y-17367984D02*
X16801134Y-17367984D01*
X16982087Y-17367984D02*
X16963039Y-17358460D01*
X16963039Y-17358460D02*
X16953515Y-17339412D01*
X16953515Y-17339412D02*
X16953515Y-17167984D01*
X17134468Y-17358460D02*
X17115420Y-17367984D01*
X17115420Y-17367984D02*
X17077325Y-17367984D01*
X17077325Y-17367984D02*
X17058277Y-17358460D01*
X17058277Y-17358460D02*
X17048753Y-17339412D01*
X17048753Y-17339412D02*
X17048753Y-17263222D01*
X17048753Y-17263222D02*
X17058277Y-17244174D01*
X17058277Y-17244174D02*
X17077325Y-17234650D01*
X17077325Y-17234650D02*
X17115420Y-17234650D01*
X17115420Y-17234650D02*
X17134468Y-17244174D01*
X17134468Y-17244174D02*
X17143992Y-17263222D01*
X17143992Y-17263222D02*
X17143992Y-17282270D01*
X17143992Y-17282270D02*
X17048753Y-17301317D01*
X17220182Y-17358460D02*
X17239230Y-17367984D01*
X17239230Y-17367984D02*
X17277325Y-17367984D01*
X17277325Y-17367984D02*
X17296373Y-17358460D01*
X17296373Y-17358460D02*
X17305896Y-17339412D01*
X17305896Y-17339412D02*
X17305896Y-17329889D01*
X17305896Y-17329889D02*
X17296373Y-17310841D01*
X17296373Y-17310841D02*
X17277325Y-17301317D01*
X17277325Y-17301317D02*
X17248753Y-17301317D01*
X17248753Y-17301317D02*
X17229706Y-17291793D01*
X17229706Y-17291793D02*
X17220182Y-17272746D01*
X17220182Y-17272746D02*
X17220182Y-17263222D01*
X17220182Y-17263222D02*
X17229706Y-17244174D01*
X17229706Y-17244174D02*
X17248753Y-17234650D01*
X17248753Y-17234650D02*
X17277325Y-17234650D01*
X17277325Y-17234650D02*
X17296373Y-17244174D01*
X17372563Y-17444174D02*
X17382087Y-17434650D01*
X17382087Y-17434650D02*
X17401134Y-17406079D01*
X17401134Y-17406079D02*
X17410658Y-17387031D01*
X17410658Y-17387031D02*
X17420182Y-17358460D01*
X17420182Y-17358460D02*
X17429706Y-17310841D01*
X17429706Y-17310841D02*
X17429706Y-17272746D01*
X17429706Y-17272746D02*
X17420182Y-17225127D01*
X17420182Y-17225127D02*
X17410658Y-17196555D01*
X17410658Y-17196555D02*
X17401134Y-17177508D01*
X17401134Y-17177508D02*
X17382087Y-17148936D01*
X17382087Y-17148936D02*
X17372563Y-17139412D01*
D14*
X12407500Y-17445500D02*
X12597500Y-17635500D01*
X12597500Y-17445500D02*
X12407500Y-17635500D01*
X12569676Y-17607676D02*
X12569676Y-17473324D01*
X12435324Y-17473324D01*
X12435324Y-17607676D01*
X12569676Y-17607676D01*
D11*
X12963039Y-17631984D02*
X12848753Y-17631984D01*
X12905896Y-17631984D02*
X12905896Y-17431984D01*
X12905896Y-17431984D02*
X12886848Y-17460555D01*
X12886848Y-17460555D02*
X12867801Y-17479603D01*
X12867801Y-17479603D02*
X12848753Y-17489127D01*
X13048753Y-17612936D02*
X13058277Y-17622460D01*
X13058277Y-17622460D02*
X13048753Y-17631984D01*
X13048753Y-17631984D02*
X13039229Y-17622460D01*
X13039229Y-17622460D02*
X13048753Y-17612936D01*
X13048753Y-17612936D02*
X13048753Y-17631984D01*
X13153515Y-17631984D02*
X13191610Y-17631984D01*
X13191610Y-17631984D02*
X13210658Y-17622460D01*
X13210658Y-17622460D02*
X13220182Y-17612936D01*
X13220182Y-17612936D02*
X13239229Y-17584365D01*
X13239229Y-17584365D02*
X13248753Y-17546270D01*
X13248753Y-17546270D02*
X13248753Y-17470079D01*
X13248753Y-17470079D02*
X13239229Y-17451031D01*
X13239229Y-17451031D02*
X13229705Y-17441508D01*
X13229705Y-17441508D02*
X13210658Y-17431984D01*
X13210658Y-17431984D02*
X13172562Y-17431984D01*
X13172562Y-17431984D02*
X13153515Y-17441508D01*
X13153515Y-17441508D02*
X13143991Y-17451031D01*
X13143991Y-17451031D02*
X13134467Y-17470079D01*
X13134467Y-17470079D02*
X13134467Y-17517698D01*
X13134467Y-17517698D02*
X13143991Y-17536746D01*
X13143991Y-17536746D02*
X13153515Y-17546270D01*
X13153515Y-17546270D02*
X13172562Y-17555793D01*
X13172562Y-17555793D02*
X13210658Y-17555793D01*
X13210658Y-17555793D02*
X13229705Y-17546270D01*
X13229705Y-17546270D02*
X13239229Y-17536746D01*
X13239229Y-17536746D02*
X13248753Y-17517698D01*
X13372562Y-17431984D02*
X13391610Y-17431984D01*
X13391610Y-17431984D02*
X13410658Y-17441508D01*
X13410658Y-17441508D02*
X13420182Y-17451031D01*
X13420182Y-17451031D02*
X13429705Y-17470079D01*
X13429705Y-17470079D02*
X13439229Y-17508174D01*
X13439229Y-17508174D02*
X13439229Y-17555793D01*
X13439229Y-17555793D02*
X13429705Y-17593889D01*
X13429705Y-17593889D02*
X13420182Y-17612936D01*
X13420182Y-17612936D02*
X13410658Y-17622460D01*
X13410658Y-17622460D02*
X13391610Y-17631984D01*
X13391610Y-17631984D02*
X13372562Y-17631984D01*
X13372562Y-17631984D02*
X13353515Y-17622460D01*
X13353515Y-17622460D02*
X13343991Y-17612936D01*
X13343991Y-17612936D02*
X13334467Y-17593889D01*
X13334467Y-17593889D02*
X13324943Y-17555793D01*
X13324943Y-17555793D02*
X13324943Y-17508174D01*
X13324943Y-17508174D02*
X13334467Y-17470079D01*
X13334467Y-17470079D02*
X13343991Y-17451031D01*
X13343991Y-17451031D02*
X13353515Y-17441508D01*
X13353515Y-17441508D02*
X13372562Y-17431984D01*
X13563039Y-17431984D02*
X13582086Y-17431984D01*
X13582086Y-17431984D02*
X13601134Y-17441508D01*
X13601134Y-17441508D02*
X13610658Y-17451031D01*
X13610658Y-17451031D02*
X13620182Y-17470079D01*
X13620182Y-17470079D02*
X13629705Y-17508174D01*
X13629705Y-17508174D02*
X13629705Y-17555793D01*
X13629705Y-17555793D02*
X13620182Y-17593889D01*
X13620182Y-17593889D02*
X13610658Y-17612936D01*
X13610658Y-17612936D02*
X13601134Y-17622460D01*
X13601134Y-17622460D02*
X13582086Y-17631984D01*
X13582086Y-17631984D02*
X13563039Y-17631984D01*
X13563039Y-17631984D02*
X13543991Y-17622460D01*
X13543991Y-17622460D02*
X13534467Y-17612936D01*
X13534467Y-17612936D02*
X13524943Y-17593889D01*
X13524943Y-17593889D02*
X13515420Y-17555793D01*
X13515420Y-17555793D02*
X13515420Y-17508174D01*
X13515420Y-17508174D02*
X13524943Y-17470079D01*
X13524943Y-17470079D02*
X13534467Y-17451031D01*
X13534467Y-17451031D02*
X13543991Y-17441508D01*
X13543991Y-17441508D02*
X13563039Y-17431984D01*
X13715420Y-17631984D02*
X13715420Y-17498650D01*
X13715420Y-17517698D02*
X13724943Y-17508174D01*
X13724943Y-17508174D02*
X13743991Y-17498650D01*
X13743991Y-17498650D02*
X13772563Y-17498650D01*
X13772563Y-17498650D02*
X13791610Y-17508174D01*
X13791610Y-17508174D02*
X13801134Y-17527222D01*
X13801134Y-17527222D02*
X13801134Y-17631984D01*
X13801134Y-17527222D02*
X13810658Y-17508174D01*
X13810658Y-17508174D02*
X13829705Y-17498650D01*
X13829705Y-17498650D02*
X13858277Y-17498650D01*
X13858277Y-17498650D02*
X13877324Y-17508174D01*
X13877324Y-17508174D02*
X13886848Y-17527222D01*
X13886848Y-17527222D02*
X13886848Y-17631984D01*
X13982086Y-17631984D02*
X13982086Y-17498650D01*
X13982086Y-17517698D02*
X13991610Y-17508174D01*
X13991610Y-17508174D02*
X14010658Y-17498650D01*
X14010658Y-17498650D02*
X14039229Y-17498650D01*
X14039229Y-17498650D02*
X14058277Y-17508174D01*
X14058277Y-17508174D02*
X14067801Y-17527222D01*
X14067801Y-17527222D02*
X14067801Y-17631984D01*
X14067801Y-17527222D02*
X14077324Y-17508174D01*
X14077324Y-17508174D02*
X14096372Y-17498650D01*
X14096372Y-17498650D02*
X14124943Y-17498650D01*
X14124943Y-17498650D02*
X14143991Y-17508174D01*
X14143991Y-17508174D02*
X14153515Y-17527222D01*
X14153515Y-17527222D02*
X14153515Y-17631984D01*
X14543991Y-17422460D02*
X14372563Y-17679603D01*
X14801134Y-17431984D02*
X14820182Y-17431984D01*
X14820182Y-17431984D02*
X14839229Y-17441508D01*
X14839229Y-17441508D02*
X14848753Y-17451031D01*
X14848753Y-17451031D02*
X14858277Y-17470079D01*
X14858277Y-17470079D02*
X14867801Y-17508174D01*
X14867801Y-17508174D02*
X14867801Y-17555793D01*
X14867801Y-17555793D02*
X14858277Y-17593889D01*
X14858277Y-17593889D02*
X14848753Y-17612936D01*
X14848753Y-17612936D02*
X14839229Y-17622460D01*
X14839229Y-17622460D02*
X14820182Y-17631984D01*
X14820182Y-17631984D02*
X14801134Y-17631984D01*
X14801134Y-17631984D02*
X14782086Y-17622460D01*
X14782086Y-17622460D02*
X14772563Y-17612936D01*
X14772563Y-17612936D02*
X14763039Y-17593889D01*
X14763039Y-17593889D02*
X14753515Y-17555793D01*
X14753515Y-17555793D02*
X14753515Y-17508174D01*
X14753515Y-17508174D02*
X14763039Y-17470079D01*
X14763039Y-17470079D02*
X14772563Y-17451031D01*
X14772563Y-17451031D02*
X14782086Y-17441508D01*
X14782086Y-17441508D02*
X14801134Y-17431984D01*
X14953515Y-17612936D02*
X14963039Y-17622460D01*
X14963039Y-17622460D02*
X14953515Y-17631984D01*
X14953515Y-17631984D02*
X14943991Y-17622460D01*
X14943991Y-17622460D02*
X14953515Y-17612936D01*
X14953515Y-17612936D02*
X14953515Y-17631984D01*
X15086848Y-17431984D02*
X15105896Y-17431984D01*
X15105896Y-17431984D02*
X15124944Y-17441508D01*
X15124944Y-17441508D02*
X15134467Y-17451031D01*
X15134467Y-17451031D02*
X15143991Y-17470079D01*
X15143991Y-17470079D02*
X15153515Y-17508174D01*
X15153515Y-17508174D02*
X15153515Y-17555793D01*
X15153515Y-17555793D02*
X15143991Y-17593889D01*
X15143991Y-17593889D02*
X15134467Y-17612936D01*
X15134467Y-17612936D02*
X15124944Y-17622460D01*
X15124944Y-17622460D02*
X15105896Y-17631984D01*
X15105896Y-17631984D02*
X15086848Y-17631984D01*
X15086848Y-17631984D02*
X15067801Y-17622460D01*
X15067801Y-17622460D02*
X15058277Y-17612936D01*
X15058277Y-17612936D02*
X15048753Y-17593889D01*
X15048753Y-17593889D02*
X15039229Y-17555793D01*
X15039229Y-17555793D02*
X15039229Y-17508174D01*
X15039229Y-17508174D02*
X15048753Y-17470079D01*
X15048753Y-17470079D02*
X15058277Y-17451031D01*
X15058277Y-17451031D02*
X15067801Y-17441508D01*
X15067801Y-17441508D02*
X15086848Y-17431984D01*
X15220182Y-17431984D02*
X15353515Y-17431984D01*
X15353515Y-17431984D02*
X15267801Y-17631984D01*
X15515420Y-17498650D02*
X15515420Y-17631984D01*
X15467801Y-17422460D02*
X15420182Y-17565317D01*
X15420182Y-17565317D02*
X15543991Y-17565317D01*
X15648753Y-17517698D02*
X15629706Y-17508174D01*
X15629706Y-17508174D02*
X15620182Y-17498650D01*
X15620182Y-17498650D02*
X15610658Y-17479603D01*
X15610658Y-17479603D02*
X15610658Y-17470079D01*
X15610658Y-17470079D02*
X15620182Y-17451031D01*
X15620182Y-17451031D02*
X15629706Y-17441508D01*
X15629706Y-17441508D02*
X15648753Y-17431984D01*
X15648753Y-17431984D02*
X15686848Y-17431984D01*
X15686848Y-17431984D02*
X15705896Y-17441508D01*
X15705896Y-17441508D02*
X15715420Y-17451031D01*
X15715420Y-17451031D02*
X15724944Y-17470079D01*
X15724944Y-17470079D02*
X15724944Y-17479603D01*
X15724944Y-17479603D02*
X15715420Y-17498650D01*
X15715420Y-17498650D02*
X15705896Y-17508174D01*
X15705896Y-17508174D02*
X15686848Y-17517698D01*
X15686848Y-17517698D02*
X15648753Y-17517698D01*
X15648753Y-17517698D02*
X15629706Y-17527222D01*
X15629706Y-17527222D02*
X15620182Y-17536746D01*
X15620182Y-17536746D02*
X15610658Y-17555793D01*
X15610658Y-17555793D02*
X15610658Y-17593889D01*
X15610658Y-17593889D02*
X15620182Y-17612936D01*
X15620182Y-17612936D02*
X15629706Y-17622460D01*
X15629706Y-17622460D02*
X15648753Y-17631984D01*
X15648753Y-17631984D02*
X15686848Y-17631984D01*
X15686848Y-17631984D02*
X15705896Y-17622460D01*
X15705896Y-17622460D02*
X15715420Y-17612936D01*
X15715420Y-17612936D02*
X15724944Y-17593889D01*
X15724944Y-17593889D02*
X15724944Y-17555793D01*
X15724944Y-17555793D02*
X15715420Y-17536746D01*
X15715420Y-17536746D02*
X15705896Y-17527222D01*
X15705896Y-17527222D02*
X15686848Y-17517698D01*
X15801134Y-17431984D02*
X15801134Y-17470079D01*
X15877325Y-17431984D02*
X15877325Y-17470079D01*
X16172563Y-17708174D02*
X16163039Y-17698650D01*
X16163039Y-17698650D02*
X16143991Y-17670079D01*
X16143991Y-17670079D02*
X16134468Y-17651031D01*
X16134468Y-17651031D02*
X16124944Y-17622460D01*
X16124944Y-17622460D02*
X16115420Y-17574841D01*
X16115420Y-17574841D02*
X16115420Y-17536746D01*
X16115420Y-17536746D02*
X16124944Y-17489127D01*
X16124944Y-17489127D02*
X16134468Y-17460555D01*
X16134468Y-17460555D02*
X16143991Y-17441508D01*
X16143991Y-17441508D02*
X16163039Y-17412936D01*
X16163039Y-17412936D02*
X16172563Y-17403412D01*
X16239229Y-17451031D02*
X16248753Y-17441508D01*
X16248753Y-17441508D02*
X16267801Y-17431984D01*
X16267801Y-17431984D02*
X16315420Y-17431984D01*
X16315420Y-17431984D02*
X16334468Y-17441508D01*
X16334468Y-17441508D02*
X16343991Y-17451031D01*
X16343991Y-17451031D02*
X16353515Y-17470079D01*
X16353515Y-17470079D02*
X16353515Y-17489127D01*
X16353515Y-17489127D02*
X16343991Y-17517698D01*
X16343991Y-17517698D02*
X16229706Y-17631984D01*
X16229706Y-17631984D02*
X16353515Y-17631984D01*
X16591610Y-17631984D02*
X16591610Y-17431984D01*
X16677325Y-17631984D02*
X16677325Y-17527222D01*
X16677325Y-17527222D02*
X16667801Y-17508174D01*
X16667801Y-17508174D02*
X16648753Y-17498650D01*
X16648753Y-17498650D02*
X16620182Y-17498650D01*
X16620182Y-17498650D02*
X16601134Y-17508174D01*
X16601134Y-17508174D02*
X16591610Y-17517698D01*
X16801134Y-17631984D02*
X16782087Y-17622460D01*
X16782087Y-17622460D02*
X16772563Y-17612936D01*
X16772563Y-17612936D02*
X16763039Y-17593889D01*
X16763039Y-17593889D02*
X16763039Y-17536746D01*
X16763039Y-17536746D02*
X16772563Y-17517698D01*
X16772563Y-17517698D02*
X16782087Y-17508174D01*
X16782087Y-17508174D02*
X16801134Y-17498650D01*
X16801134Y-17498650D02*
X16829706Y-17498650D01*
X16829706Y-17498650D02*
X16848753Y-17508174D01*
X16848753Y-17508174D02*
X16858277Y-17517698D01*
X16858277Y-17517698D02*
X16867801Y-17536746D01*
X16867801Y-17536746D02*
X16867801Y-17593889D01*
X16867801Y-17593889D02*
X16858277Y-17612936D01*
X16858277Y-17612936D02*
X16848753Y-17622460D01*
X16848753Y-17622460D02*
X16829706Y-17631984D01*
X16829706Y-17631984D02*
X16801134Y-17631984D01*
X16982087Y-17631984D02*
X16963039Y-17622460D01*
X16963039Y-17622460D02*
X16953515Y-17603412D01*
X16953515Y-17603412D02*
X16953515Y-17431984D01*
X17134468Y-17622460D02*
X17115420Y-17631984D01*
X17115420Y-17631984D02*
X17077325Y-17631984D01*
X17077325Y-17631984D02*
X17058277Y-17622460D01*
X17058277Y-17622460D02*
X17048753Y-17603412D01*
X17048753Y-17603412D02*
X17048753Y-17527222D01*
X17048753Y-17527222D02*
X17058277Y-17508174D01*
X17058277Y-17508174D02*
X17077325Y-17498650D01*
X17077325Y-17498650D02*
X17115420Y-17498650D01*
X17115420Y-17498650D02*
X17134468Y-17508174D01*
X17134468Y-17508174D02*
X17143992Y-17527222D01*
X17143992Y-17527222D02*
X17143992Y-17546270D01*
X17143992Y-17546270D02*
X17048753Y-17565317D01*
X17220182Y-17622460D02*
X17239230Y-17631984D01*
X17239230Y-17631984D02*
X17277325Y-17631984D01*
X17277325Y-17631984D02*
X17296373Y-17622460D01*
X17296373Y-17622460D02*
X17305896Y-17603412D01*
X17305896Y-17603412D02*
X17305896Y-17593889D01*
X17305896Y-17593889D02*
X17296373Y-17574841D01*
X17296373Y-17574841D02*
X17277325Y-17565317D01*
X17277325Y-17565317D02*
X17248753Y-17565317D01*
X17248753Y-17565317D02*
X17229706Y-17555793D01*
X17229706Y-17555793D02*
X17220182Y-17536746D01*
X17220182Y-17536746D02*
X17220182Y-17527222D01*
X17220182Y-17527222D02*
X17229706Y-17508174D01*
X17229706Y-17508174D02*
X17248753Y-17498650D01*
X17248753Y-17498650D02*
X17277325Y-17498650D01*
X17277325Y-17498650D02*
X17296373Y-17508174D01*
X17372563Y-17708174D02*
X17382087Y-17698650D01*
X17382087Y-17698650D02*
X17401134Y-17670079D01*
X17401134Y-17670079D02*
X17410658Y-17651031D01*
X17410658Y-17651031D02*
X17420182Y-17622460D01*
X17420182Y-17622460D02*
X17429706Y-17574841D01*
X17429706Y-17574841D02*
X17429706Y-17536746D01*
X17429706Y-17536746D02*
X17420182Y-17489127D01*
X17420182Y-17489127D02*
X17410658Y-17460555D01*
X17410658Y-17460555D02*
X17401134Y-17441508D01*
X17401134Y-17441508D02*
X17382087Y-17412936D01*
X17382087Y-17412936D02*
X17372563Y-17403412D01*
M02*
