%TF.GenerationSoftware,KiCad,Pcbnew,8.0.4*%
%TF.CreationDate,2024-07-23T16:26:40+02:00*%
%TF.ProjectId,Vertigo Pro PR1,56657274-6967-46f2-9050-726f20505231,DPR1*%
%TF.SameCoordinates,Original*%
%TF.FileFunction,Copper,L2,Inr*%
%TF.FilePolarity,Positive*%
%FSLAX46Y46*%
G04 Gerber Fmt 4.6, Leading zero omitted, Abs format (unit mm)*
G04 Created by KiCad (PCBNEW 8.0.4) date 2024-07-23 16:26:40*
%MOMM*%
%LPD*%
G01*
G04 APERTURE LIST*
%TA.AperFunction,ComponentPad*%
%ADD10C,1.400000*%
%TD*%
%TA.AperFunction,ComponentPad*%
%ADD11C,3.500000*%
%TD*%
%TA.AperFunction,ComponentPad*%
%ADD12R,3.500000X3.500000*%
%TD*%
%TA.AperFunction,ComponentPad*%
%ADD13R,2.400000X2.400000*%
%TD*%
%TA.AperFunction,ComponentPad*%
%ADD14C,2.400000*%
%TD*%
%TA.AperFunction,ComponentPad*%
%ADD15O,1.000000X2.100000*%
%TD*%
%TA.AperFunction,ComponentPad*%
%ADD16O,1.000000X1.600000*%
%TD*%
%TA.AperFunction,HeatsinkPad*%
%ADD17C,0.600000*%
%TD*%
%TA.AperFunction,ComponentPad*%
%ADD18R,1.000000X1.000000*%
%TD*%
%TA.AperFunction,ComponentPad*%
%ADD19O,1.000000X1.000000*%
%TD*%
%TA.AperFunction,ViaPad*%
%ADD20C,0.600000*%
%TD*%
%TA.AperFunction,ViaPad*%
%ADD21C,0.800000*%
%TD*%
G04 APERTURE END LIST*
D10*
%TO.N,*%
%TO.C,BT3*%
X154300000Y-145750000D03*
X143300000Y-145750000D03*
D11*
%TO.N,Net-(BT3-+)*%
X146300000Y-140750000D03*
D12*
%TO.N,AGND*%
X151300000Y-140750000D03*
%TD*%
D13*
%TO.N,VCC*%
%TO.C,J6*%
X167000000Y-105950000D03*
D14*
%TO.N,Net-(J6-Pin_2)*%
X167000000Y-102450000D03*
%TD*%
D13*
%TO.N,VCC*%
%TO.C,J7*%
X167000000Y-114650000D03*
D14*
%TO.N,Net-(J7-Pin_2)*%
X167000000Y-111150000D03*
%TD*%
D13*
%TO.N,VCC*%
%TO.C,J5*%
X130250000Y-102400000D03*
D14*
%TO.N,Net-(J5-Pin_2)*%
X130250000Y-105900000D03*
%TD*%
D15*
%TO.N,AGND*%
%TO.C,J2*%
X129854999Y-143145000D03*
D16*
X129854999Y-147325000D03*
D15*
X138494999Y-143145000D03*
D16*
X138494999Y-147325000D03*
%TD*%
D17*
%TO.N,AGND*%
%TO.C,U3*%
X145700000Y-83760000D03*
X145700000Y-85160000D03*
X146400000Y-83060000D03*
X146400000Y-84460000D03*
X146400000Y-85860000D03*
X147100000Y-83760000D03*
X147100000Y-85160000D03*
X147800000Y-83060000D03*
X147800000Y-84460000D03*
X147800000Y-85860000D03*
X148500000Y-83760000D03*
X148500000Y-85160000D03*
%TD*%
D13*
%TO.N,VCC*%
%TO.C,J4*%
X130250000Y-111100000D03*
D14*
%TO.N,Net-(J4-Pin_2)*%
X130250000Y-114600000D03*
%TD*%
D18*
%TO.N,+3.3V*%
%TO.C,J1*%
X131475000Y-131100000D03*
D19*
%TO.N,/SWDIO*%
X131475000Y-132370001D03*
%TO.N,/SWCLK*%
X131475000Y-133640000D03*
%TO.N,AGND*%
X131475000Y-134910000D03*
%TD*%
D20*
%TO.N,/BATT_U*%
X139050000Y-133627000D03*
X145400000Y-138150000D03*
X144109148Y-137077000D03*
%TO.N,+3.3V*%
X137650000Y-86700000D03*
X149350000Y-119700000D03*
X160850000Y-143000000D03*
X145475000Y-134200000D03*
X158050000Y-95850000D03*
X159850000Y-142200000D03*
X142500000Y-124198008D03*
X154028332Y-125271668D03*
X158850000Y-143000000D03*
X147941337Y-112724407D03*
X146724999Y-111200000D03*
X158850000Y-144600000D03*
X145475000Y-135400000D03*
X151450000Y-125150000D03*
X158850000Y-143800000D03*
X154458367Y-127630733D03*
X139320000Y-129570000D03*
X136925000Y-78900000D03*
X157853894Y-115452680D03*
X136900000Y-123500000D03*
X159850000Y-143000000D03*
X158850000Y-145400000D03*
X146650000Y-131650000D03*
X159000000Y-123250000D03*
X148600000Y-126800000D03*
X139610000Y-102030000D03*
X148725601Y-113376952D03*
X153275680Y-113275680D03*
X160850000Y-142200000D03*
X133750000Y-125925000D03*
X132425000Y-100425000D03*
X133750000Y-126650000D03*
X136950000Y-86700000D03*
X153000000Y-110350000D03*
X161850000Y-143000000D03*
X153275680Y-114013470D03*
X147600000Y-132377680D03*
X162025000Y-113278311D03*
X157700000Y-113200000D03*
X147750000Y-109700000D03*
X142850000Y-125450000D03*
X159850000Y-143800000D03*
X161850000Y-142200000D03*
X158850000Y-142200000D03*
X159000000Y-121900000D03*
%TO.N,/CONTI_C1*%
X137300000Y-125300000D03*
%TO.N,/ALED_PWR*%
X130750000Y-81900000D03*
X130750000Y-81250000D03*
X162500000Y-87250000D03*
X132375000Y-88175000D03*
X130755000Y-82555000D03*
%TO.N,Net-(D8-DIN)*%
X165800000Y-83900000D03*
%TO.N,/IGN_1*%
X141542821Y-112153724D03*
D21*
%TO.N,VCC*%
X164900000Y-128300000D03*
X163800000Y-129600000D03*
X164900000Y-129600000D03*
D20*
X134154692Y-105854692D03*
X140400000Y-145900000D03*
X140000000Y-144300000D03*
X135350000Y-103500000D03*
D21*
X164900000Y-130900000D03*
X163800000Y-130900000D03*
D20*
X128075000Y-83100000D03*
X140100000Y-146800000D03*
D21*
X163800000Y-128300000D03*
D20*
X140400000Y-145200000D03*
%TO.N,/SWDIO*%
X145949200Y-131909556D03*
%TO.N,/BOOT0*%
X155400000Y-132350000D03*
%TO.N,/NRST*%
X151150000Y-124300000D03*
%TO.N,/USB_VBUS_D_CUTOFF*%
X131700000Y-140900000D03*
X137650000Y-144600000D03*
X136900000Y-144600000D03*
%TO.N,/STM_SPI_NSS*%
X142456998Y-127952031D03*
%TO.N,Net-(D9-DIN)*%
X128400000Y-86600000D03*
X128600000Y-84550000D03*
%TO.N,/SWCLK*%
X150171543Y-132371543D03*
%TO.N,/STM_SPI_MISO*%
X142505731Y-129542985D03*
%TO.N,/IGN_2*%
X133200000Y-92900000D03*
%TO.N,/IGN_4*%
X165950000Y-120750000D03*
X151100000Y-126800000D03*
%TO.N,/CONTI_C2*%
X138050000Y-107350000D03*
X149226271Y-123981441D03*
X137671662Y-117875000D03*
%TO.N,/CONTI_C3*%
X148274922Y-123175078D03*
%TO.N,/CONTI_C4*%
X152400000Y-125999997D03*
%TO.N,/STM_ALED*%
X169100000Y-88600000D03*
%TO.N,/ESP_ALED*%
X159800000Y-83090000D03*
%TO.N,AGND*%
X166500000Y-95600000D03*
X169600000Y-146900000D03*
X155450000Y-117800000D03*
X130900000Y-145500000D03*
X136350000Y-136150000D03*
X129900000Y-124000000D03*
X132200000Y-108350000D03*
X130100000Y-75900000D03*
X131400000Y-89400000D03*
X135250000Y-128900000D03*
X151794670Y-121494670D03*
X155200000Y-109775000D03*
X169900000Y-136200000D03*
X147490000Y-89670000D03*
X155050000Y-93000000D03*
X144950000Y-114200000D03*
X151000000Y-87000000D03*
X152400000Y-145350000D03*
X152821836Y-116278164D03*
X128800000Y-75900000D03*
X132300000Y-81900000D03*
X135900000Y-90100000D03*
X130100000Y-117700000D03*
X150900000Y-145350000D03*
X151000000Y-83000000D03*
X153900000Y-141100000D03*
X130100000Y-119900000D03*
X151000000Y-86000000D03*
X132700000Y-114300000D03*
X130600000Y-139687320D03*
X166300000Y-88300000D03*
X149950000Y-80600000D03*
X141750000Y-125100000D03*
X142000000Y-89500000D03*
X136300000Y-105850000D03*
X152200000Y-133300000D03*
X142000000Y-87500000D03*
X135700000Y-123600000D03*
X155500000Y-90050000D03*
X142000000Y-83750000D03*
X155500000Y-86000000D03*
X129500000Y-79300000D03*
X168100000Y-108500000D03*
X159500000Y-130500000D03*
X149350000Y-144200000D03*
X144200000Y-106900000D03*
X150850000Y-133300000D03*
X144500000Y-85750000D03*
X170200000Y-124400000D03*
X155500000Y-88000000D03*
X170200000Y-125400000D03*
X139650000Y-103050000D03*
X129850000Y-141500000D03*
X159550000Y-133750000D03*
X167150000Y-124750000D03*
X154400000Y-117000000D03*
X167853500Y-139900001D03*
X139875000Y-113560202D03*
X155000000Y-82000000D03*
X157825000Y-109775000D03*
X160500000Y-78000000D03*
X147600000Y-97600000D03*
X161800000Y-80900000D03*
X167400000Y-87100000D03*
X170053500Y-139700001D03*
X150850000Y-96400000D03*
X151750000Y-93000000D03*
X136350000Y-134800000D03*
X149350000Y-145350000D03*
X135200000Y-80250000D03*
X130600000Y-140850000D03*
X169800000Y-115900000D03*
X153900000Y-139650000D03*
X167900000Y-92500000D03*
X167500000Y-99500000D03*
X150900000Y-144200000D03*
X133750000Y-148600000D03*
X152400000Y-143100000D03*
X130400000Y-134900000D03*
X154000000Y-82000000D03*
X152000000Y-82000000D03*
X152850000Y-90300000D03*
X130000000Y-92800000D03*
X170000000Y-79500000D03*
X139650000Y-104050000D03*
X147500000Y-87400000D03*
X134100000Y-114300000D03*
X132700000Y-112200000D03*
X132500000Y-134900000D03*
X127400000Y-75900000D03*
X169800000Y-105800000D03*
X170053500Y-140500001D03*
X142500000Y-113476351D03*
X135750000Y-148600000D03*
X151900000Y-136200000D03*
X130900000Y-147300000D03*
X140700000Y-137300000D03*
X162325000Y-89300000D03*
X162253500Y-139400001D03*
X166400000Y-108500000D03*
X153000000Y-82000000D03*
X159653500Y-139400000D03*
X167000000Y-79500000D03*
X133700000Y-81900000D03*
X152300000Y-107762501D03*
X130900000Y-149000000D03*
X155500000Y-84000000D03*
X169800000Y-112900000D03*
X147598000Y-108462680D03*
X152400000Y-144200000D03*
X142000000Y-85750000D03*
X138300000Y-141600000D03*
X134100000Y-110100000D03*
X156900000Y-144150000D03*
X165000000Y-97500000D03*
X144500000Y-80000000D03*
X151000000Y-85000000D03*
X129800000Y-89400000D03*
X130800000Y-108350000D03*
X152000000Y-87000000D03*
X150850000Y-89000000D03*
X166500000Y-97500000D03*
X130300000Y-128900000D03*
X164272320Y-107800000D03*
X134200000Y-79100000D03*
X150900000Y-143100000D03*
X152500000Y-77200000D03*
X135800000Y-96200000D03*
X137850000Y-134800000D03*
X155400000Y-141100000D03*
X168553500Y-141200001D03*
X156650000Y-100000000D03*
X169800000Y-104300000D03*
X169800000Y-108500000D03*
X151000000Y-84000000D03*
X156200000Y-117800000D03*
X156900000Y-139650000D03*
X137500000Y-149000000D03*
X165000000Y-79500000D03*
X155500000Y-87000000D03*
X164500000Y-90600000D03*
X169800000Y-109900000D03*
X134650000Y-136150000D03*
X149350000Y-143100000D03*
X167900000Y-93400000D03*
X156145308Y-104054692D03*
X131500000Y-136000000D03*
X151000000Y-82000000D03*
X149200000Y-96850000D03*
X167853500Y-140700001D03*
X165000000Y-99500000D03*
X130700000Y-88100000D03*
X144500000Y-82000000D03*
X137650000Y-80800000D03*
X153950000Y-93000000D03*
X144500000Y-83750000D03*
X137850000Y-136150000D03*
X162914798Y-90010202D03*
X157900000Y-111900000D03*
X169600000Y-142900000D03*
X145807101Y-109251410D03*
X133050000Y-148600000D03*
X163500000Y-78000000D03*
X160553500Y-139400000D03*
X153000000Y-87000000D03*
X127750000Y-144250000D03*
X155400000Y-139650000D03*
X127650000Y-139700000D03*
X135100000Y-81900000D03*
X132700000Y-110100000D03*
X153900000Y-142650000D03*
X134100000Y-112200000D03*
X150600000Y-93000000D03*
X142000000Y-82000000D03*
X169800000Y-107300000D03*
X158600000Y-110800000D03*
X142000000Y-80000000D03*
X135700000Y-125500000D03*
X163600000Y-82400000D03*
X128450000Y-92800000D03*
X137500000Y-147300000D03*
X156900000Y-142650000D03*
X166350000Y-118150000D03*
X139750000Y-108400000D03*
X155400000Y-142650000D03*
X155500000Y-89000000D03*
X127750000Y-146600000D03*
X167000000Y-84500000D03*
X166000000Y-119950000D03*
X148248008Y-119598008D03*
X155500000Y-85000000D03*
X151375000Y-115175000D03*
X156900000Y-141100000D03*
X127400000Y-77000000D03*
X142628437Y-121928437D03*
X142800000Y-135100000D03*
X127700000Y-141950000D03*
X129400000Y-108350000D03*
X137500000Y-140900000D03*
X157750000Y-122150000D03*
X135900000Y-91600000D03*
X169600000Y-144900000D03*
X147750000Y-80600000D03*
X127800000Y-148900000D03*
X135900000Y-88700000D03*
X157750000Y-123650000D03*
X152500000Y-78000000D03*
X148800000Y-116800000D03*
X166200000Y-85200000D03*
X167000000Y-82000000D03*
X156900000Y-145700000D03*
X159550000Y-134800000D03*
X157750000Y-125150000D03*
X153900000Y-144150000D03*
X169800000Y-114400000D03*
X170000000Y-82000000D03*
X135050000Y-148600000D03*
X169600000Y-148700000D03*
X150850000Y-90000000D03*
X132850000Y-128900000D03*
X156500000Y-109775000D03*
X169353500Y-141200001D03*
X151000000Y-88000000D03*
X161353500Y-139400001D03*
X155500000Y-83000000D03*
X145800000Y-107200000D03*
X155400000Y-144150000D03*
X152000000Y-86000000D03*
X169800000Y-111400000D03*
X144500000Y-89500000D03*
X147250000Y-100250000D03*
X144500000Y-87500000D03*
X134700000Y-91600000D03*
X157800000Y-130500000D03*
X167150000Y-123600000D03*
X130100000Y-118800000D03*
X142800000Y-137300000D03*
X143520307Y-119300000D03*
X133300000Y-84600000D03*
X152850000Y-93000000D03*
%TO.N,/ESP_I2C_SDA*%
X145700000Y-125650000D03*
X154400000Y-115800000D03*
X152200000Y-115550000D03*
X143450000Y-121950000D03*
X153696875Y-99246875D03*
X155396875Y-97574320D03*
X148149999Y-105247320D03*
%TO.N,/DVDD_1V5*%
X149750000Y-104600000D03*
X149120185Y-105009177D03*
%TO.N,/CAM_RESET*%
X159350000Y-103650000D03*
%TO.N,/CAM_PWDN*%
X156600000Y-102300000D03*
%TO.N,/ESP_I2C_SCL*%
X150150000Y-108800000D03*
X154315000Y-96900000D03*
X146300000Y-125025000D03*
X146550000Y-101950000D03*
X154975000Y-112787788D03*
X149754442Y-118900000D03*
X144250000Y-121950000D03*
%TO.N,Net-(U3-IO3)*%
X139600000Y-97850000D03*
%TO.N,/ESP_UART_TX*%
X162130948Y-92930948D03*
X158000000Y-128900000D03*
X148887411Y-129562589D03*
X160250000Y-80550000D03*
%TO.N,/IGN_3*%
X146800000Y-123750000D03*
%TO.N,/ULN_3V3*%
X147151992Y-117600000D03*
X145550000Y-120250000D03*
X146250000Y-115850000D03*
X147898187Y-113470483D03*
%TO.N,Net-(D1-A)*%
X138296662Y-119000000D03*
X141000000Y-109100000D03*
%TO.N,Net-(D6-A)*%
X159533883Y-112500001D03*
%TO.N,Net-(J2-CC2)*%
X135300000Y-144000000D03*
%TO.N,Net-(J2-CC1)*%
X132950000Y-143750000D03*
%TO.N,/ESP_UART_RX*%
X161300000Y-92800000D03*
X149503629Y-128983004D03*
X160500000Y-84400000D03*
X157900000Y-127900000D03*
%TO.N,/AVDD_2V8*%
X158550000Y-103500000D03*
X156200000Y-105000000D03*
X157450000Y-104672320D03*
X149250001Y-99350001D03*
X156900000Y-105025000D03*
%TO.N,/ESP_EN*%
X137300000Y-82300000D03*
%TO.N,/IO0*%
X159000000Y-84000000D03*
D21*
%TO.N,Net-(BT3-+)*%
X167700000Y-128200000D03*
X167700000Y-129200000D03*
X167700000Y-130200000D03*
X168900000Y-130200000D03*
X166600000Y-128200000D03*
X166600000Y-130200000D03*
X166600000Y-127200000D03*
X168900000Y-129200000D03*
X166600000Y-129200000D03*
X168900000Y-128200000D03*
X168900000Y-127200000D03*
X167700000Y-127200000D03*
D20*
%TO.N,Net-(D2-A)*%
X155900000Y-113100000D03*
%TO.N,/STM_SPI_SCK*%
X142400000Y-128750000D03*
%TO.N,/STM_SPI_MOSI*%
X143485140Y-129485140D03*
%TO.N,/STM_UART2_RX*%
X146541030Y-120058970D03*
X141901320Y-121600000D03*
X143800000Y-113500000D03*
X138310190Y-126310190D03*
X141647602Y-118800000D03*
%TO.N,/STM_UART2_TX*%
X142400000Y-109850000D03*
X148843877Y-120459992D03*
X138300000Y-129800000D03*
X141400000Y-122500000D03*
X142400000Y-111850000D03*
%TD*%
%TA.AperFunction,Conductor*%
%TO.N,AGND*%
G36*
X170692539Y-75269685D02*
G01*
X170738294Y-75322489D01*
X170749500Y-75374000D01*
X170749500Y-148994586D01*
X170749028Y-149005394D01*
X170735260Y-149162753D01*
X170731507Y-149184038D01*
X170692030Y-149331369D01*
X170684637Y-149351681D01*
X170620177Y-149489915D01*
X170609370Y-149508633D01*
X170521880Y-149633582D01*
X170507986Y-149650140D01*
X170400140Y-149757986D01*
X170383582Y-149771880D01*
X170258633Y-149859370D01*
X170239915Y-149870177D01*
X170101681Y-149934637D01*
X170081369Y-149942030D01*
X169934038Y-149981507D01*
X169912753Y-149985260D01*
X169755395Y-149999028D01*
X169744587Y-149999500D01*
X127505413Y-149999500D01*
X127494605Y-149999028D01*
X127337246Y-149985260D01*
X127315961Y-149981507D01*
X127168630Y-149942030D01*
X127148318Y-149934637D01*
X127010084Y-149870177D01*
X126991366Y-149859370D01*
X126866417Y-149771880D01*
X126849859Y-149757986D01*
X126742013Y-149650140D01*
X126728119Y-149633582D01*
X126640629Y-149508633D01*
X126629822Y-149489915D01*
X126565362Y-149351681D01*
X126557969Y-149331369D01*
X126518492Y-149184038D01*
X126514739Y-149162752D01*
X126500972Y-149005393D01*
X126500500Y-148994586D01*
X126500500Y-143599234D01*
X130709499Y-143599234D01*
X130709499Y-143750766D01*
X130724182Y-143805565D01*
X130748718Y-143897136D01*
X130779516Y-143950478D01*
X130824484Y-144028365D01*
X130931634Y-144135515D01*
X131062864Y-144211281D01*
X131209233Y-144250500D01*
X131209235Y-144250500D01*
X131360763Y-144250500D01*
X131360765Y-144250500D01*
X131507134Y-144211281D01*
X131638364Y-144135515D01*
X131745514Y-144028365D01*
X131821280Y-143897135D01*
X131860499Y-143750766D01*
X131860499Y-143749996D01*
X132144435Y-143749996D01*
X132144435Y-143750003D01*
X132164630Y-143929249D01*
X132164631Y-143929254D01*
X132224211Y-144099523D01*
X132294433Y-144211280D01*
X132320184Y-144252262D01*
X132447738Y-144379816D01*
X132600478Y-144475789D01*
X132706241Y-144512797D01*
X132770745Y-144535368D01*
X132770750Y-144535369D01*
X132949996Y-144555565D01*
X132950000Y-144555565D01*
X132950004Y-144555565D01*
X133129249Y-144535369D01*
X133129252Y-144535368D01*
X133129255Y-144535368D01*
X133299522Y-144475789D01*
X133452262Y-144379816D01*
X133579816Y-144252262D01*
X133675789Y-144099522D01*
X133710615Y-143999996D01*
X134494435Y-143999996D01*
X134494435Y-144000003D01*
X134514630Y-144179249D01*
X134514631Y-144179254D01*
X134574211Y-144349523D01*
X134624662Y-144429815D01*
X134670184Y-144502262D01*
X134797738Y-144629816D01*
X134888080Y-144686582D01*
X134920707Y-144707083D01*
X134950478Y-144725789D01*
X135103258Y-144779249D01*
X135120745Y-144785368D01*
X135120750Y-144785369D01*
X135299996Y-144805565D01*
X135300000Y-144805565D01*
X135300004Y-144805565D01*
X135479249Y-144785369D01*
X135479252Y-144785368D01*
X135479255Y-144785368D01*
X135649522Y-144725789D01*
X135802262Y-144629816D01*
X135885798Y-144546279D01*
X135947117Y-144512797D01*
X136016809Y-144517781D01*
X136072743Y-144559652D01*
X136096696Y-144620079D01*
X136114630Y-144779250D01*
X136114631Y-144779254D01*
X136174211Y-144949523D01*
X136270184Y-145102262D01*
X136397738Y-145229816D01*
X136488080Y-145286582D01*
X136532449Y-145314461D01*
X136550478Y-145325789D01*
X136703258Y-145379249D01*
X136720745Y-145385368D01*
X136720750Y-145385369D01*
X136899996Y-145405565D01*
X136900000Y-145405565D01*
X136900004Y-145405565D01*
X137079249Y-145385369D01*
X137079251Y-145385368D01*
X137079255Y-145385368D01*
X137079258Y-145385366D01*
X137079262Y-145385366D01*
X137234045Y-145331205D01*
X137303824Y-145327643D01*
X137315955Y-145331205D01*
X137470737Y-145385366D01*
X137470743Y-145385367D01*
X137470745Y-145385368D01*
X137470746Y-145385368D01*
X137470750Y-145385369D01*
X137649996Y-145405565D01*
X137650000Y-145405565D01*
X137650004Y-145405565D01*
X137829249Y-145385369D01*
X137829252Y-145385368D01*
X137829255Y-145385368D01*
X137999522Y-145325789D01*
X138152262Y-145229816D01*
X138279816Y-145102262D01*
X138375789Y-144949522D01*
X138435368Y-144779255D01*
X138441392Y-144725789D01*
X138455565Y-144600003D01*
X138455565Y-144599996D01*
X138435369Y-144420750D01*
X138435368Y-144420745D01*
X138393909Y-144302262D01*
X138393116Y-144299996D01*
X139194435Y-144299996D01*
X139194435Y-144300003D01*
X139214630Y-144479249D01*
X139214631Y-144479254D01*
X139274211Y-144649523D01*
X139355727Y-144779254D01*
X139370184Y-144802262D01*
X139497738Y-144929816D01*
X139539561Y-144956095D01*
X139550498Y-144962967D01*
X139596790Y-145015301D01*
X139607747Y-145081844D01*
X139594435Y-145199996D01*
X139594435Y-145200003D01*
X139614630Y-145379249D01*
X139614632Y-145379257D01*
X139660047Y-145509046D01*
X139663608Y-145578825D01*
X139660047Y-145590954D01*
X139614632Y-145720742D01*
X139614630Y-145720750D01*
X139594435Y-145899996D01*
X139594435Y-145900003D01*
X139615411Y-146086175D01*
X139612353Y-146086519D01*
X139608747Y-146142784D01*
X139579930Y-146187992D01*
X139470183Y-146297739D01*
X139374211Y-146450476D01*
X139314631Y-146620745D01*
X139314630Y-146620750D01*
X139294435Y-146799996D01*
X139294435Y-146800003D01*
X139314630Y-146979249D01*
X139314631Y-146979254D01*
X139374211Y-147149523D01*
X139470184Y-147302262D01*
X139597738Y-147429816D01*
X139750478Y-147525789D01*
X139920745Y-147585368D01*
X139920750Y-147585369D01*
X140099996Y-147605565D01*
X140100000Y-147605565D01*
X140100004Y-147605565D01*
X140279249Y-147585369D01*
X140279252Y-147585368D01*
X140279255Y-147585368D01*
X140449522Y-147525789D01*
X140602262Y-147429816D01*
X140729816Y-147302262D01*
X140825789Y-147149522D01*
X140885368Y-146979255D01*
X140893214Y-146909618D01*
X140905565Y-146800003D01*
X140905565Y-146799996D01*
X140884589Y-146613825D01*
X140887726Y-146613471D01*
X140891093Y-146557654D01*
X140920070Y-146512008D01*
X141029816Y-146402262D01*
X141125789Y-146249522D01*
X141185368Y-146079255D01*
X141185369Y-146079249D01*
X141205565Y-145900003D01*
X141205565Y-145899996D01*
X141188665Y-145749999D01*
X142094357Y-145749999D01*
X142094357Y-145750000D01*
X142114884Y-145971535D01*
X142114885Y-145971537D01*
X142175769Y-146185523D01*
X142175775Y-146185538D01*
X142274938Y-146384683D01*
X142274943Y-146384691D01*
X142409020Y-146562238D01*
X142573437Y-146712123D01*
X142573439Y-146712125D01*
X142762595Y-146829245D01*
X142762596Y-146829245D01*
X142762599Y-146829247D01*
X142970060Y-146909618D01*
X143188757Y-146950500D01*
X143188759Y-146950500D01*
X143411241Y-146950500D01*
X143411243Y-146950500D01*
X143629940Y-146909618D01*
X143837401Y-146829247D01*
X144026562Y-146712124D01*
X144190981Y-146562236D01*
X144325058Y-146384689D01*
X144424229Y-146185528D01*
X144485115Y-145971536D01*
X144505643Y-145750000D01*
X144505643Y-145749999D01*
X153094357Y-145749999D01*
X153094357Y-145750000D01*
X153114884Y-145971535D01*
X153114885Y-145971537D01*
X153175769Y-146185523D01*
X153175775Y-146185538D01*
X153274938Y-146384683D01*
X153274943Y-146384691D01*
X153409020Y-146562238D01*
X153573437Y-146712123D01*
X153573439Y-146712125D01*
X153762595Y-146829245D01*
X153762596Y-146829245D01*
X153762599Y-146829247D01*
X153970060Y-146909618D01*
X154188757Y-146950500D01*
X154188759Y-146950500D01*
X154411241Y-146950500D01*
X154411243Y-146950500D01*
X154629940Y-146909618D01*
X154837401Y-146829247D01*
X155026562Y-146712124D01*
X155190981Y-146562236D01*
X155325058Y-146384689D01*
X155424229Y-146185528D01*
X155485115Y-145971536D01*
X155505643Y-145750000D01*
X155502931Y-145720737D01*
X155485115Y-145528464D01*
X155485114Y-145528462D01*
X155479589Y-145509045D01*
X155424229Y-145314472D01*
X155421893Y-145309780D01*
X155325061Y-145115316D01*
X155325056Y-145115308D01*
X155190979Y-144937761D01*
X155026562Y-144787876D01*
X155026560Y-144787874D01*
X154837404Y-144670754D01*
X154837398Y-144670752D01*
X154629940Y-144590382D01*
X154411243Y-144549500D01*
X154188757Y-144549500D01*
X153970060Y-144590382D01*
X153868267Y-144629817D01*
X153762601Y-144670752D01*
X153762595Y-144670754D01*
X153573439Y-144787874D01*
X153573437Y-144787876D01*
X153409020Y-144937761D01*
X153274943Y-145115308D01*
X153274938Y-145115316D01*
X153175775Y-145314461D01*
X153175769Y-145314476D01*
X153114885Y-145528462D01*
X153114884Y-145528464D01*
X153094357Y-145749999D01*
X144505643Y-145749999D01*
X144502931Y-145720737D01*
X144485115Y-145528464D01*
X144485114Y-145528462D01*
X144479589Y-145509045D01*
X144424229Y-145314472D01*
X144421893Y-145309780D01*
X144325061Y-145115316D01*
X144325056Y-145115308D01*
X144190979Y-144937761D01*
X144026562Y-144787876D01*
X144026560Y-144787874D01*
X143837404Y-144670754D01*
X143837398Y-144670752D01*
X143629940Y-144590382D01*
X143411243Y-144549500D01*
X143188757Y-144549500D01*
X142970060Y-144590382D01*
X142868267Y-144629817D01*
X142762601Y-144670752D01*
X142762595Y-144670754D01*
X142573439Y-144787874D01*
X142573437Y-144787876D01*
X142409020Y-144937761D01*
X142274943Y-145115308D01*
X142274938Y-145115316D01*
X142175775Y-145314461D01*
X142175769Y-145314476D01*
X142114885Y-145528462D01*
X142114884Y-145528464D01*
X142094357Y-145749999D01*
X141188665Y-145749999D01*
X141185369Y-145720750D01*
X141185366Y-145720737D01*
X141139953Y-145590955D01*
X141136391Y-145521176D01*
X141139953Y-145509045D01*
X141185366Y-145379262D01*
X141185369Y-145379249D01*
X141205565Y-145200003D01*
X141205565Y-145199996D01*
X141185369Y-145020750D01*
X141185368Y-145020745D01*
X141163008Y-144956844D01*
X141125789Y-144850478D01*
X141029816Y-144697738D01*
X140902262Y-144570184D01*
X140849498Y-144537030D01*
X140803209Y-144484698D01*
X140792252Y-144418154D01*
X140805565Y-144300002D01*
X140805565Y-144299996D01*
X140785369Y-144120750D01*
X140785368Y-144120745D01*
X140777942Y-144099522D01*
X140725789Y-143950478D01*
X140629816Y-143797738D01*
X140502262Y-143670184D01*
X140470897Y-143650476D01*
X140349523Y-143574211D01*
X140179254Y-143514631D01*
X140179249Y-143514630D01*
X140000004Y-143494435D01*
X139999996Y-143494435D01*
X139820750Y-143514630D01*
X139820745Y-143514631D01*
X139650476Y-143574211D01*
X139497737Y-143670184D01*
X139370184Y-143797737D01*
X139274211Y-143950476D01*
X139214631Y-144120745D01*
X139214630Y-144120750D01*
X139194435Y-144299996D01*
X138393116Y-144299996D01*
X138375789Y-144250478D01*
X138279816Y-144097738D01*
X138152262Y-143970184D01*
X138087124Y-143929255D01*
X137999523Y-143874211D01*
X137829254Y-143814631D01*
X137829249Y-143814630D01*
X137750616Y-143805771D01*
X137686202Y-143778705D01*
X137646646Y-143721110D01*
X137640499Y-143682551D01*
X137640499Y-143599236D01*
X137640499Y-143599234D01*
X137601280Y-143452865D01*
X137596107Y-143443906D01*
X137570758Y-143400000D01*
X137525514Y-143321635D01*
X137418364Y-143214485D01*
X137352749Y-143176602D01*
X137287135Y-143138719D01*
X137213949Y-143119109D01*
X137140765Y-143099500D01*
X136989233Y-143099500D01*
X136842862Y-143138719D01*
X136711634Y-143214485D01*
X136711631Y-143214487D01*
X136604486Y-143321632D01*
X136604484Y-143321635D01*
X136528718Y-143452863D01*
X136489499Y-143599234D01*
X136489499Y-143750767D01*
X136502910Y-143800819D01*
X136501247Y-143870669D01*
X136462083Y-143928531D01*
X136449109Y-143937904D01*
X136397741Y-143970181D01*
X136314204Y-144053718D01*
X136252880Y-144087202D01*
X136183189Y-144082218D01*
X136127255Y-144040346D01*
X136103303Y-143979919D01*
X136085369Y-143820750D01*
X136085368Y-143820745D01*
X136077320Y-143797746D01*
X136025789Y-143650478D01*
X136007106Y-143620745D01*
X135977867Y-143574211D01*
X135929816Y-143497738D01*
X135802262Y-143370184D01*
X135724997Y-143321635D01*
X135649523Y-143274211D01*
X135479254Y-143214631D01*
X135479249Y-143214630D01*
X135300004Y-143194435D01*
X135299996Y-143194435D01*
X135120750Y-143214630D01*
X135120745Y-143214631D01*
X134950476Y-143274211D01*
X134797737Y-143370184D01*
X134670184Y-143497737D01*
X134574211Y-143650476D01*
X134514631Y-143820745D01*
X134514630Y-143820750D01*
X134494435Y-143999996D01*
X133710615Y-143999996D01*
X133735368Y-143929255D01*
X133738987Y-143897135D01*
X133755565Y-143750003D01*
X133755565Y-143749996D01*
X133735369Y-143570750D01*
X133735368Y-143570745D01*
X133715733Y-143514631D01*
X133675789Y-143400478D01*
X133579816Y-143247738D01*
X133452262Y-143120184D01*
X133419344Y-143099500D01*
X133299523Y-143024211D01*
X133129254Y-142964631D01*
X133129249Y-142964630D01*
X132950004Y-142944435D01*
X132949996Y-142944435D01*
X132770750Y-142964630D01*
X132770745Y-142964631D01*
X132600476Y-143024211D01*
X132447737Y-143120184D01*
X132320184Y-143247737D01*
X132224211Y-143400476D01*
X132164631Y-143570745D01*
X132164630Y-143570750D01*
X132144435Y-143749996D01*
X131860499Y-143749996D01*
X131860499Y-143599234D01*
X131821280Y-143452865D01*
X131816107Y-143443906D01*
X131790758Y-143400000D01*
X131745514Y-143321635D01*
X131638364Y-143214485D01*
X131572749Y-143176602D01*
X131507135Y-143138719D01*
X131433949Y-143119109D01*
X131360765Y-143099500D01*
X131209233Y-143099500D01*
X131062862Y-143138719D01*
X130931634Y-143214485D01*
X130931631Y-143214487D01*
X130824486Y-143321632D01*
X130824484Y-143321635D01*
X130748718Y-143452863D01*
X130717131Y-143570750D01*
X130709499Y-143599234D01*
X126500500Y-143599234D01*
X126500500Y-140899996D01*
X130894435Y-140899996D01*
X130894435Y-140900003D01*
X130914630Y-141079249D01*
X130914631Y-141079254D01*
X130974211Y-141249523D01*
X131027117Y-141333722D01*
X131070184Y-141402262D01*
X131197738Y-141529816D01*
X131259720Y-141568762D01*
X131330251Y-141613080D01*
X131350478Y-141625789D01*
X131520745Y-141685368D01*
X131520750Y-141685369D01*
X131699996Y-141705565D01*
X131700000Y-141705565D01*
X131700004Y-141705565D01*
X131879249Y-141685369D01*
X131879252Y-141685368D01*
X131879255Y-141685368D01*
X132049522Y-141625789D01*
X132202262Y-141529816D01*
X132329816Y-141402262D01*
X132425789Y-141249522D01*
X132485368Y-141079255D01*
X132485369Y-141079249D01*
X132505565Y-140900003D01*
X132505565Y-140899996D01*
X132485369Y-140720750D01*
X132485368Y-140720745D01*
X132425788Y-140550476D01*
X132329815Y-140397737D01*
X132202262Y-140270184D01*
X132049523Y-140174211D01*
X131879254Y-140114631D01*
X131879249Y-140114630D01*
X131700004Y-140094435D01*
X131699996Y-140094435D01*
X131520750Y-140114630D01*
X131520745Y-140114631D01*
X131350476Y-140174211D01*
X131197737Y-140270184D01*
X131070184Y-140397737D01*
X130974211Y-140550476D01*
X130914631Y-140720745D01*
X130914630Y-140720750D01*
X130894435Y-140899996D01*
X126500500Y-140899996D01*
X126500500Y-137076996D01*
X143303583Y-137076996D01*
X143303583Y-137077003D01*
X143323778Y-137256249D01*
X143323779Y-137256254D01*
X143383359Y-137426523D01*
X143442211Y-137520184D01*
X143479332Y-137579262D01*
X143606886Y-137706816D01*
X143759626Y-137802789D01*
X143929887Y-137862366D01*
X143929893Y-137862368D01*
X143929898Y-137862369D01*
X144109144Y-137882565D01*
X144109148Y-137882565D01*
X144109152Y-137882565D01*
X144288397Y-137862369D01*
X144288399Y-137862368D01*
X144288403Y-137862368D01*
X144288406Y-137862366D01*
X144288410Y-137862366D01*
X144460322Y-137802211D01*
X144530101Y-137798649D01*
X144590728Y-137833377D01*
X144622956Y-137895370D01*
X144618319Y-137960204D01*
X144614634Y-137970735D01*
X144614630Y-137970750D01*
X144594435Y-138149996D01*
X144594435Y-138150003D01*
X144614630Y-138329249D01*
X144614631Y-138329254D01*
X144674211Y-138499523D01*
X144770184Y-138652262D01*
X144897737Y-138779815D01*
X144903184Y-138784159D01*
X144901657Y-138786073D01*
X144940395Y-138829852D01*
X144951057Y-138898903D01*
X144922693Y-138962757D01*
X144909901Y-138975760D01*
X144705241Y-139155241D01*
X144510728Y-139377041D01*
X144346828Y-139622334D01*
X144216349Y-139886919D01*
X144121521Y-140166269D01*
X144121518Y-140166283D01*
X144063968Y-140455609D01*
X144063964Y-140455636D01*
X144044671Y-140749992D01*
X144044671Y-140750007D01*
X144063964Y-141044363D01*
X144063965Y-141044373D01*
X144063966Y-141044380D01*
X144063968Y-141044390D01*
X144121518Y-141333716D01*
X144121521Y-141333730D01*
X144216349Y-141613080D01*
X144346825Y-141877660D01*
X144346829Y-141877667D01*
X144510725Y-142122955D01*
X144705241Y-142344758D01*
X144927044Y-142539274D01*
X145017927Y-142600000D01*
X145172335Y-142703172D01*
X145436923Y-142833652D01*
X145716278Y-142928481D01*
X146005620Y-142986034D01*
X146033888Y-142987886D01*
X146299993Y-143005329D01*
X146300000Y-143005329D01*
X146300007Y-143005329D01*
X146535675Y-142989881D01*
X146594380Y-142986034D01*
X146883722Y-142928481D01*
X147163077Y-142833652D01*
X147427665Y-142703172D01*
X147672957Y-142539273D01*
X147894758Y-142344758D01*
X148021711Y-142199996D01*
X158044435Y-142199996D01*
X158044435Y-142200003D01*
X158064630Y-142379249D01*
X158064633Y-142379262D01*
X158126510Y-142556094D01*
X158124364Y-142556844D01*
X158133962Y-142615144D01*
X158125609Y-142643590D01*
X158126510Y-142643906D01*
X158064633Y-142820737D01*
X158064630Y-142820750D01*
X158044435Y-142999996D01*
X158044435Y-143000003D01*
X158064630Y-143179249D01*
X158064633Y-143179262D01*
X158126510Y-143356094D01*
X158124364Y-143356844D01*
X158133962Y-143415144D01*
X158125609Y-143443590D01*
X158126510Y-143443906D01*
X158064633Y-143620737D01*
X158064630Y-143620750D01*
X158044435Y-143799996D01*
X158044435Y-143800003D01*
X158064630Y-143979249D01*
X158064633Y-143979262D01*
X158126510Y-144156094D01*
X158124364Y-144156844D01*
X158133962Y-144215144D01*
X158125609Y-144243590D01*
X158126510Y-144243906D01*
X158064633Y-144420737D01*
X158064630Y-144420750D01*
X158044435Y-144599996D01*
X158044435Y-144600003D01*
X158064630Y-144779249D01*
X158064633Y-144779262D01*
X158126510Y-144956094D01*
X158124364Y-144956844D01*
X158133962Y-145015144D01*
X158125609Y-145043590D01*
X158126510Y-145043906D01*
X158064633Y-145220737D01*
X158064630Y-145220750D01*
X158044435Y-145399996D01*
X158044435Y-145400003D01*
X158064630Y-145579249D01*
X158064631Y-145579254D01*
X158124211Y-145749523D01*
X158124511Y-145750000D01*
X158220184Y-145902262D01*
X158347738Y-146029816D01*
X158500478Y-146125789D01*
X158555646Y-146145093D01*
X158670745Y-146185368D01*
X158670750Y-146185369D01*
X158849996Y-146205565D01*
X158850000Y-146205565D01*
X158850004Y-146205565D01*
X159029249Y-146185369D01*
X159029252Y-146185368D01*
X159029255Y-146185368D01*
X159199522Y-146125789D01*
X159352262Y-146029816D01*
X159479816Y-145902262D01*
X159575789Y-145749522D01*
X159635368Y-145579255D01*
X159635369Y-145579249D01*
X159655565Y-145400003D01*
X159655565Y-145399996D01*
X159635369Y-145220750D01*
X159635366Y-145220737D01*
X159573489Y-145043905D01*
X159575637Y-145043153D01*
X159566035Y-144984872D01*
X159574392Y-144956411D01*
X159573489Y-144956095D01*
X159635366Y-144779262D01*
X159635369Y-144779249D01*
X159643500Y-144707083D01*
X159670566Y-144642669D01*
X159728161Y-144603114D01*
X159780604Y-144597746D01*
X159849998Y-144605565D01*
X159850000Y-144605565D01*
X159850004Y-144605565D01*
X160029249Y-144585369D01*
X160029252Y-144585368D01*
X160029255Y-144585368D01*
X160199522Y-144525789D01*
X160352262Y-144429816D01*
X160479816Y-144302262D01*
X160575789Y-144149522D01*
X160635368Y-143979255D01*
X160636391Y-143970181D01*
X160643500Y-143907083D01*
X160670566Y-143842669D01*
X160728161Y-143803114D01*
X160780604Y-143797746D01*
X160849998Y-143805565D01*
X160850000Y-143805565D01*
X160850004Y-143805565D01*
X161029249Y-143785369D01*
X161029252Y-143785368D01*
X161029255Y-143785368D01*
X161199522Y-143725789D01*
X161284027Y-143672691D01*
X161351264Y-143653690D01*
X161415973Y-143672691D01*
X161500475Y-143725788D01*
X161670745Y-143785368D01*
X161670750Y-143785369D01*
X161849996Y-143805565D01*
X161850000Y-143805565D01*
X161850004Y-143805565D01*
X162029249Y-143785369D01*
X162029252Y-143785368D01*
X162029255Y-143785368D01*
X162199522Y-143725789D01*
X162352262Y-143629816D01*
X162479816Y-143502262D01*
X162575789Y-143349522D01*
X162635368Y-143179255D01*
X162635369Y-143179249D01*
X162655565Y-143000003D01*
X162655565Y-142999996D01*
X162635369Y-142820750D01*
X162635366Y-142820737D01*
X162573489Y-142643905D01*
X162575637Y-142643153D01*
X162566035Y-142584872D01*
X162574392Y-142556411D01*
X162573489Y-142556095D01*
X162635366Y-142379262D01*
X162635369Y-142379249D01*
X162655565Y-142200003D01*
X162655565Y-142199996D01*
X162635369Y-142020750D01*
X162635368Y-142020745D01*
X162575788Y-141850476D01*
X162479815Y-141697737D01*
X162352262Y-141570184D01*
X162199523Y-141474211D01*
X162029254Y-141414631D01*
X162029249Y-141414630D01*
X161850004Y-141394435D01*
X161849996Y-141394435D01*
X161670750Y-141414630D01*
X161670737Y-141414633D01*
X161500479Y-141474209D01*
X161415971Y-141527309D01*
X161348734Y-141546309D01*
X161284029Y-141527309D01*
X161199520Y-141474209D01*
X161029262Y-141414633D01*
X161029249Y-141414630D01*
X160850004Y-141394435D01*
X160849996Y-141394435D01*
X160670750Y-141414630D01*
X160670737Y-141414633D01*
X160500479Y-141474209D01*
X160415971Y-141527309D01*
X160348734Y-141546309D01*
X160284029Y-141527309D01*
X160199520Y-141474209D01*
X160029262Y-141414633D01*
X160029249Y-141414630D01*
X159850004Y-141394435D01*
X159849996Y-141394435D01*
X159670750Y-141414630D01*
X159670737Y-141414633D01*
X159500479Y-141474209D01*
X159415971Y-141527309D01*
X159348734Y-141546309D01*
X159284029Y-141527309D01*
X159199520Y-141474209D01*
X159029262Y-141414633D01*
X159029249Y-141414630D01*
X158850004Y-141394435D01*
X158849996Y-141394435D01*
X158670750Y-141414630D01*
X158670745Y-141414631D01*
X158500476Y-141474211D01*
X158347737Y-141570184D01*
X158220184Y-141697737D01*
X158124211Y-141850476D01*
X158064631Y-142020745D01*
X158064630Y-142020750D01*
X158044435Y-142199996D01*
X148021711Y-142199996D01*
X148089273Y-142122957D01*
X148253172Y-141877665D01*
X148383652Y-141613077D01*
X148478481Y-141333722D01*
X148536034Y-141044380D01*
X148555329Y-140750000D01*
X148555329Y-140749992D01*
X148536035Y-140455636D01*
X148536034Y-140455620D01*
X148478481Y-140166278D01*
X148383652Y-139886923D01*
X148253172Y-139622336D01*
X148089273Y-139377043D01*
X148046655Y-139328447D01*
X147894758Y-139155241D01*
X147672955Y-138960725D01*
X147427667Y-138796829D01*
X147427660Y-138796825D01*
X147163080Y-138666349D01*
X146883730Y-138571521D01*
X146883724Y-138571519D01*
X146883722Y-138571519D01*
X146594380Y-138513966D01*
X146594373Y-138513965D01*
X146594363Y-138513964D01*
X146295950Y-138494405D01*
X146296051Y-138492851D01*
X146235210Y-138474986D01*
X146189455Y-138422182D01*
X146179511Y-138353024D01*
X146185206Y-138329721D01*
X146185366Y-138329262D01*
X146185369Y-138329249D01*
X146205565Y-138150003D01*
X146205565Y-138149996D01*
X146185369Y-137970750D01*
X146185368Y-137970745D01*
X146154512Y-137882565D01*
X146125789Y-137800478D01*
X146029816Y-137647738D01*
X145902262Y-137520184D01*
X145749523Y-137424211D01*
X145579254Y-137364631D01*
X145579249Y-137364630D01*
X145400004Y-137344435D01*
X145399996Y-137344435D01*
X145220750Y-137364630D01*
X145220742Y-137364632D01*
X145048824Y-137424789D01*
X144979046Y-137428350D01*
X144918418Y-137393621D01*
X144886191Y-137331628D01*
X144890829Y-137266789D01*
X144894516Y-137256255D01*
X144914713Y-137077000D01*
X144894516Y-136897745D01*
X144834937Y-136727478D01*
X144738964Y-136574738D01*
X144611410Y-136447184D01*
X144458671Y-136351211D01*
X144288402Y-136291631D01*
X144288397Y-136291630D01*
X144109152Y-136271435D01*
X144109144Y-136271435D01*
X143929898Y-136291630D01*
X143929893Y-136291631D01*
X143759624Y-136351211D01*
X143606885Y-136447184D01*
X143479332Y-136574737D01*
X143383359Y-136727476D01*
X143323779Y-136897745D01*
X143323778Y-136897750D01*
X143303583Y-137076996D01*
X126500500Y-137076996D01*
X126500500Y-132370001D01*
X130469659Y-132370001D01*
X130488975Y-132566130D01*
X130488976Y-132566133D01*
X130535974Y-132721065D01*
X130546188Y-132754734D01*
X130639086Y-132928533D01*
X130642473Y-132933602D01*
X130640832Y-132934698D01*
X130664594Y-132990639D01*
X130652805Y-133059507D01*
X130642109Y-133076157D01*
X130642473Y-133076400D01*
X130639085Y-133081468D01*
X130546188Y-133255267D01*
X130488975Y-133443870D01*
X130469659Y-133640000D01*
X130488975Y-133836129D01*
X130488976Y-133836132D01*
X130531563Y-133976523D01*
X130546188Y-134024733D01*
X130639086Y-134198532D01*
X130639090Y-134198539D01*
X130764116Y-134350883D01*
X130916460Y-134475909D01*
X130916467Y-134475913D01*
X131090266Y-134568811D01*
X131090269Y-134568811D01*
X131090273Y-134568814D01*
X131278868Y-134626024D01*
X131475000Y-134645341D01*
X131671132Y-134626024D01*
X131859727Y-134568814D01*
X132033538Y-134475910D01*
X132185883Y-134350883D01*
X132310910Y-134198538D01*
X132403814Y-134024727D01*
X132461024Y-133836132D01*
X132480341Y-133640000D01*
X132479060Y-133626996D01*
X138244435Y-133626996D01*
X138244435Y-133627003D01*
X138264630Y-133806249D01*
X138264631Y-133806254D01*
X138324211Y-133976523D01*
X138351998Y-134020745D01*
X138420184Y-134129262D01*
X138547738Y-134256816D01*
X138638080Y-134313582D01*
X138697444Y-134350883D01*
X138700478Y-134352789D01*
X138870745Y-134412368D01*
X138870750Y-134412369D01*
X139049996Y-134432565D01*
X139050000Y-134432565D01*
X139050004Y-134432565D01*
X139229249Y-134412369D01*
X139229252Y-134412368D01*
X139229255Y-134412368D01*
X139399522Y-134352789D01*
X139552262Y-134256816D01*
X139609082Y-134199996D01*
X144669435Y-134199996D01*
X144669435Y-134200003D01*
X144689630Y-134379249D01*
X144689631Y-134379254D01*
X144749211Y-134549523D01*
X144845184Y-134702262D01*
X144855241Y-134712319D01*
X144888726Y-134773642D01*
X144883742Y-134843334D01*
X144855241Y-134887681D01*
X144845184Y-134897737D01*
X144749211Y-135050476D01*
X144689631Y-135220745D01*
X144689630Y-135220750D01*
X144669435Y-135399996D01*
X144669435Y-135400003D01*
X144689630Y-135579249D01*
X144689631Y-135579254D01*
X144749211Y-135749523D01*
X144845184Y-135902262D01*
X144972738Y-136029816D01*
X145125478Y-136125789D01*
X145295745Y-136185368D01*
X145295750Y-136185369D01*
X145474996Y-136205565D01*
X145475000Y-136205565D01*
X145475004Y-136205565D01*
X145654249Y-136185369D01*
X145654252Y-136185368D01*
X145654255Y-136185368D01*
X145824522Y-136125789D01*
X145977262Y-136029816D01*
X146104816Y-135902262D01*
X146200789Y-135749522D01*
X146260368Y-135579255D01*
X146280565Y-135400000D01*
X146260368Y-135220745D01*
X146200789Y-135050478D01*
X146104816Y-134897738D01*
X146094759Y-134887681D01*
X146061274Y-134826358D01*
X146066258Y-134756666D01*
X146094759Y-134712319D01*
X146104816Y-134702262D01*
X146200789Y-134549522D01*
X146260368Y-134379255D01*
X146263565Y-134350883D01*
X146280565Y-134200003D01*
X146280565Y-134199996D01*
X146260369Y-134020750D01*
X146260368Y-134020745D01*
X146200788Y-133850476D01*
X146104815Y-133697737D01*
X145977262Y-133570184D01*
X145824523Y-133474211D01*
X145654254Y-133414631D01*
X145654249Y-133414630D01*
X145475004Y-133394435D01*
X145474996Y-133394435D01*
X145295750Y-133414630D01*
X145295745Y-133414631D01*
X145125476Y-133474211D01*
X144972737Y-133570184D01*
X144845184Y-133697737D01*
X144749211Y-133850476D01*
X144689631Y-134020745D01*
X144689630Y-134020750D01*
X144669435Y-134199996D01*
X139609082Y-134199996D01*
X139679816Y-134129262D01*
X139775789Y-133976522D01*
X139835368Y-133806255D01*
X139847595Y-133697737D01*
X139855565Y-133627003D01*
X139855565Y-133626996D01*
X139835369Y-133447750D01*
X139835368Y-133447745D01*
X139775788Y-133277476D01*
X139700032Y-133156912D01*
X139679816Y-133124738D01*
X139552262Y-132997184D01*
X139524621Y-132979816D01*
X139399523Y-132901211D01*
X139229254Y-132841631D01*
X139229249Y-132841630D01*
X139050004Y-132821435D01*
X139049996Y-132821435D01*
X138870750Y-132841630D01*
X138870745Y-132841631D01*
X138700476Y-132901211D01*
X138547737Y-132997184D01*
X138420184Y-133124737D01*
X138324211Y-133277476D01*
X138264631Y-133447745D01*
X138264630Y-133447750D01*
X138244435Y-133626996D01*
X132479060Y-133626996D01*
X132461024Y-133443868D01*
X132403814Y-133255273D01*
X132403811Y-133255267D01*
X132403811Y-133255266D01*
X132310913Y-133081467D01*
X132307527Y-133076399D01*
X132309164Y-133075305D01*
X132285403Y-133019341D01*
X132297202Y-132950475D01*
X132307892Y-132933846D01*
X132307526Y-132933602D01*
X132310902Y-132928547D01*
X132310910Y-132928539D01*
X132403814Y-132754728D01*
X132461024Y-132566133D01*
X132480341Y-132370001D01*
X132461024Y-132173869D01*
X132403814Y-131985274D01*
X132402678Y-131983148D01*
X132402419Y-131981904D01*
X132401482Y-131979642D01*
X132401910Y-131979464D01*
X132388435Y-131914746D01*
X132390399Y-131909552D01*
X145143635Y-131909552D01*
X145143635Y-131909559D01*
X145163830Y-132088805D01*
X145163831Y-132088810D01*
X145223411Y-132259079D01*
X145319384Y-132411818D01*
X145446938Y-132539372D01*
X145599678Y-132635345D01*
X145769945Y-132694924D01*
X145769950Y-132694925D01*
X145949196Y-132715121D01*
X145949200Y-132715121D01*
X145949204Y-132715121D01*
X146128449Y-132694925D01*
X146128452Y-132694924D01*
X146128455Y-132694924D01*
X146298722Y-132635345D01*
X146451462Y-132539372D01*
X146479031Y-132511803D01*
X146504661Y-132486173D01*
X146565984Y-132452687D01*
X146606227Y-132450633D01*
X146649998Y-132455565D01*
X146649998Y-132455564D01*
X146650000Y-132455565D01*
X146678067Y-132452402D01*
X146746888Y-132464455D01*
X146798268Y-132511803D01*
X146811381Y-132550526D01*
X146813080Y-132550139D01*
X146814629Y-132556926D01*
X146814631Y-132556934D01*
X146814632Y-132556935D01*
X146817851Y-132566133D01*
X146874210Y-132727201D01*
X146946112Y-132841632D01*
X146970184Y-132879942D01*
X147097738Y-133007496D01*
X147180513Y-133059507D01*
X147215463Y-133081468D01*
X147250478Y-133103469D01*
X147403209Y-133156912D01*
X147420745Y-133163048D01*
X147420750Y-133163049D01*
X147599996Y-133183245D01*
X147600000Y-133183245D01*
X147600004Y-133183245D01*
X147779249Y-133163049D01*
X147779252Y-133163048D01*
X147779255Y-133163048D01*
X147949522Y-133103469D01*
X148102262Y-133007496D01*
X148229816Y-132879942D01*
X148325789Y-132727202D01*
X148385368Y-132556935D01*
X148385369Y-132556926D01*
X148405565Y-132377683D01*
X148405565Y-132377676D01*
X148404874Y-132371539D01*
X149365978Y-132371539D01*
X149365978Y-132371546D01*
X149386173Y-132550792D01*
X149386174Y-132550797D01*
X149445754Y-132721066D01*
X149521510Y-132841630D01*
X149541727Y-132873805D01*
X149669281Y-133001359D01*
X149759623Y-133058125D01*
X149796773Y-133081468D01*
X149822021Y-133097332D01*
X149839557Y-133103468D01*
X149992288Y-133156911D01*
X149992293Y-133156912D01*
X150171539Y-133177108D01*
X150171543Y-133177108D01*
X150171547Y-133177108D01*
X150350792Y-133156912D01*
X150350795Y-133156911D01*
X150350798Y-133156911D01*
X150521065Y-133097332D01*
X150673805Y-133001359D01*
X150801359Y-132873805D01*
X150897332Y-132721065D01*
X150956911Y-132550798D01*
X150956942Y-132550526D01*
X150977108Y-132371546D01*
X150977108Y-132371539D01*
X150974681Y-132349996D01*
X154594435Y-132349996D01*
X154594435Y-132350003D01*
X154614630Y-132529249D01*
X154614631Y-132529254D01*
X154674211Y-132699523D01*
X154691604Y-132727203D01*
X154770184Y-132852262D01*
X154897738Y-132979816D01*
X154960642Y-133019341D01*
X155049707Y-133075305D01*
X155050478Y-133075789D01*
X155190366Y-133124738D01*
X155220745Y-133135368D01*
X155220750Y-133135369D01*
X155399996Y-133155565D01*
X155400000Y-133155565D01*
X155400004Y-133155565D01*
X155579249Y-133135369D01*
X155579252Y-133135368D01*
X155579255Y-133135368D01*
X155749522Y-133075789D01*
X155902262Y-132979816D01*
X156029816Y-132852262D01*
X156125789Y-132699522D01*
X156185368Y-132529255D01*
X156185369Y-132529249D01*
X156205565Y-132350003D01*
X156205565Y-132349996D01*
X156185369Y-132170750D01*
X156185368Y-132170745D01*
X156156696Y-132088805D01*
X156125789Y-132000478D01*
X156029816Y-131847738D01*
X155902262Y-131720184D01*
X155749523Y-131624211D01*
X155579254Y-131564631D01*
X155579249Y-131564630D01*
X155400004Y-131544435D01*
X155399996Y-131544435D01*
X155220750Y-131564630D01*
X155220745Y-131564631D01*
X155050476Y-131624211D01*
X154897737Y-131720184D01*
X154770184Y-131847737D01*
X154674211Y-132000476D01*
X154614631Y-132170745D01*
X154614630Y-132170750D01*
X154594435Y-132349996D01*
X150974681Y-132349996D01*
X150956912Y-132192293D01*
X150956911Y-132192288D01*
X150950466Y-132173869D01*
X150897332Y-132022021D01*
X150883794Y-132000476D01*
X150830618Y-131915846D01*
X150801359Y-131869281D01*
X150673805Y-131741727D01*
X150619303Y-131707481D01*
X150521066Y-131645754D01*
X150350797Y-131586174D01*
X150350792Y-131586173D01*
X150171547Y-131565978D01*
X150171539Y-131565978D01*
X149992293Y-131586173D01*
X149992288Y-131586174D01*
X149822019Y-131645754D01*
X149669280Y-131741727D01*
X149541727Y-131869280D01*
X149445754Y-132022019D01*
X149386174Y-132192288D01*
X149386173Y-132192293D01*
X149365978Y-132371539D01*
X148404874Y-132371539D01*
X148385369Y-132198430D01*
X148385368Y-132198425D01*
X148325788Y-132028156D01*
X148286582Y-131965760D01*
X148229816Y-131875418D01*
X148102262Y-131747864D01*
X148037993Y-131707481D01*
X147949523Y-131651891D01*
X147779254Y-131592311D01*
X147779249Y-131592310D01*
X147600004Y-131572115D01*
X147599996Y-131572115D01*
X147571930Y-131575277D01*
X147503108Y-131563222D01*
X147451729Y-131515873D01*
X147438622Y-131477142D01*
X147436917Y-131477532D01*
X147435368Y-131470745D01*
X147421885Y-131432214D01*
X147375789Y-131300478D01*
X147362758Y-131279740D01*
X147336582Y-131238080D01*
X147279816Y-131147738D01*
X147152262Y-131020184D01*
X147094916Y-130984151D01*
X146999523Y-130924211D01*
X146829254Y-130864631D01*
X146829249Y-130864630D01*
X146650004Y-130844435D01*
X146649996Y-130844435D01*
X146470750Y-130864630D01*
X146470745Y-130864631D01*
X146300476Y-130924211D01*
X146147736Y-131020185D01*
X146094535Y-131073385D01*
X146033211Y-131106869D01*
X145992973Y-131108922D01*
X145949204Y-131103991D01*
X145949196Y-131103991D01*
X145769950Y-131124186D01*
X145769945Y-131124187D01*
X145599676Y-131183767D01*
X145446937Y-131279740D01*
X145319384Y-131407293D01*
X145223411Y-131560032D01*
X145163831Y-131730301D01*
X145163830Y-131730306D01*
X145143635Y-131909552D01*
X132390399Y-131909552D01*
X132412771Y-131850379D01*
X132414749Y-131847737D01*
X132418796Y-131842331D01*
X132469091Y-131707483D01*
X132475500Y-131647873D01*
X132475499Y-130552128D01*
X132469091Y-130492517D01*
X132445705Y-130429817D01*
X132418797Y-130357671D01*
X132418793Y-130357664D01*
X132332547Y-130242455D01*
X132332544Y-130242452D01*
X132217335Y-130156206D01*
X132217328Y-130156202D01*
X132082482Y-130105908D01*
X132082483Y-130105908D01*
X132022883Y-130099501D01*
X132022881Y-130099500D01*
X132022873Y-130099500D01*
X132022864Y-130099500D01*
X130927129Y-130099500D01*
X130927123Y-130099501D01*
X130867516Y-130105908D01*
X130732671Y-130156202D01*
X130732664Y-130156206D01*
X130617455Y-130242452D01*
X130617452Y-130242455D01*
X130531206Y-130357664D01*
X130531202Y-130357671D01*
X130480908Y-130492517D01*
X130474501Y-130552116D01*
X130474501Y-130552123D01*
X130474500Y-130552135D01*
X130474500Y-131647870D01*
X130474501Y-131647876D01*
X130480908Y-131707483D01*
X130531202Y-131842328D01*
X130531204Y-131842331D01*
X130537231Y-131850382D01*
X130561648Y-131915846D01*
X130548108Y-131979477D01*
X130548517Y-131979647D01*
X130547602Y-131981854D01*
X130547331Y-131983131D01*
X130546187Y-131985270D01*
X130488975Y-132173871D01*
X130469659Y-132370001D01*
X126500500Y-132370001D01*
X126500500Y-129799996D01*
X137494435Y-129799996D01*
X137494435Y-129800003D01*
X137514630Y-129979249D01*
X137514631Y-129979254D01*
X137574211Y-130149523D01*
X137650232Y-130270509D01*
X137670184Y-130302262D01*
X137797738Y-130429816D01*
X137950478Y-130525789D01*
X138025771Y-130552135D01*
X138120745Y-130585368D01*
X138120750Y-130585369D01*
X138299996Y-130605565D01*
X138300000Y-130605565D01*
X138300004Y-130605565D01*
X138479249Y-130585369D01*
X138479252Y-130585368D01*
X138479255Y-130585368D01*
X138649522Y-130525789D01*
X138802262Y-130429816D01*
X138890059Y-130342018D01*
X138951378Y-130308536D01*
X139018691Y-130312660D01*
X139119568Y-130347958D01*
X139140745Y-130355368D01*
X139140746Y-130355368D01*
X139140750Y-130355369D01*
X139319996Y-130375565D01*
X139320000Y-130375565D01*
X139320004Y-130375565D01*
X139499249Y-130355369D01*
X139499252Y-130355368D01*
X139499255Y-130355368D01*
X139669522Y-130295789D01*
X139822262Y-130199816D01*
X139949816Y-130072262D01*
X140045789Y-129919522D01*
X140105368Y-129749255D01*
X140110918Y-129700000D01*
X140125565Y-129570003D01*
X140125565Y-129569996D01*
X140105369Y-129390750D01*
X140105368Y-129390745D01*
X140072823Y-129297737D01*
X140045789Y-129220478D01*
X140041132Y-129213067D01*
X139964241Y-129090696D01*
X139949816Y-129067738D01*
X139822262Y-128940184D01*
X139669523Y-128844211D01*
X139499254Y-128784631D01*
X139499249Y-128784630D01*
X139320004Y-128764435D01*
X139319996Y-128764435D01*
X139140750Y-128784630D01*
X139140745Y-128784631D01*
X138970476Y-128844211D01*
X138817737Y-128940184D01*
X138817736Y-128940185D01*
X138729941Y-129027979D01*
X138668618Y-129061463D01*
X138601307Y-129057339D01*
X138479257Y-129014632D01*
X138479249Y-129014630D01*
X138300004Y-128994435D01*
X138299996Y-128994435D01*
X138120750Y-129014630D01*
X138120745Y-129014631D01*
X137950476Y-129074211D01*
X137797737Y-129170184D01*
X137670184Y-129297737D01*
X137574211Y-129450476D01*
X137514631Y-129620745D01*
X137514630Y-129620750D01*
X137494435Y-129799996D01*
X126500500Y-129799996D01*
X126500500Y-128749996D01*
X141594435Y-128749996D01*
X141594435Y-128750003D01*
X141614630Y-128929249D01*
X141614631Y-128929254D01*
X141674211Y-129099523D01*
X141731465Y-129190642D01*
X141750465Y-129257879D01*
X141743513Y-129297567D01*
X141720362Y-129363730D01*
X141720362Y-129363731D01*
X141700166Y-129542981D01*
X141700166Y-129542988D01*
X141720361Y-129722234D01*
X141720362Y-129722239D01*
X141779942Y-129892508D01*
X141854861Y-130011740D01*
X141875915Y-130045247D01*
X142003469Y-130172801D01*
X142046463Y-130199816D01*
X142114322Y-130242455D01*
X142156209Y-130268774D01*
X142281628Y-130312660D01*
X142326476Y-130328353D01*
X142326481Y-130328354D01*
X142505727Y-130348550D01*
X142505731Y-130348550D01*
X142505735Y-130348550D01*
X142684980Y-130328354D01*
X142684983Y-130328353D01*
X142684986Y-130328353D01*
X142855253Y-130268774D01*
X142975493Y-130193221D01*
X143042729Y-130174222D01*
X143107437Y-130193222D01*
X143135616Y-130210928D01*
X143135618Y-130210929D01*
X143247277Y-130250000D01*
X143305885Y-130270508D01*
X143305890Y-130270509D01*
X143485136Y-130290705D01*
X143485140Y-130290705D01*
X143485144Y-130290705D01*
X143664389Y-130270509D01*
X143664392Y-130270508D01*
X143664395Y-130270508D01*
X143834662Y-130210929D01*
X143987402Y-130114956D01*
X144114956Y-129987402D01*
X144210929Y-129834662D01*
X144270508Y-129664395D01*
X144277764Y-129600000D01*
X144281980Y-129562585D01*
X148081846Y-129562585D01*
X148081846Y-129562592D01*
X148102041Y-129741838D01*
X148102042Y-129741843D01*
X148161622Y-129912112D01*
X148245277Y-130045247D01*
X148257595Y-130064851D01*
X148385149Y-130192405D01*
X148464803Y-130242455D01*
X148509450Y-130270509D01*
X148537889Y-130288378D01*
X148691192Y-130342021D01*
X148708156Y-130347957D01*
X148708161Y-130347958D01*
X148887407Y-130368154D01*
X148887411Y-130368154D01*
X148887415Y-130368154D01*
X149066660Y-130347958D01*
X149066663Y-130347957D01*
X149066666Y-130347957D01*
X149236933Y-130288378D01*
X149389673Y-130192405D01*
X149517227Y-130064851D01*
X149613200Y-129912111D01*
X149641068Y-129832465D01*
X149681787Y-129775692D01*
X149717149Y-129756381D01*
X149853151Y-129708793D01*
X150005891Y-129612820D01*
X150133445Y-129485266D01*
X150229418Y-129332526D01*
X150288997Y-129162259D01*
X150297060Y-129090696D01*
X150309194Y-128983007D01*
X150309194Y-128983000D01*
X150288998Y-128803754D01*
X150288997Y-128803749D01*
X150259954Y-128720750D01*
X150229418Y-128633482D01*
X150133445Y-128480742D01*
X150005891Y-128353188D01*
X149992284Y-128344638D01*
X149853152Y-128257215D01*
X149682883Y-128197635D01*
X149682878Y-128197634D01*
X149503633Y-128177439D01*
X149503625Y-128177439D01*
X149324379Y-128197634D01*
X149324374Y-128197635D01*
X149154105Y-128257215D01*
X149001366Y-128353188D01*
X148873813Y-128480741D01*
X148777841Y-128633479D01*
X148777840Y-128633480D01*
X148749970Y-128713127D01*
X148709247Y-128769903D01*
X148673884Y-128789212D01*
X148537891Y-128836798D01*
X148385148Y-128932773D01*
X148257595Y-129060326D01*
X148161622Y-129213065D01*
X148102042Y-129383334D01*
X148102041Y-129383339D01*
X148081846Y-129562585D01*
X144281980Y-129562585D01*
X144290705Y-129485143D01*
X144290705Y-129485136D01*
X144270509Y-129305890D01*
X144270508Y-129305885D01*
X144240622Y-129220476D01*
X144210929Y-129135618D01*
X144114956Y-128982878D01*
X143987402Y-128855324D01*
X143905321Y-128803749D01*
X143834663Y-128759351D01*
X143664394Y-128699771D01*
X143664389Y-128699770D01*
X143485144Y-128679575D01*
X143485136Y-128679575D01*
X143324454Y-128697679D01*
X143255632Y-128685624D01*
X143204253Y-128638275D01*
X143187350Y-128588343D01*
X143185368Y-128570745D01*
X143185367Y-128570741D01*
X143185366Y-128570737D01*
X143143666Y-128451566D01*
X143140104Y-128381787D01*
X143155714Y-128344638D01*
X143182787Y-128301553D01*
X143242366Y-128131286D01*
X143244568Y-128111744D01*
X143262563Y-127952034D01*
X143262563Y-127952027D01*
X143242367Y-127772781D01*
X143242366Y-127772776D01*
X143227355Y-127729876D01*
X143192662Y-127630729D01*
X153652802Y-127630729D01*
X153652802Y-127630736D01*
X153672997Y-127809982D01*
X153672998Y-127809987D01*
X153732578Y-127980256D01*
X153815198Y-128111744D01*
X153828551Y-128132995D01*
X153956105Y-128260549D01*
X154027897Y-128305659D01*
X154089931Y-128344638D01*
X154108845Y-128356522D01*
X154256412Y-128408158D01*
X154279112Y-128416101D01*
X154279117Y-128416102D01*
X154458363Y-128436298D01*
X154458367Y-128436298D01*
X154458371Y-128436298D01*
X154637616Y-128416102D01*
X154637619Y-128416101D01*
X154637622Y-128416101D01*
X154807889Y-128356522D01*
X154960629Y-128260549D01*
X155088183Y-128132995D01*
X155184156Y-127980255D01*
X155212240Y-127899996D01*
X157094435Y-127899996D01*
X157094435Y-127900003D01*
X157114630Y-128079249D01*
X157114631Y-128079254D01*
X157174211Y-128249523D01*
X157205928Y-128300000D01*
X157267341Y-128397738D01*
X157273889Y-128408158D01*
X157272656Y-128408932D01*
X157296077Y-128466306D01*
X157283318Y-128535001D01*
X157277720Y-128544892D01*
X157274209Y-128550479D01*
X157214633Y-128720737D01*
X157214630Y-128720750D01*
X157194435Y-128899996D01*
X157194435Y-128900003D01*
X157214630Y-129079249D01*
X157214631Y-129079254D01*
X157274211Y-129249523D01*
X157370184Y-129402262D01*
X157497738Y-129529816D01*
X157561695Y-129570003D01*
X157642846Y-129620994D01*
X157650478Y-129625789D01*
X157760805Y-129664394D01*
X157820745Y-129685368D01*
X157820750Y-129685369D01*
X157999996Y-129705565D01*
X158000000Y-129705565D01*
X158000004Y-129705565D01*
X158179249Y-129685369D01*
X158179252Y-129685368D01*
X158179255Y-129685368D01*
X158349522Y-129625789D01*
X158502262Y-129529816D01*
X158629816Y-129402262D01*
X158725789Y-129249522D01*
X158785368Y-129079255D01*
X158785369Y-129079249D01*
X158805565Y-128900003D01*
X158805565Y-128899996D01*
X158785369Y-128720750D01*
X158785368Y-128720745D01*
X158778029Y-128699771D01*
X158725789Y-128550478D01*
X158629816Y-128397738D01*
X158629815Y-128397737D01*
X158626111Y-128391842D01*
X158627345Y-128391066D01*
X158603923Y-128333712D01*
X158610179Y-128300000D01*
X162894540Y-128300000D01*
X162914326Y-128488256D01*
X162914327Y-128488259D01*
X162972818Y-128668277D01*
X162972821Y-128668284D01*
X163067467Y-128832216D01*
X163084082Y-128850669D01*
X163098812Y-128867029D01*
X163129041Y-128930021D01*
X163120415Y-128999356D01*
X163098812Y-129032971D01*
X163067466Y-129067785D01*
X162972821Y-129231715D01*
X162972818Y-129231722D01*
X162921149Y-129390745D01*
X162914326Y-129411744D01*
X162894540Y-129600000D01*
X162914326Y-129788256D01*
X162914327Y-129788259D01*
X162972818Y-129968277D01*
X162972821Y-129968284D01*
X163067467Y-130132216D01*
X163080750Y-130146968D01*
X163098812Y-130167029D01*
X163129041Y-130230021D01*
X163120415Y-130299356D01*
X163098812Y-130332971D01*
X163067466Y-130367785D01*
X162972821Y-130531715D01*
X162972818Y-130531722D01*
X162914327Y-130711740D01*
X162914326Y-130711744D01*
X162894540Y-130900000D01*
X162914326Y-131088256D01*
X162914327Y-131088259D01*
X162972818Y-131268277D01*
X162972821Y-131268284D01*
X163067467Y-131432216D01*
X163168510Y-131544435D01*
X163194129Y-131572888D01*
X163347265Y-131684148D01*
X163347270Y-131684151D01*
X163520192Y-131761142D01*
X163520197Y-131761144D01*
X163705354Y-131800500D01*
X163705355Y-131800500D01*
X163894644Y-131800500D01*
X163894646Y-131800500D01*
X164079803Y-131761144D01*
X164252730Y-131684151D01*
X164277114Y-131666434D01*
X164342919Y-131642954D01*
X164410973Y-131658778D01*
X164422879Y-131666429D01*
X164447266Y-131684148D01*
X164447269Y-131684150D01*
X164447270Y-131684151D01*
X164620192Y-131761142D01*
X164620197Y-131761144D01*
X164805354Y-131800500D01*
X164805355Y-131800500D01*
X164994644Y-131800500D01*
X164994646Y-131800500D01*
X165179803Y-131761144D01*
X165352730Y-131684151D01*
X165505871Y-131572888D01*
X165632533Y-131432216D01*
X165727179Y-131268284D01*
X165785674Y-131088256D01*
X165799042Y-130961055D01*
X165825626Y-130896443D01*
X165882924Y-130856458D01*
X165952743Y-130853798D01*
X165995248Y-130873701D01*
X166147265Y-130984148D01*
X166147270Y-130984151D01*
X166320192Y-131061142D01*
X166320197Y-131061144D01*
X166505354Y-131100500D01*
X166505355Y-131100500D01*
X166694644Y-131100500D01*
X166694646Y-131100500D01*
X166879803Y-131061144D01*
X167052730Y-130984151D01*
X167077114Y-130966434D01*
X167142919Y-130942954D01*
X167210973Y-130958778D01*
X167222879Y-130966429D01*
X167247266Y-130984148D01*
X167247269Y-130984150D01*
X167247270Y-130984151D01*
X167420192Y-131061142D01*
X167420197Y-131061144D01*
X167605354Y-131100500D01*
X167605355Y-131100500D01*
X167794644Y-131100500D01*
X167794646Y-131100500D01*
X167979803Y-131061144D01*
X168152730Y-130984151D01*
X168227116Y-130930106D01*
X168292920Y-130906627D01*
X168360974Y-130922452D01*
X168372876Y-130930100D01*
X168422886Y-130966435D01*
X168447270Y-130984151D01*
X168620192Y-131061142D01*
X168620197Y-131061144D01*
X168805354Y-131100500D01*
X168805355Y-131100500D01*
X168994644Y-131100500D01*
X168994646Y-131100500D01*
X169179803Y-131061144D01*
X169352730Y-130984151D01*
X169505871Y-130872888D01*
X169632533Y-130732216D01*
X169727179Y-130568284D01*
X169785674Y-130388256D01*
X169805460Y-130200000D01*
X169785674Y-130011744D01*
X169727179Y-129831716D01*
X169686927Y-129761999D01*
X169670454Y-129694101D01*
X169686927Y-129638001D01*
X169727179Y-129568284D01*
X169785674Y-129388256D01*
X169805460Y-129200000D01*
X169785674Y-129011744D01*
X169728830Y-128836798D01*
X169727181Y-128831722D01*
X169727177Y-128831712D01*
X169702639Y-128789212D01*
X169686927Y-128761999D01*
X169670454Y-128694101D01*
X169686927Y-128638001D01*
X169727179Y-128568284D01*
X169785674Y-128388256D01*
X169805460Y-128200000D01*
X169785674Y-128011744D01*
X169727179Y-127831716D01*
X169686927Y-127761999D01*
X169670454Y-127694101D01*
X169686927Y-127638001D01*
X169727179Y-127568284D01*
X169785674Y-127388256D01*
X169805460Y-127200000D01*
X169785674Y-127011744D01*
X169727179Y-126831716D01*
X169632533Y-126667784D01*
X169505871Y-126527112D01*
X169505870Y-126527111D01*
X169352734Y-126415851D01*
X169352729Y-126415848D01*
X169179807Y-126338857D01*
X169179802Y-126338855D01*
X169034001Y-126307865D01*
X168994646Y-126299500D01*
X168805354Y-126299500D01*
X168772897Y-126306398D01*
X168620197Y-126338855D01*
X168620192Y-126338857D01*
X168447270Y-126415848D01*
X168447265Y-126415851D01*
X168372885Y-126469892D01*
X168307079Y-126493372D01*
X168239025Y-126477546D01*
X168227115Y-126469892D01*
X168152734Y-126415851D01*
X168152729Y-126415848D01*
X167979807Y-126338857D01*
X167979802Y-126338855D01*
X167834001Y-126307865D01*
X167794646Y-126299500D01*
X167605354Y-126299500D01*
X167572897Y-126306398D01*
X167420197Y-126338855D01*
X167420192Y-126338857D01*
X167247270Y-126415848D01*
X167247265Y-126415851D01*
X167222885Y-126433565D01*
X167157079Y-126457045D01*
X167089025Y-126441219D01*
X167077115Y-126433565D01*
X167052734Y-126415851D01*
X167052729Y-126415848D01*
X166879807Y-126338857D01*
X166879802Y-126338855D01*
X166734001Y-126307865D01*
X166694646Y-126299500D01*
X166505354Y-126299500D01*
X166472897Y-126306398D01*
X166320197Y-126338855D01*
X166320192Y-126338857D01*
X166147270Y-126415848D01*
X166147265Y-126415851D01*
X165994129Y-126527111D01*
X165867466Y-126667785D01*
X165772821Y-126831715D01*
X165772818Y-126831722D01*
X165724882Y-126979255D01*
X165714326Y-127011744D01*
X165694540Y-127200000D01*
X165714326Y-127388256D01*
X165714327Y-127388259D01*
X165773174Y-127569374D01*
X165775169Y-127639216D01*
X165739088Y-127699048D01*
X165676387Y-127729876D01*
X165606973Y-127721911D01*
X165563094Y-127690665D01*
X165505871Y-127627112D01*
X165505870Y-127627111D01*
X165352734Y-127515851D01*
X165352729Y-127515848D01*
X165179807Y-127438857D01*
X165179802Y-127438855D01*
X165034001Y-127407865D01*
X164994646Y-127399500D01*
X164805354Y-127399500D01*
X164772897Y-127406398D01*
X164620197Y-127438855D01*
X164620192Y-127438857D01*
X164447270Y-127515848D01*
X164447265Y-127515851D01*
X164422885Y-127533565D01*
X164357079Y-127557045D01*
X164289025Y-127541219D01*
X164277115Y-127533565D01*
X164252734Y-127515851D01*
X164252729Y-127515848D01*
X164079807Y-127438857D01*
X164079802Y-127438855D01*
X163934001Y-127407865D01*
X163894646Y-127399500D01*
X163705354Y-127399500D01*
X163672897Y-127406398D01*
X163520197Y-127438855D01*
X163520192Y-127438857D01*
X163347270Y-127515848D01*
X163347265Y-127515851D01*
X163194129Y-127627111D01*
X163067466Y-127767785D01*
X162972821Y-127931715D01*
X162972818Y-127931722D01*
X162924882Y-128079255D01*
X162914326Y-128111744D01*
X162894540Y-128300000D01*
X158610179Y-128300000D01*
X158616671Y-128265015D01*
X158622268Y-128255125D01*
X158625789Y-128249522D01*
X158636589Y-128218656D01*
X158685366Y-128079262D01*
X158685369Y-128079249D01*
X158705565Y-127900003D01*
X158705565Y-127899996D01*
X158685369Y-127720750D01*
X158685368Y-127720745D01*
X158637998Y-127585369D01*
X158625789Y-127550478D01*
X158604031Y-127515851D01*
X158562509Y-127449769D01*
X158529816Y-127397738D01*
X158402262Y-127270184D01*
X158332329Y-127226242D01*
X158249523Y-127174211D01*
X158079254Y-127114631D01*
X158079249Y-127114630D01*
X157900004Y-127094435D01*
X157899996Y-127094435D01*
X157720750Y-127114630D01*
X157720745Y-127114631D01*
X157550476Y-127174211D01*
X157397737Y-127270184D01*
X157270184Y-127397737D01*
X157174211Y-127550476D01*
X157114631Y-127720745D01*
X157114630Y-127720750D01*
X157094435Y-127899996D01*
X155212240Y-127899996D01*
X155243735Y-127809988D01*
X155243736Y-127809982D01*
X155263932Y-127630736D01*
X155263932Y-127630729D01*
X155243736Y-127451483D01*
X155243735Y-127451478D01*
X155225547Y-127399500D01*
X155184156Y-127281211D01*
X155183279Y-127279816D01*
X155116923Y-127174211D01*
X155088183Y-127128471D01*
X154960629Y-127000917D01*
X154863690Y-126940006D01*
X154807890Y-126904944D01*
X154637621Y-126845364D01*
X154637616Y-126845363D01*
X154458371Y-126825168D01*
X154458363Y-126825168D01*
X154279117Y-126845363D01*
X154279112Y-126845364D01*
X154108843Y-126904944D01*
X153956104Y-127000917D01*
X153828551Y-127128470D01*
X153732578Y-127281209D01*
X153672998Y-127451478D01*
X153672997Y-127451483D01*
X153652802Y-127630729D01*
X143192662Y-127630729D01*
X143182787Y-127602509D01*
X143150092Y-127550476D01*
X143087891Y-127451483D01*
X143086814Y-127449769D01*
X142959260Y-127322215D01*
X142894003Y-127281211D01*
X142806521Y-127226242D01*
X142636252Y-127166662D01*
X142636247Y-127166661D01*
X142457002Y-127146466D01*
X142456994Y-127146466D01*
X142277748Y-127166661D01*
X142277743Y-127166662D01*
X142107474Y-127226242D01*
X141954735Y-127322215D01*
X141827182Y-127449768D01*
X141731209Y-127602507D01*
X141671629Y-127772776D01*
X141671628Y-127772781D01*
X141651433Y-127952027D01*
X141651433Y-127952034D01*
X141671628Y-128131280D01*
X141671630Y-128131288D01*
X141713332Y-128250465D01*
X141716893Y-128320243D01*
X141701284Y-128357390D01*
X141674209Y-128400478D01*
X141614633Y-128570737D01*
X141614630Y-128570750D01*
X141594435Y-128749996D01*
X126500500Y-128749996D01*
X126500500Y-125924996D01*
X132944435Y-125924996D01*
X132944435Y-125925003D01*
X132964630Y-126104249D01*
X132964632Y-126104257D01*
X133014421Y-126246546D01*
X133017982Y-126316325D01*
X133014421Y-126328454D01*
X132964632Y-126470742D01*
X132964630Y-126470750D01*
X132944435Y-126649996D01*
X132944435Y-126650003D01*
X132964630Y-126829249D01*
X132964631Y-126829254D01*
X133024211Y-126999523D01*
X133047118Y-127035979D01*
X133120184Y-127152262D01*
X133247738Y-127279816D01*
X133400478Y-127375789D01*
X133554878Y-127429816D01*
X133570745Y-127435368D01*
X133570750Y-127435369D01*
X133749996Y-127455565D01*
X133750000Y-127455565D01*
X133750004Y-127455565D01*
X133929249Y-127435369D01*
X133929252Y-127435368D01*
X133929255Y-127435368D01*
X134099522Y-127375789D01*
X134252262Y-127279816D01*
X134379816Y-127152262D01*
X134475789Y-126999522D01*
X134535368Y-126829255D01*
X134535369Y-126829249D01*
X134555565Y-126650003D01*
X134555565Y-126649996D01*
X134535369Y-126470750D01*
X134535367Y-126470740D01*
X134502141Y-126375788D01*
X134485577Y-126328452D01*
X134482015Y-126258677D01*
X134485573Y-126246560D01*
X134535368Y-126104255D01*
X134535369Y-126104249D01*
X134555565Y-125925003D01*
X134555565Y-125924996D01*
X134535369Y-125745750D01*
X134535368Y-125745745D01*
X134512494Y-125680374D01*
X134475789Y-125575478D01*
X134459370Y-125549348D01*
X134409981Y-125470745D01*
X134379816Y-125422738D01*
X134257074Y-125299996D01*
X136494435Y-125299996D01*
X136494435Y-125300003D01*
X136514630Y-125479249D01*
X136514631Y-125479254D01*
X136574211Y-125649523D01*
X136646026Y-125763815D01*
X136670184Y-125802262D01*
X136797738Y-125929816D01*
X136846839Y-125960668D01*
X136932721Y-126014632D01*
X136950478Y-126025789D01*
X137104878Y-126079816D01*
X137120745Y-126085368D01*
X137120750Y-126085369D01*
X137299996Y-126105565D01*
X137300000Y-126105565D01*
X137300002Y-126105565D01*
X137330063Y-126102177D01*
X137376095Y-126096991D01*
X137444916Y-126109045D01*
X137496295Y-126156394D01*
X137513920Y-126224004D01*
X137513198Y-126234094D01*
X137504625Y-126310185D01*
X137504625Y-126310193D01*
X137524820Y-126489439D01*
X137524821Y-126489444D01*
X137584401Y-126659713D01*
X137625917Y-126725785D01*
X137680374Y-126812452D01*
X137807928Y-126940006D01*
X137960668Y-127035979D01*
X138127726Y-127094435D01*
X138130935Y-127095558D01*
X138130940Y-127095559D01*
X138310186Y-127115755D01*
X138310190Y-127115755D01*
X138310194Y-127115755D01*
X138489439Y-127095559D01*
X138489442Y-127095558D01*
X138489445Y-127095558D01*
X138659712Y-127035979D01*
X138812452Y-126940006D01*
X138940006Y-126812452D01*
X138947833Y-126799996D01*
X147794435Y-126799996D01*
X147794435Y-126800003D01*
X147814630Y-126979249D01*
X147814631Y-126979254D01*
X147874211Y-127149523D01*
X147956957Y-127281211D01*
X147970184Y-127302262D01*
X148097738Y-127429816D01*
X148188080Y-127486582D01*
X148234661Y-127515851D01*
X148250478Y-127525789D01*
X148375037Y-127569374D01*
X148420745Y-127585368D01*
X148420750Y-127585369D01*
X148599996Y-127605565D01*
X148600000Y-127605565D01*
X148600004Y-127605565D01*
X148779249Y-127585369D01*
X148779252Y-127585368D01*
X148779255Y-127585368D01*
X148949522Y-127525789D01*
X149102262Y-127429816D01*
X149229816Y-127302262D01*
X149325789Y-127149522D01*
X149385368Y-126979255D01*
X149385369Y-126979249D01*
X149405565Y-126800003D01*
X149405565Y-126799996D01*
X150294435Y-126799996D01*
X150294435Y-126800003D01*
X150314630Y-126979249D01*
X150314631Y-126979254D01*
X150374211Y-127149523D01*
X150456957Y-127281211D01*
X150470184Y-127302262D01*
X150597738Y-127429816D01*
X150688080Y-127486582D01*
X150734661Y-127515851D01*
X150750478Y-127525789D01*
X150875037Y-127569374D01*
X150920745Y-127585368D01*
X150920750Y-127585369D01*
X151099996Y-127605565D01*
X151100000Y-127605565D01*
X151100004Y-127605565D01*
X151279249Y-127585369D01*
X151279252Y-127585368D01*
X151279255Y-127585368D01*
X151449522Y-127525789D01*
X151602262Y-127429816D01*
X151729816Y-127302262D01*
X151825789Y-127149522D01*
X151885368Y-126979255D01*
X151889791Y-126940006D01*
X151901697Y-126834331D01*
X151928763Y-126769917D01*
X151986358Y-126730362D01*
X152056195Y-126728224D01*
X152065872Y-126731173D01*
X152220737Y-126785363D01*
X152220743Y-126785364D01*
X152220745Y-126785365D01*
X152220746Y-126785365D01*
X152220750Y-126785366D01*
X152399996Y-126805562D01*
X152400000Y-126805562D01*
X152400004Y-126805562D01*
X152579249Y-126785366D01*
X152579252Y-126785365D01*
X152579255Y-126785365D01*
X152749522Y-126725786D01*
X152902262Y-126629813D01*
X153029816Y-126502259D01*
X153125789Y-126349519D01*
X153185368Y-126179252D01*
X153185369Y-126179246D01*
X153205565Y-126000000D01*
X153205565Y-125999994D01*
X153192035Y-125879915D01*
X153204089Y-125811093D01*
X153251438Y-125759713D01*
X153319048Y-125742089D01*
X153385454Y-125763815D01*
X153402936Y-125778350D01*
X153526070Y-125901484D01*
X153606883Y-125952262D01*
X153674000Y-125994435D01*
X153678810Y-125997457D01*
X153849077Y-126057036D01*
X153849082Y-126057037D01*
X154028328Y-126077233D01*
X154028332Y-126077233D01*
X154028336Y-126077233D01*
X154207581Y-126057037D01*
X154207584Y-126057036D01*
X154207587Y-126057036D01*
X154377854Y-125997457D01*
X154530594Y-125901484D01*
X154658148Y-125773930D01*
X154754121Y-125621190D01*
X154813700Y-125450923D01*
X154813804Y-125450000D01*
X154833897Y-125271671D01*
X154833897Y-125271664D01*
X154813701Y-125092418D01*
X154813700Y-125092413D01*
X154787448Y-125017390D01*
X154754121Y-124922146D01*
X154658148Y-124769406D01*
X154530594Y-124641852D01*
X154377855Y-124545879D01*
X154207586Y-124486299D01*
X154207581Y-124486298D01*
X154028336Y-124466103D01*
X154028328Y-124466103D01*
X153849082Y-124486298D01*
X153849077Y-124486299D01*
X153678808Y-124545879D01*
X153526069Y-124641852D01*
X153398516Y-124769405D01*
X153302543Y-124922144D01*
X153242963Y-125092413D01*
X153242962Y-125092418D01*
X153222767Y-125271664D01*
X153222767Y-125271671D01*
X153236296Y-125391750D01*
X153224241Y-125460572D01*
X153176892Y-125511951D01*
X153109282Y-125529575D01*
X153042876Y-125507848D01*
X153025395Y-125493314D01*
X152902262Y-125370181D01*
X152749523Y-125274208D01*
X152579254Y-125214628D01*
X152579249Y-125214627D01*
X152400004Y-125194432D01*
X152399997Y-125194432D01*
X152385539Y-125196061D01*
X152316717Y-125184006D01*
X152265338Y-125136657D01*
X152248436Y-125086724D01*
X152235369Y-124970750D01*
X152235368Y-124970745D01*
X152227447Y-124948107D01*
X152175789Y-124800478D01*
X152174067Y-124797738D01*
X152112824Y-124700270D01*
X152079816Y-124647738D01*
X151975159Y-124543081D01*
X151941674Y-124481758D01*
X151939620Y-124441516D01*
X151955565Y-124300002D01*
X151955565Y-124299996D01*
X151935369Y-124120750D01*
X151935368Y-124120745D01*
X151923788Y-124087652D01*
X151875789Y-123950478D01*
X151779816Y-123797738D01*
X151652262Y-123670184D01*
X151591364Y-123631919D01*
X151499523Y-123574211D01*
X151329254Y-123514631D01*
X151329249Y-123514630D01*
X151150004Y-123494435D01*
X151149996Y-123494435D01*
X150970750Y-123514630D01*
X150970745Y-123514631D01*
X150800476Y-123574211D01*
X150647737Y-123670184D01*
X150520184Y-123797737D01*
X150424211Y-123950476D01*
X150364631Y-124120745D01*
X150364630Y-124120750D01*
X150344435Y-124299996D01*
X150344435Y-124300003D01*
X150364630Y-124479249D01*
X150364631Y-124479254D01*
X150424211Y-124649523D01*
X150460471Y-124707230D01*
X150520184Y-124802262D01*
X150585556Y-124867634D01*
X150624841Y-124906919D01*
X150658325Y-124968242D01*
X150660379Y-125008483D01*
X150644435Y-125149996D01*
X150644435Y-125150003D01*
X150664630Y-125329249D01*
X150664631Y-125329254D01*
X150724211Y-125499523D01*
X150820184Y-125652262D01*
X150947740Y-125779818D01*
X150961197Y-125788273D01*
X151007489Y-125840607D01*
X151018138Y-125909660D01*
X150989763Y-125973509D01*
X150931373Y-126011881D01*
X150922820Y-126014158D01*
X150920748Y-126014630D01*
X150750476Y-126074211D01*
X150597737Y-126170184D01*
X150470184Y-126297737D01*
X150374211Y-126450476D01*
X150314631Y-126620745D01*
X150314630Y-126620750D01*
X150294435Y-126799996D01*
X149405565Y-126799996D01*
X149385369Y-126620750D01*
X149385368Y-126620745D01*
X149352604Y-126527111D01*
X149325789Y-126450478D01*
X149316295Y-126435369D01*
X149255652Y-126338856D01*
X149229816Y-126297738D01*
X149102262Y-126170184D01*
X148949523Y-126074211D01*
X148779254Y-126014631D01*
X148779249Y-126014630D01*
X148600004Y-125994435D01*
X148599996Y-125994435D01*
X148420750Y-126014630D01*
X148420745Y-126014631D01*
X148250476Y-126074211D01*
X148097737Y-126170184D01*
X147970184Y-126297737D01*
X147874211Y-126450476D01*
X147814631Y-126620745D01*
X147814630Y-126620750D01*
X147794435Y-126799996D01*
X138947833Y-126799996D01*
X139035979Y-126659712D01*
X139095558Y-126489445D01*
X139096899Y-126477546D01*
X139115755Y-126310193D01*
X139115755Y-126310186D01*
X139095559Y-126130940D01*
X139095558Y-126130935D01*
X139069700Y-126057037D01*
X139035979Y-125960668D01*
X139016593Y-125929816D01*
X138973767Y-125861659D01*
X138940006Y-125807928D01*
X138812452Y-125680374D01*
X138763353Y-125649523D01*
X138659713Y-125584401D01*
X138489444Y-125524821D01*
X138489439Y-125524820D01*
X138310194Y-125504625D01*
X138310186Y-125504625D01*
X138234094Y-125513198D01*
X138165272Y-125501143D01*
X138113893Y-125453794D01*
X138096269Y-125386183D01*
X138096991Y-125376094D01*
X138097658Y-125370181D01*
X138105511Y-125300478D01*
X138105565Y-125300002D01*
X138105565Y-125299996D01*
X138085369Y-125120750D01*
X138085368Y-125120745D01*
X138075454Y-125092413D01*
X138025789Y-124950478D01*
X138024067Y-124947738D01*
X137948720Y-124827824D01*
X137929816Y-124797738D01*
X137802262Y-124670184D01*
X137769379Y-124649522D01*
X137649523Y-124574211D01*
X137479254Y-124514631D01*
X137479249Y-124514630D01*
X137300004Y-124494435D01*
X137299996Y-124494435D01*
X137186792Y-124507189D01*
X137118300Y-124495191D01*
X137075126Y-124530348D01*
X137068045Y-124533071D01*
X136950480Y-124574209D01*
X136797737Y-124670184D01*
X136670184Y-124797737D01*
X136574211Y-124950476D01*
X136514631Y-125120745D01*
X136514630Y-125120750D01*
X136494435Y-125299996D01*
X134257074Y-125299996D01*
X134252262Y-125295184D01*
X134218879Y-125274208D01*
X134099523Y-125199211D01*
X133929254Y-125139631D01*
X133929249Y-125139630D01*
X133750004Y-125119435D01*
X133749996Y-125119435D01*
X133570750Y-125139630D01*
X133570745Y-125139631D01*
X133400476Y-125199211D01*
X133247737Y-125295184D01*
X133120184Y-125422737D01*
X133024211Y-125575476D01*
X132964631Y-125745745D01*
X132964630Y-125745750D01*
X132944435Y-125924996D01*
X126500500Y-125924996D01*
X126500500Y-123499996D01*
X136094435Y-123499996D01*
X136094435Y-123500003D01*
X136114630Y-123679249D01*
X136114631Y-123679254D01*
X136174211Y-123849523D01*
X136237646Y-123950478D01*
X136270184Y-124002262D01*
X136397738Y-124129816D01*
X136446882Y-124160695D01*
X136506269Y-124198011D01*
X136550478Y-124225789D01*
X136692144Y-124275360D01*
X136720745Y-124285368D01*
X136720750Y-124285369D01*
X136899996Y-124305565D01*
X136900000Y-124305565D01*
X136900003Y-124305565D01*
X137013206Y-124292810D01*
X137081699Y-124304806D01*
X137124874Y-124269651D01*
X137131941Y-124266932D01*
X137249522Y-124225789D01*
X137293742Y-124198004D01*
X141694435Y-124198004D01*
X141694435Y-124198011D01*
X141714630Y-124377257D01*
X141714631Y-124377262D01*
X141774211Y-124547531D01*
X141850669Y-124669212D01*
X141870184Y-124700270D01*
X141997738Y-124827824D01*
X142095777Y-124889426D01*
X142106243Y-124896002D01*
X142152534Y-124948337D01*
X142163182Y-125017390D01*
X142145267Y-125066965D01*
X142124211Y-125100476D01*
X142064631Y-125270745D01*
X142064630Y-125270750D01*
X142044435Y-125449996D01*
X142044435Y-125450003D01*
X142064630Y-125629249D01*
X142064631Y-125629254D01*
X142124211Y-125799523D01*
X142174725Y-125879915D01*
X142220184Y-125952262D01*
X142347738Y-126079816D01*
X142394256Y-126109045D01*
X142491557Y-126170184D01*
X142500478Y-126175789D01*
X142510375Y-126179252D01*
X142670745Y-126235368D01*
X142670750Y-126235369D01*
X142849996Y-126255565D01*
X142850000Y-126255565D01*
X142850004Y-126255565D01*
X143029249Y-126235369D01*
X143029252Y-126235368D01*
X143029255Y-126235368D01*
X143199522Y-126175789D01*
X143352262Y-126079816D01*
X143479816Y-125952262D01*
X143575789Y-125799522D01*
X143628110Y-125649996D01*
X144894435Y-125649996D01*
X144894435Y-125650003D01*
X144914630Y-125829249D01*
X144914631Y-125829254D01*
X144974211Y-125999523D01*
X145040842Y-126105565D01*
X145070184Y-126152262D01*
X145197738Y-126279816D01*
X145246070Y-126310185D01*
X145308669Y-126349519D01*
X145350478Y-126375789D01*
X145464960Y-126415848D01*
X145520745Y-126435368D01*
X145520750Y-126435369D01*
X145699996Y-126455565D01*
X145700000Y-126455565D01*
X145700004Y-126455565D01*
X145879249Y-126435369D01*
X145879252Y-126435368D01*
X145879255Y-126435368D01*
X146049522Y-126375789D01*
X146202262Y-126279816D01*
X146329816Y-126152262D01*
X146425789Y-125999522D01*
X146474029Y-125861658D01*
X146514751Y-125804883D01*
X146550116Y-125785571D01*
X146649522Y-125750789D01*
X146802262Y-125654816D01*
X146929816Y-125527262D01*
X147025789Y-125374522D01*
X147085368Y-125204255D01*
X147085369Y-125204249D01*
X147105565Y-125025003D01*
X147105565Y-125024996D01*
X147085369Y-124845750D01*
X147085368Y-124845745D01*
X147042841Y-124724211D01*
X147025789Y-124675478D01*
X147025788Y-124675476D01*
X147022771Y-124669212D01*
X147024918Y-124668177D01*
X147008958Y-124611693D01*
X147029327Y-124544858D01*
X147082595Y-124499645D01*
X147091999Y-124495917D01*
X147096235Y-124494435D01*
X147139620Y-124479254D01*
X147149520Y-124475790D01*
X147164937Y-124466103D01*
X147302262Y-124379816D01*
X147429816Y-124252262D01*
X147525789Y-124099522D01*
X147585368Y-123929255D01*
X147588741Y-123899317D01*
X147615806Y-123834905D01*
X147673400Y-123795349D01*
X147743237Y-123793210D01*
X147777933Y-123808207D01*
X147891897Y-123879816D01*
X147925400Y-123900867D01*
X148067180Y-123950478D01*
X148095667Y-123960446D01*
X148095672Y-123960447D01*
X148175053Y-123969390D01*
X148274922Y-123980643D01*
X148295567Y-123978316D01*
X148364386Y-123990368D01*
X148415767Y-124037715D01*
X148432672Y-124087652D01*
X148440901Y-124160691D01*
X148440902Y-124160695D01*
X148500482Y-124330964D01*
X148593660Y-124479255D01*
X148596455Y-124483703D01*
X148724009Y-124611257D01*
X148784909Y-124649523D01*
X148864715Y-124699669D01*
X148876749Y-124707230D01*
X149004703Y-124752003D01*
X149047016Y-124766809D01*
X149047021Y-124766810D01*
X149226267Y-124787006D01*
X149226271Y-124787006D01*
X149226275Y-124787006D01*
X149405520Y-124766810D01*
X149405523Y-124766809D01*
X149405526Y-124766809D01*
X149575793Y-124707230D01*
X149728533Y-124611257D01*
X149856087Y-124483703D01*
X149952060Y-124330963D01*
X150011639Y-124160696D01*
X150011640Y-124160690D01*
X150031836Y-123981444D01*
X150031836Y-123981437D01*
X150011640Y-123802191D01*
X150011639Y-123802186D01*
X149974394Y-123695746D01*
X149952060Y-123631919D01*
X149856087Y-123479179D01*
X149728533Y-123351625D01*
X149655229Y-123305565D01*
X149575794Y-123255652D01*
X149405525Y-123196072D01*
X149405520Y-123196071D01*
X149226275Y-123175876D01*
X149226268Y-123175876D01*
X149205623Y-123178202D01*
X149136801Y-123166147D01*
X149085422Y-123118798D01*
X149068520Y-123068865D01*
X149060291Y-122995828D01*
X149060290Y-122995823D01*
X149049375Y-122964630D01*
X149000711Y-122825556D01*
X148904738Y-122672816D01*
X148777184Y-122545262D01*
X148705150Y-122500000D01*
X148624445Y-122449289D01*
X148454176Y-122389709D01*
X148454171Y-122389708D01*
X148274926Y-122369513D01*
X148274918Y-122369513D01*
X148095672Y-122389708D01*
X148095667Y-122389709D01*
X147925398Y-122449289D01*
X147772659Y-122545262D01*
X147645106Y-122672815D01*
X147549133Y-122825554D01*
X147489553Y-122995823D01*
X147489553Y-122995826D01*
X147486180Y-123025761D01*
X147459113Y-123090174D01*
X147401518Y-123129729D01*
X147331681Y-123131866D01*
X147296988Y-123116870D01*
X147149523Y-123024211D01*
X146979254Y-122964631D01*
X146979249Y-122964630D01*
X146800004Y-122944435D01*
X146799996Y-122944435D01*
X146620750Y-122964630D01*
X146620745Y-122964631D01*
X146450476Y-123024211D01*
X146297737Y-123120184D01*
X146170184Y-123247737D01*
X146074211Y-123400476D01*
X146014631Y-123570745D01*
X146014630Y-123570750D01*
X145994435Y-123749996D01*
X145994435Y-123750003D01*
X146014630Y-123929249D01*
X146014631Y-123929254D01*
X146074213Y-124099529D01*
X146077231Y-124105795D01*
X146075083Y-124106829D01*
X146091039Y-124163320D01*
X146070664Y-124230152D01*
X146017391Y-124275360D01*
X146008002Y-124279081D01*
X145950479Y-124299209D01*
X145797737Y-124395184D01*
X145670184Y-124522737D01*
X145574211Y-124675476D01*
X145525971Y-124813340D01*
X145485249Y-124870116D01*
X145449884Y-124889426D01*
X145350480Y-124924209D01*
X145197737Y-125020184D01*
X145070184Y-125147737D01*
X144974211Y-125300476D01*
X144914631Y-125470745D01*
X144914630Y-125470750D01*
X144894435Y-125649996D01*
X143628110Y-125649996D01*
X143635368Y-125629255D01*
X143641427Y-125575478D01*
X143655565Y-125450003D01*
X143655565Y-125449996D01*
X143635369Y-125270750D01*
X143635368Y-125270745D01*
X143605017Y-125184006D01*
X143575789Y-125100478D01*
X143570721Y-125092413D01*
X143494272Y-124970745D01*
X143479816Y-124947738D01*
X143352262Y-124820184D01*
X143352260Y-124820182D01*
X143243754Y-124752003D01*
X143197464Y-124699669D01*
X143186816Y-124630615D01*
X143204732Y-124581041D01*
X143225789Y-124547530D01*
X143262885Y-124441516D01*
X143285366Y-124377270D01*
X143285369Y-124377257D01*
X143305565Y-124198011D01*
X143305565Y-124198004D01*
X143285369Y-124018758D01*
X143285368Y-124018753D01*
X143264965Y-123960446D01*
X143225789Y-123848486D01*
X143217255Y-123834905D01*
X143163906Y-123750000D01*
X143129816Y-123695746D01*
X143002262Y-123568192D01*
X142917022Y-123514632D01*
X142849523Y-123472219D01*
X142679254Y-123412639D01*
X142679249Y-123412638D01*
X142500004Y-123392443D01*
X142499996Y-123392443D01*
X142320750Y-123412638D01*
X142320745Y-123412639D01*
X142150476Y-123472219D01*
X141997737Y-123568192D01*
X141870184Y-123695745D01*
X141774211Y-123848484D01*
X141714631Y-124018753D01*
X141714630Y-124018758D01*
X141694435Y-124198004D01*
X137293742Y-124198004D01*
X137402262Y-124129816D01*
X137529816Y-124002262D01*
X137625789Y-123849522D01*
X137685368Y-123679255D01*
X137686390Y-123670184D01*
X137705565Y-123500003D01*
X137705565Y-123499996D01*
X137685369Y-123320750D01*
X137685368Y-123320745D01*
X137641743Y-123196072D01*
X137625789Y-123150478D01*
X137529816Y-122997738D01*
X137402262Y-122870184D01*
X137331234Y-122825554D01*
X137249523Y-122774211D01*
X137079254Y-122714631D01*
X137079249Y-122714630D01*
X136900004Y-122694435D01*
X136899996Y-122694435D01*
X136720750Y-122714630D01*
X136720745Y-122714631D01*
X136550476Y-122774211D01*
X136397737Y-122870184D01*
X136270184Y-122997737D01*
X136174211Y-123150476D01*
X136114631Y-123320745D01*
X136114630Y-123320750D01*
X136094435Y-123499996D01*
X126500500Y-123499996D01*
X126500500Y-122499996D01*
X140594435Y-122499996D01*
X140594435Y-122500003D01*
X140614630Y-122679249D01*
X140614631Y-122679254D01*
X140674211Y-122849523D01*
X140733849Y-122944435D01*
X140770184Y-123002262D01*
X140897738Y-123129816D01*
X140969772Y-123175078D01*
X140997535Y-123192523D01*
X141050478Y-123225789D01*
X141119678Y-123250003D01*
X141220745Y-123285368D01*
X141220750Y-123285369D01*
X141399996Y-123305565D01*
X141400000Y-123305565D01*
X141400004Y-123305565D01*
X141579249Y-123285369D01*
X141579252Y-123285368D01*
X141579255Y-123285368D01*
X141749522Y-123225789D01*
X141902262Y-123129816D01*
X142029816Y-123002262D01*
X142125789Y-122849522D01*
X142185368Y-122679255D01*
X142186018Y-122673489D01*
X142205565Y-122500003D01*
X142205565Y-122499997D01*
X142198951Y-122441300D01*
X142211005Y-122372478D01*
X142256196Y-122322424D01*
X142403582Y-122229816D01*
X142483489Y-122149908D01*
X142544808Y-122116426D01*
X142614500Y-122121410D01*
X142670434Y-122163281D01*
X142688208Y-122196636D01*
X142724209Y-122299520D01*
X142780879Y-122389709D01*
X142820184Y-122452262D01*
X142947738Y-122579816D01*
X142982022Y-122601358D01*
X143098254Y-122674392D01*
X143100478Y-122675789D01*
X143211479Y-122714630D01*
X143270745Y-122735368D01*
X143270750Y-122735369D01*
X143449996Y-122755565D01*
X143450000Y-122755565D01*
X143450004Y-122755565D01*
X143629249Y-122735369D01*
X143629251Y-122735368D01*
X143629255Y-122735368D01*
X143629258Y-122735366D01*
X143629262Y-122735366D01*
X143806095Y-122673489D01*
X143806846Y-122675637D01*
X143865128Y-122666035D01*
X143893588Y-122674392D01*
X143893905Y-122673489D01*
X144070737Y-122735366D01*
X144070743Y-122735367D01*
X144070745Y-122735368D01*
X144070746Y-122735368D01*
X144070750Y-122735369D01*
X144249996Y-122755565D01*
X144250000Y-122755565D01*
X144250004Y-122755565D01*
X144429249Y-122735369D01*
X144429252Y-122735368D01*
X144429255Y-122735368D01*
X144599522Y-122675789D01*
X144752262Y-122579816D01*
X144879816Y-122452262D01*
X144975789Y-122299522D01*
X145035368Y-122129255D01*
X145036252Y-122121410D01*
X145055565Y-121950003D01*
X145055565Y-121949996D01*
X145049931Y-121899996D01*
X158194435Y-121899996D01*
X158194435Y-121900003D01*
X158214630Y-122079249D01*
X158214631Y-122079254D01*
X158274211Y-122249523D01*
X158370184Y-122402262D01*
X158455241Y-122487319D01*
X158488726Y-122548642D01*
X158483742Y-122618334D01*
X158455241Y-122662681D01*
X158370184Y-122747737D01*
X158274211Y-122900476D01*
X158214631Y-123070745D01*
X158214630Y-123070750D01*
X158194435Y-123249996D01*
X158194435Y-123250003D01*
X158214630Y-123429249D01*
X158214631Y-123429254D01*
X158274211Y-123599523D01*
X158368760Y-123749996D01*
X158370184Y-123752262D01*
X158497738Y-123879816D01*
X158576410Y-123929249D01*
X158610192Y-123950476D01*
X158650478Y-123975789D01*
X158820745Y-124035368D01*
X158820750Y-124035369D01*
X158999996Y-124055565D01*
X159000000Y-124055565D01*
X159000004Y-124055565D01*
X159179249Y-124035369D01*
X159179252Y-124035368D01*
X159179255Y-124035368D01*
X159349522Y-123975789D01*
X159502262Y-123879816D01*
X159629816Y-123752262D01*
X159725789Y-123599522D01*
X159785368Y-123429255D01*
X159787240Y-123412639D01*
X159805565Y-123250003D01*
X159805565Y-123249996D01*
X159785369Y-123070750D01*
X159785368Y-123070745D01*
X159725788Y-122900476D01*
X159629815Y-122747737D01*
X159544759Y-122662681D01*
X159511274Y-122601358D01*
X159516258Y-122531666D01*
X159544759Y-122487319D01*
X159582789Y-122449289D01*
X159629816Y-122402262D01*
X159725789Y-122249522D01*
X159785368Y-122079255D01*
X159799931Y-121950003D01*
X159805565Y-121900003D01*
X159805565Y-121899996D01*
X159785369Y-121720750D01*
X159785368Y-121720745D01*
X159725788Y-121550476D01*
X159661232Y-121447737D01*
X159629816Y-121397738D01*
X159502262Y-121270184D01*
X159479574Y-121255928D01*
X159349523Y-121174211D01*
X159179254Y-121114631D01*
X159179249Y-121114630D01*
X159000004Y-121094435D01*
X158999996Y-121094435D01*
X158820750Y-121114630D01*
X158820745Y-121114631D01*
X158650476Y-121174211D01*
X158497737Y-121270184D01*
X158370184Y-121397737D01*
X158274211Y-121550476D01*
X158214631Y-121720745D01*
X158214630Y-121720750D01*
X158194435Y-121899996D01*
X145049931Y-121899996D01*
X145035369Y-121770750D01*
X145035368Y-121770745D01*
X144975788Y-121600476D01*
X144934878Y-121535368D01*
X144879816Y-121447738D01*
X144752262Y-121320184D01*
X144665324Y-121265557D01*
X144599523Y-121224211D01*
X144429254Y-121164631D01*
X144429249Y-121164630D01*
X144250004Y-121144435D01*
X144249996Y-121144435D01*
X144070750Y-121164630D01*
X144070737Y-121164633D01*
X143893906Y-121226510D01*
X143893155Y-121224364D01*
X143834856Y-121233962D01*
X143806409Y-121225609D01*
X143806094Y-121226510D01*
X143629262Y-121164633D01*
X143629249Y-121164630D01*
X143450004Y-121144435D01*
X143449996Y-121144435D01*
X143270750Y-121164630D01*
X143270745Y-121164631D01*
X143100476Y-121224211D01*
X142947739Y-121320183D01*
X142867833Y-121400089D01*
X142806509Y-121433573D01*
X142736818Y-121428589D01*
X142680884Y-121386717D01*
X142663111Y-121353362D01*
X142627110Y-121250480D01*
X142627109Y-121250478D01*
X142531136Y-121097738D01*
X142403582Y-120970184D01*
X142250843Y-120874211D01*
X142080574Y-120814631D01*
X142080569Y-120814630D01*
X141901324Y-120794435D01*
X141901316Y-120794435D01*
X141722070Y-120814630D01*
X141722065Y-120814631D01*
X141551796Y-120874211D01*
X141399057Y-120970184D01*
X141271504Y-121097737D01*
X141175531Y-121250476D01*
X141115951Y-121420745D01*
X141115950Y-121420750D01*
X141095755Y-121599996D01*
X141095755Y-121600004D01*
X141102368Y-121658702D01*
X141090313Y-121727523D01*
X141045120Y-121777577D01*
X140993168Y-121810220D01*
X140897737Y-121870184D01*
X140770184Y-121997737D01*
X140674211Y-122150476D01*
X140614631Y-122320745D01*
X140614630Y-122320750D01*
X140594435Y-122499996D01*
X126500500Y-122499996D01*
X126500500Y-120249996D01*
X144744435Y-120249996D01*
X144744435Y-120250003D01*
X144764630Y-120429249D01*
X144764631Y-120429254D01*
X144824211Y-120599523D01*
X144880299Y-120688786D01*
X144920184Y-120752262D01*
X145047738Y-120879816D01*
X145126410Y-120929249D01*
X145191557Y-120970184D01*
X145200478Y-120975789D01*
X145370745Y-121035368D01*
X145370750Y-121035369D01*
X145549996Y-121055565D01*
X145550000Y-121055565D01*
X145550004Y-121055565D01*
X145729249Y-121035369D01*
X145729252Y-121035368D01*
X145729255Y-121035368D01*
X145899522Y-120975789D01*
X146052262Y-120879816D01*
X146103679Y-120828398D01*
X146165001Y-120794913D01*
X146232315Y-120799038D01*
X146361767Y-120844336D01*
X146361773Y-120844337D01*
X146361775Y-120844338D01*
X146361776Y-120844338D01*
X146361780Y-120844339D01*
X146541026Y-120864535D01*
X146541030Y-120864535D01*
X146541034Y-120864535D01*
X146720279Y-120844339D01*
X146720282Y-120844338D01*
X146720285Y-120844338D01*
X146890552Y-120784759D01*
X147043292Y-120688786D01*
X147170846Y-120561232D01*
X147234462Y-120459988D01*
X148038312Y-120459988D01*
X148038312Y-120459995D01*
X148058507Y-120639241D01*
X148058508Y-120639246D01*
X148118088Y-120809515D01*
X148193326Y-120929254D01*
X148214061Y-120962254D01*
X148341615Y-121089808D01*
X148381119Y-121114630D01*
X148460696Y-121164632D01*
X148494355Y-121185781D01*
X148664622Y-121245360D01*
X148664627Y-121245361D01*
X148843873Y-121265557D01*
X148843877Y-121265557D01*
X148843881Y-121265557D01*
X149023126Y-121245361D01*
X149023129Y-121245360D01*
X149023132Y-121245360D01*
X149193399Y-121185781D01*
X149346139Y-121089808D01*
X149473693Y-120962254D01*
X149569666Y-120809514D01*
X149590492Y-120749996D01*
X165144435Y-120749996D01*
X165144435Y-120750003D01*
X165164630Y-120929249D01*
X165164631Y-120929254D01*
X165224211Y-121099523D01*
X165303437Y-121225609D01*
X165320184Y-121252262D01*
X165447738Y-121379816D01*
X165512876Y-121420745D01*
X165555833Y-121447737D01*
X165600478Y-121475789D01*
X165770745Y-121535368D01*
X165770750Y-121535369D01*
X165949996Y-121555565D01*
X165950000Y-121555565D01*
X165950004Y-121555565D01*
X166129249Y-121535369D01*
X166129252Y-121535368D01*
X166129255Y-121535368D01*
X166299522Y-121475789D01*
X166452262Y-121379816D01*
X166579816Y-121252262D01*
X166675789Y-121099522D01*
X166735368Y-120929255D01*
X166735369Y-120929249D01*
X166755565Y-120750003D01*
X166755565Y-120749996D01*
X166735369Y-120570750D01*
X166735368Y-120570745D01*
X166690999Y-120443945D01*
X166675789Y-120400478D01*
X166579816Y-120247738D01*
X166452262Y-120120184D01*
X166436799Y-120110468D01*
X166299523Y-120024211D01*
X166129254Y-119964631D01*
X166129249Y-119964630D01*
X165950004Y-119944435D01*
X165949996Y-119944435D01*
X165770750Y-119964630D01*
X165770745Y-119964631D01*
X165600476Y-120024211D01*
X165447737Y-120120184D01*
X165320184Y-120247737D01*
X165224211Y-120400476D01*
X165164631Y-120570745D01*
X165164630Y-120570750D01*
X165144435Y-120749996D01*
X149590492Y-120749996D01*
X149629245Y-120639247D01*
X149636964Y-120570745D01*
X149643088Y-120516388D01*
X149670154Y-120451974D01*
X149700333Y-120425278D01*
X149852262Y-120329816D01*
X149979816Y-120202262D01*
X150075789Y-120049522D01*
X150135368Y-119879255D01*
X150145947Y-119785369D01*
X150155565Y-119700002D01*
X150155565Y-119700000D01*
X150153068Y-119677842D01*
X150165122Y-119609019D01*
X150210315Y-119558963D01*
X150256704Y-119529816D01*
X150384258Y-119402262D01*
X150480231Y-119249522D01*
X150539810Y-119079255D01*
X150540832Y-119070183D01*
X150560007Y-118900003D01*
X150560007Y-118899996D01*
X150539811Y-118720750D01*
X150539810Y-118720745D01*
X150518683Y-118660368D01*
X150480231Y-118550478D01*
X150384258Y-118397738D01*
X150256704Y-118270184D01*
X150103965Y-118174211D01*
X149933696Y-118114631D01*
X149933691Y-118114630D01*
X149754446Y-118094435D01*
X149754438Y-118094435D01*
X149575192Y-118114630D01*
X149575187Y-118114631D01*
X149404918Y-118174211D01*
X149252179Y-118270184D01*
X149124626Y-118397737D01*
X149028653Y-118550476D01*
X148969073Y-118720745D01*
X148969072Y-118720750D01*
X148948877Y-118899995D01*
X148948877Y-118899996D01*
X148948877Y-118900000D01*
X148951374Y-118922160D01*
X148939318Y-118990982D01*
X148894128Y-119041034D01*
X148847738Y-119070183D01*
X148720184Y-119197737D01*
X148624211Y-119350476D01*
X148564631Y-119520745D01*
X148564630Y-119520749D01*
X148550788Y-119643604D01*
X148523721Y-119708018D01*
X148493541Y-119734713D01*
X148341616Y-119830174D01*
X148214061Y-119957729D01*
X148118088Y-120110468D01*
X148058508Y-120280737D01*
X148058507Y-120280742D01*
X148038312Y-120459988D01*
X147234462Y-120459988D01*
X147266819Y-120408492D01*
X147326398Y-120238225D01*
X147339698Y-120120184D01*
X147346595Y-120058973D01*
X147346595Y-120058966D01*
X147326399Y-119879720D01*
X147326398Y-119879715D01*
X147326235Y-119879249D01*
X147266819Y-119709448D01*
X147265920Y-119708018D01*
X147201545Y-119605565D01*
X147170846Y-119556708D01*
X147043292Y-119429154D01*
X147000494Y-119402262D01*
X146890553Y-119333181D01*
X146720284Y-119273601D01*
X146720279Y-119273600D01*
X146541034Y-119253405D01*
X146541026Y-119253405D01*
X146361780Y-119273600D01*
X146361775Y-119273601D01*
X146191506Y-119333181D01*
X146038766Y-119429155D01*
X145987348Y-119480572D01*
X145926024Y-119514056D01*
X145858714Y-119509931D01*
X145729257Y-119464632D01*
X145729249Y-119464630D01*
X145550004Y-119444435D01*
X145549996Y-119444435D01*
X145370750Y-119464630D01*
X145370745Y-119464631D01*
X145200476Y-119524211D01*
X145047737Y-119620184D01*
X144920184Y-119747737D01*
X144824211Y-119900476D01*
X144764631Y-120070745D01*
X144764630Y-120070750D01*
X144744435Y-120249996D01*
X126500500Y-120249996D01*
X126500500Y-117874996D01*
X136866097Y-117874996D01*
X136866097Y-117875003D01*
X136886292Y-118054249D01*
X136886293Y-118054254D01*
X136945873Y-118224523D01*
X137009503Y-118325789D01*
X137041846Y-118377262D01*
X137169400Y-118504816D01*
X137322140Y-118600789D01*
X137442187Y-118642795D01*
X137498963Y-118683517D01*
X137524711Y-118748469D01*
X137518276Y-118800787D01*
X137511293Y-118820743D01*
X137511293Y-118820746D01*
X137491097Y-118999996D01*
X137491097Y-119000003D01*
X137511292Y-119179249D01*
X137511293Y-119179254D01*
X137570873Y-119349523D01*
X137621324Y-119429815D01*
X137666846Y-119502262D01*
X137794400Y-119629816D01*
X137870833Y-119677842D01*
X137918857Y-119708018D01*
X137947140Y-119725789D01*
X138009864Y-119747737D01*
X138117407Y-119785368D01*
X138117412Y-119785369D01*
X138296658Y-119805565D01*
X138296662Y-119805565D01*
X138296666Y-119805565D01*
X138475911Y-119785369D01*
X138475914Y-119785368D01*
X138475917Y-119785368D01*
X138646184Y-119725789D01*
X138798924Y-119629816D01*
X138926478Y-119502262D01*
X139022451Y-119349522D01*
X139082030Y-119179255D01*
X139085380Y-119149522D01*
X139102227Y-119000003D01*
X139102227Y-118999996D01*
X139082031Y-118820750D01*
X139082030Y-118820745D01*
X139074770Y-118799996D01*
X140842037Y-118799996D01*
X140842037Y-118800003D01*
X140862232Y-118979249D01*
X140862233Y-118979254D01*
X140921813Y-119149523D01*
X140952109Y-119197738D01*
X141017786Y-119302262D01*
X141145340Y-119429816D01*
X141226118Y-119480572D01*
X141295568Y-119524211D01*
X141298080Y-119525789D01*
X141468347Y-119585368D01*
X141468352Y-119585369D01*
X141647598Y-119605565D01*
X141647602Y-119605565D01*
X141647606Y-119605565D01*
X141826851Y-119585369D01*
X141826854Y-119585368D01*
X141826857Y-119585368D01*
X141997124Y-119525789D01*
X142149864Y-119429816D01*
X142277418Y-119302262D01*
X142373391Y-119149522D01*
X142432970Y-118979255D01*
X142439403Y-118922160D01*
X142453167Y-118800003D01*
X142453167Y-118799996D01*
X142432971Y-118620750D01*
X142432970Y-118620745D01*
X142425987Y-118600789D01*
X142373391Y-118450478D01*
X142277418Y-118297738D01*
X142149864Y-118170184D01*
X142061454Y-118114632D01*
X141997125Y-118074211D01*
X141826856Y-118014631D01*
X141826851Y-118014630D01*
X141647606Y-117994435D01*
X141647598Y-117994435D01*
X141468352Y-118014630D01*
X141468347Y-118014631D01*
X141298078Y-118074211D01*
X141145339Y-118170184D01*
X141017786Y-118297737D01*
X140921813Y-118450476D01*
X140862233Y-118620745D01*
X140862232Y-118620750D01*
X140842037Y-118799996D01*
X139074770Y-118799996D01*
X139022451Y-118650478D01*
X139017623Y-118642795D01*
X138959617Y-118550478D01*
X138926478Y-118497738D01*
X138798924Y-118370184D01*
X138728270Y-118325789D01*
X138646183Y-118274210D01*
X138526135Y-118232204D01*
X138469359Y-118191482D01*
X138443611Y-118126529D01*
X138450047Y-118074209D01*
X138457030Y-118054255D01*
X138457031Y-118054248D01*
X138477227Y-117875003D01*
X138477227Y-117874996D01*
X138457031Y-117695750D01*
X138457030Y-117695745D01*
X138423526Y-117599996D01*
X146346427Y-117599996D01*
X146346427Y-117600003D01*
X146366622Y-117779249D01*
X146366623Y-117779254D01*
X146426203Y-117949523D01*
X146504550Y-118074211D01*
X146522176Y-118102262D01*
X146649730Y-118229816D01*
X146713975Y-118270184D01*
X146757825Y-118297737D01*
X146802470Y-118325789D01*
X146929344Y-118370184D01*
X146972737Y-118385368D01*
X146972742Y-118385369D01*
X147151988Y-118405565D01*
X147151992Y-118405565D01*
X147151996Y-118405565D01*
X147331241Y-118385369D01*
X147331244Y-118385368D01*
X147331247Y-118385368D01*
X147501514Y-118325789D01*
X147654254Y-118229816D01*
X147781808Y-118102262D01*
X147877781Y-117949522D01*
X147937360Y-117779255D01*
X147946769Y-117695750D01*
X147957557Y-117600003D01*
X147957557Y-117599996D01*
X147937361Y-117420750D01*
X147937360Y-117420745D01*
X147877780Y-117250476D01*
X147781807Y-117097737D01*
X147654254Y-116970184D01*
X147501515Y-116874211D01*
X147331246Y-116814631D01*
X147331241Y-116814630D01*
X147151996Y-116794435D01*
X147151988Y-116794435D01*
X146972742Y-116814630D01*
X146972737Y-116814631D01*
X146802468Y-116874211D01*
X146649729Y-116970184D01*
X146522176Y-117097737D01*
X146426203Y-117250476D01*
X146366623Y-117420745D01*
X146366622Y-117420750D01*
X146346427Y-117599996D01*
X138423526Y-117599996D01*
X138397450Y-117525476D01*
X138301477Y-117372737D01*
X138173924Y-117245184D01*
X138021185Y-117149211D01*
X137850916Y-117089631D01*
X137850911Y-117089630D01*
X137671666Y-117069435D01*
X137671658Y-117069435D01*
X137492412Y-117089630D01*
X137492407Y-117089631D01*
X137322138Y-117149211D01*
X137169399Y-117245184D01*
X137041846Y-117372737D01*
X136945873Y-117525476D01*
X136886293Y-117695745D01*
X136886292Y-117695750D01*
X136866097Y-117874996D01*
X126500500Y-117874996D01*
X126500500Y-114599995D01*
X128544732Y-114599995D01*
X128544732Y-114600004D01*
X128563777Y-114854154D01*
X128611817Y-115064632D01*
X128620492Y-115102637D01*
X128647002Y-115170184D01*
X128713608Y-115339890D01*
X128718139Y-115347738D01*
X128841041Y-115560612D01*
X128999950Y-115759877D01*
X129186783Y-115933232D01*
X129397366Y-116076805D01*
X129397371Y-116076807D01*
X129397372Y-116076808D01*
X129397373Y-116076809D01*
X129519328Y-116135538D01*
X129626992Y-116187387D01*
X129626993Y-116187387D01*
X129626996Y-116187389D01*
X129870542Y-116262513D01*
X130122565Y-116300500D01*
X130377435Y-116300500D01*
X130629458Y-116262513D01*
X130873004Y-116187389D01*
X131102634Y-116076805D01*
X131313217Y-115933232D01*
X131402924Y-115849996D01*
X145444435Y-115849996D01*
X145444435Y-115850003D01*
X145464630Y-116029249D01*
X145464631Y-116029254D01*
X145524211Y-116199523D01*
X145583445Y-116293793D01*
X145620184Y-116352262D01*
X145747738Y-116479816D01*
X145900478Y-116575789D01*
X145985573Y-116605565D01*
X146070745Y-116635368D01*
X146070750Y-116635369D01*
X146249996Y-116655565D01*
X146250000Y-116655565D01*
X146250004Y-116655565D01*
X146429249Y-116635369D01*
X146429252Y-116635368D01*
X146429255Y-116635368D01*
X146599522Y-116575789D01*
X146752262Y-116479816D01*
X146879816Y-116352262D01*
X146975789Y-116199522D01*
X147035368Y-116029255D01*
X147041002Y-115979254D01*
X147055565Y-115850003D01*
X147055565Y-115849996D01*
X147035369Y-115670750D01*
X147035368Y-115670745D01*
X146996830Y-115560611D01*
X146993116Y-115549996D01*
X151394435Y-115549996D01*
X151394435Y-115550003D01*
X151414630Y-115729249D01*
X151414631Y-115729254D01*
X151474211Y-115899523D01*
X151555724Y-116029249D01*
X151570184Y-116052262D01*
X151697738Y-116179816D01*
X151741867Y-116207544D01*
X151829344Y-116262510D01*
X151850478Y-116275789D01*
X152020745Y-116335368D01*
X152020750Y-116335369D01*
X152199996Y-116355565D01*
X152200000Y-116355565D01*
X152200004Y-116355565D01*
X152379249Y-116335369D01*
X152379252Y-116335368D01*
X152379255Y-116335368D01*
X152549522Y-116275789D01*
X152702262Y-116179816D01*
X152829816Y-116052262D01*
X152925789Y-115899522D01*
X152960615Y-115799996D01*
X153594435Y-115799996D01*
X153594435Y-115800003D01*
X153614630Y-115979249D01*
X153614631Y-115979254D01*
X153674211Y-116149523D01*
X153729836Y-116238049D01*
X153770184Y-116302262D01*
X153897738Y-116429816D01*
X154050478Y-116525789D01*
X154193367Y-116575788D01*
X154220745Y-116585368D01*
X154220750Y-116585369D01*
X154399996Y-116605565D01*
X154400000Y-116605565D01*
X154400004Y-116605565D01*
X154579249Y-116585369D01*
X154579252Y-116585368D01*
X154579255Y-116585368D01*
X154749522Y-116525789D01*
X154902262Y-116429816D01*
X155029816Y-116302262D01*
X155125789Y-116149522D01*
X155185368Y-115979255D01*
X155187821Y-115957483D01*
X155205565Y-115800003D01*
X155205565Y-115799996D01*
X155185369Y-115620750D01*
X155185368Y-115620745D01*
X155126558Y-115452676D01*
X157048329Y-115452676D01*
X157048329Y-115452683D01*
X157068524Y-115631929D01*
X157068525Y-115631934D01*
X157128105Y-115802203D01*
X157188219Y-115897873D01*
X157224078Y-115954942D01*
X157351632Y-116082496D01*
X157504372Y-116178469D01*
X157674639Y-116238048D01*
X157674644Y-116238049D01*
X157853890Y-116258245D01*
X157853894Y-116258245D01*
X157853898Y-116258245D01*
X158033143Y-116238049D01*
X158033146Y-116238048D01*
X158033149Y-116238048D01*
X158203416Y-116178469D01*
X158356156Y-116082496D01*
X158483710Y-115954942D01*
X158579683Y-115802202D01*
X158639262Y-115631935D01*
X158639263Y-115631929D01*
X158659459Y-115452683D01*
X158659459Y-115452676D01*
X158639263Y-115273430D01*
X158639262Y-115273425D01*
X158579682Y-115103156D01*
X158483709Y-114950417D01*
X158356156Y-114822864D01*
X158203417Y-114726891D01*
X158033148Y-114667311D01*
X158033143Y-114667310D01*
X157853898Y-114647115D01*
X157853890Y-114647115D01*
X157674644Y-114667310D01*
X157674639Y-114667311D01*
X157504370Y-114726891D01*
X157351631Y-114822864D01*
X157224078Y-114950417D01*
X157128105Y-115103156D01*
X157068525Y-115273425D01*
X157068524Y-115273430D01*
X157048329Y-115452676D01*
X155126558Y-115452676D01*
X155125789Y-115450478D01*
X155029816Y-115297738D01*
X154902262Y-115170184D01*
X154749523Y-115074211D01*
X154579254Y-115014631D01*
X154579249Y-115014630D01*
X154400004Y-114994435D01*
X154399996Y-114994435D01*
X154220750Y-115014630D01*
X154220745Y-115014631D01*
X154050476Y-115074211D01*
X153897737Y-115170184D01*
X153770184Y-115297737D01*
X153674211Y-115450476D01*
X153614631Y-115620745D01*
X153614630Y-115620750D01*
X153594435Y-115799996D01*
X152960615Y-115799996D01*
X152985368Y-115729255D01*
X152991960Y-115670750D01*
X153005565Y-115550003D01*
X153005565Y-115549996D01*
X152985369Y-115370750D01*
X152985368Y-115370745D01*
X152925789Y-115200478D01*
X152829816Y-115047738D01*
X152702262Y-114920184D01*
X152597181Y-114854157D01*
X152549523Y-114824211D01*
X152379254Y-114764631D01*
X152379249Y-114764630D01*
X152200004Y-114744435D01*
X152199996Y-114744435D01*
X152020750Y-114764630D01*
X152020745Y-114764631D01*
X151850476Y-114824211D01*
X151697737Y-114920184D01*
X151570184Y-115047737D01*
X151474211Y-115200476D01*
X151414631Y-115370745D01*
X151414630Y-115370750D01*
X151394435Y-115549996D01*
X146993116Y-115549996D01*
X146975789Y-115500478D01*
X146945755Y-115452680D01*
X146879815Y-115347737D01*
X146752262Y-115220184D01*
X146599523Y-115124211D01*
X146429254Y-115064631D01*
X146429249Y-115064630D01*
X146250004Y-115044435D01*
X146249996Y-115044435D01*
X146070750Y-115064630D01*
X146070745Y-115064631D01*
X145900476Y-115124211D01*
X145747737Y-115220184D01*
X145620184Y-115347737D01*
X145524211Y-115500476D01*
X145464631Y-115670745D01*
X145464630Y-115670750D01*
X145444435Y-115849996D01*
X131402924Y-115849996D01*
X131500050Y-115759877D01*
X131658959Y-115560612D01*
X131786393Y-115339888D01*
X131879508Y-115102637D01*
X131936222Y-114854157D01*
X131950224Y-114667310D01*
X131955268Y-114600004D01*
X131955268Y-114599995D01*
X131936222Y-114345845D01*
X131927028Y-114305565D01*
X131879508Y-114097363D01*
X131786393Y-113860112D01*
X131658959Y-113639388D01*
X131547797Y-113499996D01*
X142994435Y-113499996D01*
X142994435Y-113500003D01*
X143014630Y-113679249D01*
X143014631Y-113679254D01*
X143074211Y-113849523D01*
X143151637Y-113972745D01*
X143170184Y-114002262D01*
X143297738Y-114129816D01*
X143450478Y-114225789D01*
X143594110Y-114276048D01*
X143620745Y-114285368D01*
X143620750Y-114285369D01*
X143799996Y-114305565D01*
X143800000Y-114305565D01*
X143800004Y-114305565D01*
X143979249Y-114285369D01*
X143979252Y-114285368D01*
X143979255Y-114285368D01*
X144149522Y-114225789D01*
X144302262Y-114129816D01*
X144429816Y-114002262D01*
X144525789Y-113849522D01*
X144585368Y-113679255D01*
X144588694Y-113649737D01*
X144605565Y-113500003D01*
X144605565Y-113499996D01*
X144602239Y-113470479D01*
X147092622Y-113470479D01*
X147092622Y-113470486D01*
X147112817Y-113649732D01*
X147112818Y-113649737D01*
X147172398Y-113820006D01*
X147268371Y-113972745D01*
X147395925Y-114100299D01*
X147548665Y-114196272D01*
X147633017Y-114225788D01*
X147718932Y-114255851D01*
X147718937Y-114255852D01*
X147898183Y-114276048D01*
X147898187Y-114276048D01*
X147898191Y-114276048D01*
X148077436Y-114255852D01*
X148077439Y-114255851D01*
X148077442Y-114255851D01*
X148247709Y-114196272D01*
X148338672Y-114139114D01*
X148405909Y-114120114D01*
X148445599Y-114127066D01*
X148546346Y-114162320D01*
X148546352Y-114162320D01*
X148546354Y-114162321D01*
X148725597Y-114182517D01*
X148725601Y-114182517D01*
X148725605Y-114182517D01*
X148904850Y-114162321D01*
X148904853Y-114162320D01*
X148904856Y-114162320D01*
X149075123Y-114102741D01*
X149227863Y-114006768D01*
X149355417Y-113879214D01*
X149451390Y-113726474D01*
X149510969Y-113556207D01*
X149511722Y-113549523D01*
X149531166Y-113376955D01*
X149531166Y-113376948D01*
X149519755Y-113275676D01*
X152470115Y-113275676D01*
X152470115Y-113275683D01*
X152490310Y-113454929D01*
X152490311Y-113454934D01*
X152542339Y-113603620D01*
X152545900Y-113673399D01*
X152542339Y-113685530D01*
X152490311Y-113834215D01*
X152490310Y-113834220D01*
X152470115Y-114013466D01*
X152470115Y-114013473D01*
X152490310Y-114192719D01*
X152490311Y-114192724D01*
X152549891Y-114362993D01*
X152645864Y-114515732D01*
X152773418Y-114643286D01*
X152926158Y-114739259D01*
X152998670Y-114764632D01*
X153096425Y-114798838D01*
X153096430Y-114798839D01*
X153275676Y-114819035D01*
X153275680Y-114819035D01*
X153275684Y-114819035D01*
X153454929Y-114798839D01*
X153454932Y-114798838D01*
X153454935Y-114798838D01*
X153625202Y-114739259D01*
X153777942Y-114643286D01*
X153905496Y-114515732D01*
X154001469Y-114362992D01*
X154061048Y-114192725D01*
X154064474Y-114162319D01*
X154081245Y-114013473D01*
X154081245Y-114013466D01*
X154061049Y-113834220D01*
X154061046Y-113834207D01*
X154009021Y-113685530D01*
X154005459Y-113615751D01*
X154009021Y-113603620D01*
X154061046Y-113454942D01*
X154061049Y-113454930D01*
X154073714Y-113342516D01*
X154080327Y-113283821D01*
X154107393Y-113219409D01*
X154164987Y-113179854D01*
X154234824Y-113177715D01*
X154294731Y-113213673D01*
X154308540Y-113231733D01*
X154338401Y-113279255D01*
X154345184Y-113290050D01*
X154472738Y-113417604D01*
X154625478Y-113513577D01*
X154747305Y-113556206D01*
X154795745Y-113573156D01*
X154795750Y-113573157D01*
X154974996Y-113593353D01*
X154975000Y-113593353D01*
X154975004Y-113593353D01*
X155124221Y-113576540D01*
X155154255Y-113573156D01*
X155154265Y-113573152D01*
X155158116Y-113572274D01*
X155160691Y-113572431D01*
X155161176Y-113572377D01*
X155161185Y-113572461D01*
X155227855Y-113576540D01*
X155273403Y-113605481D01*
X155397738Y-113729816D01*
X155478517Y-113780573D01*
X155541272Y-113820005D01*
X155550478Y-113825789D01*
X155703158Y-113879214D01*
X155720745Y-113885368D01*
X155720750Y-113885369D01*
X155899996Y-113905565D01*
X155900000Y-113905565D01*
X155900004Y-113905565D01*
X156079249Y-113885369D01*
X156079252Y-113885368D01*
X156079255Y-113885368D01*
X156249522Y-113825789D01*
X156402262Y-113729816D01*
X156529816Y-113602262D01*
X156625789Y-113449522D01*
X156670833Y-113320793D01*
X156711554Y-113264019D01*
X156776506Y-113238271D01*
X156845068Y-113251727D01*
X156895471Y-113300114D01*
X156911094Y-113347863D01*
X156914631Y-113379251D01*
X156914631Y-113379254D01*
X156974211Y-113549523D01*
X157033937Y-113644575D01*
X157070184Y-113702262D01*
X157197738Y-113829816D01*
X157245949Y-113860109D01*
X157322367Y-113908126D01*
X157350478Y-113925789D01*
X157484671Y-113972745D01*
X157520745Y-113985368D01*
X157520750Y-113985369D01*
X157699996Y-114005565D01*
X157700000Y-114005565D01*
X157700004Y-114005565D01*
X157879249Y-113985369D01*
X157879252Y-113985368D01*
X157879255Y-113985368D01*
X158049522Y-113925789D01*
X158202262Y-113829816D01*
X158329816Y-113702262D01*
X158425789Y-113549522D01*
X158485368Y-113379255D01*
X158485368Y-113379252D01*
X158485369Y-113379249D01*
X158505565Y-113200003D01*
X158505565Y-113199996D01*
X158485369Y-113020750D01*
X158485368Y-113020745D01*
X158478068Y-112999884D01*
X158425789Y-112850478D01*
X158414011Y-112831734D01*
X158362955Y-112750478D01*
X158329816Y-112697738D01*
X158202262Y-112570184D01*
X158157941Y-112542335D01*
X158090561Y-112499997D01*
X158728318Y-112499997D01*
X158728318Y-112500004D01*
X158748513Y-112679250D01*
X158748514Y-112679255D01*
X158808094Y-112849524D01*
X158881937Y-112967043D01*
X158904067Y-113002263D01*
X159031621Y-113129817D01*
X159064500Y-113150476D01*
X159174205Y-113219409D01*
X159184361Y-113225790D01*
X159326947Y-113275683D01*
X159354628Y-113285369D01*
X159354633Y-113285370D01*
X159533879Y-113305566D01*
X159533883Y-113305566D01*
X159533887Y-113305566D01*
X159713132Y-113285370D01*
X159713135Y-113285369D01*
X159713138Y-113285369D01*
X159733320Y-113278307D01*
X161219435Y-113278307D01*
X161219435Y-113278314D01*
X161239630Y-113457560D01*
X161239631Y-113457565D01*
X161299211Y-113627834D01*
X161363291Y-113729816D01*
X161395184Y-113780573D01*
X161522738Y-113908127D01*
X161550847Y-113925789D01*
X161672552Y-114002262D01*
X161675478Y-114004100D01*
X161845745Y-114063679D01*
X161845750Y-114063680D01*
X162024996Y-114083876D01*
X162025000Y-114083876D01*
X162025004Y-114083876D01*
X162204249Y-114063680D01*
X162204252Y-114063679D01*
X162204255Y-114063679D01*
X162374522Y-114004100D01*
X162527262Y-113908127D01*
X162654816Y-113780573D01*
X162750789Y-113627833D01*
X162810368Y-113457566D01*
X162810664Y-113454942D01*
X162830565Y-113278314D01*
X162830565Y-113278307D01*
X162810369Y-113099061D01*
X162810368Y-113099056D01*
X162797306Y-113061728D01*
X162750789Y-112928789D01*
X162746504Y-112921970D01*
X162674800Y-112807853D01*
X162654816Y-112776049D01*
X162527262Y-112648495D01*
X162523075Y-112645864D01*
X162374523Y-112552522D01*
X162204254Y-112492942D01*
X162204249Y-112492941D01*
X162025004Y-112472746D01*
X162024996Y-112472746D01*
X161845750Y-112492941D01*
X161845745Y-112492942D01*
X161675476Y-112552522D01*
X161522737Y-112648495D01*
X161395184Y-112776048D01*
X161299211Y-112928787D01*
X161239631Y-113099056D01*
X161239630Y-113099061D01*
X161219435Y-113278307D01*
X159733320Y-113278307D01*
X159883405Y-113225790D01*
X160036145Y-113129817D01*
X160163699Y-113002263D01*
X160259672Y-112849523D01*
X160319251Y-112679256D01*
X160321697Y-112657546D01*
X160339448Y-112500004D01*
X160339448Y-112499997D01*
X160319252Y-112320751D01*
X160319251Y-112320746D01*
X160284749Y-112222145D01*
X160259672Y-112150479D01*
X160163699Y-111997739D01*
X160036145Y-111870185D01*
X160004021Y-111850000D01*
X159883406Y-111774212D01*
X159713137Y-111714632D01*
X159713132Y-111714631D01*
X159533887Y-111694436D01*
X159533879Y-111694436D01*
X159354633Y-111714631D01*
X159354628Y-111714632D01*
X159184359Y-111774212D01*
X159031620Y-111870185D01*
X158904067Y-111997738D01*
X158808094Y-112150477D01*
X158748514Y-112320746D01*
X158748513Y-112320751D01*
X158728318Y-112499997D01*
X158090561Y-112499997D01*
X158049523Y-112474211D01*
X157879254Y-112414631D01*
X157879249Y-112414630D01*
X157700004Y-112394435D01*
X157699996Y-112394435D01*
X157520750Y-112414630D01*
X157520745Y-112414631D01*
X157350476Y-112474211D01*
X157197737Y-112570184D01*
X157070184Y-112697737D01*
X156974209Y-112850480D01*
X156929166Y-112979205D01*
X156888445Y-113035981D01*
X156823492Y-113061728D01*
X156754930Y-113048272D01*
X156704527Y-112999884D01*
X156688905Y-112952133D01*
X156685369Y-112920749D01*
X156685368Y-112920745D01*
X156660781Y-112850480D01*
X156625789Y-112750478D01*
X156621590Y-112743796D01*
X156578243Y-112674809D01*
X156529816Y-112597738D01*
X156402262Y-112470184D01*
X156313852Y-112414632D01*
X156249523Y-112374211D01*
X156079254Y-112314631D01*
X156079249Y-112314630D01*
X155900004Y-112294435D01*
X155899996Y-112294435D01*
X155720750Y-112314630D01*
X155716867Y-112315517D01*
X155714287Y-112315358D01*
X155713825Y-112315411D01*
X155713815Y-112315329D01*
X155647128Y-112311242D01*
X155601596Y-112282306D01*
X155477262Y-112157972D01*
X155324523Y-112061999D01*
X155154254Y-112002419D01*
X155154249Y-112002418D01*
X154975004Y-111982223D01*
X154974996Y-111982223D01*
X154795750Y-112002418D01*
X154795745Y-112002419D01*
X154625476Y-112061999D01*
X154472737Y-112157972D01*
X154345184Y-112285525D01*
X154249211Y-112438264D01*
X154189631Y-112608533D01*
X154189630Y-112608538D01*
X154170352Y-112779644D01*
X154143286Y-112844058D01*
X154085691Y-112883614D01*
X154015854Y-112885751D01*
X153955947Y-112849793D01*
X153942139Y-112831734D01*
X153905497Y-112773419D01*
X153777942Y-112645864D01*
X153625203Y-112549891D01*
X153454934Y-112490311D01*
X153454929Y-112490310D01*
X153275684Y-112470115D01*
X153275676Y-112470115D01*
X153096430Y-112490310D01*
X153096425Y-112490311D01*
X152926156Y-112549891D01*
X152773417Y-112645864D01*
X152645864Y-112773417D01*
X152549891Y-112926156D01*
X152490311Y-113096425D01*
X152490310Y-113096430D01*
X152470115Y-113275676D01*
X149519755Y-113275676D01*
X149510970Y-113197702D01*
X149510969Y-113197697D01*
X149487216Y-113129816D01*
X149451390Y-113027430D01*
X149437737Y-113005702D01*
X149389408Y-112928787D01*
X149355417Y-112874690D01*
X149227863Y-112747136D01*
X149119833Y-112679256D01*
X149075122Y-112651162D01*
X148904850Y-112591582D01*
X148813731Y-112581316D01*
X148749317Y-112554250D01*
X148710573Y-112499050D01*
X148708435Y-112492941D01*
X148667126Y-112374885D01*
X148571153Y-112222145D01*
X148443599Y-112094591D01*
X148290860Y-111998618D01*
X148120591Y-111939038D01*
X148120586Y-111939037D01*
X147941341Y-111918842D01*
X147941333Y-111918842D01*
X147762087Y-111939037D01*
X147762082Y-111939038D01*
X147591813Y-111998618D01*
X147439074Y-112094591D01*
X147311521Y-112222144D01*
X147215548Y-112374883D01*
X147155968Y-112545152D01*
X147155967Y-112545157D01*
X147135772Y-112724403D01*
X147135772Y-112724410D01*
X147155967Y-112903653D01*
X147155969Y-112903664D01*
X147190961Y-113003663D01*
X147194523Y-113073442D01*
X147178916Y-113110586D01*
X147172397Y-113120961D01*
X147112820Y-113291220D01*
X147112817Y-113291233D01*
X147092622Y-113470479D01*
X144602239Y-113470479D01*
X144585369Y-113320750D01*
X144585368Y-113320745D01*
X144565519Y-113264019D01*
X144525789Y-113150478D01*
X144508643Y-113123191D01*
X144468955Y-113060028D01*
X144429816Y-112997738D01*
X144302262Y-112870184D01*
X144149523Y-112774211D01*
X143979254Y-112714631D01*
X143979249Y-112714630D01*
X143800004Y-112694435D01*
X143799996Y-112694435D01*
X143620750Y-112714630D01*
X143620745Y-112714631D01*
X143450476Y-112774211D01*
X143297737Y-112870184D01*
X143170184Y-112997737D01*
X143074211Y-113150476D01*
X143014631Y-113320745D01*
X143014630Y-113320750D01*
X142994435Y-113499996D01*
X131547797Y-113499996D01*
X131500050Y-113440123D01*
X131313217Y-113266768D01*
X131102634Y-113123195D01*
X131102628Y-113123192D01*
X131102627Y-113123191D01*
X131102625Y-113123190D01*
X130922027Y-113036219D01*
X130870167Y-112989397D01*
X130851854Y-112921970D01*
X130872902Y-112855346D01*
X130926628Y-112810677D01*
X130975826Y-112800499D01*
X131497872Y-112800499D01*
X131557483Y-112794091D01*
X131692331Y-112743796D01*
X131807546Y-112657546D01*
X131893796Y-112542331D01*
X131944091Y-112407483D01*
X131950500Y-112347873D01*
X131950500Y-112153720D01*
X140737256Y-112153720D01*
X140737256Y-112153727D01*
X140757451Y-112332973D01*
X140757452Y-112332978D01*
X140817032Y-112503247D01*
X140912740Y-112655565D01*
X140913005Y-112655986D01*
X141040559Y-112783540D01*
X141098876Y-112820183D01*
X141185621Y-112874689D01*
X141193299Y-112879513D01*
X141311145Y-112920749D01*
X141363566Y-112939092D01*
X141363571Y-112939093D01*
X141542817Y-112959289D01*
X141542821Y-112959289D01*
X141542825Y-112959289D01*
X141722070Y-112939093D01*
X141722073Y-112939092D01*
X141722076Y-112939092D01*
X141892343Y-112879513D01*
X142045083Y-112783540D01*
X142153816Y-112674806D01*
X142215135Y-112641324D01*
X142255376Y-112639270D01*
X142302938Y-112644628D01*
X142399997Y-112655565D01*
X142400000Y-112655565D01*
X142400004Y-112655565D01*
X142579249Y-112635369D01*
X142579252Y-112635368D01*
X142579255Y-112635368D01*
X142749522Y-112575789D01*
X142902262Y-112479816D01*
X143029816Y-112352262D01*
X143125789Y-112199522D01*
X143185368Y-112029255D01*
X143185369Y-112029249D01*
X143205565Y-111850003D01*
X143205565Y-111849996D01*
X143185369Y-111670750D01*
X143185368Y-111670745D01*
X143178620Y-111651461D01*
X143125789Y-111500478D01*
X143029816Y-111347738D01*
X142902262Y-111220184D01*
X142870144Y-111200003D01*
X142870133Y-111199996D01*
X145919434Y-111199996D01*
X145919434Y-111200003D01*
X145939629Y-111379249D01*
X145939630Y-111379254D01*
X145999210Y-111549523D01*
X146075383Y-111670750D01*
X146095183Y-111702262D01*
X146222737Y-111829816D01*
X146375477Y-111925789D01*
X146514611Y-111974474D01*
X146545744Y-111985368D01*
X146545749Y-111985369D01*
X146724995Y-112005565D01*
X146724999Y-112005565D01*
X146725003Y-112005565D01*
X146904248Y-111985369D01*
X146904251Y-111985368D01*
X146904254Y-111985368D01*
X147074521Y-111925789D01*
X147227261Y-111829816D01*
X147354815Y-111702262D01*
X147450788Y-111549522D01*
X147510367Y-111379255D01*
X147511595Y-111368355D01*
X147530564Y-111200003D01*
X147530564Y-111199996D01*
X147510368Y-111020750D01*
X147510367Y-111020745D01*
X147496045Y-110979815D01*
X147450788Y-110850478D01*
X147354815Y-110697738D01*
X147296064Y-110638987D01*
X147262579Y-110577664D01*
X147267563Y-110507972D01*
X147309435Y-110452039D01*
X147374899Y-110427622D01*
X147424700Y-110434265D01*
X147570737Y-110485366D01*
X147570743Y-110485367D01*
X147570745Y-110485368D01*
X147570746Y-110485368D01*
X147570750Y-110485369D01*
X147749996Y-110505565D01*
X147750000Y-110505565D01*
X147750004Y-110505565D01*
X147929249Y-110485369D01*
X147929252Y-110485368D01*
X147929255Y-110485368D01*
X148099522Y-110425789D01*
X148220146Y-110349996D01*
X152194435Y-110349996D01*
X152194435Y-110350003D01*
X152214630Y-110529249D01*
X152214631Y-110529254D01*
X152274211Y-110699523D01*
X152369062Y-110850476D01*
X152370184Y-110852262D01*
X152497738Y-110979816D01*
X152562876Y-111020745D01*
X152632721Y-111064632D01*
X152650478Y-111075789D01*
X152788860Y-111124211D01*
X152820745Y-111135368D01*
X152820750Y-111135369D01*
X152999996Y-111155565D01*
X153000000Y-111155565D01*
X153000004Y-111155565D01*
X153049439Y-111149995D01*
X165294732Y-111149995D01*
X165294732Y-111150004D01*
X165313777Y-111404154D01*
X165370223Y-111651462D01*
X165370492Y-111652637D01*
X165463607Y-111889888D01*
X165591041Y-112110612D01*
X165749950Y-112309877D01*
X165936783Y-112483232D01*
X166147366Y-112626805D01*
X166147371Y-112626807D01*
X166147372Y-112626808D01*
X166147373Y-112626809D01*
X166272126Y-112686886D01*
X166327972Y-112713780D01*
X166379832Y-112760602D01*
X166398145Y-112828029D01*
X166377097Y-112894653D01*
X166323371Y-112939321D01*
X166274171Y-112949500D01*
X165752129Y-112949500D01*
X165752123Y-112949501D01*
X165692516Y-112955908D01*
X165557671Y-113006202D01*
X165557664Y-113006206D01*
X165442455Y-113092452D01*
X165442452Y-113092455D01*
X165356206Y-113207664D01*
X165356202Y-113207671D01*
X165305908Y-113342517D01*
X165301959Y-113379254D01*
X165299501Y-113402123D01*
X165299500Y-113402135D01*
X165299500Y-115897870D01*
X165299501Y-115897876D01*
X165305908Y-115957483D01*
X165356202Y-116092328D01*
X165356206Y-116092335D01*
X165442452Y-116207544D01*
X165442455Y-116207547D01*
X165557664Y-116293793D01*
X165557671Y-116293797D01*
X165692517Y-116344091D01*
X165692516Y-116344091D01*
X165699444Y-116344835D01*
X165752127Y-116350500D01*
X168247872Y-116350499D01*
X168307483Y-116344091D01*
X168442331Y-116293796D01*
X168557546Y-116207546D01*
X168643796Y-116092331D01*
X168694091Y-115957483D01*
X168700500Y-115897873D01*
X168700499Y-113402128D01*
X168694091Y-113342517D01*
X168685989Y-113320795D01*
X168643797Y-113207671D01*
X168643793Y-113207664D01*
X168557547Y-113092455D01*
X168557544Y-113092452D01*
X168442335Y-113006206D01*
X168442328Y-113006202D01*
X168307482Y-112955908D01*
X168307483Y-112955908D01*
X168247883Y-112949501D01*
X168247881Y-112949500D01*
X168247873Y-112949500D01*
X168247865Y-112949500D01*
X167725829Y-112949500D01*
X167658790Y-112929815D01*
X167613035Y-112877011D01*
X167603091Y-112807853D01*
X167632116Y-112744297D01*
X167672027Y-112713780D01*
X167852634Y-112626805D01*
X168063217Y-112483232D01*
X168250050Y-112309877D01*
X168408959Y-112110612D01*
X168536393Y-111889888D01*
X168629508Y-111652637D01*
X168686222Y-111404157D01*
X168694384Y-111295232D01*
X168705268Y-111150004D01*
X168705268Y-111149995D01*
X168686222Y-110895845D01*
X168676274Y-110852262D01*
X168629508Y-110647363D01*
X168536393Y-110410112D01*
X168408959Y-110189388D01*
X168250050Y-109990123D01*
X168063217Y-109816768D01*
X167852634Y-109673195D01*
X167852630Y-109673193D01*
X167852627Y-109673191D01*
X167852626Y-109673190D01*
X167623006Y-109562612D01*
X167623008Y-109562612D01*
X167379466Y-109487489D01*
X167379462Y-109487488D01*
X167379458Y-109487487D01*
X167258231Y-109469214D01*
X167127440Y-109449500D01*
X167127435Y-109449500D01*
X166872565Y-109449500D01*
X166872559Y-109449500D01*
X166715609Y-109473157D01*
X166620542Y-109487487D01*
X166620539Y-109487488D01*
X166620533Y-109487489D01*
X166376992Y-109562612D01*
X166147373Y-109673190D01*
X166147372Y-109673191D01*
X165936782Y-109816768D01*
X165749952Y-109990121D01*
X165749950Y-109990123D01*
X165591041Y-110189388D01*
X165463608Y-110410109D01*
X165370492Y-110647362D01*
X165370490Y-110647369D01*
X165313777Y-110895845D01*
X165294732Y-111149995D01*
X153049439Y-111149995D01*
X153179249Y-111135369D01*
X153179252Y-111135368D01*
X153179255Y-111135368D01*
X153349522Y-111075789D01*
X153502262Y-110979816D01*
X153629816Y-110852262D01*
X153725789Y-110699522D01*
X153785368Y-110529255D01*
X153787766Y-110507972D01*
X153805565Y-110350003D01*
X153805565Y-110349996D01*
X153785369Y-110170750D01*
X153785368Y-110170745D01*
X153725789Y-110000478D01*
X153629816Y-109847738D01*
X153502262Y-109720184D01*
X153470144Y-109700003D01*
X153349523Y-109624211D01*
X153179254Y-109564631D01*
X153179249Y-109564630D01*
X153000004Y-109544435D01*
X152999996Y-109544435D01*
X152820750Y-109564630D01*
X152820745Y-109564631D01*
X152650476Y-109624211D01*
X152497737Y-109720184D01*
X152370184Y-109847737D01*
X152274211Y-110000476D01*
X152214631Y-110170745D01*
X152214630Y-110170750D01*
X152194435Y-110349996D01*
X148220146Y-110349996D01*
X148252262Y-110329816D01*
X148379816Y-110202262D01*
X148475789Y-110049522D01*
X148535368Y-109879255D01*
X148538424Y-109852135D01*
X148555565Y-109700003D01*
X148555565Y-109699996D01*
X148535369Y-109520750D01*
X148535368Y-109520745D01*
X148523731Y-109487488D01*
X148475789Y-109350478D01*
X148474067Y-109347738D01*
X148431033Y-109279249D01*
X148379816Y-109197738D01*
X148252262Y-109070184D01*
X148243426Y-109064632D01*
X148099523Y-108974211D01*
X147929254Y-108914631D01*
X147929249Y-108914630D01*
X147750004Y-108894435D01*
X147749996Y-108894435D01*
X147570750Y-108914630D01*
X147570745Y-108914631D01*
X147400476Y-108974211D01*
X147247737Y-109070184D01*
X147120184Y-109197737D01*
X147024211Y-109350476D01*
X146964631Y-109520745D01*
X146964630Y-109520750D01*
X146944435Y-109699996D01*
X146944435Y-109700003D01*
X146964630Y-109879249D01*
X146964631Y-109879254D01*
X147024211Y-110049523D01*
X147120184Y-110202262D01*
X147178934Y-110261012D01*
X147212419Y-110322335D01*
X147207435Y-110392027D01*
X147165563Y-110447960D01*
X147100099Y-110472377D01*
X147050298Y-110465735D01*
X146904253Y-110414631D01*
X146904248Y-110414630D01*
X146725003Y-110394435D01*
X146724995Y-110394435D01*
X146545749Y-110414630D01*
X146545744Y-110414631D01*
X146375475Y-110474211D01*
X146222736Y-110570184D01*
X146095183Y-110697737D01*
X145999210Y-110850476D01*
X145939630Y-111020745D01*
X145939629Y-111020750D01*
X145919434Y-111199996D01*
X142870133Y-111199996D01*
X142749523Y-111124211D01*
X142579254Y-111064631D01*
X142579249Y-111064630D01*
X142400004Y-111044435D01*
X142399996Y-111044435D01*
X142220750Y-111064630D01*
X142220745Y-111064631D01*
X142050476Y-111124211D01*
X141897737Y-111220184D01*
X141897736Y-111220185D01*
X141789005Y-111328915D01*
X141727682Y-111362399D01*
X141687442Y-111364453D01*
X141542825Y-111348159D01*
X141542817Y-111348159D01*
X141363571Y-111368354D01*
X141363566Y-111368355D01*
X141193297Y-111427935D01*
X141040558Y-111523908D01*
X140913005Y-111651461D01*
X140817032Y-111804200D01*
X140757452Y-111974469D01*
X140757451Y-111974474D01*
X140737256Y-112153720D01*
X131950500Y-112153720D01*
X131950499Y-109852128D01*
X131944091Y-109792517D01*
X131942656Y-109788670D01*
X131893797Y-109657671D01*
X131893793Y-109657664D01*
X131807547Y-109542455D01*
X131807544Y-109542452D01*
X131692335Y-109456206D01*
X131692328Y-109456202D01*
X131557482Y-109405908D01*
X131557483Y-109405908D01*
X131497883Y-109399501D01*
X131497881Y-109399500D01*
X131497873Y-109399500D01*
X131497864Y-109399500D01*
X129002129Y-109399500D01*
X129002123Y-109399501D01*
X128942516Y-109405908D01*
X128807671Y-109456202D01*
X128807664Y-109456206D01*
X128692455Y-109542452D01*
X128692452Y-109542455D01*
X128606206Y-109657664D01*
X128606202Y-109657671D01*
X128555908Y-109792517D01*
X128549728Y-109850003D01*
X128549501Y-109852123D01*
X128549500Y-109852135D01*
X128549500Y-112347870D01*
X128549501Y-112347876D01*
X128555908Y-112407483D01*
X128606202Y-112542328D01*
X128606206Y-112542335D01*
X128692452Y-112657544D01*
X128692455Y-112657547D01*
X128807664Y-112743793D01*
X128807671Y-112743797D01*
X128942517Y-112794091D01*
X128942516Y-112794091D01*
X128949444Y-112794835D01*
X129002127Y-112800500D01*
X129524172Y-112800499D01*
X129591209Y-112820183D01*
X129636964Y-112872987D01*
X129646908Y-112942146D01*
X129617883Y-113005702D01*
X129577972Y-113036219D01*
X129397370Y-113123192D01*
X129186782Y-113266768D01*
X128999952Y-113440121D01*
X128999950Y-113440123D01*
X128841041Y-113639388D01*
X128713608Y-113860109D01*
X128620492Y-114097362D01*
X128620490Y-114097369D01*
X128563777Y-114345845D01*
X128544732Y-114599995D01*
X126500500Y-114599995D01*
X126500500Y-109099996D01*
X140194435Y-109099996D01*
X140194435Y-109100003D01*
X140214630Y-109279249D01*
X140214631Y-109279254D01*
X140274211Y-109449523D01*
X140345270Y-109562612D01*
X140370184Y-109602262D01*
X140497738Y-109729816D01*
X140561164Y-109769669D01*
X140591403Y-109788670D01*
X140650478Y-109825789D01*
X140725771Y-109852135D01*
X140820745Y-109885368D01*
X140820750Y-109885369D01*
X140999996Y-109905565D01*
X141000000Y-109905565D01*
X141000004Y-109905565D01*
X141179249Y-109885369D01*
X141179252Y-109885368D01*
X141179255Y-109885368D01*
X141349522Y-109825789D01*
X141408596Y-109788669D01*
X141475832Y-109769669D01*
X141542668Y-109790036D01*
X141587882Y-109843303D01*
X141597789Y-109879779D01*
X141614630Y-110029250D01*
X141614631Y-110029254D01*
X141674211Y-110199523D01*
X141756080Y-110329815D01*
X141770184Y-110352262D01*
X141897738Y-110479816D01*
X141942548Y-110507972D01*
X142041557Y-110570184D01*
X142050478Y-110575789D01*
X142220745Y-110635368D01*
X142220750Y-110635369D01*
X142399996Y-110655565D01*
X142400000Y-110655565D01*
X142400004Y-110655565D01*
X142579249Y-110635369D01*
X142579252Y-110635368D01*
X142579255Y-110635368D01*
X142749522Y-110575789D01*
X142902262Y-110479816D01*
X143029816Y-110352262D01*
X143125789Y-110199522D01*
X143185368Y-110029255D01*
X143185369Y-110029249D01*
X143205565Y-109850003D01*
X143205565Y-109849996D01*
X143185369Y-109670750D01*
X143185368Y-109670745D01*
X143180793Y-109657671D01*
X143125789Y-109500478D01*
X143117627Y-109487489D01*
X143049628Y-109379269D01*
X143029816Y-109347738D01*
X142902262Y-109220184D01*
X142749523Y-109124211D01*
X142579254Y-109064631D01*
X142579249Y-109064630D01*
X142400004Y-109044435D01*
X142399996Y-109044435D01*
X142220750Y-109064630D01*
X142220745Y-109064631D01*
X142050474Y-109124212D01*
X141991401Y-109161330D01*
X141924164Y-109180330D01*
X141857329Y-109159962D01*
X141812116Y-109106694D01*
X141802210Y-109070219D01*
X141785369Y-108920750D01*
X141785368Y-108920745D01*
X141776162Y-108894435D01*
X141743116Y-108799996D01*
X149344435Y-108799996D01*
X149344435Y-108800003D01*
X149364630Y-108979249D01*
X149364631Y-108979254D01*
X149424211Y-109149523D01*
X149454507Y-109197738D01*
X149520184Y-109302262D01*
X149647738Y-109429816D01*
X149738080Y-109486582D01*
X149792450Y-109520745D01*
X149800478Y-109525789D01*
X149905712Y-109562612D01*
X149970745Y-109585368D01*
X149970750Y-109585369D01*
X150149996Y-109605565D01*
X150150000Y-109605565D01*
X150150004Y-109605565D01*
X150329249Y-109585369D01*
X150329252Y-109585368D01*
X150329255Y-109585368D01*
X150499522Y-109525789D01*
X150652262Y-109429816D01*
X150779816Y-109302262D01*
X150875789Y-109149522D01*
X150935368Y-108979255D01*
X150935369Y-108979249D01*
X150955565Y-108800003D01*
X150955565Y-108799996D01*
X150935369Y-108620750D01*
X150935368Y-108620745D01*
X150875789Y-108450478D01*
X150779816Y-108297738D01*
X150652262Y-108170184D01*
X150628996Y-108155565D01*
X150499523Y-108074211D01*
X150329254Y-108014631D01*
X150329249Y-108014630D01*
X150150004Y-107994435D01*
X150149996Y-107994435D01*
X149970750Y-108014630D01*
X149970745Y-108014631D01*
X149800476Y-108074211D01*
X149647737Y-108170184D01*
X149520184Y-108297737D01*
X149424211Y-108450476D01*
X149364631Y-108620745D01*
X149364630Y-108620750D01*
X149344435Y-108799996D01*
X141743116Y-108799996D01*
X141725789Y-108750478D01*
X141629816Y-108597738D01*
X141502262Y-108470184D01*
X141470897Y-108450476D01*
X141349523Y-108374211D01*
X141179254Y-108314631D01*
X141179249Y-108314630D01*
X141000004Y-108294435D01*
X140999996Y-108294435D01*
X140820750Y-108314630D01*
X140820745Y-108314631D01*
X140650476Y-108374211D01*
X140497737Y-108470184D01*
X140370184Y-108597737D01*
X140274211Y-108750476D01*
X140214631Y-108920745D01*
X140214630Y-108920750D01*
X140194435Y-109099996D01*
X126500500Y-109099996D01*
X126500500Y-105899995D01*
X128544732Y-105899995D01*
X128544732Y-105900004D01*
X128563777Y-106154154D01*
X128563778Y-106154157D01*
X128620492Y-106402637D01*
X128713607Y-106639888D01*
X128841041Y-106860612D01*
X128999950Y-107059877D01*
X129186783Y-107233232D01*
X129397366Y-107376805D01*
X129397371Y-107376807D01*
X129397372Y-107376808D01*
X129397373Y-107376809D01*
X129519328Y-107435538D01*
X129626992Y-107487387D01*
X129626993Y-107487387D01*
X129626996Y-107487389D01*
X129870542Y-107562513D01*
X130122565Y-107600500D01*
X130377435Y-107600500D01*
X130629458Y-107562513D01*
X130873004Y-107487389D01*
X131102634Y-107376805D01*
X131141956Y-107349996D01*
X137244435Y-107349996D01*
X137244435Y-107350003D01*
X137264630Y-107529249D01*
X137264631Y-107529254D01*
X137324211Y-107699523D01*
X137420184Y-107852262D01*
X137547738Y-107979816D01*
X137638080Y-108036582D01*
X137697966Y-108074211D01*
X137700478Y-108075789D01*
X137870745Y-108135368D01*
X137870750Y-108135369D01*
X138049996Y-108155565D01*
X138050000Y-108155565D01*
X138050004Y-108155565D01*
X138229249Y-108135369D01*
X138229252Y-108135368D01*
X138229255Y-108135368D01*
X138399522Y-108075789D01*
X138552262Y-107979816D01*
X138679816Y-107852262D01*
X138775789Y-107699522D01*
X138835368Y-107529255D01*
X138837814Y-107507546D01*
X138855565Y-107350003D01*
X138855565Y-107349996D01*
X138835369Y-107170750D01*
X138835368Y-107170745D01*
X138796574Y-107059878D01*
X138775789Y-107000478D01*
X138679816Y-106847738D01*
X138552262Y-106720184D01*
X138456889Y-106660257D01*
X138399523Y-106624211D01*
X138229254Y-106564631D01*
X138229249Y-106564630D01*
X138050004Y-106544435D01*
X138049996Y-106544435D01*
X137870750Y-106564630D01*
X137870745Y-106564631D01*
X137700476Y-106624211D01*
X137547737Y-106720184D01*
X137420184Y-106847737D01*
X137324211Y-107000476D01*
X137264631Y-107170745D01*
X137264630Y-107170750D01*
X137244435Y-107349996D01*
X131141956Y-107349996D01*
X131313217Y-107233232D01*
X131500050Y-107059877D01*
X131658959Y-106860612D01*
X131786393Y-106639888D01*
X131879508Y-106402637D01*
X131936222Y-106154157D01*
X131945325Y-106032688D01*
X131955268Y-105900004D01*
X131955268Y-105899995D01*
X131951873Y-105854688D01*
X133349127Y-105854688D01*
X133349127Y-105854695D01*
X133369322Y-106033941D01*
X133369323Y-106033946D01*
X133428903Y-106204215D01*
X133524876Y-106356954D01*
X133652430Y-106484508D01*
X133805170Y-106580481D01*
X133930143Y-106624211D01*
X133975437Y-106640060D01*
X133975442Y-106640061D01*
X134154688Y-106660257D01*
X134154692Y-106660257D01*
X134154696Y-106660257D01*
X134333941Y-106640061D01*
X134333944Y-106640060D01*
X134333947Y-106640060D01*
X134504214Y-106580481D01*
X134656954Y-106484508D01*
X134784508Y-106356954D01*
X134880481Y-106204214D01*
X134940060Y-106033947D01*
X134955153Y-105899995D01*
X134960257Y-105854695D01*
X134960257Y-105854688D01*
X134940061Y-105675442D01*
X134940060Y-105675437D01*
X134927307Y-105638992D01*
X134880481Y-105505170D01*
X134784508Y-105352430D01*
X134679394Y-105247316D01*
X147344434Y-105247316D01*
X147344434Y-105247323D01*
X147364629Y-105426569D01*
X147364630Y-105426574D01*
X147424210Y-105596843D01*
X147510999Y-105734966D01*
X147520183Y-105749582D01*
X147647737Y-105877136D01*
X147800477Y-105973109D01*
X147970744Y-106032688D01*
X147970749Y-106032689D01*
X148149995Y-106052885D01*
X148149999Y-106052885D01*
X148150003Y-106052885D01*
X148329248Y-106032689D01*
X148329251Y-106032688D01*
X148329254Y-106032688D01*
X148499521Y-105973109D01*
X148652261Y-105877136D01*
X148733177Y-105796220D01*
X148794500Y-105762735D01*
X148861811Y-105766859D01*
X148940930Y-105794545D01*
X148940934Y-105794545D01*
X148940936Y-105794546D01*
X148940933Y-105794546D01*
X149120181Y-105814742D01*
X149120185Y-105814742D01*
X149120189Y-105814742D01*
X149299434Y-105794546D01*
X149299437Y-105794545D01*
X149299440Y-105794545D01*
X149469707Y-105734966D01*
X149622447Y-105638993D01*
X149750001Y-105511439D01*
X149789824Y-105448060D01*
X149842156Y-105401770D01*
X149880929Y-105390812D01*
X149929255Y-105385368D01*
X150099522Y-105325789D01*
X150252262Y-105229816D01*
X150379816Y-105102262D01*
X150444074Y-104999996D01*
X155394435Y-104999996D01*
X155394435Y-105000003D01*
X155414630Y-105179249D01*
X155414631Y-105179254D01*
X155474211Y-105349523D01*
X155570184Y-105502262D01*
X155697738Y-105629816D01*
X155850478Y-105725789D01*
X155956064Y-105762735D01*
X156020745Y-105785368D01*
X156020750Y-105785369D01*
X156199996Y-105805565D01*
X156200000Y-105805565D01*
X156200004Y-105805565D01*
X156379249Y-105785369D01*
X156379250Y-105785368D01*
X156379255Y-105785368D01*
X156473323Y-105752451D01*
X156543098Y-105748889D01*
X156555230Y-105752452D01*
X156720737Y-105810366D01*
X156720743Y-105810367D01*
X156720745Y-105810368D01*
X156720746Y-105810368D01*
X156720750Y-105810369D01*
X156899996Y-105830565D01*
X156900000Y-105830565D01*
X156900004Y-105830565D01*
X157079249Y-105810369D01*
X157079252Y-105810368D01*
X157079255Y-105810368D01*
X157249522Y-105750789D01*
X157402262Y-105654816D01*
X157529816Y-105527262D01*
X157537512Y-105515012D01*
X157589844Y-105468719D01*
X157622523Y-105459484D01*
X157622467Y-105459237D01*
X157627312Y-105458131D01*
X157628632Y-105457758D01*
X157629255Y-105457688D01*
X157799522Y-105398109D01*
X157952262Y-105302136D01*
X158079816Y-105174582D01*
X158175789Y-105021842D01*
X158235368Y-104851575D01*
X158238842Y-104820745D01*
X158255565Y-104672323D01*
X158255565Y-104672316D01*
X158235369Y-104493070D01*
X158235367Y-104493060D01*
X158218707Y-104445451D01*
X158215144Y-104375672D01*
X158249872Y-104315045D01*
X158311865Y-104282817D01*
X158363342Y-104286490D01*
X158363953Y-104283818D01*
X158370743Y-104285367D01*
X158370745Y-104285368D01*
X158370746Y-104285368D01*
X158370750Y-104285369D01*
X158549996Y-104305565D01*
X158550000Y-104305565D01*
X158550004Y-104305565D01*
X158729250Y-104285369D01*
X158729251Y-104285368D01*
X158729255Y-104285368D01*
X158754666Y-104276475D01*
X158824443Y-104272912D01*
X158861592Y-104288521D01*
X159000478Y-104375789D01*
X159135948Y-104423192D01*
X159170745Y-104435368D01*
X159170750Y-104435369D01*
X159349996Y-104455565D01*
X159350000Y-104455565D01*
X159350004Y-104455565D01*
X159529249Y-104435369D01*
X159529252Y-104435368D01*
X159529255Y-104435368D01*
X159699522Y-104375789D01*
X159852262Y-104279816D01*
X159979816Y-104152262D01*
X160075789Y-103999522D01*
X160135368Y-103829255D01*
X160139042Y-103796648D01*
X160155565Y-103650003D01*
X160155565Y-103649996D01*
X160135369Y-103470750D01*
X160135368Y-103470745D01*
X160075789Y-103300478D01*
X159979816Y-103147738D01*
X159852262Y-103020184D01*
X159699523Y-102924211D01*
X159529254Y-102864631D01*
X159529249Y-102864630D01*
X159350004Y-102844435D01*
X159349996Y-102844435D01*
X159170746Y-102864631D01*
X159145327Y-102873525D01*
X159075548Y-102877084D01*
X159038404Y-102861476D01*
X158899523Y-102774211D01*
X158729254Y-102714631D01*
X158729249Y-102714630D01*
X158550004Y-102694435D01*
X158549996Y-102694435D01*
X158370750Y-102714630D01*
X158370745Y-102714631D01*
X158200476Y-102774211D01*
X158047737Y-102870184D01*
X157920184Y-102997737D01*
X157824211Y-103150476D01*
X157764631Y-103320745D01*
X157764630Y-103320750D01*
X157744435Y-103499996D01*
X157744435Y-103500003D01*
X157764630Y-103679249D01*
X157764633Y-103679262D01*
X157781292Y-103726869D01*
X157784854Y-103796648D01*
X157750126Y-103857275D01*
X157688132Y-103889503D01*
X157636651Y-103885852D01*
X157636047Y-103888502D01*
X157629249Y-103886950D01*
X157450004Y-103866755D01*
X157449996Y-103866755D01*
X157270750Y-103886950D01*
X157270745Y-103886951D01*
X157100476Y-103946531D01*
X156947737Y-104042504D01*
X156820182Y-104170059D01*
X156820179Y-104170063D01*
X156812480Y-104182316D01*
X156760144Y-104228605D01*
X156727478Y-104237835D01*
X156727535Y-104238082D01*
X156722712Y-104239182D01*
X156721381Y-104239559D01*
X156720754Y-104239629D01*
X156720742Y-104239632D01*
X156626675Y-104272547D01*
X156556897Y-104276108D01*
X156544767Y-104272547D01*
X156379254Y-104214631D01*
X156379249Y-104214630D01*
X156200004Y-104194435D01*
X156199996Y-104194435D01*
X156020750Y-104214630D01*
X156020745Y-104214631D01*
X155850476Y-104274211D01*
X155697737Y-104370184D01*
X155570184Y-104497737D01*
X155474211Y-104650476D01*
X155414631Y-104820745D01*
X155414630Y-104820750D01*
X155394435Y-104999996D01*
X150444074Y-104999996D01*
X150475789Y-104949522D01*
X150535368Y-104779255D01*
X150539777Y-104740123D01*
X150555565Y-104600003D01*
X150555565Y-104599996D01*
X150535369Y-104420750D01*
X150535368Y-104420745D01*
X150495288Y-104306204D01*
X150475789Y-104250478D01*
X150475174Y-104249500D01*
X150419638Y-104161115D01*
X150379816Y-104097738D01*
X150252262Y-103970184D01*
X150214619Y-103946531D01*
X150099523Y-103874211D01*
X149929254Y-103814631D01*
X149929249Y-103814630D01*
X149750004Y-103794435D01*
X149749996Y-103794435D01*
X149570750Y-103814630D01*
X149570745Y-103814631D01*
X149400476Y-103874211D01*
X149247737Y-103970184D01*
X149120183Y-104097738D01*
X149080361Y-104161115D01*
X149028026Y-104207406D01*
X148989252Y-104218363D01*
X148940935Y-104223807D01*
X148770663Y-104283387D01*
X148617924Y-104379360D01*
X148537008Y-104460276D01*
X148475684Y-104493760D01*
X148408373Y-104489636D01*
X148329256Y-104461952D01*
X148329248Y-104461950D01*
X148150003Y-104441755D01*
X148149995Y-104441755D01*
X147970749Y-104461950D01*
X147970744Y-104461951D01*
X147800475Y-104521531D01*
X147647736Y-104617504D01*
X147520183Y-104745057D01*
X147424210Y-104897796D01*
X147364630Y-105068065D01*
X147364629Y-105068070D01*
X147344434Y-105247316D01*
X134679394Y-105247316D01*
X134656954Y-105224876D01*
X134584349Y-105179255D01*
X134504215Y-105128903D01*
X134333946Y-105069323D01*
X134333941Y-105069322D01*
X134154696Y-105049127D01*
X134154688Y-105049127D01*
X133975442Y-105069322D01*
X133975437Y-105069323D01*
X133805168Y-105128903D01*
X133652429Y-105224876D01*
X133524876Y-105352429D01*
X133428903Y-105505168D01*
X133369323Y-105675437D01*
X133369322Y-105675442D01*
X133349127Y-105854688D01*
X131951873Y-105854688D01*
X131936222Y-105645845D01*
X131934658Y-105638993D01*
X131879508Y-105397363D01*
X131786393Y-105160112D01*
X131658959Y-104939388D01*
X131500050Y-104740123D01*
X131313217Y-104566768D01*
X131102634Y-104423195D01*
X131102628Y-104423192D01*
X131102627Y-104423191D01*
X131102625Y-104423190D01*
X130922027Y-104336219D01*
X130870167Y-104289397D01*
X130851854Y-104221970D01*
X130872902Y-104155346D01*
X130926628Y-104110677D01*
X130975826Y-104100499D01*
X131497872Y-104100499D01*
X131557483Y-104094091D01*
X131692331Y-104043796D01*
X131807546Y-103957546D01*
X131893796Y-103842331D01*
X131944091Y-103707483D01*
X131950500Y-103647873D01*
X131950500Y-103499996D01*
X134544435Y-103499996D01*
X134544435Y-103500003D01*
X134564630Y-103679249D01*
X134564631Y-103679254D01*
X134624211Y-103849523D01*
X134700028Y-103970184D01*
X134720184Y-104002262D01*
X134847738Y-104129816D01*
X134883461Y-104152262D01*
X134997326Y-104223809D01*
X135000478Y-104225789D01*
X135166315Y-104283818D01*
X135170745Y-104285368D01*
X135170750Y-104285369D01*
X135349996Y-104305565D01*
X135350000Y-104305565D01*
X135350004Y-104305565D01*
X135529249Y-104285369D01*
X135529252Y-104285368D01*
X135529255Y-104285368D01*
X135699522Y-104225789D01*
X135852262Y-104129816D01*
X135979816Y-104002262D01*
X136075789Y-103849522D01*
X136135368Y-103679255D01*
X136138664Y-103650003D01*
X136155565Y-103500003D01*
X136155565Y-103499996D01*
X136135369Y-103320750D01*
X136135368Y-103320745D01*
X136075788Y-103150476D01*
X136034878Y-103085368D01*
X135979816Y-102997738D01*
X135852262Y-102870184D01*
X135843426Y-102864632D01*
X135699523Y-102774211D01*
X135529254Y-102714631D01*
X135529249Y-102714630D01*
X135350004Y-102694435D01*
X135349996Y-102694435D01*
X135170750Y-102714630D01*
X135170745Y-102714631D01*
X135000476Y-102774211D01*
X134847737Y-102870184D01*
X134720184Y-102997737D01*
X134624211Y-103150476D01*
X134564631Y-103320745D01*
X134564630Y-103320750D01*
X134544435Y-103499996D01*
X131950500Y-103499996D01*
X131950499Y-102029996D01*
X138804435Y-102029996D01*
X138804435Y-102030003D01*
X138824630Y-102209249D01*
X138824631Y-102209254D01*
X138884211Y-102379523D01*
X138946877Y-102479254D01*
X138980184Y-102532262D01*
X139107738Y-102659816D01*
X139194977Y-102714632D01*
X139260121Y-102755565D01*
X139260478Y-102755789D01*
X139393290Y-102802262D01*
X139430745Y-102815368D01*
X139430750Y-102815369D01*
X139609996Y-102835565D01*
X139610000Y-102835565D01*
X139610004Y-102835565D01*
X139789249Y-102815369D01*
X139789252Y-102815368D01*
X139789255Y-102815368D01*
X139959522Y-102755789D01*
X140112262Y-102659816D01*
X140239816Y-102532262D01*
X140335789Y-102379522D01*
X140395368Y-102209255D01*
X140404382Y-102129254D01*
X140415565Y-102030003D01*
X140415565Y-102029996D01*
X140406551Y-101949996D01*
X145744435Y-101949996D01*
X145744435Y-101950003D01*
X145764630Y-102129249D01*
X145764631Y-102129254D01*
X145824211Y-102299523D01*
X145824511Y-102300000D01*
X145920184Y-102452262D01*
X146047738Y-102579816D01*
X146138080Y-102636582D01*
X146175055Y-102659815D01*
X146200478Y-102675789D01*
X146311479Y-102714630D01*
X146370745Y-102735368D01*
X146370750Y-102735369D01*
X146549996Y-102755565D01*
X146550000Y-102755565D01*
X146550004Y-102755565D01*
X146729249Y-102735369D01*
X146729252Y-102735368D01*
X146729255Y-102735368D01*
X146899522Y-102675789D01*
X147052262Y-102579816D01*
X147179816Y-102452262D01*
X147275491Y-102299996D01*
X155794435Y-102299996D01*
X155794435Y-102300003D01*
X155814630Y-102479249D01*
X155814631Y-102479254D01*
X155874211Y-102649523D01*
X155928152Y-102735369D01*
X155970184Y-102802262D01*
X156097738Y-102929816D01*
X156188080Y-102986582D01*
X156241557Y-103020184D01*
X156250478Y-103025789D01*
X156420745Y-103085368D01*
X156420750Y-103085369D01*
X156599996Y-103105565D01*
X156600000Y-103105565D01*
X156600004Y-103105565D01*
X156779249Y-103085369D01*
X156779252Y-103085368D01*
X156779255Y-103085368D01*
X156949522Y-103025789D01*
X157102262Y-102929816D01*
X157229816Y-102802262D01*
X157325789Y-102649522D01*
X157385368Y-102479255D01*
X157385369Y-102479249D01*
X157388665Y-102449995D01*
X165294732Y-102449995D01*
X165294732Y-102450004D01*
X165313777Y-102704154D01*
X165357743Y-102896783D01*
X165370492Y-102952637D01*
X165463607Y-103189888D01*
X165591041Y-103410612D01*
X165749950Y-103609877D01*
X165936783Y-103783232D01*
X166147366Y-103926805D01*
X166147371Y-103926807D01*
X166147372Y-103926808D01*
X166147373Y-103926809D01*
X166188327Y-103946531D01*
X166327972Y-104013780D01*
X166379832Y-104060602D01*
X166398145Y-104128029D01*
X166377097Y-104194653D01*
X166323371Y-104239321D01*
X166274171Y-104249500D01*
X165752129Y-104249500D01*
X165752123Y-104249501D01*
X165692516Y-104255908D01*
X165557671Y-104306202D01*
X165557664Y-104306206D01*
X165442455Y-104392452D01*
X165442452Y-104392455D01*
X165356206Y-104507664D01*
X165356202Y-104507671D01*
X165305908Y-104642517D01*
X165302704Y-104672323D01*
X165299501Y-104702123D01*
X165299500Y-104702135D01*
X165299500Y-107197870D01*
X165299501Y-107197876D01*
X165305908Y-107257483D01*
X165356202Y-107392328D01*
X165356206Y-107392335D01*
X165442452Y-107507544D01*
X165442455Y-107507547D01*
X165557664Y-107593793D01*
X165557671Y-107593797D01*
X165692517Y-107644091D01*
X165692516Y-107644091D01*
X165699444Y-107644835D01*
X165752127Y-107650500D01*
X168247872Y-107650499D01*
X168307483Y-107644091D01*
X168442331Y-107593796D01*
X168557546Y-107507546D01*
X168643796Y-107392331D01*
X168694091Y-107257483D01*
X168700500Y-107197873D01*
X168700499Y-104702128D01*
X168694091Y-104642517D01*
X168678234Y-104600003D01*
X168643797Y-104507671D01*
X168643793Y-104507664D01*
X168557547Y-104392455D01*
X168557544Y-104392452D01*
X168442335Y-104306206D01*
X168442328Y-104306202D01*
X168307482Y-104255908D01*
X168307483Y-104255908D01*
X168247883Y-104249501D01*
X168247881Y-104249500D01*
X168247873Y-104249500D01*
X168247865Y-104249500D01*
X167725829Y-104249500D01*
X167658790Y-104229815D01*
X167613035Y-104177011D01*
X167603091Y-104107853D01*
X167632116Y-104044297D01*
X167672027Y-104013780D01*
X167852634Y-103926805D01*
X168063217Y-103783232D01*
X168250050Y-103609877D01*
X168408959Y-103410612D01*
X168536393Y-103189888D01*
X168629508Y-102952637D01*
X168686222Y-102704157D01*
X168695540Y-102579815D01*
X168705268Y-102450004D01*
X168705268Y-102449995D01*
X168687227Y-102209254D01*
X168686222Y-102195843D01*
X168629508Y-101947363D01*
X168536393Y-101710112D01*
X168408959Y-101489388D01*
X168250050Y-101290123D01*
X168063217Y-101116768D01*
X167852634Y-100973195D01*
X167852630Y-100973193D01*
X167852627Y-100973191D01*
X167852626Y-100973190D01*
X167623006Y-100862612D01*
X167623008Y-100862612D01*
X167379466Y-100787489D01*
X167379462Y-100787488D01*
X167379458Y-100787487D01*
X167258231Y-100769214D01*
X167127440Y-100749500D01*
X167127435Y-100749500D01*
X166872565Y-100749500D01*
X166872559Y-100749500D01*
X166715609Y-100773157D01*
X166620542Y-100787487D01*
X166620539Y-100787488D01*
X166620533Y-100787489D01*
X166376992Y-100862612D01*
X166147373Y-100973190D01*
X166147372Y-100973191D01*
X165936782Y-101116768D01*
X165749952Y-101290121D01*
X165749950Y-101290123D01*
X165591041Y-101489388D01*
X165463608Y-101710109D01*
X165370492Y-101947362D01*
X165370490Y-101947369D01*
X165313777Y-102195845D01*
X165294732Y-102449995D01*
X157388665Y-102449995D01*
X157405565Y-102300003D01*
X157405565Y-102299996D01*
X157385369Y-102120750D01*
X157385368Y-102120745D01*
X157353615Y-102030000D01*
X157325789Y-101950478D01*
X157323835Y-101947369D01*
X157263126Y-101850750D01*
X157229816Y-101797738D01*
X157102262Y-101670184D01*
X156991326Y-101600478D01*
X156949523Y-101574211D01*
X156779254Y-101514631D01*
X156779249Y-101514630D01*
X156600004Y-101494435D01*
X156599996Y-101494435D01*
X156420750Y-101514630D01*
X156420745Y-101514631D01*
X156250476Y-101574211D01*
X156097737Y-101670184D01*
X155970184Y-101797737D01*
X155874211Y-101950476D01*
X155814631Y-102120745D01*
X155814630Y-102120750D01*
X155794435Y-102299996D01*
X147275491Y-102299996D01*
X147275789Y-102299522D01*
X147335368Y-102129255D01*
X147335369Y-102129249D01*
X147355565Y-101950003D01*
X147355565Y-101949996D01*
X147335369Y-101770750D01*
X147335368Y-101770745D01*
X147275789Y-101600478D01*
X147179816Y-101447738D01*
X147052262Y-101320184D01*
X147026841Y-101304211D01*
X146899523Y-101224211D01*
X146729254Y-101164631D01*
X146729249Y-101164630D01*
X146550004Y-101144435D01*
X146549996Y-101144435D01*
X146370750Y-101164630D01*
X146370745Y-101164631D01*
X146200476Y-101224211D01*
X146047737Y-101320184D01*
X145920184Y-101447737D01*
X145824211Y-101600476D01*
X145764631Y-101770745D01*
X145764630Y-101770750D01*
X145744435Y-101949996D01*
X140406551Y-101949996D01*
X140395369Y-101850750D01*
X140395368Y-101850745D01*
X140376820Y-101797737D01*
X140335789Y-101680478D01*
X140239816Y-101527738D01*
X140112262Y-101400184D01*
X139959523Y-101304211D01*
X139789254Y-101244631D01*
X139789249Y-101244630D01*
X139610004Y-101224435D01*
X139609996Y-101224435D01*
X139430750Y-101244630D01*
X139430745Y-101244631D01*
X139260476Y-101304211D01*
X139107737Y-101400184D01*
X138980184Y-101527737D01*
X138884211Y-101680476D01*
X138824631Y-101850745D01*
X138824630Y-101850750D01*
X138804435Y-102029996D01*
X131950499Y-102029996D01*
X131950499Y-101281818D01*
X131970184Y-101214780D01*
X132022987Y-101169025D01*
X132092146Y-101159081D01*
X132115454Y-101164778D01*
X132245737Y-101210366D01*
X132245743Y-101210367D01*
X132245745Y-101210368D01*
X132245746Y-101210368D01*
X132245750Y-101210369D01*
X132424996Y-101230565D01*
X132425000Y-101230565D01*
X132425004Y-101230565D01*
X132604249Y-101210369D01*
X132604252Y-101210368D01*
X132604255Y-101210368D01*
X132774522Y-101150789D01*
X132927262Y-101054816D01*
X133054816Y-100927262D01*
X133150789Y-100774522D01*
X133210368Y-100604255D01*
X133210369Y-100604249D01*
X133230565Y-100425003D01*
X133230565Y-100424996D01*
X133210369Y-100245750D01*
X133210368Y-100245745D01*
X133150788Y-100075476D01*
X133090681Y-99979817D01*
X133054816Y-99922738D01*
X132927262Y-99795184D01*
X132853979Y-99749137D01*
X132774523Y-99699211D01*
X132604254Y-99639631D01*
X132604249Y-99639630D01*
X132425004Y-99619435D01*
X132424996Y-99619435D01*
X132245750Y-99639630D01*
X132245745Y-99639631D01*
X132075476Y-99699211D01*
X131922737Y-99795184D01*
X131795184Y-99922737D01*
X131699211Y-100075476D01*
X131639631Y-100245745D01*
X131639630Y-100245750D01*
X131619435Y-100424996D01*
X131619435Y-100425003D01*
X131634914Y-100562388D01*
X131622859Y-100631210D01*
X131575510Y-100682589D01*
X131507900Y-100700213D01*
X131498463Y-100699563D01*
X131497887Y-100699501D01*
X131497879Y-100699500D01*
X131497873Y-100699500D01*
X131497864Y-100699500D01*
X129002129Y-100699500D01*
X129002123Y-100699501D01*
X128942516Y-100705908D01*
X128807671Y-100756202D01*
X128807664Y-100756206D01*
X128692455Y-100842452D01*
X128692452Y-100842455D01*
X128606206Y-100957664D01*
X128606202Y-100957671D01*
X128555908Y-101092517D01*
X128549501Y-101152116D01*
X128549500Y-101152135D01*
X128549500Y-103647870D01*
X128549501Y-103647876D01*
X128555908Y-103707483D01*
X128606202Y-103842328D01*
X128606206Y-103842335D01*
X128692452Y-103957544D01*
X128692455Y-103957547D01*
X128807664Y-104043793D01*
X128807671Y-104043797D01*
X128942517Y-104094091D01*
X128942516Y-104094091D01*
X128949444Y-104094835D01*
X129002127Y-104100500D01*
X129524172Y-104100499D01*
X129591209Y-104120183D01*
X129636964Y-104172987D01*
X129646908Y-104242146D01*
X129617883Y-104305702D01*
X129577972Y-104336219D01*
X129397370Y-104423192D01*
X129186782Y-104566768D01*
X128999952Y-104740121D01*
X128999950Y-104740123D01*
X128841041Y-104939388D01*
X128713608Y-105160109D01*
X128620492Y-105397362D01*
X128620490Y-105397369D01*
X128563777Y-105645845D01*
X128544732Y-105899995D01*
X126500500Y-105899995D01*
X126500500Y-99349997D01*
X148444436Y-99349997D01*
X148444436Y-99350004D01*
X148464631Y-99529250D01*
X148464632Y-99529255D01*
X148524212Y-99699524D01*
X148584320Y-99795184D01*
X148620185Y-99852263D01*
X148747739Y-99979817D01*
X148900479Y-100075790D01*
X149070746Y-100135369D01*
X149070751Y-100135370D01*
X149249997Y-100155566D01*
X149250001Y-100155566D01*
X149250005Y-100155566D01*
X149429250Y-100135370D01*
X149429253Y-100135369D01*
X149429256Y-100135369D01*
X149599523Y-100075790D01*
X149752263Y-99979817D01*
X149879817Y-99852263D01*
X149975790Y-99699523D01*
X150035369Y-99529256D01*
X150035370Y-99529250D01*
X150055566Y-99350004D01*
X150055566Y-99349997D01*
X150043947Y-99246871D01*
X152891310Y-99246871D01*
X152891310Y-99246878D01*
X152911505Y-99426124D01*
X152911506Y-99426129D01*
X152971086Y-99596398D01*
X152998252Y-99639632D01*
X153067059Y-99749137D01*
X153194613Y-99876691D01*
X153347353Y-99972664D01*
X153517620Y-100032243D01*
X153517625Y-100032244D01*
X153696871Y-100052440D01*
X153696875Y-100052440D01*
X153696879Y-100052440D01*
X153876124Y-100032244D01*
X153876127Y-100032243D01*
X153876130Y-100032243D01*
X154046397Y-99972664D01*
X154199137Y-99876691D01*
X154326691Y-99749137D01*
X154422664Y-99596397D01*
X154482243Y-99426130D01*
X154482244Y-99426124D01*
X154502440Y-99246878D01*
X154502440Y-99246871D01*
X154482244Y-99067625D01*
X154482243Y-99067620D01*
X154422663Y-98897351D01*
X154326690Y-98744612D01*
X154199137Y-98617059D01*
X154046398Y-98521086D01*
X153876129Y-98461506D01*
X153876124Y-98461505D01*
X153696879Y-98441310D01*
X153696871Y-98441310D01*
X153517625Y-98461505D01*
X153517620Y-98461506D01*
X153347351Y-98521086D01*
X153194612Y-98617059D01*
X153067059Y-98744612D01*
X152971086Y-98897351D01*
X152911506Y-99067620D01*
X152911505Y-99067625D01*
X152891310Y-99246871D01*
X150043947Y-99246871D01*
X150035370Y-99170751D01*
X150035369Y-99170746D01*
X149999285Y-99067625D01*
X149975790Y-99000479D01*
X149879817Y-98847739D01*
X149752263Y-98720185D01*
X149599524Y-98624212D01*
X149429255Y-98564632D01*
X149429250Y-98564631D01*
X149250005Y-98544436D01*
X149249997Y-98544436D01*
X149070751Y-98564631D01*
X149070746Y-98564632D01*
X148900477Y-98624212D01*
X148747738Y-98720185D01*
X148620185Y-98847738D01*
X148524212Y-99000477D01*
X148464632Y-99170746D01*
X148464631Y-99170751D01*
X148444436Y-99349997D01*
X126500500Y-99349997D01*
X126500500Y-97849996D01*
X138794435Y-97849996D01*
X138794435Y-97850003D01*
X138814630Y-98029249D01*
X138814631Y-98029254D01*
X138874211Y-98199523D01*
X138877110Y-98204136D01*
X138970184Y-98352262D01*
X139097738Y-98479816D01*
X139163419Y-98521086D01*
X139232721Y-98564632D01*
X139250478Y-98575789D01*
X139368421Y-98617059D01*
X139420745Y-98635368D01*
X139420750Y-98635369D01*
X139599996Y-98655565D01*
X139600000Y-98655565D01*
X139600004Y-98655565D01*
X139779249Y-98635369D01*
X139779252Y-98635368D01*
X139779255Y-98635368D01*
X139949522Y-98575789D01*
X140102262Y-98479816D01*
X140229816Y-98352262D01*
X140325789Y-98199522D01*
X140385368Y-98029255D01*
X140397245Y-97923842D01*
X140405565Y-97850003D01*
X140405565Y-97849996D01*
X140385369Y-97670750D01*
X140385368Y-97670745D01*
X140325788Y-97500476D01*
X140259557Y-97395070D01*
X140229816Y-97347738D01*
X140102262Y-97220184D01*
X139949523Y-97124211D01*
X139779254Y-97064631D01*
X139779249Y-97064630D01*
X139600004Y-97044435D01*
X139599996Y-97044435D01*
X139420750Y-97064630D01*
X139420745Y-97064631D01*
X139250476Y-97124211D01*
X139097737Y-97220184D01*
X138970184Y-97347737D01*
X138874211Y-97500476D01*
X138814631Y-97670745D01*
X138814630Y-97670750D01*
X138794435Y-97849996D01*
X126500500Y-97849996D01*
X126500500Y-96899996D01*
X153509435Y-96899996D01*
X153509435Y-96900003D01*
X153529630Y-97079249D01*
X153529631Y-97079254D01*
X153589211Y-97249523D01*
X153650924Y-97347738D01*
X153685184Y-97402262D01*
X153812738Y-97529816D01*
X153965478Y-97625789D01*
X154030334Y-97648483D01*
X154135745Y-97685368D01*
X154135750Y-97685369D01*
X154314996Y-97705565D01*
X154315000Y-97705565D01*
X154315003Y-97705565D01*
X154485833Y-97686317D01*
X154554655Y-97698371D01*
X154606035Y-97745720D01*
X154616759Y-97768583D01*
X154671085Y-97923841D01*
X154737318Y-98029249D01*
X154767059Y-98076582D01*
X154894613Y-98204136D01*
X155047353Y-98300109D01*
X155196398Y-98352262D01*
X155217620Y-98359688D01*
X155217625Y-98359689D01*
X155396871Y-98379885D01*
X155396875Y-98379885D01*
X155396879Y-98379885D01*
X155576124Y-98359689D01*
X155576127Y-98359688D01*
X155576130Y-98359688D01*
X155746397Y-98300109D01*
X155899137Y-98204136D01*
X156026691Y-98076582D01*
X156122664Y-97923842D01*
X156182243Y-97753575D01*
X156183128Y-97745720D01*
X156202440Y-97574323D01*
X156202440Y-97574316D01*
X156182244Y-97395070D01*
X156182243Y-97395065D01*
X156122664Y-97224798D01*
X156026691Y-97072058D01*
X155899137Y-96944504D01*
X155746398Y-96848531D01*
X155576129Y-96788951D01*
X155576124Y-96788950D01*
X155396879Y-96768755D01*
X155396871Y-96768755D01*
X155226041Y-96788002D01*
X155157219Y-96775947D01*
X155105840Y-96728598D01*
X155095116Y-96705736D01*
X155077560Y-96655565D01*
X155040789Y-96550478D01*
X154944816Y-96397738D01*
X154817262Y-96270184D01*
X154664523Y-96174211D01*
X154494254Y-96114631D01*
X154494249Y-96114630D01*
X154315004Y-96094435D01*
X154314996Y-96094435D01*
X154135750Y-96114630D01*
X154135745Y-96114631D01*
X153965476Y-96174211D01*
X153812737Y-96270184D01*
X153685184Y-96397737D01*
X153589211Y-96550476D01*
X153529631Y-96720745D01*
X153529630Y-96720750D01*
X153509435Y-96899996D01*
X126500500Y-96899996D01*
X126500500Y-95849996D01*
X157244435Y-95849996D01*
X157244435Y-95850003D01*
X157264630Y-96029249D01*
X157264631Y-96029254D01*
X157324211Y-96199523D01*
X157368611Y-96270184D01*
X157420184Y-96352262D01*
X157547738Y-96479816D01*
X157638080Y-96536582D01*
X157660192Y-96550476D01*
X157700478Y-96575789D01*
X157870745Y-96635368D01*
X157870750Y-96635369D01*
X158049996Y-96655565D01*
X158050000Y-96655565D01*
X158050004Y-96655565D01*
X158229249Y-96635369D01*
X158229252Y-96635368D01*
X158229255Y-96635368D01*
X158399522Y-96575789D01*
X158552262Y-96479816D01*
X158679816Y-96352262D01*
X158775789Y-96199522D01*
X158835368Y-96029255D01*
X158855565Y-95850000D01*
X158835368Y-95670745D01*
X158775789Y-95500478D01*
X158679816Y-95347738D01*
X158552262Y-95220184D01*
X158399523Y-95124211D01*
X158229254Y-95064631D01*
X158229249Y-95064630D01*
X158050004Y-95044435D01*
X158049996Y-95044435D01*
X157870750Y-95064630D01*
X157870745Y-95064631D01*
X157700476Y-95124211D01*
X157547737Y-95220184D01*
X157420184Y-95347737D01*
X157324211Y-95500476D01*
X157264631Y-95670745D01*
X157264630Y-95670750D01*
X157244435Y-95849996D01*
X126500500Y-95849996D01*
X126500500Y-92899996D01*
X132394435Y-92899996D01*
X132394435Y-92900003D01*
X132414630Y-93079249D01*
X132414631Y-93079254D01*
X132474211Y-93249523D01*
X132570184Y-93402262D01*
X132697738Y-93529816D01*
X132850478Y-93625789D01*
X133020745Y-93685368D01*
X133020750Y-93685369D01*
X133199996Y-93705565D01*
X133200000Y-93705565D01*
X133200004Y-93705565D01*
X133379249Y-93685369D01*
X133379252Y-93685368D01*
X133379255Y-93685368D01*
X133549522Y-93625789D01*
X133702262Y-93529816D01*
X133829816Y-93402262D01*
X133925789Y-93249522D01*
X133985368Y-93079255D01*
X133985369Y-93079249D01*
X134005565Y-92900003D01*
X134005565Y-92899996D01*
X133994298Y-92799996D01*
X160494435Y-92799996D01*
X160494435Y-92800003D01*
X160514630Y-92979249D01*
X160514631Y-92979254D01*
X160574211Y-93149523D01*
X160637045Y-93249522D01*
X160670184Y-93302262D01*
X160797738Y-93429816D01*
X160950478Y-93525789D01*
X161045793Y-93559141D01*
X161120745Y-93585368D01*
X161120750Y-93585369D01*
X161299996Y-93605565D01*
X161300000Y-93605565D01*
X161300004Y-93605565D01*
X161479248Y-93585369D01*
X161479248Y-93585368D01*
X161479255Y-93585368D01*
X161544024Y-93562703D01*
X161613797Y-93559141D01*
X161650947Y-93574752D01*
X161781421Y-93656735D01*
X161781425Y-93656736D01*
X161781426Y-93656737D01*
X161951693Y-93716316D01*
X161951698Y-93716317D01*
X162130944Y-93736513D01*
X162130948Y-93736513D01*
X162130952Y-93736513D01*
X162310197Y-93716317D01*
X162310200Y-93716316D01*
X162310203Y-93716316D01*
X162480470Y-93656737D01*
X162633210Y-93560764D01*
X162760764Y-93433210D01*
X162856737Y-93280470D01*
X162916316Y-93110203D01*
X162931070Y-92979255D01*
X162936513Y-92930951D01*
X162936513Y-92930944D01*
X162916317Y-92751698D01*
X162916316Y-92751693D01*
X162856736Y-92581424D01*
X162774457Y-92450478D01*
X162760764Y-92428686D01*
X162633210Y-92301132D01*
X162480471Y-92205159D01*
X162310202Y-92145579D01*
X162310197Y-92145578D01*
X162130952Y-92125383D01*
X162130944Y-92125383D01*
X161951698Y-92145578D01*
X161951690Y-92145580D01*
X161886924Y-92168243D01*
X161817145Y-92171804D01*
X161779999Y-92156195D01*
X161649522Y-92074211D01*
X161479254Y-92014631D01*
X161479249Y-92014630D01*
X161300004Y-91994435D01*
X161299996Y-91994435D01*
X161120750Y-92014630D01*
X161120745Y-92014631D01*
X160950476Y-92074211D01*
X160797737Y-92170184D01*
X160670184Y-92297737D01*
X160574211Y-92450476D01*
X160514631Y-92620745D01*
X160514630Y-92620750D01*
X160494435Y-92799996D01*
X133994298Y-92799996D01*
X133985369Y-92720750D01*
X133985368Y-92720745D01*
X133925788Y-92550476D01*
X133862955Y-92450478D01*
X133829816Y-92397738D01*
X133702262Y-92270184D01*
X133549523Y-92174211D01*
X133379254Y-92114631D01*
X133379249Y-92114630D01*
X133200004Y-92094435D01*
X133199996Y-92094435D01*
X133020750Y-92114630D01*
X133020745Y-92114631D01*
X132850476Y-92174211D01*
X132697737Y-92270184D01*
X132570184Y-92397737D01*
X132474211Y-92550476D01*
X132414631Y-92720745D01*
X132414630Y-92720750D01*
X132394435Y-92899996D01*
X126500500Y-92899996D01*
X126500500Y-88174996D01*
X131569435Y-88174996D01*
X131569435Y-88175003D01*
X131589630Y-88354249D01*
X131589631Y-88354254D01*
X131649211Y-88524523D01*
X131696637Y-88600000D01*
X131745184Y-88677262D01*
X131872738Y-88804816D01*
X132025478Y-88900789D01*
X132164749Y-88949522D01*
X132195745Y-88960368D01*
X132195750Y-88960369D01*
X132374996Y-88980565D01*
X132375000Y-88980565D01*
X132375004Y-88980565D01*
X132554249Y-88960369D01*
X132554252Y-88960368D01*
X132554255Y-88960368D01*
X132724522Y-88900789D01*
X132877262Y-88804816D01*
X133004816Y-88677262D01*
X133053365Y-88599996D01*
X168294435Y-88599996D01*
X168294435Y-88600003D01*
X168314630Y-88779249D01*
X168314631Y-88779254D01*
X168374211Y-88949523D01*
X168470184Y-89102262D01*
X168597738Y-89229816D01*
X168750478Y-89325789D01*
X168920745Y-89385368D01*
X168920750Y-89385369D01*
X169099996Y-89405565D01*
X169100000Y-89405565D01*
X169100004Y-89405565D01*
X169279249Y-89385369D01*
X169279252Y-89385368D01*
X169279255Y-89385368D01*
X169449522Y-89325789D01*
X169602262Y-89229816D01*
X169729816Y-89102262D01*
X169825789Y-88949522D01*
X169885368Y-88779255D01*
X169905565Y-88600000D01*
X169885368Y-88420745D01*
X169825789Y-88250478D01*
X169729816Y-88097738D01*
X169602262Y-87970184D01*
X169449523Y-87874211D01*
X169279254Y-87814631D01*
X169279249Y-87814630D01*
X169100004Y-87794435D01*
X169099996Y-87794435D01*
X168920750Y-87814630D01*
X168920745Y-87814631D01*
X168750476Y-87874211D01*
X168597737Y-87970184D01*
X168470184Y-88097737D01*
X168374211Y-88250476D01*
X168314631Y-88420745D01*
X168314630Y-88420750D01*
X168294435Y-88599996D01*
X133053365Y-88599996D01*
X133100789Y-88524522D01*
X133160368Y-88354255D01*
X133180565Y-88175000D01*
X133164832Y-88035368D01*
X133160369Y-87995750D01*
X133160368Y-87995745D01*
X133151424Y-87970184D01*
X133100789Y-87825478D01*
X133093973Y-87814631D01*
X133004815Y-87672737D01*
X132877262Y-87545184D01*
X132724523Y-87449211D01*
X132554254Y-87389631D01*
X132554249Y-87389630D01*
X132375004Y-87369435D01*
X132374996Y-87369435D01*
X132195750Y-87389630D01*
X132195745Y-87389631D01*
X132025476Y-87449211D01*
X131872737Y-87545184D01*
X131745184Y-87672737D01*
X131649211Y-87825476D01*
X131589631Y-87995745D01*
X131589630Y-87995750D01*
X131569435Y-88174996D01*
X126500500Y-88174996D01*
X126500500Y-86599996D01*
X127594435Y-86599996D01*
X127594435Y-86600003D01*
X127614630Y-86779249D01*
X127614631Y-86779254D01*
X127674211Y-86949523D01*
X127750384Y-87070750D01*
X127770184Y-87102262D01*
X127897738Y-87229816D01*
X128050478Y-87325789D01*
X128061984Y-87329815D01*
X128220745Y-87385368D01*
X128220750Y-87385369D01*
X128399996Y-87405565D01*
X128400000Y-87405565D01*
X128400004Y-87405565D01*
X128579249Y-87385369D01*
X128579252Y-87385368D01*
X128579255Y-87385368D01*
X128749522Y-87325789D01*
X128902262Y-87229816D01*
X129029816Y-87102262D01*
X129125789Y-86949522D01*
X129185368Y-86779255D01*
X129188919Y-86747738D01*
X129194298Y-86699996D01*
X136144435Y-86699996D01*
X136144435Y-86700003D01*
X136164630Y-86879249D01*
X136164631Y-86879254D01*
X136224211Y-87049523D01*
X136320184Y-87202262D01*
X136447738Y-87329816D01*
X136510791Y-87369435D01*
X136542934Y-87389632D01*
X136600478Y-87425789D01*
X136770739Y-87485366D01*
X136770745Y-87485368D01*
X136770750Y-87485369D01*
X136949996Y-87505565D01*
X136950000Y-87505565D01*
X136950004Y-87505565D01*
X137129249Y-87485369D01*
X137129251Y-87485368D01*
X137129255Y-87485368D01*
X137129258Y-87485366D01*
X137129262Y-87485366D01*
X137259045Y-87439953D01*
X137328824Y-87436391D01*
X137340955Y-87439953D01*
X137470737Y-87485366D01*
X137470743Y-87485367D01*
X137470745Y-87485368D01*
X137470746Y-87485368D01*
X137470750Y-87485369D01*
X137649996Y-87505565D01*
X137650000Y-87505565D01*
X137650004Y-87505565D01*
X137829249Y-87485369D01*
X137829252Y-87485368D01*
X137829255Y-87485368D01*
X137999522Y-87425789D01*
X138152262Y-87329816D01*
X138232082Y-87249996D01*
X161694435Y-87249996D01*
X161694435Y-87250003D01*
X161714630Y-87429249D01*
X161714631Y-87429254D01*
X161774211Y-87599523D01*
X161870184Y-87752262D01*
X161997738Y-87879816D01*
X162088080Y-87936582D01*
X162141557Y-87970184D01*
X162150478Y-87975789D01*
X162320745Y-88035368D01*
X162320750Y-88035369D01*
X162499996Y-88055565D01*
X162500000Y-88055565D01*
X162500004Y-88055565D01*
X162679249Y-88035369D01*
X162679252Y-88035368D01*
X162679255Y-88035368D01*
X162849522Y-87975789D01*
X163002262Y-87879816D01*
X163129816Y-87752262D01*
X163225789Y-87599522D01*
X163285368Y-87429255D01*
X163285759Y-87425788D01*
X163305565Y-87250003D01*
X163305565Y-87249996D01*
X163285369Y-87070750D01*
X163285368Y-87070745D01*
X163277942Y-87049522D01*
X163225789Y-86900478D01*
X163129816Y-86747738D01*
X163002262Y-86620184D01*
X162970144Y-86600003D01*
X162849523Y-86524211D01*
X162679254Y-86464631D01*
X162679249Y-86464630D01*
X162500004Y-86444435D01*
X162499996Y-86444435D01*
X162320750Y-86464630D01*
X162320745Y-86464631D01*
X162150476Y-86524211D01*
X161997737Y-86620184D01*
X161870184Y-86747737D01*
X161774211Y-86900476D01*
X161714631Y-87070745D01*
X161714630Y-87070750D01*
X161694435Y-87249996D01*
X138232082Y-87249996D01*
X138279816Y-87202262D01*
X138375789Y-87049522D01*
X138435368Y-86879255D01*
X138435369Y-86879249D01*
X138455565Y-86700003D01*
X138455565Y-86699996D01*
X138435369Y-86520750D01*
X138435368Y-86520745D01*
X138415733Y-86464631D01*
X138375789Y-86350478D01*
X138279816Y-86197738D01*
X138152262Y-86070184D01*
X137999523Y-85974211D01*
X137829254Y-85914631D01*
X137829249Y-85914630D01*
X137650004Y-85894435D01*
X137649996Y-85894435D01*
X137470750Y-85914630D01*
X137470742Y-85914632D01*
X137340954Y-85960047D01*
X137271175Y-85963608D01*
X137259046Y-85960047D01*
X137129257Y-85914632D01*
X137129249Y-85914630D01*
X136950004Y-85894435D01*
X136949996Y-85894435D01*
X136770750Y-85914630D01*
X136770745Y-85914631D01*
X136600476Y-85974211D01*
X136447737Y-86070184D01*
X136320184Y-86197737D01*
X136224211Y-86350476D01*
X136164631Y-86520745D01*
X136164630Y-86520750D01*
X136144435Y-86699996D01*
X129194298Y-86699996D01*
X129205565Y-86600003D01*
X129205565Y-86599996D01*
X129185369Y-86420750D01*
X129185368Y-86420745D01*
X129125789Y-86250478D01*
X129029816Y-86097738D01*
X128902262Y-85970184D01*
X128813852Y-85914632D01*
X128749523Y-85874211D01*
X128579254Y-85814631D01*
X128579249Y-85814630D01*
X128400004Y-85794435D01*
X128399996Y-85794435D01*
X128220750Y-85814630D01*
X128220745Y-85814631D01*
X128050476Y-85874211D01*
X127897737Y-85970184D01*
X127770184Y-86097737D01*
X127674211Y-86250476D01*
X127614631Y-86420745D01*
X127614630Y-86420750D01*
X127594435Y-86599996D01*
X126500500Y-86599996D01*
X126500500Y-83099996D01*
X127269435Y-83099996D01*
X127269435Y-83100003D01*
X127289630Y-83279249D01*
X127289631Y-83279254D01*
X127349211Y-83449523D01*
X127432675Y-83582354D01*
X127445184Y-83602262D01*
X127572738Y-83729816D01*
X127722963Y-83824209D01*
X127725478Y-83825789D01*
X127893636Y-83884630D01*
X127950412Y-83925352D01*
X127976160Y-83990305D01*
X127962704Y-84058866D01*
X127957676Y-84067644D01*
X127874211Y-84200476D01*
X127814631Y-84370745D01*
X127814630Y-84370750D01*
X127794435Y-84549996D01*
X127794435Y-84550003D01*
X127814630Y-84729249D01*
X127814631Y-84729254D01*
X127874211Y-84899523D01*
X127956080Y-85029815D01*
X127970184Y-85052262D01*
X128097738Y-85179816D01*
X128250478Y-85275789D01*
X128420745Y-85335368D01*
X128420750Y-85335369D01*
X128599996Y-85355565D01*
X128600000Y-85355565D01*
X128600004Y-85355565D01*
X128779249Y-85335369D01*
X128779252Y-85335368D01*
X128779255Y-85335368D01*
X128949522Y-85275789D01*
X129102262Y-85179816D01*
X129229816Y-85052262D01*
X129325789Y-84899522D01*
X129327372Y-84894999D01*
X152850000Y-84894999D01*
X152850001Y-84895000D01*
X152850002Y-84895000D01*
X154749998Y-84895000D01*
X154749999Y-84895000D01*
X154749999Y-83999996D01*
X158194435Y-83999996D01*
X158194435Y-84000003D01*
X158214630Y-84179249D01*
X158214631Y-84179254D01*
X158274211Y-84349523D01*
X158370184Y-84502262D01*
X158497738Y-84629816D01*
X158650478Y-84725789D01*
X158718306Y-84749523D01*
X158820745Y-84785368D01*
X158820750Y-84785369D01*
X158999996Y-84805565D01*
X159000000Y-84805565D01*
X159000004Y-84805565D01*
X159179249Y-84785369D01*
X159179252Y-84785368D01*
X159179255Y-84785368D01*
X159349522Y-84725789D01*
X159502262Y-84629816D01*
X159533145Y-84598932D01*
X159594465Y-84565448D01*
X159664157Y-84570432D01*
X159720091Y-84612302D01*
X159737866Y-84645659D01*
X159774209Y-84749519D01*
X159796735Y-84785369D01*
X159870184Y-84902262D01*
X159997738Y-85029816D01*
X160150478Y-85125789D01*
X160304878Y-85179816D01*
X160320745Y-85185368D01*
X160320750Y-85185369D01*
X160499996Y-85205565D01*
X160500000Y-85205565D01*
X160500004Y-85205565D01*
X160679249Y-85185369D01*
X160679252Y-85185368D01*
X160679255Y-85185368D01*
X160849522Y-85125789D01*
X161002262Y-85029816D01*
X161129816Y-84902262D01*
X161225789Y-84749522D01*
X161285368Y-84579255D01*
X161288664Y-84550003D01*
X161305565Y-84400003D01*
X161305565Y-84399996D01*
X161285369Y-84220750D01*
X161285368Y-84220745D01*
X161270848Y-84179249D01*
X161225789Y-84050478D01*
X161224067Y-84047738D01*
X161147167Y-83925352D01*
X161131235Y-83899996D01*
X164994435Y-83899996D01*
X164994435Y-83900003D01*
X165014630Y-84079249D01*
X165014631Y-84079254D01*
X165074211Y-84249523D01*
X165150384Y-84370750D01*
X165170184Y-84402262D01*
X165297738Y-84529816D01*
X165354446Y-84565448D01*
X165429013Y-84612302D01*
X165450478Y-84625789D01*
X165620745Y-84685368D01*
X165620750Y-84685369D01*
X165799996Y-84705565D01*
X165800000Y-84705565D01*
X165800004Y-84705565D01*
X165979249Y-84685369D01*
X165979252Y-84685368D01*
X165979255Y-84685368D01*
X166149522Y-84625789D01*
X166302262Y-84529816D01*
X166429816Y-84402262D01*
X166525789Y-84249522D01*
X166585368Y-84079255D01*
X166585369Y-84079249D01*
X166605565Y-83900003D01*
X166605565Y-83899996D01*
X166585369Y-83720750D01*
X166585368Y-83720745D01*
X166564005Y-83659694D01*
X166525789Y-83550478D01*
X166429816Y-83397738D01*
X166302262Y-83270184D01*
X166213852Y-83214632D01*
X166149523Y-83174211D01*
X165979254Y-83114631D01*
X165979249Y-83114630D01*
X165800004Y-83094435D01*
X165799996Y-83094435D01*
X165620750Y-83114630D01*
X165620745Y-83114631D01*
X165450476Y-83174211D01*
X165297737Y-83270184D01*
X165170184Y-83397737D01*
X165074211Y-83550476D01*
X165014631Y-83720745D01*
X165014630Y-83720750D01*
X164994435Y-83899996D01*
X161131235Y-83899996D01*
X161129816Y-83897738D01*
X161002262Y-83770184D01*
X160938017Y-83729816D01*
X160849523Y-83674211D01*
X160679254Y-83614631D01*
X160679250Y-83614630D01*
X160627174Y-83608763D01*
X160562760Y-83581696D01*
X160523205Y-83524101D01*
X160521068Y-83454264D01*
X160524017Y-83444588D01*
X160585366Y-83269262D01*
X160585369Y-83269249D01*
X160605565Y-83090003D01*
X160605565Y-83089996D01*
X160585369Y-82910750D01*
X160585368Y-82910745D01*
X160525788Y-82740476D01*
X160436099Y-82597738D01*
X160429816Y-82587738D01*
X160302262Y-82460184D01*
X160149523Y-82364211D01*
X159979254Y-82304631D01*
X159979249Y-82304630D01*
X159800004Y-82284435D01*
X159799996Y-82284435D01*
X159620750Y-82304630D01*
X159620745Y-82304631D01*
X159450476Y-82364211D01*
X159297737Y-82460184D01*
X159170184Y-82587737D01*
X159074211Y-82740476D01*
X159014631Y-82910745D01*
X159014630Y-82910750D01*
X158993655Y-83096919D01*
X158990808Y-83096598D01*
X158974750Y-83151287D01*
X158921946Y-83197042D01*
X158884319Y-83207468D01*
X158820749Y-83214630D01*
X158820745Y-83214631D01*
X158650476Y-83274211D01*
X158497737Y-83370184D01*
X158370184Y-83497737D01*
X158274211Y-83650476D01*
X158214631Y-83820745D01*
X158214630Y-83820750D01*
X158194435Y-83999996D01*
X154749999Y-83999996D01*
X154750000Y-82805000D01*
X152850000Y-82805000D01*
X152850000Y-84894999D01*
X129327372Y-84894999D01*
X129385368Y-84729255D01*
X129385759Y-84725788D01*
X129405565Y-84550003D01*
X129405565Y-84549996D01*
X129385369Y-84370750D01*
X129385368Y-84370745D01*
X129377942Y-84349522D01*
X129325789Y-84200478D01*
X129229816Y-84047738D01*
X129102262Y-83920184D01*
X129045678Y-83884630D01*
X128949519Y-83824209D01*
X128781362Y-83765368D01*
X128724586Y-83724647D01*
X128698839Y-83659694D01*
X128712295Y-83591132D01*
X128717313Y-83582372D01*
X128784242Y-83475856D01*
X128800788Y-83449524D01*
X128818909Y-83397737D01*
X128860368Y-83279255D01*
X128860369Y-83279249D01*
X128880565Y-83100003D01*
X128880565Y-83099996D01*
X128860369Y-82920750D01*
X128860368Y-82920745D01*
X128800788Y-82750476D01*
X128704815Y-82597737D01*
X128577262Y-82470184D01*
X128424523Y-82374211D01*
X128254254Y-82314631D01*
X128254249Y-82314630D01*
X128075004Y-82294435D01*
X128074996Y-82294435D01*
X127895750Y-82314630D01*
X127895745Y-82314631D01*
X127725476Y-82374211D01*
X127572737Y-82470184D01*
X127445184Y-82597737D01*
X127349211Y-82750476D01*
X127289631Y-82920745D01*
X127289630Y-82920750D01*
X127269435Y-83099996D01*
X126500500Y-83099996D01*
X126500500Y-81249996D01*
X129944435Y-81249996D01*
X129944435Y-81250003D01*
X129964631Y-81429252D01*
X130001299Y-81534046D01*
X130004860Y-81603825D01*
X130001299Y-81615954D01*
X129964631Y-81720747D01*
X129944435Y-81899996D01*
X129944435Y-81900003D01*
X129964630Y-82079246D01*
X129964631Y-82079252D01*
X130004674Y-82193690D01*
X130008235Y-82263469D01*
X130004674Y-82275598D01*
X129969631Y-82375747D01*
X129949435Y-82554996D01*
X129949435Y-82555003D01*
X129969630Y-82734249D01*
X129969631Y-82734254D01*
X130029211Y-82904523D01*
X130105408Y-83025789D01*
X130125184Y-83057262D01*
X130252738Y-83184816D01*
X130300190Y-83214632D01*
X130403036Y-83279255D01*
X130405478Y-83280789D01*
X130575745Y-83340368D01*
X130575750Y-83340369D01*
X130754996Y-83360565D01*
X130755000Y-83360565D01*
X130755004Y-83360565D01*
X130934249Y-83340369D01*
X130934252Y-83340368D01*
X130934255Y-83340368D01*
X131104522Y-83280789D01*
X131257262Y-83184816D01*
X131384816Y-83057262D01*
X131480789Y-82904522D01*
X131540368Y-82734255D01*
X131555750Y-82597737D01*
X131560565Y-82555003D01*
X131560565Y-82554996D01*
X131540369Y-82375750D01*
X131540368Y-82375747D01*
X131540368Y-82375745D01*
X131513862Y-82299996D01*
X136494435Y-82299996D01*
X136494435Y-82300003D01*
X136514630Y-82479249D01*
X136514631Y-82479254D01*
X136574211Y-82649523D01*
X136637646Y-82750478D01*
X136670184Y-82802262D01*
X136797738Y-82929816D01*
X136950478Y-83025789D01*
X137040423Y-83057262D01*
X137120745Y-83085368D01*
X137120750Y-83085369D01*
X137299996Y-83105565D01*
X137300000Y-83105565D01*
X137300004Y-83105565D01*
X137479249Y-83085369D01*
X137479252Y-83085368D01*
X137479255Y-83085368D01*
X137649522Y-83025789D01*
X137802262Y-82929816D01*
X137929816Y-82802262D01*
X138025789Y-82649522D01*
X138085368Y-82479255D01*
X138097030Y-82375750D01*
X138105565Y-82300003D01*
X138105565Y-82299996D01*
X138085369Y-82120750D01*
X138085368Y-82120745D01*
X138025788Y-81950476D01*
X137929815Y-81797737D01*
X137802262Y-81670184D01*
X137649523Y-81574211D01*
X137479254Y-81514631D01*
X137479249Y-81514630D01*
X137300004Y-81494435D01*
X137299996Y-81494435D01*
X137120750Y-81514630D01*
X137120745Y-81514631D01*
X136950476Y-81574211D01*
X136797737Y-81670184D01*
X136670184Y-81797737D01*
X136574211Y-81950476D01*
X136514631Y-82120745D01*
X136514630Y-82120750D01*
X136494435Y-82299996D01*
X131513862Y-82299996D01*
X131500323Y-82261306D01*
X131496761Y-82191532D01*
X131500316Y-82179424D01*
X131535368Y-82079255D01*
X131555565Y-81900000D01*
X131535368Y-81720745D01*
X131498698Y-81615951D01*
X131495136Y-81546177D01*
X131498692Y-81534067D01*
X131535368Y-81429255D01*
X131543671Y-81355565D01*
X131555565Y-81250003D01*
X131555565Y-81249996D01*
X131535369Y-81070750D01*
X131535368Y-81070745D01*
X131475789Y-80900478D01*
X131475188Y-80899522D01*
X131379815Y-80747737D01*
X131252262Y-80620184D01*
X131140559Y-80549996D01*
X159444435Y-80549996D01*
X159444435Y-80550003D01*
X159464630Y-80729249D01*
X159464631Y-80729254D01*
X159524211Y-80899523D01*
X159620184Y-81052262D01*
X159747738Y-81179816D01*
X159900478Y-81275789D01*
X160070745Y-81335368D01*
X160070750Y-81335369D01*
X160249996Y-81355565D01*
X160250000Y-81355565D01*
X160250004Y-81355565D01*
X160429249Y-81335369D01*
X160429252Y-81335368D01*
X160429255Y-81335368D01*
X160599522Y-81275789D01*
X160752262Y-81179816D01*
X160879816Y-81052262D01*
X160975789Y-80899522D01*
X161035368Y-80729255D01*
X161035369Y-80729249D01*
X161055565Y-80550003D01*
X161055565Y-80549996D01*
X161035369Y-80370750D01*
X161035368Y-80370745D01*
X160975788Y-80200476D01*
X160879815Y-80047737D01*
X160752262Y-79920184D01*
X160599523Y-79824211D01*
X160429254Y-79764631D01*
X160429249Y-79764630D01*
X160250004Y-79744435D01*
X160249996Y-79744435D01*
X160070750Y-79764630D01*
X160070745Y-79764631D01*
X159900476Y-79824211D01*
X159747737Y-79920184D01*
X159620184Y-80047737D01*
X159524211Y-80200476D01*
X159464631Y-80370745D01*
X159464630Y-80370750D01*
X159444435Y-80549996D01*
X131140559Y-80549996D01*
X131099523Y-80524211D01*
X130929254Y-80464631D01*
X130929249Y-80464630D01*
X130750004Y-80444435D01*
X130749996Y-80444435D01*
X130570750Y-80464630D01*
X130570745Y-80464631D01*
X130400476Y-80524211D01*
X130247737Y-80620184D01*
X130120184Y-80747737D01*
X130024211Y-80900476D01*
X129964631Y-81070745D01*
X129964630Y-81070750D01*
X129944435Y-81249996D01*
X126500500Y-81249996D01*
X126500500Y-78899996D01*
X136119435Y-78899996D01*
X136119435Y-78900003D01*
X136139630Y-79079249D01*
X136139631Y-79079254D01*
X136199211Y-79249523D01*
X136295184Y-79402262D01*
X136422738Y-79529816D01*
X136575478Y-79625789D01*
X136745745Y-79685368D01*
X136745750Y-79685369D01*
X136924996Y-79705565D01*
X136925000Y-79705565D01*
X136925004Y-79705565D01*
X137104249Y-79685369D01*
X137104252Y-79685368D01*
X137104255Y-79685368D01*
X137274522Y-79625789D01*
X137427262Y-79529816D01*
X137554816Y-79402262D01*
X137650789Y-79249522D01*
X137710368Y-79079255D01*
X137730565Y-78900000D01*
X137710368Y-78720745D01*
X137650789Y-78550478D01*
X137554816Y-78397738D01*
X137427262Y-78270184D01*
X137274523Y-78174211D01*
X137104254Y-78114631D01*
X137104249Y-78114630D01*
X136925004Y-78094435D01*
X136924996Y-78094435D01*
X136745750Y-78114630D01*
X136745745Y-78114631D01*
X136575476Y-78174211D01*
X136422737Y-78270184D01*
X136295184Y-78397737D01*
X136199211Y-78550476D01*
X136139631Y-78720745D01*
X136139630Y-78720750D01*
X136119435Y-78899996D01*
X126500500Y-78899996D01*
X126500500Y-75374000D01*
X126520185Y-75306961D01*
X126572989Y-75261206D01*
X126624500Y-75250000D01*
X170625500Y-75250000D01*
X170692539Y-75269685D01*
G37*
%TD.AperFunction*%
%TD*%
M02*
