M48
; DRILL file {KiCad 8.0.4} date 2024-07-23T16:26:44+0200
; FORMAT={-:-/ absolute / inch / decimal}
; #@! TF.CreationDate,2024-07-23T16:26:44+02:00
; #@! TF.GenerationSoftware,Kicad,Pcbnew,8.0.4
; #@! TF.FileFunction,Plated,1,4,PTH
FMAT,2
INCH
; #@! TA.AperFunction,Plated,PTH,ViaDrill
T1C0.0118
; #@! TA.AperFunction,Plated,PTH,ComponentDrill
T2C0.0118
; #@! TA.AperFunction,Plated,PTH,ViaDrill
T3C0.0197
; #@! TA.AperFunction,Plated,PTH,ComponentDrill
T4C0.0236
; #@! TA.AperFunction,Plated,PTH,ComponentDrill
T5C0.0276
; #@! TA.AperFunction,Plated,PTH,ComponentDrill
T6C0.0394
; #@! TA.AperFunction,Plated,PTH,ComponentDrill
T7C0.0472
; #@! TA.AperFunction,Plated,PTH,ComponentDrill
T8C0.0748
%
G90
G05
T1
X5.0157Y-2.9882
X5.0157Y-3.0315
X5.0256Y-5.5
X5.0276Y-5.5886
X5.0295Y-5.6791
X5.0295Y-5.7717
X5.0315Y-5.8622
X5.0423Y-3.2717
X5.0551Y-3.4094
X5.0571Y-3.6535
X5.063Y-3.3287
X5.0709Y-2.9882
X5.0945Y-4.2657
X5.0984Y-3.122
X5.1102Y-3.5197
X5.1122Y-5.5709
X5.1142Y-4.8819
X5.1181Y-3.6535
X5.122Y-2.9882
X5.122Y-4.6339
X5.122Y-4.6772
X5.122Y-4.7205
X5.1299Y-5.0748
X5.1339Y-5.311
X5.1417Y-5.4995
X5.1417Y-5.5453
X5.1457Y-3.4685
X5.1476Y-3.1988
X5.1476Y-3.2244
X5.1478Y-3.2502
X5.1496Y-4.2657
X5.1535Y-5.7283
X5.1535Y-5.7992
X5.1535Y-5.8661
X5.1732Y-3.5197
X5.1772Y-5.3543
X5.185Y-5.5472
X5.2047Y-4.2657
X5.2087Y-3.2244
X5.2116Y-3.4715
X5.2136Y-3.9537
X5.2165Y-5.311
X5.2244Y-4.3346
X5.2244Y-4.4173
X5.2244Y-4.5
X5.2303Y-5.0748
X5.2343Y-5.6594
X5.2382Y-5.8504
X5.2441Y-3.6575
X5.248Y-3.3307
X5.2638Y-3.2244
X5.2657Y-4.9577
X5.2657Y-4.9862
X5.2657Y-5.8504
X5.2795Y-4.3346
X5.2795Y-4.4173
X5.2795Y-4.5
X5.2817Y-4.1675
X5.2835Y-3.1142
X5.3012Y-5.3602
X5.3031Y-3.6063
X5.3169Y-5.8504
X5.3189Y-3.2244
X5.3228Y-3.1594
X5.3248Y-5.0748
X5.3268Y-5.6693
X5.3287Y-4.0748
X5.3425Y-4.8661
X5.3425Y-4.9409
X5.3445Y-5.8504
X5.3465Y-3.7874
X5.3504Y-3.4921
X5.3504Y-3.5472
X5.3504Y-3.6063
X5.3661Y-4.1673
X5.3681Y-5.3071
X5.3681Y-5.3602
X5.3898Y-4.8622
X5.3898Y-5.6929
X5.3907Y-3.1063
X5.3917Y-3.4134
X5.4055Y-3.2402
X5.4055Y-4.9331
X5.4134Y-5.5472
X5.4134Y-5.7992
X5.4134Y-5.8661
X5.4193Y-3.1811
X5.4193Y-3.4134
X5.4193Y-5.6929
X5.4201Y-4.6407
X5.4272Y-5.3071
X5.4272Y-5.3602
X5.435Y-4.2264
X5.4448Y-4.685
X5.4449Y-5.1102
X5.4449Y-5.5748
X5.4453Y-4.9728
X5.4744Y-5.2609
X5.485Y-5.1012
X5.4961Y-3.8524
X5.4965Y-4.0169
X5.498Y-4.0571
X5.498Y-4.0965
X5.502Y-4.2677
X5.5069Y-4.4709
X5.5118Y-5.6811
X5.5157Y-5.7795
X5.5276Y-5.7165
X5.5276Y-5.7441
X5.5394Y-5.4055
X5.5512Y-4.2953
X5.5669Y-4.8228
X5.5726Y-4.4155
X5.5767Y-4.6772
X5.5807Y-4.9252
X5.5867Y-4.7874
X5.5906Y-3.1496
X5.5906Y-3.2283
X5.5906Y-3.2972
X5.5906Y-3.376
X5.5906Y-3.4449
X5.5906Y-3.5236
X5.6063Y-4.3248
X5.6063Y-4.4035
X5.6063Y-5.0689
X5.6085Y-5.0375
X5.6102Y-4.4676
X5.6102Y-4.8897
X5.6105Y-5.1001
X5.6153Y-4.8003
X5.622Y-5.3189
X5.622Y-5.4055
X5.624Y-4.939
X5.6476Y-4.8012
X5.649Y-5.0978
X5.6504Y-4.6969
X5.6614Y-4.4685
X5.6736Y-5.3967
X5.6772Y-4.2087
X5.6791Y-4.8012
X5.689Y-3.1496
X5.689Y-3.2283
X5.689Y-3.2972
X5.689Y-3.376
X5.689Y-3.4449
X5.689Y-3.5236
X5.7067Y-4.4961
X5.7244Y-5.439
X5.7274Y-5.2835
X5.7274Y-5.3307
X5.7303Y-4.7343
X5.7362Y-4.9469
X5.7402Y-4.2205
X5.7404Y-4.3012
X5.746Y-5.1933
X5.7579Y-4.561
X5.7598Y-4.9222
X5.7693Y-4.7267
X5.7697Y-4.0138
X5.7736Y-5.1831
X5.7766Y-4.378
X5.7795Y-4.872
X5.7934Y-4.6299
X5.7972Y-3.9469
X5.8067Y-3.5303
X5.8071Y-3.4409
X5.8109Y-4.2702
X5.811Y-3.8425
X5.811Y-5.2117
X5.8169Y-3.1732
X5.8169Y-4.3189
X5.8228Y-4.4673
X5.8245Y-4.438
X5.8327Y-4.1436
X5.8365Y-4.7086
X5.8376Y-4.8494
X5.8504Y-4.9921
X5.8553Y-4.4637
X5.8583Y-4.5984
X5.86Y-4.7425
X5.8617Y-5.1009
X5.8709Y-4.1342
X5.874Y-3.813
X5.8751Y-4.8812
X5.876Y-3.9114
X5.8799Y-4.7126
X5.8799Y-5.6339
X5.8799Y-5.6772
X5.8799Y-5.7224
X5.886Y-5.0781
X5.8957Y-4.1181
X5.8958Y-4.6811
X5.9035Y-3.1732
X5.9114Y-4.2835
X5.9123Y-5.2115
X5.9291Y-3.6614
X5.939Y-3.5039
X5.939Y-3.5433
X5.939Y-3.7953
X5.939Y-5.248
X5.9409Y-5.6339
X5.9409Y-5.6772
X5.9409Y-5.7224
X5.9449Y-3.2283
X5.9449Y-3.2677
X5.9449Y-3.3071
X5.9449Y-3.3465
X5.9449Y-3.3858
X5.9449Y-3.4252
X5.9449Y-3.4646
X5.9488Y-4.9921
X5.9508Y-4.8937
X5.9596Y-4.5344
X5.9626Y-4.9272
X5.9744Y-3.6614
X5.9762Y-4.7833
X5.9803Y-5.3622
X5.9843Y-3.2283
X5.9843Y-3.3858
X5.9843Y-3.4252
X5.9921Y-4.5492
X5.9921Y-5.248
X5.9961Y-4.2426
X6.0Y-4.9606
X6.0Y-5.6339
X6.0Y-5.6772
X6.0Y-5.7224
X6.0039Y-3.0394
X6.0039Y-3.0709
X6.0166Y-4.5779
X6.0177Y-3.5551
X6.0177Y-3.6614
X6.0236Y-3.2283
X6.0236Y-3.4252
X6.0236Y-4.3445
X6.0345Y-4.4597
X6.0345Y-4.4887
X6.0511Y-3.9074
X6.0591Y-5.498
X6.0591Y-5.5551
X6.0591Y-5.6161
X6.0591Y-5.6752
X6.061Y-3.6614
X6.063Y-3.2283
X6.0641Y-4.932
X6.0754Y-3.815
X6.0787Y-4.5591
X6.0787Y-4.6063
X6.081Y-5.0248
X6.1014Y-4.4405
X6.1024Y-3.2283
X6.1043Y-3.6614
X6.1102Y-4.3219
X6.118Y-3.8415
X6.1181Y-5.2106
X6.1181Y-5.498
X6.1181Y-5.5551
X6.1181Y-5.6161
X6.1181Y-5.6752
X6.1201Y-4.6378
X6.122Y-3.2677
X6.122Y-3.3071
X6.122Y-3.3465
X6.122Y-3.3858
X6.122Y-3.4252
X6.122Y-3.4646
X6.122Y-3.5039
X6.122Y-3.5453
X6.1378Y-4.4528
X6.1475Y-4.0966
X6.1496Y-4.1339
X6.1496Y-4.6378
X6.1614Y-4.3219
X6.1654Y-4.0276
X6.1673Y-3.937
X6.1772Y-4.1348
X6.1772Y-5.498
X6.1772Y-5.5551
X6.1772Y-5.6161
X6.1772Y-5.6752
X6.1772Y-5.7362
X6.1988Y-4.121
X6.2087Y-4.4567
X6.2106Y-4.8091
X6.2106Y-4.8681
X6.2106Y-4.9272
X6.2126Y-5.1378
X6.2136Y-4.3219
X6.2147Y-4.5454
X6.2165Y-4.4055
X6.2165Y-5.0354
X6.2205Y-5.0748
X6.2224Y-3.7736
X6.2421Y-4.0748
X6.2441Y-4.3622
X6.2539Y-5.5984
X6.2539Y-5.6299
X6.2539Y-5.6614
X6.2539Y-5.6929
X6.2539Y-5.7244
X6.2598Y-3.3071
X6.2598Y-4.7992
X6.2598Y-4.8524
X6.2736Y-4.0807
X6.2795Y-5.1378
X6.2809Y-4.4291
X6.2815Y-5.2657
X6.2815Y-5.3071
X6.2856Y-5.4882
X6.2913Y-3.2713
X6.2933Y-5.5984
X6.2933Y-5.6299
X6.2933Y-5.6614
X6.3091Y-3.1713
X6.3189Y-3.0709
X6.3189Y-3.3228
X6.321Y-5.4882
X6.3327Y-5.5984
X6.3327Y-5.6299
X6.3504Y-3.6535
X6.3525Y-5.4882
X6.3701Y-3.185
X6.372Y-5.5984
X6.372Y-5.6299
X6.3789Y-4.4598
X6.3831Y-3.6587
X6.3879Y-5.4882
X6.3907Y-3.5157
X6.3976Y-3.435
X6.414Y-3.5437
X6.437Y-3.0709
X6.4409Y-3.2441
X6.4674Y-4.2441
X6.4764Y-3.5669
X6.4961Y-3.1299
X6.4961Y-3.8386
X6.4961Y-3.9173
X6.5276Y-3.3031
X6.5335Y-4.7539
X6.5354Y-4.7224
X6.5433Y-3.3543
X6.5472Y-3.4764
X6.5492Y-4.6516
X6.5512Y-4.2717
X6.5551Y-3.7638
X6.5551Y-3.8386
X6.5748Y-3.1299
X6.5748Y-3.2283
X6.5748Y-3.3268
X6.5807Y-4.8661
X6.5807Y-4.9114
X6.5906Y-3.4291
X6.5945Y-3.9173
X6.6084Y-5.5079
X6.6084Y-5.5394
X6.6102Y-3.6417
X6.6102Y-3.6772
X6.6181Y-4.2717
X6.636Y-5.5591
X6.6575Y-3.4882
X6.6675Y-5.5591
X6.6772Y-5.626
X6.6772Y-5.7047
X6.6772Y-5.7835
X6.6772Y-5.8543
X6.685Y-4.1063
X6.685Y-4.1654
X6.685Y-4.2244
X6.685Y-4.2717
X6.685Y-4.3268
X6.685Y-4.3858
X6.685Y-4.4449
X6.685Y-4.5039
X6.685Y-4.563
X6.689Y-5.3622
X6.6929Y-3.1299
X6.6929Y-3.2283
X6.695Y-5.5
X6.695Y-5.5315
X6.7008Y-4.8976
X6.7008Y-4.937
T2
X5.7362Y-3.2976
X5.7362Y-3.3528
X5.7638Y-3.2701
X5.7638Y-3.3252
X5.7638Y-3.3803
X5.7913Y-3.2976
X5.7913Y-3.3528
X5.8189Y-3.2701
X5.8189Y-3.3252
X5.8189Y-3.3803
X5.8465Y-3.2976
X5.8465Y-3.3528
T3
X6.4488Y-5.0512
X6.4488Y-5.1024
X6.4488Y-5.1535
X6.4921Y-5.0512
X6.4921Y-5.1024
X6.4921Y-5.1535
X6.5591Y-5.0079
X6.5591Y-5.0472
X6.5591Y-5.0866
X6.5591Y-5.126
X6.6024Y-5.0079
X6.6024Y-5.0472
X6.6024Y-5.0866
X6.6024Y-5.126
X6.6496Y-5.0079
X6.6496Y-5.0472
X6.6496Y-5.0866
X6.6496Y-5.126
T5
X5.1762Y-5.1614
X5.1762Y-5.2114
X5.1762Y-5.2614
X5.1762Y-5.3114
T6
X5.6417Y-5.7382
X6.0748Y-5.7382
T7
X5.128Y-4.0315
X5.128Y-4.1693
X5.128Y-4.374
X5.128Y-4.5118
X6.5748Y-4.0335
X6.5748Y-4.1713
X6.5748Y-4.376
X6.5748Y-4.5138
T8
X5.7598Y-5.5413
X5.9567Y-5.5413
T4
G00X5.1124Y-5.614
M15
G01X5.1124Y-5.6573
M16
G05
G00X5.1124Y-5.7884
M15
G01X5.1124Y-5.812
M16
G05
G00X5.4526Y-5.614
M15
G01X5.4526Y-5.6573
M16
G05
G00X5.4526Y-5.7884
M15
G01X5.4526Y-5.812
M16
G05
M30
